<svg fill="#4F6379" xmlns="http://www.w3.org/2000/svg" xmlns:xlink="http://www.w3.org/1999/xlink" version="1.1" x="0px" y="0px" viewBox="0 0 100 100" enable-background="new 0 0 100 100" xml:space="preserve"><metadata><?xpacket begin="&#65279;" id="W5M0MpCehiHzreSzNTczkc9d"?><x:xmpmeta xmlns:x="adobe:ns:meta/" x:xmptk="Adobe XMP Core 5.6-c011 79.156289, 2014/03/31-23:39:12        "></x:xmpmeta><?xpacket end="w"?></metadata><g><g><g><rect x="32.2" y="76.4" width="35.7" height="3.2"></rect></g></g><g><g><rect x="28.9" y="81.2" width="42.2" height="3.2"></rect></g></g><g><g><g><rect x="63" y="50.4" width="3.2" height="28.4"></rect></g></g><g><g><rect x="53.2" y="50.4" width="3.2" height="28.4"></rect></g></g><g><g><rect x="43.5" y="50.4" width="3.2" height="28.4"></rect></g></g><g><g><rect x="33.8" y="50.4" width="3.2" height="28.4"></rect></g></g></g><g><g><rect x="47.6" y="16.3" width="3.2" height="18.7"></rect></g></g><g><g><path d="M64.6,26.9h-17V15.5h17V26.9z M50.8,23.6h10.5v-4.9H50.8V23.6z"></path></g></g><g><g><path d="M70.2,52.8H30l0.2-1.8c1.1-10,9.8-17.9,19.9-17.9c10,0,18.8,7.8,19.9,17.9L70.2,52.8z M33.7,49.6h32.7     c-1.7-7.5-8.5-13.2-16.4-13.2S35.4,42.1,33.7,49.6z"></path></g></g></g></svg>