<?xml version="1.0" encoding="utf-8"?>
<!-- Generator: Adobe Illustrator 22.0.1, SVG Export Plug-In . SVG Version: 6.00 Build 0)  -->
<svg version="1.1" id="Layer_1" xmlns="http://www.w3.org/2000/svg" xmlns:xlink="http://www.w3.org/1999/xlink" x="0px" y="0px"
	 viewBox="0 0 48 48" style="enable-background:new 0 0 48 48;" xml:space="preserve">
<style type="text/css">
	.st0{fill:none;stroke:#D9776B;stroke-width:2;stroke-miterlimit:10;}
</style>
<g>
	<path class="st0" d="M18.7,16.5v-5.7h-4.9v5.7c0,1.5-0.9,3-2.4,3.8l0,0C9.9,21,9,22.4,9,24v16h14.6V24c0-1.5-0.9-3-2.4-3.8l0,0
		C19.6,19.5,18.7,18.1,18.7,16.5z"/>
	<g>
		<g>
			<path class="st0" d="M33.2,32.3L33.2,32.3c-3.8,0-6.7-3.2-6.4-6.9l0.8-9.7h11.1l0.8,9.7C39.8,29.1,36.9,32.3,33.2,32.3z"/>
			<line class="st0" x1="33.2" y1="32.3" x2="33.2" y2="40"/>
			<line class="st0" x1="29" y1="40" x2="37.3" y2="40"/>
		</g>
		<polyline class="st0" points="27.2,20.5 30.2,21.9 33.2,20.5 36.2,21.9 39.1,20.5 		"/>
	</g>
	<rect x="11.8" y="8" class="st0" width="9" height="2.8"/>
</g>
</svg>
