<svg fill="#D9776B" xmlns="http://www.w3.org/2000/svg" xmlns:xlink="http://www.w3.org/1999/xlink" version="1.1" x="0px" y="0px" viewBox="0 0 48 48" style="enable-background:new 0 0 48 48;" xml:space="preserve"><style type="text/css">
	.st0{fill:none;stroke:#D9776B;stroke-width:2;stroke-miterlimit:10;}
	.st1{fill:none;stroke:#D9776B;stroke-width:2;stroke-linecap:round;stroke-linejoin:round;stroke-miterlimit:10;}
	.st2{fill:none;stroke:#D9776B;stroke-width:2;stroke-linejoin:round;stroke-miterlimit:10;}
	.st3{fill:none;stroke:#D9776B;stroke-width:2;stroke-miterlimit:10;stroke-dasharray:2,2.5;}
	.st4{fill:none;stroke:#D9776B;stroke-width:2;stroke-miterlimit:10;stroke-dasharray:2;}
	.st5{fill:none;stroke:#D9776B;stroke-width:2;stroke-linejoin:bevel;stroke-miterlimit:10;}
	.st6{fill:none;stroke:#D9776B;stroke-width:2;stroke-miterlimit:10;stroke-dasharray:2,2;}
</style><g><path class="st0" d="M16,13.2V5H9v8.2c0,2.2-1.3,4.3-3.5,5.4l0,0C3.3,19.7,2,21.8,2,24v23h21V24c0-2.2-1.3-4.3-3.5-5.4l0,0   C17.3,17.5,16,15.5,16,13.2z"></path><g><g><path class="st0" d="M36.8,36L36.8,36c-5.4,0-9.6-4.6-9.2-10l1.2-14h16L46,26C46.4,31.4,42.2,36,36.8,36z"></path><line class="st0" x1="36.8" y1="36" x2="36.8" y2="47"></line><line class="st0" x1="30.8" y1="47" x2="42.8" y2="47"></line></g><polyline class="st0" points="28.2,19 32.5,21 36.8,19 41.1,21 45.4,19   "></polyline></g><rect x="6" y="1" class="st0" width="13" height="4"></rect></g></svg>