<svg fill="#5388AA" xmlns="http://www.w3.org/2000/svg" xmlns:xlink="http://www.w3.org/1999/xlink" version="1.1" x="0px" y="0px" viewBox="0 0 48 48" enable-background="new 0 0 48 48" xml:space="preserve"><g><path fill="#5388AA" d="M37.3,36c1.9,0,3.5-1.6,3.5-3.5S39.3,29,37.3,29s-3.5,1.6-3.5,3.5S35.4,36,37.3,36z M37.3,31   c0.8,0,1.5,0.7,1.5,1.5c0,0.8-0.7,1.5-1.5,1.5s-1.5-0.7-1.5-1.5C35.8,31.7,36.5,31,37.3,31z"></path><path fill="#5388AA" d="M28.4,36c1.9,0,3.5-1.6,3.5-3.5S30.4,29,28.4,29s-3.5,1.6-3.5,3.5S26.5,36,28.4,36z M28.4,31   c0.8,0,1.5,0.7,1.5,1.5c0,0.8-0.7,1.5-1.5,1.5s-1.5-0.7-1.5-1.5C26.9,31.7,27.6,31,28.4,31z"></path><path fill="#5388AA" d="M19.6,36c1.9,0,3.5-1.6,3.5-3.5S21.5,29,19.6,29S16,30.6,16,32.5S17.6,36,19.6,36z M19.6,31   c0.8,0,1.5,0.7,1.5,1.5c0,0.8-0.7,1.5-1.5,1.5S18,33.3,18,32.5C18,31.7,18.7,31,19.6,31z"></path><path fill="#5388AA" d="M10.7,36c1.9,0,3.5-1.6,3.5-3.5S12.6,29,10.7,29s-3.5,1.6-3.5,3.5S8.7,36,10.7,36z M10.7,31   c0.8,0,1.5,0.7,1.5,1.5c0,0.8-0.7,1.5-1.5,1.5s-1.5-0.7-1.5-1.5C9.2,31.7,9.8,31,10.7,31z"></path><path fill="#5388AA" d="M48,27.4C48,27.4,48,27.3,48,27.4C48,27.3,48,27.3,48,27.4c0-3.4-2.7-6.1-6.1-6.1h-6.3   c0.3-0.6,0.5-1.2,0.5-2c0-2.1-1.7-3.9-3.8-3.9C31,11.8,27.7,9.3,24,9.3c-3.7,0-7,2.5-8.4,6.1c-0.5,0-1.1,0.1-1.5,0.4L1.3,11.9   C0.8,11.7,0.2,12,0,12.5c-0.2,0.5,0.1,1.1,0.7,1.2l11.7,3.6c-0.4,0.6-0.6,1.3-0.6,2c0,0.7,0.2,1.4,0.5,2H6.1c-3.3,0-6.1,2.7-6.1,6   c0,0,0,0,0,0c0,0,0,0,0,0h0c0,0.2,0,0.3,0.1,0.5l3.5,6.6c1.4,2.6,4.1,4.2,7,4.2h26.7c3,0,5.7-1.6,7-4.2l3.5-6.6   C48,27.7,48,27.5,48,27.4L48,27.4z M24,11.3c2.6,0,5,1.6,6.2,4H17.8C19,12.9,21.4,11.3,24,11.3z M13.8,19.3c0-1.1,0.9-2,2-2h16.5   c1.1,0,2,0.9,2,2s-0.9,2-2,2H15.8C14.7,21.3,13.8,20.4,13.8,19.3z M6.1,23.3h35.8c1.9,0,3.5,1.3,3.9,3.1H2.1   C2.6,24.6,4.2,23.3,6.1,23.3z M42.6,33.5c-1,2-3.1,3.2-5.3,3.2H10.6c-2.2,0-4.2-1.2-5.3-3.2l-2.7-5.1h42.7L42.6,33.5z"></path></g></svg>