<svg fill="#857799" xmlns="http://www.w3.org/2000/svg" xmlns:xlink="http://www.w3.org/1999/xlink" version="1.1" x="0px" y="0px" viewBox="0 0 100 100" enable-background="new 0 0 100 100" xml:space="preserve"><path d="M89.021,22.619H73.253v-8.282c0-3.987-3.243-7.23-7.23-7.23H33.977c-3.986,0-7.229,3.243-7.229,7.23v8.282H10.979  c-3.986,0-7.229,3.243-7.229,7.229v55.814c0,3.987,3.243,7.23,7.229,7.23h78.041c3.986,0,7.229-3.243,7.229-7.23V29.849  C96.25,25.862,93.007,22.619,89.021,22.619z M31.747,14.337c0-1.229,1-2.23,2.229-2.23h32.046c1.229,0,2.23,1.001,2.23,2.23v8.282  H31.747V14.337z M10.979,27.619h78.041c1.229,0,2.229,1,2.229,2.229v17.17l-41.003,9.91L8.75,47.014V29.849  C8.75,28.619,9.75,27.619,10.979,27.619z M89.021,87.894H10.979c-1.229,0-2.229-1.001-2.229-2.23V52.154l40.919,9.777  C49.86,61.978,50.055,62,50.25,62c0.197,0,0.395-0.023,0.587-0.07l40.413-9.768v33.501C91.25,86.893,90.25,87.894,89.021,87.894z"></path></svg>