<svg fill="#857799" xmlns="http://www.w3.org/2000/svg" xmlns:xlink="http://www.w3.org/1999/xlink" version="1.1" x="0px" y="0px" viewBox="0 0 64 64" style="enable-background:new 0 0 64 64;" xml:space="preserve"><path d="M35,8c-0.553,0-1,0.447-1,1v25H9c-0.553,0-1,0.447-1,1c0,14.888,12.112,27,27,27s27-12.112,27-27S49.888,8,35,8z   M52.434,17.107L36,32.676V10.02C42.38,10.272,48.149,12.931,52.434,17.107z M35,60c-13.45,0-24.453-10.677-24.98-24H35  c0.267,0,0.505-0.108,0.685-0.277l0.003,0.003l0.018-0.017c0.001-0.001,0.002-0.001,0.002-0.002l18.105-17.152  C57.663,22.953,60,28.708,60,35C60,48.785,48.785,60,35,60z"></path><path d="M30,29V3c0-0.553-0.447-1-1-1C14.112,2,2,14.112,2,29c0,0.553,0.447,1,1,1h26C29.553,30,30,29.553,30,29z M28,28H4.02  C4.533,15.009,15.009,4.533,28,4.02V28z"></path><rect x="8" y="24" width="2" height="2"></rect><rect x="12" y="24" width="2" height="2"></rect><rect x="16" y="24" width="2" height="2"></rect><rect x="20" y="24" width="2" height="2"></rect><rect x="24" y="24" width="2" height="2"></rect><rect x="12" y="20" width="2" height="2"></rect><rect x="16" y="20" width="2" height="2"></rect><rect x="20" y="20" width="2" height="2"></rect><rect x="24" y="20" width="2" height="2"></rect><rect x="16" y="16" width="2" height="2"></rect><rect x="20" y="16" width="2" height="2"></rect><rect x="24" y="16" width="2" height="2"></rect><rect x="20" y="12" width="2" height="2"></rect><rect x="24" y="12" width="2" height="2"></rect><rect x="24" y="8" width="2" height="2"></rect></svg>