<?xml version="1.0" encoding="utf-8"?>
<!-- Generator: Adobe Illustrator 22.0.1, SVG Export Plug-In . SVG Version: 6.00 Build 0)  -->
<svg version="1.1" id="Layer_1" xmlns="http://www.w3.org/2000/svg" xmlns:xlink="http://www.w3.org/1999/xlink" x="0px" y="0px"
	 viewBox="0 0 64 64" style="enable-background:new 0 0 64 64;" xml:space="preserve">
<style type="text/css">
	.st0{fill:#857799;stroke:#857799;stroke-miterlimit:10;}
</style>
<path class="st0" d="M34.1,11.9c-0.5,0-0.8,0.4-0.8,0.8v20.6H12.8c-0.5,0-0.8,0.4-0.8,0.8c0,12.2,10,22.2,22.2,22.2
	s22.2-10,22.2-22.2S46.4,11.9,34.1,11.9z M48.5,19.4L35,32.2V13.6C40.2,13.8,45,16,48.5,19.4z M34.1,54.7C23.1,54.7,14,45.9,13.6,35
	h20.6c0.2,0,0.4-0.1,0.6-0.2l0,0l0,0c0,0,0,0,0,0l14.9-14.1c3.2,3.6,5.1,8.4,5.1,13.5C54.7,45.5,45.5,54.7,34.1,54.7z"/>
<path class="st0" d="M30,29.2V7.8C30,7.4,29.7,7,29.2,7C17,7,7,17,7,29.2C7,29.7,7.4,30,7.8,30h21.4C29.7,30,30,29.7,30,29.2z
	 M28.4,28.4H8.7c0.4-10.7,9-19.3,19.7-19.7V28.4z"/>
<rect x="11.9" y="25.1" class="st0" width="1.6" height="1.6"/>
<rect x="15.2" y="25.1" class="st0" width="1.6" height="1.6"/>
<rect x="18.5" y="25.1" class="st0" width="1.6" height="1.6"/>
<rect x="21.8" y="25.1" class="st0" width="1.6" height="1.6"/>
<rect x="25.1" y="25.1" class="st0" width="1.6" height="1.6"/>
<rect x="15.2" y="21.8" class="st0" width="1.6" height="1.6"/>
<rect x="18.5" y="21.8" class="st0" width="1.6" height="1.6"/>
<rect x="21.8" y="21.8" class="st0" width="1.6" height="1.6"/>
<rect x="25.1" y="21.8" class="st0" width="1.6" height="1.6"/>
<rect x="18.5" y="18.5" class="st0" width="1.6" height="1.6"/>
<rect x="21.8" y="18.5" class="st0" width="1.6" height="1.6"/>
<rect x="25.1" y="18.5" class="st0" width="1.6" height="1.6"/>
<rect x="21.8" y="15.2" class="st0" width="1.6" height="1.6"/>
<rect x="25.1" y="15.2" class="st0" width="1.6" height="1.6"/>
<rect x="25.1" y="11.9" class="st0" width="1.6" height="1.6"/>
</svg>
