<?xml version="1.0" encoding="utf-8"?>
<!-- Generator: Adobe Illustrator 22.0.1, SVG Export Plug-In . SVG Version: 6.00 Build 0)  -->
<svg version="1.1" id="Layer_1" xmlns="http://www.w3.org/2000/svg" xmlns:xlink="http://www.w3.org/1999/xlink" x="0px" y="0px"
	 viewBox="0 0 64 64" style="enable-background:new 0 0 64 64;" xml:space="preserve">
<style type="text/css">
	.st0{fill:#4F6379;stroke:#4F6379;stroke-miterlimit:10;}
</style>
<g>
	<path class="st0" d="M23.3,19.6c0,8.6,7,15.6,15.6,15.6s15.6-7,15.6-15.6S47.5,4,38.9,4S23.3,11,23.3,19.6z M52.7,19.6
		c0,7.6-6.2,13.7-13.8,13.7s-13.8-6.2-13.8-13.7S31.3,5.8,38.9,5.8S52.7,12,52.7,19.6z"/>
	<path class="st0" d="M5.9,56.3h7.3c0.5,0,0.9-0.4,0.9-0.9v-0.7L34,59c0.1,0,0.1,0,0.2,0c0.1,0,0.2,0,0.2,0l13.9-3.7
		c0.2-0.1,0.4-0.2,0.5-0.4l10.5-14.6c1.1-1.4,1-3.4-0.2-4.6c-0.7-0.7-1.7-1.1-2.7-1.1c-1,0-2,0.5-2.6,1.3l-8.9,11.2l-11.2,2.2
		c-0.3,0.1-0.5,0-0.8-0.2c-0.2-0.2-0.3-0.4-0.3-0.7v-0.9c0-0.4,0.3-0.8,0.7-0.9l9.5-2c1.5-0.3,2.7-1.7,2.7-3.3
		c0-0.9-0.4-1.8-1.1-2.5c-0.7-0.6-1.6-1-2.5-0.9l-11,0.7L22.6,37c-0.2,0-0.4,0-0.5,0l-7.9,3.2v-1.4c0-0.5-0.4-0.9-0.9-0.9H5.9
		c-0.5,0-0.9,0.4-0.9,0.9v16.5C5,55.8,5.4,56.3,5.9,56.3z M22.5,38.9l8,1.8c0.1,0,0.2,0,0.3,0l11.1-0.7c0.4,0,0.8,0.1,1.1,0.4
		c0.3,0.3,0.5,0.7,0.5,1.1c0,0.7-0.5,1.3-1.2,1.5l-9.5,2c-1.3,0.3-2.2,1.4-2.2,2.7v0.9c0,0.8,0.4,1.6,1,2.1c0.6,0.5,1.5,0.7,2.3,0.6
		l11.6-2.3c0.2,0,0.4-0.2,0.5-0.3l9.1-11.4c0.3-0.4,0.8-0.6,1.3-0.6c0.5,0,1,0.2,1.3,0.5c0.6,0.6,0.6,1.6,0.1,2.3L47.5,53.6
		l-13.3,3.5l-20-4.4V42.2L22.5,38.9z M6.8,39.8h5.5v1.8v11.9v0.9H6.8V39.8z"/>
	<g>
		<path class="st0" d="M42.4,25.6c-0.6,0.4-1.7,0.8-3,0.8c-1.6,0-3.1-0.6-4.1-1.8c-0.8-0.8-1.3-2-1.4-3.4h-1.2v-1h1.1
			c0-0.1,0-0.2,0-0.3c0-0.3,0-0.6,0-0.9h-1.2v-1H34c0.2-1.4,0.8-2.6,1.6-3.4c1-1.1,2.3-1.7,4-1.7c1.2,0,2.1,0.3,2.7,0.6L41.8,15
			c-0.5-0.3-1.3-0.6-2.2-0.6c-1.1,0-2,0.4-2.6,1.1c-0.6,0.6-1,1.5-1.2,2.5h5.6v1h-5.8c0,0.3,0,0.6,0,0.8c0,0.1,0,0.2,0,0.4h5.8v1
			h-5.7c0.2,1.2,0.6,2,1.1,2.6c0.7,0.8,1.7,1.2,2.8,1.2c1.1,0,2-0.4,2.4-0.7L42.4,25.6z"/>
	</g>
</g>
</svg>
