<?xml version="1.0" encoding="utf-8"?>
<!-- Generator: Adobe Illustrator 22.0.1, SVG Export Plug-In . SVG Version: 6.00 Build 0)  -->
<svg version="1.1" id="Layer_1" xmlns="http://www.w3.org/2000/svg" xmlns:xlink="http://www.w3.org/1999/xlink" x="0px" y="0px"
	 viewBox="0 0 100 100" style="enable-background:new 0 0 100 100;" xml:space="preserve">
<style type="text/css">
	.st0{fill:#B7888A;stroke:#B7888A;stroke-miterlimit:10;}
</style>
<path class="st0" d="M79,25.2H21c-0.6,0-1,0.4-1,1v32.2c0,0.6,0.4,1,1,1h58c0.6,0,1-0.4,1-1V26.2C80,25.6,79.6,25.2,79,25.2z
	 M22,34.4c3.8-0.5,6.8-3.5,7.3-7.3h41.5c0.5,3.8,3.5,6.8,7.3,7.3V50c-3.8,0.5-6.8,3.5-7.3,7.3H29.3c-0.5-3.8-3.5-6.8-7.3-7.3V34.4z
	 M78,32.4c-2.7-0.4-4.8-2.6-5.2-5.2H78V32.4z M27.2,27.2c-0.4,2.7-2.6,4.8-5.2,5.2v-5.2H27.2z M22,52.1c2.7,0.4,4.8,2.5,5.2,5.2H22
	V52.1z M72.8,57.3c0.4-2.7,2.6-4.8,5.2-5.2v5.2H72.8z M50,50.6c4.6,0,8.3-3.7,8.3-8.3S54.6,34,50,34s-8.3,3.7-8.3,8.3
	S45.4,50.6,50,50.6z M50,35.9c3.5,0,6.3,2.8,6.3,6.3s-2.8,6.3-6.3,6.3s-6.3-2.8-6.3-6.3S46.5,35.9,50,35.9z M80,63.5
	c0,0.6-0.4,1-1,1H21c-0.6,0-1-0.4-1-1s0.4-1,1-1h58C79.6,62.5,80,62.9,80,63.5z M80,68.7c0,0.6-0.4,1-1,1H21c-0.6,0-1-0.4-1-1
	s0.4-1,1-1h58C79.6,67.7,80,68.1,80,68.7z M80,73.8c0,0.6-0.4,1-1,1H21c-0.6,0-1-0.4-1-1s0.4-1,1-1h58C79.6,72.8,80,73.3,80,73.8z"
	/>
</svg>
