<svg fill="#8FCFEE" xmlns="http://www.w3.org/2000/svg" xmlns:xlink="http://www.w3.org/1999/xlink" version="1.1" x="0px" y="0px" viewBox="0 0 100 100" style="enable-background:new 0 0 100 100;" xml:space="preserve"><style type="text/css">
	.st0{display:none;}
	.st1{fill:#8FCFEE;}
</style><g><path class="st1" d="M26.7,39c2.4,0,4.3-1.9,4.3-4.3s-1.9-4.3-4.3-4.3s-4.3,1.9-4.3,4.3S24.3,39,26.7,39z M26.7,32.6   c1.2,0,2.1,1,2.1,2.1s-1,2.1-2.1,2.1s-2.1-1-2.1-2.1S25.5,32.6,26.7,32.6z"></path><path class="st1" d="M40.4,53.7c0.2,0.2,0.5,0.3,0.8,0.3s0.5-0.1,0.8-0.3c0.4-0.4,0.4-1.1,0-1.5L31.5,41.6   c-0.1-0.1-0.2-0.2-0.3-0.2c-0.1,0-0.2-0.1-0.4-0.1l0,0h-8.1c-0.4,0-0.8,0.3-1,0.6L11.4,52.1c-0.4,0.4-0.4,1.1,0,1.5   c0.2,0.2,0.5,0.3,0.8,0.3s0.5-0.1,0.8-0.3l8.6-8.6v13.5v16c0,0.6,0.5,1.1,1.1,1.1s1.1-0.5,1.1-1.1V59.7h6v14.9   c0,0.6,0.5,1.1,1.1,1.1s1.1-0.5,1.1-1.1v-16V45L40.4,53.7z M23.7,43.5h6v14.1h-6V43.5z"></path><path class="st1" d="M73.3,39c2.4,0,4.3-1.9,4.3-4.3s-1.9-4.3-4.3-4.3S69,32.3,69,34.7S70.9,39,73.3,39z M73.3,32.6   c1.2,0,2.1,1,2.1,2.1s-1,2.1-2.1,2.1s-2.1-1-2.1-2.1S72.1,32.6,73.3,32.6z"></path><path class="st1" d="M88.6,52.2L78.2,41.7l0,0c-0.1-0.1-0.2-0.2-0.3-0.2c-0.1-0.1-0.3-0.1-0.4-0.1l0,0h-8.1c-0.4,0-0.8,0.3-1,0.6   L58.1,52.1c-0.4,0.4-0.4,1.1,0,1.5c0.2,0.2,0.5,0.3,0.8,0.3s0.5-0.1,0.7-0.3l8.7-8.6v13.6v16c0,0.6,0.5,1.1,1.1,1.1   s1.1-0.5,1.1-1.1V59.7h6v14.9c0,0.6,0.5,1.1,1.1,1.1s1.1-0.5,1.1-1.1v-16V45l8.6,8.7c0.2,0.2,0.5,0.3,0.8,0.3s0.5-0.1,0.7-0.3   C89,53.2,89,52.6,88.6,52.2z M70.4,43.5h6v14.1h-6V43.5z"></path><path class="st1" d="M54.6,52.2L54.6,52.2c-0.1-0.1-0.2-0.2-0.3-0.2c-0.1-0.1-0.3-0.1-0.4-0.1l0,0h-7.6h-0.1c-0.1,0-0.2,0-0.3,0.1   s-0.2,0.1-0.3,0.2l0,0l-6.2,6.2c-0.4,0.4-0.4,1.1,0,1.5c0.2,0.2,0.5,0.3,0.8,0.3s0.5-0.1,0.8-0.3l4.4-4.4v11.1v8   c0,0.6,0.5,1.1,1.1,1.1s1.1-0.5,1.1-1.1v-6.9h5.5v6.9c0,0.6,0.5,1.1,1.1,1.1s1.1-0.5,1.1-1.1v-8V55.5l4.3,4.3   c0.2,0.2,0.5,0.3,0.8,0.3s0.5-0.1,0.7-0.3c0.4-0.4,0.4-1.1,0-1.5L54.6,52.2z M47.6,54h5.5v11.6h-5.5V54z"></path><path class="st1" d="M50,49c2.2,0,4-1.8,4-4s-1.8-4-4-4s-4,1.8-4,4S47.8,49,50,49z M50,43.2c1,0,1.8,0.8,1.8,1.8S51,46.8,50,46.8   S48.2,46,48.2,45S49,43.2,50,43.2z"></path></g></svg>