<?xml version="1.0" encoding="utf-8"?>
<!-- Generator: Adobe Illustrator 22.0.1, SVG Export Plug-In . SVG Version: 6.00 Build 0)  -->
<svg version="1.1" id="Layer_1" xmlns="http://www.w3.org/2000/svg" xmlns:xlink="http://www.w3.org/1999/xlink" x="0px" y="0px"
	 viewBox="0 0 100 100" style="enable-background:new 0 0 100 100;" xml:space="preserve">
<style type="text/css">
	.st0{fill:#857799;}
</style>
<title>100all</title>
<path class="st0" d="M84.3,67.3c-0.2-0.7-0.9-1.1-1.6-1.1h-9.4v-14c0-2.8-2.3-5.1-5.1-5.1h-1.3v-4.3c0-1.9-0.7-3.7-2-5.1L40.3,12.3
	c-2.6-2.7-6.7-3.1-9.8-1l-11.8,7.8c-2.2,1.4-3.3,4-3,6.5l2.3,17.5c0.1,2.4,1,4.8,2.6,6.6l4.1,4.7v11.7h-7.8c-0.7,0-1.4,0.5-1.6,1.2
	L8.4,87.8c-0.3,0.9,0.3,1.8,1.2,2.1C9.7,90,9.9,90,10,90h79.4c0.9,0,1.7-0.8,1.7-1.7c0-0.2,0-0.4-0.1-0.5L84.3,67.3z M21.5,43
	c0-0.1,0-0.1,0-0.2l-2.3-17.6c-0.2-1.3,0.4-2.6,1.5-3.3l11.8-7.8c1.7-1.2,4-0.9,5.4,0.6L62.4,40c0.7,0.8,1.1,1.8,1.1,2.8v4.3H40.5
	L39,44c-0.4-0.8-1.5-1.1-2.3-0.7c-0.8,0.4-1.1,1.4-0.7,2.2l9.6,18.9c1,2.1,0.2,4.6-1.9,5.6c-1.1,0.5-2.3,0.6-3.4,0.2L40,70.1
	c-0.9-0.3-1.6-1-2.1-1.8l-6.3-10.9c-0.2-0.4-0.5-0.8-0.8-1.1l-7.6-8.8C22.1,46.3,21.5,44.7,21.5,43z M28.2,58.6
	c0.2,0.2,0.3,0.4,0.4,0.6L35,70.1c0.9,1.5,2.2,2.6,3.8,3.2l0.3,0.1c0.9,0.3,1.8,0.5,2.8,0.5c4.2,0,7.6-3.4,7.6-7.6
	c0-1.2-0.3-2.3-0.8-3.4l-6.3-12.5h25.9c0.9,0,1.7,0.8,1.7,1.7v26.4H28.1V58.4L28.2,58.6z M12.4,86.6l5.7-17h6.6v9h-3.3
	c-0.9,0-1.7,0.8-1.7,1.7c0,0.9,0.8,1.7,1.7,1.7h55c0.9,0,1.7-0.8,1.7-1.7c0-0.9-0.8-1.7-1.7-1.7h-3.1v-9h8.2l5.7,17H12.4z"/>
</svg>
