<svg fill="#D9776B" xmlns="http://www.w3.org/2000/svg" xmlns:xlink="http://www.w3.org/1999/xlink" version="1.1" x="0px" y="0px" viewBox="0 0 100 100" enable-background="new 0 0 100 100" xml:space="preserve"><g><circle fill="none" cx="51.438" cy="32.615" r="4.844"></circle><circle fill="none" cx="67.344" cy="16.74" r="4.844"></circle><circle fill="none" cx="32.656" cy="83.157" r="4.844"></circle><path d="M59.406,32.756c0-4.401-3.568-7.969-7.97-7.969c-4.4,0-7.969,3.567-7.969,7.969c0,3.824,2.695,7.015,6.288,7.787v16.04   c-3.593,0.772-6.288,3.963-6.288,7.786c0,4.4,3.568,7.97,7.969,7.97c4.401,0,7.97-3.569,7.97-7.97c0-3.823-2.695-7.014-6.289-7.786   v-16.04C56.711,39.771,59.406,36.58,59.406,32.756z M51.438,37.458c-2.676,0-4.844-2.168-4.844-4.844   c0-2.675,2.168-4.844,4.844-4.844c2.674,0,4.844,2.169,4.844,4.844C56.281,35.29,54.111,37.458,51.438,37.458z"></path><path d="M67.31,40.529c-4.402,0-7.97,3.568-7.97,7.968c0,3.825,2.695,7.018,6.289,7.788v25.149H40.479   c-0.772-3.594-3.964-6.29-7.788-6.29c-4.401,0-7.97,3.569-7.97,7.971c0,4.4,3.568,7.97,7.97,7.97c3.824,0,7.016-2.696,7.788-6.289   H68.99V56.285c3.593-0.771,6.288-3.963,6.288-7.788C75.278,44.097,71.71,40.529,67.31,40.529z M32.656,88.001   c-2.675,0-4.844-2.169-4.844-4.844s2.169-4.845,4.844-4.845s4.844,2.17,4.844,4.845S35.331,88.001,32.656,88.001z"></path><path d="M32.691,59.469c4.401,0,7.969-3.566,7.969-7.967c0-3.824-2.694-7.016-6.288-7.787V16.947h24.972   c0.033,4.372,3.585,7.906,7.966,7.906c4.4,0,7.969-3.567,7.969-7.968c0-4.402-3.568-7.969-7.969-7.969   c-3.224,0-5.993,1.917-7.248,4.67H31.011v30.129c-3.594,0.771-6.289,3.963-6.289,7.787C24.722,55.902,28.29,59.469,32.691,59.469z    M67.344,11.896c2.675,0,4.844,2.169,4.844,4.844c0,2.675-2.169,4.844-4.844,4.844S62.5,19.415,62.5,16.74   C62.5,14.065,64.669,11.896,67.344,11.896z"></path></g></svg>