<svg fill="#D9776B" xmlns="http://www.w3.org/2000/svg" xmlns:xlink="http://www.w3.org/1999/xlink" version="1.1" x="0px" y="0px" viewBox="0 0 100 100" style="enable-background:new 0 0 100 100;" xml:space="preserve"><g><polygon points="44.3,62.2 55.8,50.7 50.5,50.7 55.7,40.2 44.2,51.7 49.5,51.7  "></polygon><path d="M33,30.9h34c1.3,0,2.4-1,2.4-2.4c0-1.3-1.1-2.4-2.4-2.4h-5.8V12.4c0-1.3-1.1-2.4-2.5-2.4c-1.3,0-2.5,1.1-2.5,2.4v13.7H43.8   V12.4c0-1.3-1.1-2.4-2.5-2.4s-2.5,1.1-2.5,2.4v13.7H33c-1.3,0-2.4,1-2.4,2.4C30.6,29.8,31.7,30.9,33,30.9z"></path><path d="M30.8,51.1c0,10.7,8.5,19.4,19.3,19.4c10.7,0,19.3-8.7,19.3-19.4V31.9H30.8V51.1z M35.4,36.7h29.2v14.4   c0,8-6.6,14.6-14.6,14.6c-8,0-14.6-6.5-14.6-14.6V36.7z"></path><path d="M58.4,69.6c-2.5,1.2-5.4,1.9-8.4,1.9s-5.8-0.7-8.4-1.9c-0.8,0.4-1.4,1.2-1.4,2.2c0,1.3,1.1,2.4,2.4,2.4h4.8v13.4   c0,1.3,1.1,2.4,2.5,2.4c1.3,0,2.5-1.1,2.5-2.4V74.2h4.8c1.3,0,2.4-1.1,2.4-2.4C59.7,70.8,59.2,70,58.4,69.6z"></path></g></svg>