<svg fill="#807796" xmlns="http://www.w3.org/2000/svg" xmlns:xlink="http://www.w3.org/1999/xlink" version="1.1" x="0px" y="0px" viewBox="-260 352 90 90" style="enable-background:new -260 352 90 90;" xml:space="preserve"><g><path d="M-202.5,413.1c0-0.1,0.1-0.1,0.1-0.2c0,0,0-0.1,0.1-0.1c0-0.1,0-0.1,0.1-0.2c0-0.1,0-0.1,0-0.2c0,0,0,0,0,0   c0.4-2.4,1.4-5.7,4.1-7.9c3.5-2.9,8.9-3.5,13.6-1.4c0,0,0,0,0,0c0.1,0,0.2,0.1,0.3,0.1c0,0,0.1,0,0.1,0c0.1,0,0.2,0,0.2,0   c0,0,0.1,0,0.1,0c0,0,0,0,0,0c0,0,0.1,0,0.1,0c0,0,0.1,0,0.1,0c0.1,0,0.1,0,0.2,0c0.1,0,0.1,0,0.2-0.1c0,0,0.1,0,0.1-0.1   c0.1,0,0.1-0.1,0.2-0.1c0,0,0.1-0.1,0.1-0.1c0.1,0,0.1-0.1,0.2-0.1c0,0,0.1-0.1,0.1-0.1c0,0,0.1-0.1,0.1-0.2c0,0,0.1-0.1,0.1-0.1   c0-0.1,0.1-0.1,0.1-0.2c0,0,0-0.1,0.1-0.1c0,0,0,0,0,0c0-0.1,0-0.1,0.1-0.2c0-0.1,0-0.1,0-0.2c0-0.1,0-0.1,0-0.2c0-0.1,0-0.1,0-0.2   c0,0,0,0,0-0.1c-0.2-3.6-1.4-6.5-3.5-8.5c-1.9-1.9-4.1-2.6-6-2.9c-2.3-0.5-4.5-0.7-6.6-0.9V378c0-1.1-0.9-2-2-2s-2,0.9-2,2v10.8   c-1.4,0-2.8,0-4.3,0.1l0-0.1c0-0.3-0.1-0.5-0.2-0.7l-4.7-15.4h0.6c1.1,0,2-0.9,2-2s-0.9-2-2-2h-28c-1.1,0-2,0.9-2,2s0.9,2,2,2h1.1   v16.2h-6.9c-1.1,0-2,0.9-2,2s0.9,2,2,2h19.1c0.2,0.5,0.5,1.1,0.8,1.8c1.6,2.9,3.6,5.6,5.9,7.9v9.6c0,1.1,0.9,2,2,2h12.3   c0,0,0,0,0,0c0,0,0,0,0,0c0.1,0,0.3,0,0.4,0c0,0,0.1,0,0.1,0c0.1,0,0.2,0,0.2-0.1c0,0,0.1,0,0.1-0.1c0.1,0,0.1-0.1,0.2-0.1   c0,0,0.1-0.1,0.1-0.1c0.1,0,0.1-0.1,0.2-0.1c0,0,0.1-0.1,0.1-0.1c0-0.1,0.1-0.1,0.1-0.2C-202.5,413.2-202.5,413.2-202.5,413.1z    M-187.9,395.5c0.9,0.8,1.4,1.8,1.7,2.8c-5.2-1.2-10.6-0.1-14.4,3.1c-2.5,2.1-4.3,5-5.2,8.6h-0.3v-17.2c2.1-0.1,4.2-0.2,6.2-0.1   c2.4,0.1,5.2,0.3,7.9,0.9C-190.7,393.9-189.2,394.2-187.9,395.5z M-233.4,372.6h5.3v16.2h-5.3V372.6z M-220.8,392.8   c-0.5-1-0.9-1.9-1.3-2.7c-0.3-0.7-1-1.2-1.8-1.2h-0.2v-16.2h8.8l5.2,16.7V410h-4.4v-8.4c0-0.5-0.2-1.1-0.6-1.5   C-217.3,398.1-219.3,395.5-220.8,392.8z"></path><path d="M-205.8,416.5h-13c-1.1,0-2,0.9-2,2s0.9,2,2,2h13c1.1,0,2-0.9,2-2S-204.7,416.5-205.8,416.5z"></path><path d="M-190,403.8c-6,0-10.8,4.8-10.8,10.8s4.8,10.8,10.8,10.8s10.8-4.8,10.8-10.8S-184.1,403.8-190,403.8z M-190,421.3   c-3.7,0-6.8-3.1-6.8-6.8s3.1-6.8,6.8-6.8s6.8,3.1,6.8,6.8S-186.3,421.3-190,421.3z"></path><path d="M-236.1,395c-8.1,0-14.6,6.5-14.6,14.6c0,8,6.5,14.6,14.6,14.6s14.6-6.5,14.6-14.6C-221.5,401.6-228.1,395-236.1,395z    M-236.1,420.3c-5.8,0-10.6-4.8-10.6-10.6s4.8-10.6,10.6-10.6s10.6,4.8,10.6,10.6S-230.3,420.3-236.1,420.3z"></path><path d="M-190,411.5c-1.7,0-3,1.3-3,3s1.3,3,3,3s3-1.3,3-3S-188.4,411.5-190,411.5z M-190,415.5c-0.6,0-1-0.4-1-1s0.4-1,1-1   s1,0.4,1,1S-189.5,415.5-190,415.5z"></path><path d="M-236.1,406.7c-1.7,0-3,1.3-3,3s1.3,3,3,3s3-1.3,3-3S-234.5,406.7-236.1,406.7z M-236.1,410.7c-0.6,0-1-0.4-1-1s0.4-1,1-1   s1,0.4,1,1S-235.6,410.7-236.1,410.7z"></path></g></svg>