<svg fill="#8FCFEE" xmlns="http://www.w3.org/2000/svg" xmlns:xlink="http://www.w3.org/1999/xlink" version="1.1" x="0px" y="0px" viewBox="0 0 100 100" enable-background="new 0 0 100 100" xml:space="preserve"><g><g><path d="M87.2,31.9c0.3,0,0.6-0.1,0.9-0.2c1-0.5,1.4-1.7,0.9-2.7l-0.7-1.3c0-0.1,0-0.1-0.1-0.2L86.1,23c-0.1-0.2-0.2-0.3-0.3-0.4    l-0.7-1.5c-0.5-1-1.7-1.4-2.7-0.9c-1,0.5-1.4,1.6-0.9,2.6c-0.4,0.2-0.9,0.4-1.4,0.5c-1.5,0.6-3.2,1.2-5.1,2l-0.5-1    c-0.6-1.1-1.8-1.9-3.1-1.9c-0.6,0-1.1,0.1-1.6,0.4l-2,1.1c-1.7,0.9-2.3,3-1.4,4.7l0.3,0.5c-5.4,2.7-8.8,5.4-10.4,8    c-0.6,1.1-1.3,2.5-2,4.1c-0.7-1.6-1.4-3-2.2-4.2c3.4-2.4,5.6-6.4,5.6-10.9c0-3.1-1-5.9-2.8-8.1l6-4c0.9-0.6,1.2-1.9,0.6-2.8    c-0.6-0.9-1.9-1.2-2.8-0.6l-2.7,1.8c-5.5-8.7-23-5.3-23.7-5.2c-1,0.2-1.7,1.2-1.6,2.2l0.7,5.4c0.1,0.5,0.3,1,0.8,1.3    s1,0.5,1.5,0.4c0.5-0.1,0.9-0.1,1.4-0.2c-2.5,2.4-4.1,5.8-4.1,9.6c0,1,0.1,1.9,0.3,2.9L25,33.1c-0.9,0.6-1.2,1.9-0.6,2.8    c0.4,0.6,1,0.9,1.7,0.9c0.4,0,0.8-0.1,1.1-0.3l5.5-3.7c0.7,1.3,1.7,2.4,2.7,3.3c-2.2,2.8-3.7,5.6-4.5,8.3c-1.5,5.4-3,22-3.8,32.3    c-5,2-10,3.6-14.8,4.9c-1.1,0.3-1.7,1.4-1.4,2.4c0.2,0.9,1,1.5,1.9,1.5c0.2,0,0.3,0,0.5-0.1c5.3-1.4,10.8-3.2,16.4-5.5    c0,0,0,0,0,0c0,0,0,0,0,0c5.3-2.1,10.8-4.7,15.9-7.4c2.3-1.2,4-3.4,4.5-6c0.3-1.6,0.8-3.5,1.4-5.7l3.8,1.8    c-0.5,1.8-0.9,3.4-1.2,4.7c-0.8,3.8-3.2,7-6.6,8.8c-6.2,3.3-18.8,9.4-33.3,13.2c-1.1,0.3-1.7,1.4-1.4,2.4c0.2,0.9,1,1.5,1.9,1.5    c0.2,0,0.3,0,0.5-0.1c14.8-3.9,27.7-10.2,34.1-13.6c4.5-2.4,7.6-6.6,8.6-11.6c0.2-1.1,0.6-2.5,1-4c0.4,0.1,0.8,0.1,1.3,0.1    c1.8,0,3.6-0.7,4.9-1.9l12.9-12.2c1.4-1.3,2.2-3.1,2.2-5c0.1-1.9-0.6-3.7-1.9-5.1c-0.3-0.3-0.6-0.6-0.9-0.8l0.7-0.3    c0.8-0.4,1.4-1.2,1.7-2c0.3-0.9,0.2-1.8-0.2-2.6L79.5,34c2.1-1.2,4.1-2.2,6-3C85.9,31.5,86.5,31.9,87.2,31.9z M71.2,26.7l4.7,9    l-1.1,0.6l-3.7-7c0,0,0,0,0,0c0,0,0,0,0,0l-1-1.9L71.2,26.7z M59.6,39.2c0.8-1.4,3-3.6,8.8-6.5l1.4,2.7c-2.4,1.7-5.5,4.1-6.6,5.9    c-0.9,1.5-1.9,4-2.7,6.1l-1.4,1.4l-3-1.4C57.5,43.6,58.7,40.7,59.6,39.2z M52.6,14.8l-0.6,0.4c-1.8-1.3-3.9-2.1-6.2-2.3    c-3.7-0.8-8.1-0.6-10.8-0.3L34.8,11C40,10.3,49.6,10,52.6,14.8z M34.9,26.1c0-5.2,4.2-9.4,9.4-9.4c0.4,0,0.8,0,1.2,0.1    c1,0.2,1.9,0.6,2.4,1l-13,8.7C34.9,26.4,34.9,26.3,34.9,26.1z M51.6,20.2c1.3,1.6,2.1,3.7,2.1,5.9c0,5.2-4.2,9.4-9.4,9.4    c-3.6,0-6.7-2-8.3-4.9L51.6,20.2z M75.5,47.2L62.5,59.5c-0.9,0.9-2.3,1.1-3.4,0.6l-18-8.5c-1-0.5-2.2,0-2.7,1c-0.5,1,0,2.2,1,2.7    l8.6,4c-0.7,2.5-1.3,4.7-1.7,6.6c-0.3,1.4-1.2,2.6-2.5,3.3c-4,2.1-8.3,4.2-12.5,6c0.7-9.1,2.2-24.7,3.5-29.5    c0.8-2.7,2.5-5.3,4-7.2c1.7,0.8,3.5,1.2,5.5,1.2c1.5,0,2.9-0.2,4.2-0.7c1.1,1.7,2.2,3.8,2.9,6.3l-5.9-2.8c-1-0.5-2.2,0-2.7,1    c-0.5,1,0,2.2,1,2.7l14.9,7c0.7,0.4,1.6,0.2,2.2-0.4l10.4-9.8c1.2-1.2,3.2-1.1,4.4,0.1c0.6,0.6,0.9,1.4,0.8,2.2    C76.4,45.9,76.1,46.7,75.5,47.2z M76.9,29c1.7-0.7,3.3-1.3,4.7-1.8c0.6-0.2,1.2-0.5,1.8-0.7l0.4,0.9c-2,0.9-4,1.9-6.1,3.1L76.9,29    z"></path></g></g></svg>