<svg fill="#8FCFEE" xmlns="http://www.w3.org/2000/svg" xmlns:xlink="http://www.w3.org/1999/xlink" xml:space="preserve" version="1.1" style="shape-rendering:geometricPrecision;text-rendering:geometricPrecision;image-rendering:optimizeQuality;" viewBox="0 0 333 333" x="0px" y="0px" fill-rule="evenodd" clip-rule="evenodd"><defs><style type="text/css">
   
    .fil0 {fill:#8FCFEE;fill-rule:nonzero}
   
  </style></defs><g><path class="fil0" d="M301 164c6,-2 41,16 -62,32 34,98 2,73 1,68 -4,-25 -10,-47 -17,-66 -70,8 -166,-5 -201,-120 -1,-2 0,-7 5,-9 5,-2 143,-43 206,113 39,-6 68,-18 68,-18zm-262 -83c33,96 115,109 179,103 -52,-121 -151,-109 -179,-103z"></path></g></svg>