<svg fill="#807796" xmlns="http://www.w3.org/2000/svg" data-name="Layer 1" viewBox="0 0 100 100" x="0px" y="0px"><title>Artboard 25</title><path d="M46.92,76.9,36.27,93.09a8.57,8.57,0,0,1-5.45,3.67,8.28,8.28,0,0,1-1.61.16,7.85,7.85,0,0,1-4.42-1.35,8,8,0,0,1-3.46-5.43,8.16,8.16,0,0,1,1.57-6.24l14.65-19a2,2,0,1,1,3.17,2.45l-14.65,19a4.12,4.12,0,0,0,1,5.92,3.94,3.94,0,0,0,3,.58,4.54,4.54,0,0,0,2.89-1.94L43.57,74.7a2,2,0,0,1,3.34,2.2ZM89,5.22c-3.73-2.66-8.8-2.86-14.26-.55A34.06,34.06,0,0,0,60.79,16.41c-5.06,7.1-7.43,15.23-6.33,21.75a9.26,9.26,0,0,1-.39,4.5,2,2,0,1,0,3.79,1.29,13.28,13.28,0,0,0,.55-6.45c-.91-5.42,1.25-12.61,5.64-18.77A30,30,0,0,1,76.27,8.36c4.14-1.74,7.82-1.7,10.38.13s3.81,5.29,3.51,9.77A30,30,0,0,1,84.35,33.2C80,39.37,73.86,43.76,68.44,44.66a13.3,13.3,0,0,0-5.82,2.54,14.51,14.51,0,0,0-1.33,1.15,2,2,0,0,0,2.79,2.86,10.36,10.36,0,0,1,1-.83,9.28,9.28,0,0,1,4.05-1.78c6.53-1.09,13.44-6,18.51-13.08a34.07,34.07,0,0,0,6.55-17C94.55,12.61,92.71,7.88,89,5.22ZM45.35,41.59a.54.54,0,0,1,0-.53,12.41,12.41,0,0,0-1.24-12.22L26.25,3.92A2,2,0,1,0,23,6.25L40.84,31.17a8.39,8.39,0,0,1,.84,8.27,4.52,4.52,0,0,0,.51,4.6l33,42.68a3.85,3.85,0,1,1-6.25,4.48L39,46.3a4.54,4.54,0,0,0-4.2-2,8.39,8.39,0,0,1-7.57-3.44L9.42,16a2,2,0,1,0-3.25,2.33L24,43.24a12.39,12.39,0,0,0,11.2,5.09.54.54,0,0,1,.5.19L65.6,93.41a7.79,7.79,0,0,0,5.12,3.38,7.94,7.94,0,0,0,1.43.13,7.85,7.85,0,0,0,6.19-12.65ZM32.57,36.21a2,2,0,0,0,1.64-3.15L17.91,9.78a2,2,0,1,0-3.28,2.29l16.3,23.28A2,2,0,0,0,32.57,36.21Z"></path></svg>