<svg fill="#857799" xmlns="http://www.w3.org/2000/svg" xmlns:xlink="http://www.w3.org/1999/xlink" version="1.1" x="0px" y="0px" viewBox="0 0 64 64" enable-background="new 0 0 64 64" xml:space="preserve"><path fill="#857799" d="M32,2c-2.8,0-5.1,2.4-5.1,5.3c0,2.4,1.9,7.7,5.1,7.7s5.1-5.4,5.1-7.7C37.1,4.4,34.8,2,32,2z M32,4  c1.2,0,2.3,0.8,2.8,2h-5.7C29.7,4.8,30.8,4,32,4z M32,13c-1.2,0-2.7-2.9-3-5H35C34.7,10.1,33.2,13,32,13z"></path><path fill="#857799" d="M22.6,15.6c-0.4,0.1-0.6,0.5-0.6,0.9V27c0,0.6,0.4,1,1,1s1-0.4,1-1v-9.8l3.5-1.3c0.5-0.2,0.8-0.8,0.6-1.3  c-0.2-0.5-0.8-0.8-1.3-0.6L22.6,15.6z"></path><path fill="#857799" d="M41.4,15.6L37.3,14c-0.5-0.2-1.1,0.1-1.3,0.6c-0.2,0.5,0.1,1.1,0.6,1.3l3.5,1.3V27c0,0.6,0.4,1,1,1  s1-0.4,1-1V16.5C42,16.1,41.7,15.7,41.4,15.6z"></path><path fill="#857799" d="M32,20.6c-2.1,0-3.7,1.7-3.7,3.7S29.9,28,32,28s3.7-1.7,3.7-3.7S34.1,20.6,32,20.6z M32,26  c-1,0-1.7-0.8-1.7-1.7s0.8-1.7,1.7-1.7s1.7,0.8,1.7,1.7S33,26,32,26z"></path><path fill="#857799" d="M25,31.5V41c0,0.6,0.4,1,1,1s1-0.4,1-1v-8.9l2.5-1.2c0.5-0.2,0.7-0.8,0.4-1.3c-0.2-0.5-0.8-0.7-1.3-0.4  l-3,1.5C25.2,30.8,25,31.1,25,31.5z"></path><path fill="#857799" d="M38.5,30.6l-3-1.5c-0.5-0.3-1.1,0-1.3,0.4c-0.2,0.5-0.1,1.1,0.4,1.3l2.5,1.2V38c0,0.6,0.4,1,1,1s1-0.4,1-1  v-6.5C39,31.1,38.8,30.8,38.5,30.6z"></path><path fill="#857799" d="M2,47.4V63c0,0.6,0.4,1,1,1s1-0.4,1-1V47c0-0.3-0.1-0.5-0.3-0.7L2,44.6v-22l3.7-1.4l3.5,4.4  C9.4,25.9,9.7,26,10,26s0.6-0.1,0.8-0.4l3.3-4.1l2.9,1.1V36c0,0.6,0.4,1,1,1s1-0.4,1-1V22c0-0.4-0.3-0.8-0.6-0.9L15,19.7V11  c0-2.8-2.2-5-5-5s-5,2.2-5,5v8.3L0.6,21C0.3,21.2,0,21.5,0,22v23c0,0.3,0.1,0.5,0.3,0.7L2,47.4z M10,8c1.4,0,2.4,0.8,2.8,2H7.2  C7.6,8.8,8.6,8,10,8z M12.9,12c-0.4,1.9-1.6,4-2.8,4c-1.2,0-2.6-2.1-3-4H12.9z M10.1,18c1.1,0,2.1-0.6,2.9-1.5v3.2l-3,3.8l-3-3.8  v-3.4C7.9,17.3,8.9,18,10.1,18z"></path><path fill="#857799" d="M56,42h-6c-0.6,0-1,0.4-1,1v2h-5c-0.6,0-1,0.4-1,1v15c0,0.6,0.4,1,1,1h10c0.6,0,1-0.4,1-1s-0.4-1-1-1h-9V47  h16v13h-3c-0.6,0-1,0.4-1,1s0.4,1,1,1h4c0.6,0,1-0.4,1-1V46c0-0.6-0.4-1-1-1h-5v-2C57,42.4,56.6,42,56,42z M51,44h4v1h-4V44z"></path><path fill="#857799" d="M41,54V44c0-0.6-0.4-1-1-1h-3v-2c0-0.6-0.4-1-1-1h-4c-0.6,0-1,0.4-1,1v2h-2c-0.6,0-1,0.4-1,1v10  c0,0.6,0.4,1,1,1h11C40.6,55,41,54.6,41,54z M33,42h2v1h-2V42z M39,53h-9v-8h9V53z"></path><path fill="#857799" d="M63.4,21L60,19.7V11c0-2.8-2.2-5-5-5s-5,2.2-5,5v8.3L45.6,21C45.3,21.2,45,21.5,45,22v15c0,0.6,0.4,1,1,1  s1-0.4,1-1V22.6l3.7-1.4l3.5,4.4c0.2,0.2,0.5,0.4,0.8,0.4s0.6-0.1,0.8-0.4l3.3-4.1l2.9,1.1V39c0,0.6,0.4,1,1,1s1-0.4,1-1V22  C64,21.5,63.7,21.2,63.4,21z M55,8c1.4,0,2.4,0.8,2.8,2h-5.7C52.6,8.8,53.6,8,55,8z M57.9,12c-0.4,1.9-1.6,4-2.8,4  c-1.2,0-2.6-2.1-3-4H57.9z M55,23.4l-3-3.8v-3.4c0.9,1,1.9,1.8,3.1,1.8c1.1,0,2.1-0.6,2.9-1.5v3.2L55,23.4z"></path><path fill="#857799" d="M34,57v6c0,0.6,0.4,1,1,1s1-0.4,1-1v-6c0-0.6-0.4-1-1-1S34,56.4,34,57z"></path><path fill="#857799" d="M28,57v6c0,0.6,0.4,1,1,1s1-0.4,1-1v-6c0-0.6-0.4-1-1-1S28,56.4,28,57z"></path><path fill="#857799" d="M46,39c-0.6,0-1,0.4-1,1v2c0,0.6,0.4,1,1,1s1-0.4,1-1v-2C47,39.4,46.6,39,46,39z"></path><path fill="#857799" d="M22,32c0,0.6,0.4,1,1,1s1-0.4,1-1v-2c0-0.6-0.4-1-1-1s-1,0.4-1,1V32z"></path><path fill="#857799" d="M18,38c-0.6,0-1,0.4-1,1v3h-4c-0.6,0-1,0.4-1,1v2H7c-0.6,0-1,0.4-1,1v15c0,0.6,0.4,1,1,1h18c0.6,0,1-0.4,1-1  V46c0-0.6-0.4-1-1-1h-5v-2c0-0.6-0.4-1-1-1v-3C19,38.4,18.6,38,18,38z M24,60H8V47h16V60z M14,45v-1h4v1H14z"></path></svg>