<?xml version="1.0" encoding="utf-8"?>
<!-- Generator: Adobe Illustrator 22.0.1, SVG Export Plug-In . SVG Version: 6.00 Build 0)  -->
<svg version="1.1" id="Layer_1" xmlns="http://www.w3.org/2000/svg" xmlns:xlink="http://www.w3.org/1999/xlink" x="0px" y="0px"
	 viewBox="0 0 55 55" style="enable-background:new 0 0 55 55;" xml:space="preserve">
<style type="text/css">
	.st0{fill:none;stroke:#4F6379;stroke-width:2;stroke-miterlimit:10;}
</style>
<g>
	<path class="st0" d="M42.6,42.4H12.6l1.5-2.5c0.7-1.2,2-1.9,3.4-1.9h20.1c1.4,0,2.7,0.7,3.4,1.9L42.6,42.4z"/>
	<path class="st0" d="M44.9,46.5H10.3c-0.4,0-0.8-0.4-0.8-0.8v-2.2c0-0.6,0.5-1.1,1.1-1.1h34.1c0.6,0,1.1,0.5,1.1,1.1v2.2
		C45.7,46.1,45.4,46.5,44.9,46.5z"/>
	<path class="st0" d="M37.7,38H17.2V11.8c0-0.8,0.7-1.5,1.5-1.5h17.5c0.8,0,1.5,0.7,1.5,1.5V38z"/>
	<line class="st0" x1="25.7" y1="23.4" x2="25.7" y2="34.1"/>
	<line class="st0" x1="23.4" y1="26.2" x2="28.1" y2="26.2"/>
</g>
</svg>
