<svg fill="#4F6379" xmlns="http://www.w3.org/2000/svg" xmlns:xlink="http://www.w3.org/1999/xlink" version="1.1" x="0px" y="0px" viewBox="0 0 55 55" style="enable-background:new 0 0 55 55;" xml:space="preserve"><style type="text/css">
	.st0{fill:none;stroke:#4F6379;stroke-width:2;stroke-linecap:round;stroke-linejoin:round;stroke-miterlimit:10;}
	.st1{fill:none;stroke:#4F6379;stroke-width:2;stroke-linejoin:round;stroke-miterlimit:10;}
	.st2{fill:none;stroke:#4F6379;stroke-width:2;stroke-linecap:round;stroke-miterlimit:10;}
	.st3{fill:none;stroke:#4F6379;stroke-width:2;stroke-miterlimit:10;}
	.st4{fill:none;}
</style><g><path class="st3" d="M46.5,45.3479996h-38l1.9060726-3.2049561c0.9024343-1.517395,2.5373821-2.4472885,4.3028488-2.4472885   h25.5821552c1.7654686,0,3.4004173,0.9298935,4.3028526,2.4472885L46.5,45.3479996z"></path><path class="st3" d="M49.5009232,50.4744492H5.4990773c-0.5517755,0-0.9990773-0.4473-0.9990773-0.9990768V46.713131   c0-0.7539406,0.6111903-1.3651314,1.3651323-1.3651314h43.2697372c0.7539406,0,1.3651314,0.6111908,1.3651314,1.3651314v2.7622414   C50.5,50.0271492,50.0526962,50.4744492,49.5009232,50.4744492z"></path><path class="st3" d="M40.3042946,39.695755h-26V6.4147429c0-1.0433726,0.8458214-1.8891935,1.8891935-1.8891935h22.221611   c1.0433731,0,1.8891945,0.8458209,1.8891945,1.8891935V39.695755z"></path><line class="st3" x1="25.1354122" y1="21.1333714" x2="25.1354122" y2="34.8039093"></line><line class="st3" x1="22.1778431" y1="24.7340336" x2="28.0929813" y2="24.7340336"></line></g></svg>