<svg fill="#D9776B" xmlns="http://www.w3.org/2000/svg" xmlns:xlink="http://www.w3.org/1999/xlink" version="1.1" x="0px" y="0px" viewBox="0 0 100 100" enable-background="new 0 0 100 100" xml:space="preserve"><g><circle cx="50" cy="50" r="7.5"></circle><path d="M93.5,48.5h-9.534C83.199,30.942,69.058,16.801,51.5,16.034V6.5C51.5,5.671,50.829,5,50,5s-1.5,0.671-1.5,1.5v9.534   C30.942,16.801,16.801,30.942,16.034,48.5H6.5C5.671,48.5,5,49.171,5,50s0.671,1.5,1.5,1.5h9.534   C16.801,69.058,30.942,83.199,48.5,83.966V93.5c0,0.829,0.671,1.5,1.5,1.5s1.5-0.671,1.5-1.5v-9.534   C69.058,83.199,83.199,69.058,83.966,51.5H93.5c0.829,0,1.5-0.671,1.5-1.5S94.329,48.5,93.5,48.5z M80.966,48.5H70.924   C70.185,38.118,61.882,29.815,51.5,29.076V19.034C67.404,19.796,80.204,32.596,80.966,48.5z M50,68c-9.925,0-18-8.075-18-18   s8.075-18,18-18s18,8.075,18,18S59.925,68,50,68z M48.5,19.034v10.042C38.118,29.815,29.815,38.118,29.076,48.5H19.034   C19.796,32.596,32.596,19.796,48.5,19.034z M19.034,51.5h10.042c0.739,10.382,9.042,18.685,19.424,19.424v10.042   C32.596,80.204,19.796,67.404,19.034,51.5z M51.5,80.966V70.924c10.382-0.739,18.685-9.042,19.424-19.424h10.042   C80.204,67.404,67.404,80.204,51.5,80.966z"></path></g></svg>