<svg xmlns="http://www.w3.org/2000/svg" xmlns:xlink="http://www.w3.org/1999/xlink" width="100" height="100" viewBox="0 0 100 100"><g><g transform="translate(50 50) scale(0.69 0.69) rotate(0) translate(-50 -50)" style="fill:#8fcfee"><svg fill="#8fcfee" xmlns:dc="http://purl.org/dc/elements/1.1/" xmlns:cc="http://creativecommons.org/ns#" xmlns:rdf="http://www.w3.org/1999/02/22-rdf-syntax-ns#" xmlns:svg="http://www.w3.org/2000/svg" xmlns="http://www.w3.org/2000/svg" xmlns:sodipodi="http://sodipodi.sourceforge.net/DTD/sodipodi-0.dtd" xmlns:inkscape="http://www.inkscape.org/namespaces/inkscape" viewBox="0 0 32 32.000001" version="1.1" x="0px" y="0px"><g transform="translate(0,-1020.3622)"><path style="color:#000000;font-style:normal;font-variant:normal;font-weight:normal;font-stretch:normal;font-size:medium;line-height:normal;font-family:sans-serif;text-indent:0;text-align:start;text-decoration:none;text-decoration-line:none;text-decoration-style:solid;text-decoration-color:#000000;letter-spacing:normal;word-spacing:normal;text-transform:none;direction:ltr;writing-mode:lr-tb;baseline-shift:baseline;text-anchor:start;white-space:normal;clip-rule:nonzero;display:inline;overflow:visible;visibility:visible;opacity:1;isolation:auto;mix-blend-mode:normal;color-interpolation:sRGB;color-interpolation-filters:linearRGB;solid-color:#000000;solid-opacity:1;fill:#8fcfee;fill-opacity:1;fill-rule:nonzero;stroke:none;stroke-width:1;stroke-linecap:round;stroke-linejoin:round;stroke-miterlimit:4;stroke-dasharray:none;stroke-dashoffset:0;stroke-opacity:1;color-rendering:auto;image-rendering:auto;shape-rendering:auto;text-rendering:auto;enable-background:accumulate" d="m 15.99998,1027.8603 c -4.68848,0 -8.49998,3.8115 -8.49998,8.5 0,4.6885 3.8115,8.5 8.49998,8.5 4.6885,0 8.49999,-3.8115 8.5,-8.5 -10e-6,-4.6885 -3.8115,-8.5 -8.5,-8.5 z m 0,1 c 4.14806,0 7.49999,3.3519 7.5,7.5 -10e-6,4.1481 -3.35194,7.5 -7.5,7.5 -4.14808,0 -7.49998,-3.352 -7.49998,-7.5 0,-4.1481 3.3519,-7.5 7.49998,-7.5 z"></path><path style="color:#000000;font-style:normal;font-variant:normal;font-weight:normal;font-stretch:normal;font-size:medium;line-height:normal;font-family:sans-serif;text-indent:0;text-align:start;text-decoration:none;text-decoration-line:none;text-decoration-style:solid;text-decoration-color:#000000;letter-spacing:normal;word-spacing:normal;text-transform:none;direction:ltr;writing-mode:lr-tb;baseline-shift:baseline;text-anchor:start;white-space:normal;clip-rule:nonzero;display:inline;overflow:visible;visibility:visible;opacity:1;isolation:auto;mix-blend-mode:normal;color-interpolation:sRGB;color-interpolation-filters:linearRGB;solid-color:#000000;solid-opacity:1;fill:#8fcfee;fill-opacity:1;fill-rule:evenodd;stroke:none;stroke-width:1px;stroke-linecap:butt;stroke-linejoin:miter;stroke-miterlimit:4;stroke-dasharray:none;stroke-dashoffset:0;stroke-opacity:1;color-rendering:auto;image-rendering:auto;shape-rendering:auto;text-rendering:auto;enable-background:accumulate" d="m 15.49998,1028.3603 0,16 1,0 0,-16 z"></path><path style="color:#000000;font-style:normal;font-variant:normal;font-weight:normal;font-stretch:normal;font-size:medium;line-height:normal;font-family:sans-serif;text-indent:0;text-align:start;text-decoration:none;text-decoration-line:none;text-decoration-style:solid;text-decoration-color:#000000;letter-spacing:normal;word-spacing:normal;text-transform:none;direction:ltr;writing-mode:lr-tb;baseline-shift:baseline;text-anchor:start;white-space:normal;clip-rule:nonzero;display:inline;overflow:visible;visibility:visible;opacity:1;isolation:auto;mix-blend-mode:normal;color-interpolation:sRGB;color-interpolation-filters:linearRGB;solid-color:#000000;solid-opacity:1;fill:#8fcfee;fill-opacity:1;fill-rule:evenodd;stroke:none;stroke-width:1px;stroke-linecap:butt;stroke-linejoin:miter;stroke-miterlimit:4;stroke-dasharray:none;stroke-dashoffset:0;stroke-opacity:1;color-rendering:auto;image-rendering:auto;shape-rendering:auto;text-rendering:auto;enable-background:accumulate" d="m 8,1035.8603 0,1 15.99998,0 0,-1 z"></path><path style="color:#000000;font-style:normal;font-variant:normal;font-weight:normal;font-stretch:normal;font-size:medium;line-height:normal;font-family:sans-serif;text-indent:0;text-align:start;text-decoration:none;text-decoration-line:none;text-decoration-style:solid;text-decoration-color:#000000;letter-spacing:normal;word-spacing:normal;text-transform:none;direction:ltr;writing-mode:lr-tb;baseline-shift:baseline;text-anchor:start;white-space:normal;clip-rule:nonzero;display:inline;overflow:visible;visibility:visible;opacity:1;isolation:auto;mix-blend-mode:normal;color-interpolation:sRGB;color-interpolation-filters:linearRGB;solid-color:#000000;solid-opacity:1;fill:#8fcfee;fill-opacity:1;fill-rule:nonzero;stroke:none;stroke-width:1;stroke-linecap:round;stroke-linejoin:round;stroke-miterlimit:4;stroke-dasharray:none;stroke-dashoffset:0;stroke-opacity:1;color-rendering:auto;image-rendering:auto;shape-rendering:auto;text-rendering:auto;enable-background:accumulate" d="m 15.99998,1027.8603 c -1.48283,0 -2.74958,1.0552 -3.61718,2.5976 -0.8676,1.5425 -1.3828,3.6173 -1.3828,5.9024 0,2.2851 0.5152,4.3599 1.3828,5.9023 0.8676,1.5425 2.13435,2.5977 3.61718,2.5977 1.48283,0 2.74957,-1.0552 3.61719,-2.5977 0.86762,-1.5424 1.38281,-3.6172 1.38281,-5.9023 0,-2.2851 -0.51519,-4.3599 -1.38281,-5.9024 -0.86762,-1.5424 -2.13436,-2.5976 -3.61719,-2.5976 z m 0,1 c 1.00244,0 1.98503,0.7349 2.74609,2.0879 0.76107,1.353 1.25391,3.2789 1.25391,5.4121 0,2.1331 -0.49284,4.0591 -1.25391,5.4121 -0.76106,1.353 -1.74365,2.0879 -2.74609,2.0879 -1.00244,0 -1.98498,-0.7349 -2.74608,-2.0879 -0.7611,-1.353 -1.2539,-3.279 -1.2539,-5.4121 0,-2.1332 0.4928,-4.0591 1.2539,-5.4121 0.7611,-1.353 1.74364,-2.0879 2.74608,-2.0879 z"></path><path style="color:#000000;font-style:normal;font-variant:normal;font-weight:normal;font-stretch:normal;font-size:medium;line-height:normal;font-family:sans-serif;text-indent:0;text-align:start;text-decoration:none;text-decoration-line:none;text-decoration-style:solid;text-decoration-color:#000000;letter-spacing:normal;word-spacing:normal;text-transform:none;direction:ltr;writing-mode:lr-tb;baseline-shift:baseline;text-anchor:start;white-space:normal;clip-rule:nonzero;display:inline;overflow:visible;visibility:visible;opacity:1;isolation:auto;mix-blend-mode:normal;color-interpolation:sRGB;color-interpolation-filters:linearRGB;solid-color:#000000;solid-opacity:1;fill:#8fcfee;fill-opacity:1;fill-rule:evenodd;stroke:none;stroke-width:1px;stroke-linecap:butt;stroke-linejoin:miter;stroke-miterlimit:4;stroke-dasharray:none;stroke-dashoffset:0;stroke-opacity:1;color-rendering:auto;image-rendering:auto;shape-rendering:auto;text-rendering:auto;enable-background:accumulate" d="m 9,1031.8603 0,1 13.99998,0 0,-1 z"></path><path style="color:#000000;font-style:normal;font-variant:normal;font-weight:normal;font-stretch:normal;font-size:medium;line-height:normal;font-family:sans-serif;text-indent:0;text-align:start;text-decoration:none;text-decoration-line:none;text-decoration-style:solid;text-decoration-color:#000000;letter-spacing:normal;word-spacing:normal;text-transform:none;direction:ltr;writing-mode:lr-tb;baseline-shift:baseline;text-anchor:start;white-space:normal;clip-rule:nonzero;display:inline;overflow:visible;visibility:visible;opacity:1;isolation:auto;mix-blend-mode:normal;color-interpolation:sRGB;color-interpolation-filters:linearRGB;solid-color:#000000;solid-opacity:1;fill:#8fcfee;fill-opacity:1;fill-rule:evenodd;stroke:none;stroke-width:1px;stroke-linecap:butt;stroke-linejoin:miter;stroke-miterlimit:4;stroke-dasharray:none;stroke-dashoffset:0;stroke-opacity:1;color-rendering:auto;image-rendering:auto;shape-rendering:auto;text-rendering:auto;enable-background:accumulate" d="m 9,1039.8603 0,1 13.99998,0 0,-1 z"></path><path style="color:#000000;font-style:normal;font-variant:normal;font-weight:normal;font-stretch:normal;font-size:medium;line-height:normal;font-family:sans-serif;text-indent:0;text-align:start;text-decoration:none;text-decoration-line:none;text-decoration-style:solid;text-decoration-color:#000000;letter-spacing:normal;word-spacing:normal;text-transform:none;direction:ltr;writing-mode:lr-tb;baseline-shift:baseline;text-anchor:start;white-space:normal;clip-rule:nonzero;display:inline;overflow:visible;visibility:visible;opacity:1;isolation:auto;mix-blend-mode:normal;color-interpolation:sRGB;color-interpolation-filters:linearRGB;solid-color:#000000;solid-opacity:1;fill:#8fcfee;fill-opacity:1;fill-rule:nonzero;stroke:none;stroke-width:1;stroke-linecap:round;stroke-linejoin:round;stroke-miterlimit:4;stroke-dasharray:none;stroke-dashoffset:0;stroke-opacity:1;color-rendering:auto;image-rendering:auto;shape-rendering:auto;text-rendering:auto;enable-background:accumulate" d="m 9.082,1027.1103 a 0.50005,0.50005 0 0 0 -0.3105,0.1074 c -3.5115,2.6812 -5.1776,7.1413 -4.2832,11.4688 0.6628,3.2072 2.6439,5.9244 5.3711,7.5507 1.6084,0.9591 4.3215,1.9631 5.81441,2.7813 l 2.33008,1.2773 a 0.50005,0.50005 0 1 0 0.48047,-0.8769 l -2.33008,-1.2774 c -1.63047,-0.8935 -4.34148,-1.9051 -5.78128,-2.7636 -2.4896,-1.4847 -4.3007,-3.9646 -4.9062,-6.8946 -0.817,-3.9533 0.7024,-8.0214 3.9102,-10.4707 a 0.50005,0.50005 0 0 0 -0.295,-0.9023 z"></path><path style="color:#000000;font-style:normal;font-variant:normal;font-weight:normal;font-stretch:normal;font-size:medium;line-height:normal;font-family:sans-serif;text-indent:0;text-align:start;text-decoration:none;text-decoration-line:none;text-decoration-style:solid;text-decoration-color:#000000;letter-spacing:normal;word-spacing:normal;text-transform:none;direction:ltr;writing-mode:lr-tb;baseline-shift:baseline;text-anchor:start;white-space:normal;clip-rule:nonzero;display:inline;overflow:visible;visibility:visible;opacity:1;isolation:auto;mix-blend-mode:normal;color-interpolation:sRGB;color-interpolation-filters:linearRGB;solid-color:#000000;solid-opacity:1;fill:#8fcfee;fill-opacity:1;fill-rule:evenodd;stroke:none;stroke-width:0.99999988;stroke-linecap:round;stroke-linejoin:round;stroke-miterlimit:4;stroke-dasharray:none;stroke-dashoffset:0;stroke-opacity:1;color-rendering:auto;image-rendering:auto;shape-rendering:auto;text-rendering:auto;enable-background:accumulate" d="m 6.1562,1025.3017 a 0.50004994,0.50004994 0 0 0 -0.3535,0.1543 c 0,0 -0.4106,0.4308 -0.8339,1 -0.4234,0.5691 -0.8948,1.2463 -0.961,1.9941 -0.066,0.7477 0.2792,1.4981 0.5957,2.1328 0.3165,0.6348 0.6445,1.129 0.6445,1.129 a 0.50004994,0.50004994 0 0 0 0.834,0 c 0,0 0.3352,-0.5083 0.6758,-1.1621 0.3406,-0.6538 0.7096,-1.4282 0.7442,-2.1641 0.029,-0.6257 -0.2144,-1.2749 -0.4395,-1.8281 -0.2251,-0.5532 -0.4551,-0.9883 -0.4551,-0.9883 a 0.50004994,0.50004994 0 0 0 -0.4512,-0.2656 z m -0.1132,1.4258 c 0.045,0.1001 0.047,0.09 0.094,0.2051 0.2043,0.5021 0.3799,1.1334 0.3672,1.4043 -0.018,0.3808 -0.3177,1.1451 -0.6328,1.75 -0.1021,0.1959 -0.1127,0.1912 -0.2031,0.3476 -0.078,-0.1382 -0.087,-0.1316 -0.17,-0.2988 -0.2861,-0.5739 -0.5209,-1.2953 -0.4941,-1.5977 0.027,-0.3022 0.3849,-0.9718 0.7676,-1.4863 0.1373,-0.1846 0.1535,-0.1837 0.2715,-0.3242 z"></path><path style="color:#000000;font-style:normal;font-variant:normal;font-weight:normal;font-stretch:normal;font-size:medium;line-height:normal;font-family:sans-serif;text-indent:0;text-align:start;text-decoration:none;text-decoration-line:none;text-decoration-style:solid;text-decoration-color:#000000;letter-spacing:normal;word-spacing:normal;text-transform:none;direction:ltr;writing-mode:lr-tb;baseline-shift:baseline;text-anchor:start;white-space:normal;clip-rule:nonzero;display:inline;overflow:visible;visibility:visible;opacity:1;isolation:auto;mix-blend-mode:normal;color-interpolation:sRGB;color-interpolation-filters:linearRGB;solid-color:#000000;solid-opacity:1;fill:#8fcfee;fill-opacity:1;fill-rule:evenodd;stroke:none;stroke-width:0.99999988;stroke-linecap:round;stroke-linejoin:round;stroke-miterlimit:4;stroke-dasharray:none;stroke-dashoffset:0;stroke-opacity:1;color-rendering:auto;image-rendering:auto;shape-rendering:auto;text-rendering:auto;enable-background:accumulate" d="m 1.4609,1031.7216 a 0.50004994,0.50004994 0 0 0 -0.4961,0.5156 c 0,0 0.014,0.4918 0.092,1.084 0.078,0.5922 0.1868,1.2771 0.5215,1.8067 0.3936,0.6227 1.0958,1.1134 1.7149,1.5136 0.6191,0.4002 1.1621,0.6778 1.1621,0.6778 a 0.50004994,0.50004994 0 0 0 0.7265,-0.4121 c 0,0 0.04,-0.5925 0,-1.3008 -0.038,-0.7083 -0.1081,-1.5291 -0.5352,-2.1465 -0.4269,-0.6175 -1.173,-0.974 -1.8222,-1.2598 -0.6493,-0.2857 -1.2168,-0.457 -1.2168,-0.457 a 0.50004994,0.50004994 0 0 0 -0.1485,-0.022 z m 0.5684,1.2442 c 0.1716,0.064 0.1846,0.056 0.3945,0.1484 0.5869,0.2583 1.2298,0.6645 1.4024,0.9141 0.1726,0.2496 0.3247,0.9925 0.3593,1.6328 0.01,0.1865 -7e-4,0.1852 0,0.3437 -0.1562,-0.091 -0.1634,-0.083 -0.3496,-0.2031 -0.5728,-0.3703 -1.2103,-0.8866 -1.414,-1.209 -0.1448,-0.2291 -0.3027,-0.8629 -0.3731,-1.4004 -0.016,-0.1235 -0.01,-0.1169 -0.019,-0.2265 z"></path><path style="color:#000000;font-style:normal;font-variant:normal;font-weight:normal;font-stretch:normal;font-size:medium;line-height:normal;font-family:sans-serif;text-indent:0;text-align:start;text-decoration:none;text-decoration-line:none;text-decoration-style:solid;text-decoration-color:#000000;letter-spacing:normal;word-spacing:normal;text-transform:none;direction:ltr;writing-mode:lr-tb;baseline-shift:baseline;text-anchor:start;white-space:normal;clip-rule:nonzero;display:inline;overflow:visible;visibility:visible;opacity:1;isolation:auto;mix-blend-mode:normal;color-interpolation:sRGB;color-interpolation-filters:linearRGB;solid-color:#000000;solid-opacity:1;fill:#8fcfee;fill-opacity:1;fill-rule:evenodd;stroke:none;stroke-width:0.99999988;stroke-linecap:round;stroke-linejoin:round;stroke-miterlimit:4;stroke-dasharray:none;stroke-dashoffset:0;stroke-opacity:1;color-rendering:auto;image-rendering:auto;shape-rendering:auto;text-rendering:auto;enable-background:accumulate" d="m 4.2356,1039.9462 c -0.7413,-0.2328 -1.5449,0 -2.2265,0.2266 -0.6817,0.2231 -1.2266,0.4883 -1.2266,0.4883 a 0.50004994,0.50004994 0 0 0 -0.1484,0.791 c 0,0 0.3359,0.3603 0.7851,0.7539 0.4493,0.3936 0.983,0.835 1.584,1.0117 0.7068,0.2079 1.5599,0.1121 2.2891,0 0.7292,-0.1082 1.3183,-0.2578 1.3183,-0.2578 a 0.50004994,0.50004994 0 0 0 0.2598,-0.8066 c -0.6701,-0.7915 -1.3964,-1.8221 -2.6348,-2.211 z m -0.2988,0.9532 c 0.6104,0.1916 1.1053,0.6961 1.5977,1.2578 -0.1759,0.034 -0.1748,0.044 -0.3907,0.076 -0.6746,0.1002 -1.4936,0.133 -1.8593,0.025 -0.2601,-0.076 -0.7993,-0.4474 -1.2071,-0.8047 -0.098,-0.086 -0.088,-0.087 -0.1719,-0.166 0.1766,-0.071 0.1865,-0.089 0.4161,-0.164 0.6102,-0.1998 1.3509,-0.3076 1.6152,-0.2246 z"></path><path style="color:#000000;font-style:normal;font-variant:normal;font-weight:normal;font-stretch:normal;font-size:medium;line-height:normal;font-family:sans-serif;text-indent:0;text-align:start;text-decoration:none;text-decoration-line:none;text-decoration-style:solid;text-decoration-color:#000000;letter-spacing:normal;word-spacing:normal;text-transform:none;direction:ltr;writing-mode:lr-tb;baseline-shift:baseline;text-anchor:start;white-space:normal;clip-rule:nonzero;display:inline;overflow:visible;visibility:visible;opacity:1;isolation:auto;mix-blend-mode:normal;color-interpolation:sRGB;color-interpolation-filters:linearRGB;solid-color:#000000;solid-opacity:1;fill:#8fcfee;fill-opacity:1;fill-rule:evenodd;stroke:none;stroke-width:0.99999988;stroke-linecap:round;stroke-linejoin:round;stroke-miterlimit:4;stroke-dasharray:none;stroke-dashoffset:0;stroke-opacity:1;color-rendering:auto;image-rendering:auto;shape-rendering:auto;text-rendering:auto;enable-background:accumulate" d="m 7.8984,1045.122 c -0.7348,0.1536 -1.3535,0.7003 -1.8691,1.1875 -0.5156,0.4872 -0.8926,0.9453 -0.8926,0.9453 a 0.50004994,0.50004994 0 0 0 0.2031,0.7852 c 0,0 0.4594,0.1773 1.0352,0.3359 0.5758,0.1587 1.2493,0.325 1.8672,0.2227 0.7267,-0.1206 1.4532,-0.5773 2.0625,-0.9922 0.6093,-0.4149 1.0742,-0.8067 1.0742,-0.8067 a 0.50004994,0.50004994 0 0 0 -0.1172,-0.8398 c -0.9385,-0.4167 -2.0855,-1.105 -3.3633,-0.8379 z m 0.2032,0.9785 c 0.5722,-0.1196 1.2537,0.1345 1.9609,0.4395 -0.1441,0.1077 -0.1387,0.1166 -0.3203,0.2402 -0.5638,0.3839 -1.2879,0.7696 -1.6641,0.832 -0.2677,0.044 -0.9148,-0.055 -1.4375,-0.1992 -0.1196,-0.033 -0.11,-0.038 -0.2148,-0.07 0.1256,-0.1335 0.124,-0.1488 0.291,-0.3066 0.466,-0.4405 1.0878,-0.8735 1.3848,-0.9356 z"></path><path style="color:#000000;font-style:normal;font-variant:normal;font-weight:normal;font-stretch:normal;font-size:medium;line-height:normal;font-family:sans-serif;text-indent:0;text-align:start;text-decoration:none;text-decoration-line:none;text-decoration-style:solid;text-decoration-color:#000000;letter-spacing:normal;word-spacing:normal;text-transform:none;direction:ltr;writing-mode:lr-tb;baseline-shift:baseline;text-anchor:start;white-space:normal;clip-rule:nonzero;display:inline;overflow:visible;visibility:visible;opacity:1;isolation:auto;mix-blend-mode:normal;color-interpolation:sRGB;color-interpolation-filters:linearRGB;solid-color:#000000;solid-opacity:1;fill:#8fcfee;fill-opacity:1;fill-rule:evenodd;stroke:none;stroke-width:0.99999988;stroke-linecap:round;stroke-linejoin:round;stroke-miterlimit:4;stroke-dasharray:none;stroke-dashoffset:0;stroke-opacity:1;color-rendering:auto;image-rendering:auto;shape-rendering:auto;text-rendering:auto;enable-background:accumulate" d="m 13.0684,1022.8622 a 0.50004994,0.50004994 0 0 0 -0.098,0.01 c 0,0 -0.5864,0.095 -1.2676,0.2929 -0.6812,0.1979 -1.4662,0.4537 -1.9707,1.0098 -0.5044,0.5559 -0.6813,1.3615 -0.8125,2.0586 -0.1311,0.6971 -0.1679,1.289 -0.1679,1.289 a 0.50004994,0.50004994 0 0 0 0.666,0.5039 c 0,0 0.5719,-0.2042 1.2382,-0.5195 0.6664,-0.3153 1.4304,-0.7097 1.9024,-1.2754 0.4014,-0.481 0.5972,-1.1438 0.7519,-1.7207 0.1548,-0.5768 0.2344,-1.0644 0.2344,-1.0644 a 0.50004994,0.50004994 0 0 0 -0.4765,-0.5801 z m -0.6739,1.1641 c -0.025,0.1069 -0.017,0.1009 -0.049,0.2207 -0.1404,0.5235 -0.383,1.1317 -0.5566,1.3398 -0.2443,0.2928 -0.9441,0.7219 -1.5606,1.0137 -0.1997,0.094 -0.2046,0.086 -0.3711,0.1562 0.022,-0.1575 0.01,-0.1574 0.045,-0.3418 0.1186,-0.6301 0.3684,-1.3475 0.5723,-1.5722 0.2039,-0.2248 0.8921,-0.5418 1.5078,-0.7207 0.221,-0.064 0.2332,-0.055 0.4121,-0.096 z"></path><path style="color:#000000;font-style:normal;font-variant:normal;font-weight:normal;font-stretch:normal;font-size:medium;line-height:normal;font-family:sans-serif;text-indent:0;text-align:start;text-decoration:none;text-decoration-line:none;text-decoration-style:solid;text-decoration-color:#000000;letter-spacing:normal;word-spacing:normal;text-transform:none;direction:ltr;writing-mode:lr-tb;baseline-shift:baseline;text-anchor:start;white-space:normal;clip-rule:nonzero;display:inline;overflow:visible;visibility:visible;opacity:1;isolation:auto;mix-blend-mode:normal;color-interpolation:sRGB;color-interpolation-filters:linearRGB;solid-color:#000000;solid-opacity:1;fill:#8fcfee;fill-opacity:1;fill-rule:nonzero;stroke:none;stroke-width:1;stroke-linecap:round;stroke-linejoin:round;stroke-miterlimit:4;stroke-dasharray:none;stroke-dashoffset:0;stroke-opacity:1;color-rendering:auto;image-rendering:auto;shape-rendering:auto;text-rendering:auto;enable-background:accumulate" d="m 22.90232,1027.1103 a 0.50005,0.50005 0 0 0 -0.27929,0.9023 c 3.20776,2.4493 4.7272,6.5174 3.91015,10.4707 -0.60553,2.93 -2.41666,5.4099 -4.90625,6.8946 -1.43986,0.8585 -4.1507,1.8701 -5.78125,2.7636 l -2.33008,1.2774 a 0.50005,0.50005 0 1 0 0.4805,0.8769 l 2.33005,-1.2773 c 1.49306,-0.8182 4.20596,-1.8222 5.81445,-2.7813 2.7272,-1.6263 4.70827,-4.3435 5.3711,-7.5507 0.89436,-4.3275 -0.77168,-8.7876 -4.2832,-11.4688 a 0.50005,0.50005 0 0 0 -0.32618,-0.1074 z"></path><path style="color:#000000;font-style:normal;font-variant:normal;font-weight:normal;font-stretch:normal;font-size:medium;line-height:normal;font-family:sans-serif;text-indent:0;text-align:start;text-decoration:none;text-decoration-line:none;text-decoration-style:solid;text-decoration-color:#000000;letter-spacing:normal;word-spacing:normal;text-transform:none;direction:ltr;writing-mode:lr-tb;baseline-shift:baseline;text-anchor:start;white-space:normal;clip-rule:nonzero;display:inline;overflow:visible;visibility:visible;opacity:1;isolation:auto;mix-blend-mode:normal;color-interpolation:sRGB;color-interpolation-filters:linearRGB;solid-color:#000000;solid-opacity:1;fill:#8fcfee;fill-opacity:1;fill-rule:evenodd;stroke:none;stroke-width:0.99999988;stroke-linecap:round;stroke-linejoin:round;stroke-miterlimit:4;stroke-dasharray:none;stroke-dashoffset:0;stroke-opacity:1;color-rendering:auto;image-rendering:auto;shape-rendering:auto;text-rendering:auto;enable-background:accumulate" d="m 25.84373,1025.3017 a 0.50004994,0.50004994 0 0 0 -0.44531,0.2656 c 0,0 -0.23194,0.4351 -0.45703,0.9883 -0.2251,0.5532 -0.46884,1.2024 -0.43946,1.8281 0.0346,0.7359 0.40352,1.5103 0.74414,2.1641 0.34062,0.6538 0.67579,1.1621 0.67579,1.1621 a 0.50004994,0.50004994 0 0 0 0.83398,0 c 0,0 0.32801,-0.4942 0.64453,-1.129 0.31652,-0.6348 0.66207,-1.385 0.5957,-2.1328 -0.0662,-0.7478 -0.53756,-1.425 -0.96093,-1.9941 -0.42338,-0.5692 -0.83399,-1 -0.83399,-1 a 0.50004994,0.50004994 0 0 0 -0.35742,-0.1543 z m 0.11914,1.4258 c 0.11779,0.1403 0.13248,0.14 0.26953,0.3242 0.38271,0.5145 0.74081,1.1841 0.76758,1.4863 0.0268,0.3023 -0.20802,1.0238 -0.49414,1.5977 -0.0833,0.1672 -0.0923,0.1606 -0.16992,0.2988 -0.0905,-0.1564 -0.10103,-0.1517 -0.20313,-0.3476 -0.31514,-0.6049 -0.61298,-1.3691 -0.63086,-1.75 -0.0127,-0.2708 0.16092,-0.9022 0.36524,-1.4043 0.0468,-0.1151 0.0509,-0.1047 0.0957,-0.2051 z"></path><path style="color:#000000;font-style:normal;font-variant:normal;font-weight:normal;font-stretch:normal;font-size:medium;line-height:normal;font-family:sans-serif;text-indent:0;text-align:start;text-decoration:none;text-decoration-line:none;text-decoration-style:solid;text-decoration-color:#000000;letter-spacing:normal;word-spacing:normal;text-transform:none;direction:ltr;writing-mode:lr-tb;baseline-shift:baseline;text-anchor:start;white-space:normal;clip-rule:nonzero;display:inline;overflow:visible;visibility:visible;opacity:1;isolation:auto;mix-blend-mode:normal;color-interpolation:sRGB;color-interpolation-filters:linearRGB;solid-color:#000000;solid-opacity:1;fill:#8fcfee;fill-opacity:1;fill-rule:evenodd;stroke:none;stroke-width:0.99999988;stroke-linecap:round;stroke-linejoin:round;stroke-miterlimit:4;stroke-dasharray:none;stroke-dashoffset:0;stroke-opacity:1;color-rendering:auto;image-rendering:auto;shape-rendering:auto;text-rendering:auto;enable-background:accumulate" d="m 30.53514,1031.7216 a 0.50004994,0.50004994 0 0 0 -0.14454,0.022 c 0,0 -0.56949,0.1713 -1.21874,0.457 -0.64926,0.2858 -1.39333,0.6423 -1.82032,1.2598 -0.427,0.6174 -0.49679,1.4382 -0.53515,2.1465 -0.0384,0.7083 0.002,1.3008 0.002,1.3008 a 0.50004994,0.50004994 0 0 0 0.72656,0.4121 c 0,0 0.54106,-0.2776 1.16016,-0.6778 0.6191,-0.4002 1.32325,-0.8909 1.7168,-1.5136 0.33468,-0.5296 0.44395,-1.2145 0.52148,-1.8067 0.0775,-0.5922 0.0918,-1.084 0.0918,-1.084 a 0.50004994,0.50004994 0 0 0 -0.5,-0.5156 z m -0.56446,1.2442 c -0.0107,0.1096 -0.003,0.103 -0.0195,0.2265 -0.0704,0.5375 -0.2302,1.1713 -0.375,1.4004 -0.20369,0.3223 -0.84126,0.8387 -1.41406,1.209 -0.18568,0.12 -0.19168,0.1118 -0.34766,0.2031 7.2e-4,-0.1585 -0.0101,-0.1572 0,-0.3437 0.0347,-0.6403 0.18673,-1.3832 0.35938,-1.6328 0.17258,-0.2496 0.81545,-0.6558 1.40234,-0.9141 0.2099,-0.092 0.22295,-0.085 0.39453,-0.1484 z"></path><path style="color:#000000;font-style:normal;font-variant:normal;font-weight:normal;font-stretch:normal;font-size:medium;line-height:normal;font-family:sans-serif;text-indent:0;text-align:start;text-decoration:none;text-decoration-line:none;text-decoration-style:solid;text-decoration-color:#000000;letter-spacing:normal;word-spacing:normal;text-transform:none;direction:ltr;writing-mode:lr-tb;baseline-shift:baseline;text-anchor:start;white-space:normal;clip-rule:nonzero;display:inline;overflow:visible;visibility:visible;opacity:1;isolation:auto;mix-blend-mode:normal;color-interpolation:sRGB;color-interpolation-filters:linearRGB;solid-color:#000000;solid-opacity:1;fill:#8fcfee;fill-opacity:1;fill-rule:evenodd;stroke:none;stroke-width:0.99999988;stroke-linecap:round;stroke-linejoin:round;stroke-miterlimit:4;stroke-dasharray:none;stroke-dashoffset:0;stroke-opacity:1;color-rendering:auto;image-rendering:auto;shape-rendering:auto;text-rendering:auto;enable-background:accumulate" d="m 27.76439,1039.9462 c -1.23832,0.3889 -1.96473,1.4195 -2.63476,2.211 a 0.50004994,0.50004994 0 0 0 0.25976,0.8066 c 0,0 0.58916,0.1496 1.31836,0.2578 0.7292,0.1082 1.5823,0.204 2.28906,0 0.60104,-0.1767 1.13475,-0.6181 1.58399,-1.0117 0.44924,-0.3936 0.78515,-0.7539 0.78515,-0.7539 a 0.50004994,0.50004994 0 0 0 -0.14843,-0.791 c 0,0 -0.54688,-0.2652 -1.22852,-0.4883 -0.68163,-0.2231 -1.48329,-0.4594 -2.22461,-0.2266 z m 0.29883,0.9532 c 0.26436,-0.083 1.00503,0.025 1.61523,0.2246 0.22953,0.075 0.23944,0.093 0.41602,0.164 -0.084,0.079 -0.0749,0.079 -0.17383,0.166 -0.40777,0.3573 -0.94505,0.7283 -1.20508,0.8047 -0.36579,0.1076 -1.18666,0.075 -1.86132,-0.025 -0.21485,-0.032 -0.21341,-0.042 -0.38868,-0.076 0.49231,-0.5617 0.98727,-1.0662 1.59766,-1.2578 z"></path><path style="color:#000000;font-style:normal;font-variant:normal;font-weight:normal;font-stretch:normal;font-size:medium;line-height:normal;font-family:sans-serif;text-indent:0;text-align:start;text-decoration:none;text-decoration-line:none;text-decoration-style:solid;text-decoration-color:#000000;letter-spacing:normal;word-spacing:normal;text-transform:none;direction:ltr;writing-mode:lr-tb;baseline-shift:baseline;text-anchor:start;white-space:normal;clip-rule:nonzero;display:inline;overflow:visible;visibility:visible;opacity:1;isolation:auto;mix-blend-mode:normal;color-interpolation:sRGB;color-interpolation-filters:linearRGB;solid-color:#000000;solid-opacity:1;fill:#8fcfee;fill-opacity:1;fill-rule:evenodd;stroke:none;stroke-width:0.99999988;stroke-linecap:round;stroke-linejoin:round;stroke-miterlimit:4;stroke-dasharray:none;stroke-dashoffset:0;stroke-opacity:1;color-rendering:auto;image-rendering:auto;shape-rendering:auto;text-rendering:auto;enable-background:accumulate" d="m 24.10154,1045.122 c -0.73486,-0.1536 -1.51991,0.1 -2.1875,0.3399 -0.66758,0.2399 -1.19726,0.5078 -1.19726,0.5078 a 0.50004994,0.50004994 0 0 0 -0.0957,0.83 c 0,0 0.46489,0.3918 1.07422,0.8067 0.60933,0.4149 1.33574,0.8716 2.0625,0.9922 0.61789,0.1023 1.28949,-0.064 1.86524,-0.2227 0.57575,-0.1586 1.03515,-0.3359 1.03515,-0.3359 a 0.50004994,0.50004994 0 0 0 0.20508,-0.7852 c 0,0 -0.37897,-0.4581 -0.89453,-0.9453 -0.51556,-0.4872 -1.13237,-1.0339 -1.86719,-1.1875 z m -0.20508,0.9785 c 0.29696,0.062 0.92067,0.4951 1.38672,0.9356 0.16699,0.1578 0.16543,0.1731 0.29102,0.3066 -0.10541,0.033 -0.0964,0.037 -0.2168,0.07 -0.52194,0.1438 -1.16727,0.2431 -1.43554,0.1992 -0.37615,-0.062 -1.10031,-0.4481 -1.66407,-0.832 -0.18355,-0.125 -0.17904,-0.1336 -0.32422,-0.2422 0.14706,-0.061 0.1414,-0.071 0.31836,-0.1347 0.60348,-0.217 1.34753,-0.3649 1.64453,-0.3028 z"></path><path style="color:#000000;font-style:normal;font-variant:normal;font-weight:normal;font-stretch:normal;font-size:medium;line-height:normal;font-family:sans-serif;text-indent:0;text-align:start;text-decoration:none;text-decoration-line:none;text-decoration-style:solid;text-decoration-color:#000000;letter-spacing:normal;word-spacing:normal;text-transform:none;direction:ltr;writing-mode:lr-tb;baseline-shift:baseline;text-anchor:start;white-space:normal;clip-rule:nonzero;display:inline;overflow:visible;visibility:visible;opacity:1;isolation:auto;mix-blend-mode:normal;color-interpolation:sRGB;color-interpolation-filters:linearRGB;solid-color:#000000;solid-opacity:1;fill:#8fcfee;fill-opacity:1;fill-rule:evenodd;stroke:none;stroke-width:0.99999988;stroke-linecap:round;stroke-linejoin:round;stroke-miterlimit:4;stroke-dasharray:none;stroke-dashoffset:0;stroke-opacity:1;color-rendering:auto;image-rendering:auto;shape-rendering:auto;text-rendering:auto;enable-background:accumulate" d="m 18.92771,1022.8663 a 0.50004994,0.50004994 0 0 0 -0.47265,0.5801 c 0,0 0.0777,0.4876 0.23242,1.0644 0.1547,0.5769 0.35253,1.2397 0.75391,1.7207 0.47199,0.5657 1.23405,0.9601 1.90039,1.2754 0.66633,0.3153 1.24023,0.5195 1.24023,0.5195 a 0.50004994,0.50004994 0 0 0 0.66602,-0.5039 c 0,0 -0.0368,-0.5919 -0.16797,-1.289 -0.13113,-0.6971 -0.31,-1.5027 -0.81446,-2.0586 -0.50444,-0.5561 -1.28757,-0.8119 -1.96874,-1.0098 -0.68118,-0.1979 -1.26954,-0.2929 -1.26954,-0.2929 a 0.50004994,0.50004994 0 0 0 -0.0996,-0.01 z m 0.67774,1.1641 c 0.17871,0.041 0.19146,0.032 0.41211,0.096 0.61574,0.1789 1.30393,0.4959 1.50781,0.7207 0.20394,0.2247 0.45372,0.9421 0.57227,1.5722 0.0347,0.1845 0.0233,0.1842 0.0449,0.3418 -0.16689,-0.07 -0.17276,-0.061 -0.37305,-0.1562 -0.61649,-0.2918 -1.31625,-0.7209 -1.56055,-1.0137 -0.17366,-0.2081 -0.41426,-0.8163 -0.55468,-1.3398 -0.0321,-0.1198 -0.0239,-0.1138 -0.0488,-0.2207 z"></path></g></svg></g></g></svg>