<svg fill="#A35B4F" xmlns="http://www.w3.org/2000/svg" xmlns:xlink="http://www.w3.org/1999/xlink" version="1.1" x="0px" y="0px" viewBox="0 0 64 64" style="enable-background:new 0 0 64 64;" xml:space="preserve"><style type="text/css">
	.st0{display:none;}
</style><rect x="10" y="46" width="2" height="4"></rect><path d="M36.3,21H34v-2.2c0-2.1,0.8-4,2.3-5.5s3.5-2.3,5.5-2.3H44v2.3c0,2.1-0.9,4.1-2.3,5.5C40.2,20.2,38.3,21,36.3,21z M36,19h0.3  c1.5,0,2.9-0.6,4-1.6c1.1-1.1,1.7-2.6,1.7-4.1V13h-0.2c-1.5,0-3,0.6-4,1.7c-1.1,1.1-1.7,2.6-1.7,4.1L36,19L36,19z"></path><path d="M36,9c0-2.8-1.1-5.5-3.1-7.5L32,0.6l-0.9,0.9c-2,2-3.1,4.7-3.1,7.5s1.1,5.4,3,7.4V27h2V16.4C34.9,14.4,36,11.8,36,9z M30,9  c0-2,0.7-4,2-5.5C33.3,5,34,7,34,9c0,1.4-0.4,2.8-1,4V7h-2v6C30.4,11.8,30,10.4,30,9z"></path><path d="M30,23h-2.2c-2.1,0-4-0.8-5.5-2.3S20,17.2,20,15.2V13h2.3c2,0,3.9,0.8,5.4,2.2s2.3,3.5,2.3,5.5C30,20.7,30,23,30,23z M22,15  v0.2c0,1.5,0.6,3,1.7,4c1.1,1.1,2.6,1.7,4.1,1.7H28v-0.3c0-1.5-0.6-3-1.7-4.1c-1.1-1-2.5-1.6-4-1.6L22,15L22,15z"></path><polygon points="45,4 43,4 43,2 41,2 41,4 39,4 39,6 41,6 41,8 43,8 43,6 45,6 "></polygon><polygon points="50,21 48,21 48,19 46,19 46,21 44,21 44,23 46,23 46,25 48,25 48,23 50,23 "></polygon><polygon points="20,22 18,22 18,20 16,20 16,22 14,22 14,24 16,24 16,26 18,26 18,24 20,24 "></polygon><path d="M56.5,40.8c-0.9-0.5-2-0.6-3-0.1L45,45.3V28H19v12.6L14.8,42H6v15h8.8l15,4.7c0.3,0.1,0.6,0.1,0.9,0.1c0.5,0,1-0.1,1.5-0.4  l24.2-14c0.9-0.5,1.5-1.5,1.5-2.6v-1.5C58,42.3,57.5,41.3,56.5,40.8z M14,55H8V44h6V55z M27,34h4v2h-4V34z M25,36h-4v-2h4V36z   M43,44h-4v-2h4V44z M37,42v2h-4v-2H37z M33,40v-2h4v2H33z M43,40h-4v-2h4V40z M43,36h-4v-2h4V36z M37,36h-4v-2h4V36z M33,32v-2h4v2  H33z M31,32h-4v-2h4V32z M31,38v2h-4v-2H31z M31,42v2h-1v0.1L27.7,42H31z M33,46h4v3.6L36.4,50L33,46.9V46z M39,46h4v0.4l-4,2.2V46z   M43,32h-4v-2h4V32z M25,30v2h-4v-2H25z M21,38h4v1.7c-0.7-0.4-1.6-0.5-2.4-0.3L21,39.9V38z M56,44.8c0,0.4-0.2,0.7-0.5,0.9  l-24.2,14c-0.2,0.1-0.5,0.2-0.8,0.1L16,55.3V43.7l7.2-2.4c0.3-0.1,0.7,0,1,0.2L34.5,51L31,52.8l-7.5-4.7l-1.1,1.7l8.5,5.3l23.6-12.7  c0.5-0.2,0.8-0.1,1,0c0.1,0.1,0.5,0.3,0.5,0.9V44.8z"></path></svg>