<svg fill="#D9776B" xmlns="http://www.w3.org/2000/svg" xmlns:xlink="http://www.w3.org/1999/xlink" version="1.1" x="0px" y="0px" viewBox="0 0 100 100" style="enable-background:new 0 0 100 100;" xml:space="preserve"><path d="M78.5,31.7h-8.4v3H77v29H54.8c-1.2,0-2.4,0.3-3.3,0.9V38c0-1.8,1.5-3.3,3.3-3.3h0.7v-3h-0.7c-1.9,0-3.7,0.9-4.8,2.2  c-1.2-1.4-2.9-2.2-4.8-2.2H21.5c-0.8,0-1.5,0.7-1.5,1.5V70c0,0.8,0.7,1.5,1.5,1.5h57c0.8,0,1.5-0.7,1.5-1.5V33.2  C80,32.4,79.3,31.7,78.5,31.7z M23,34.7h22.2c1.8,0,3.3,1.5,3.3,3.3v26.6c-1-0.6-2.1-0.9-3.3-0.9H23V34.7z M23,66.6h22.2  c1.3,0,2.4,0.8,3,1.8H23V66.6z M51.9,68.5c0.6-1.1,1.7-1.8,3-1.8H77v1.8H51.9z M58.4,48.9c0.2,0.1,0.4,0.1,0.6,0.1  c0.3,0,0.7-0.1,1-0.3l2.8-2.4l2.8,2.4c0.4,0.4,1.1,0.4,1.6,0.2c0.5-0.2,0.9-0.8,0.9-1.4V30c0-0.8-0.7-1.5-1.5-1.5H59  c-0.8,0-1.5,0.7-1.5,1.5v17.6C57.5,48.2,57.9,48.7,58.4,48.9z M60.5,31.5h4.6v12.9l-1.3-1.1c-0.3-0.2-0.6-0.3-1-0.3s-0.7,0.1-1,0.3  l-1.3,1.1V31.5z"></path></svg>