<svg fill="#D9776B" xmlns="http://www.w3.org/2000/svg" xmlns:xlink="http://www.w3.org/1999/xlink" version="1.1" x="0px" y="0px" viewBox="0 0 100 100" style="enable-background:new 0 0 100 100;" xml:space="preserve"><g><g><path d="M46.7,88.8c-1.5,0-3,0-4.7-0.1c-14.2-0.8-25.2-6.8-26.2-10.5c-0.9-3.1-0.9-17.1,6.9-34.8C29.5,28.1,40.4,24,44.3,23.1    c2.5-7.9,9.8-11.5,10.1-11.7c0.6-0.3,1.4-0.3,2,0.1c0.6,0.4,0.9,1.1,0.9,1.8c-0.4,5.1,1,8.5,1.5,9.6c2.2,1.4,11.8,7.4,16.4,10.3    l1.4,0.9c4.3,2.6,6.4,3.9,7.3,8.2l0.1,0.3c0.8,3.6,1.4,6.7-2.2,9c-0.4,0.3-0.9,0.6-1.4,0.9c-3,2.1-7.1,4.9-10.1,2.3    c-1.4-1.2-4.8-2.6-8.4,0.2c-2.6,1.9-5.3,2.3-7.4,2.2c0.7,1.1,1.6,2.5,2.9,4.3l0.3,0.5c3.3,4.7,5.6,11.8,5.9,17.5    c0.1,2.2-0.6,4.1-2.1,5.6C58.8,87.6,54.1,88.8,46.7,88.8z M53.3,16.9c-2,1.7-4.5,4.4-5.5,8.3c-0.2,0.8-0.9,1.4-1.7,1.5    c-0.5,0.1-12.6,2-19.8,18.2c-7.9,17.8-7.1,30.8-6.7,32.1c0.8,1.5,9.4,6.9,22.6,7.6c10.9,0.6,14.9-1,16.4-2.5    c0.7-0.7,1-1.5,0.9-2.6c-0.2-5-2.3-11.2-5.2-15.4l-0.3-0.5c-3.1-4.5-4.7-6.7-4.6-9.2c0-0.7,0.4-1.3,0.9-1.6    c0.6-0.4,1.2-0.4,1.8-0.2c0.2,0.1,4,1.6,7.3-0.9c4.9-3.7,10.4-2.6,13.5,0c0.3,0.3,1.5,0,5.2-2.6c0.6-0.4,1.1-0.7,1.5-1    c1.1-0.7,1.2-1,0.4-4.8l-0.1-0.3c-0.5-2.5-1.3-3-5.5-5.6l-1.5-0.9C67.9,33.4,56.3,26.1,56.2,26c-0.3-0.2-0.5-0.4-0.6-0.6    C55.5,25.2,53.6,22.1,53.3,16.9z"></path></g><g><path d="M25.6,74.8c-0.1,0-0.1,0-0.2,0c-1.1-0.1-1.9-1.1-1.8-2.2c0.1-0.6,1.5-14.6,8.8-31c0.4-1,1.6-1.5,2.6-1    c1,0.4,1.5,1.6,1,2.6c-7,15.8-8.4,29.6-8.4,29.7C27.5,74,26.6,74.8,25.6,74.8z"></path></g></g></svg>