<svg fill="#B7888A" xmlns="http://www.w3.org/2000/svg" xmlns:xlink="http://www.w3.org/1999/xlink" version="1.1" x="0px" y="0px" viewBox="0 0 100 100" enable-background="new 0 0 100 100" xml:space="preserve"><g><path fill="#B7888A" d="M27.737,33.481c0-1.547-1.258-2.805-2.805-2.805c-1.546,0-2.804,1.258-2.804,2.805s1.258,2.805,2.804,2.805   C26.479,36.286,27.737,35.028,27.737,33.481z M24.932,34.486c-0.554,0-1.004-0.451-1.004-1.005s0.451-1.005,1.004-1.005   c0.554,0,1.005,0.451,1.005,1.005S25.486,34.486,24.932,34.486z"></path><path fill="#B7888A" d="M32.889,36.286c1.547,0,2.805-1.258,2.805-2.805s-1.258-2.805-2.805-2.805   c-1.546,0-2.804,1.258-2.804,2.805S31.342,36.286,32.889,36.286z M32.889,32.476c0.554,0,1.005,0.451,1.005,1.005   s-0.451,1.005-1.005,1.005c-0.554,0-1.004-0.451-1.004-1.005S32.335,32.476,32.889,32.476z"></path><path fill="#B7888A" d="M38.923,39.865c-0.596,0-1.146,0.19-1.602,0.508c-0.726,0.508-1.204,1.347-1.204,2.297   c0,0.038,0.01,0.073,0.011,0.111c0.06,1.494,1.285,2.693,2.794,2.693c1.546,0,2.804-1.258,2.804-2.804   C41.727,41.124,40.469,39.865,38.923,39.865z M38.923,43.675c-0.554,0-1.005-0.451-1.005-1.004c0-0.554,0.451-1.005,1.005-1.005   c0.554,0,1.004,0.451,1.004,1.005C39.927,43.224,39.477,43.675,38.923,43.675z"></path><path fill="#B7888A" d="M46.88,45.475c1.546,0,2.804-1.258,2.804-2.804c0-1.547-1.258-2.805-2.804-2.805   c-1.547,0-2.805,1.258-2.805,2.805C44.075,44.217,45.333,45.475,46.88,45.475z M46.88,41.665c0.554,0,1.004,0.451,1.004,1.005   c0,0.554-0.451,1.004-1.004,1.004c-0.554,0-1.005-0.451-1.005-1.004C45.875,42.116,46.326,41.665,46.88,41.665z"></path><path fill="#B7888A" d="M29.017,39.225c-2.125,0-3.315,1.628-3.365,1.697c-0.289,0.404-0.196,0.966,0.208,1.256   c0.405,0.289,0.967,0.196,1.256-0.208c0.006-0.009,0.71-0.945,1.901-0.945c1.06,0,1.583,0.826,1.613,0.876   c0.167,0.286,0.468,0.445,0.777,0.445c0.151,0,0.305-0.039,0.446-0.12c0.431-0.247,0.581-0.797,0.333-1.228   C32.146,40.926,31.146,39.225,29.017,39.225z"></path><path fill="#B7888A" d="M41.166,49.172c-0.249-0.425-0.793-0.571-1.224-0.326c-0.431,0.247-0.581,0.797-0.334,1.229   c0.042,0.072,1.041,1.775,3.171,1.775c2.125,0,3.316-1.629,3.366-1.698c0.289-0.404,0.196-0.966-0.208-1.256   c-0.405-0.289-0.967-0.197-1.256,0.208c-0.007,0.009-0.71,0.946-1.902,0.946C41.718,50.049,41.195,49.22,41.166,49.172z"></path><path fill="#B7888A" d="M69.33,35.798c0.211,0,0.422-0.073,0.593-0.223c1.513-1.325,3.194-1.195,3.352-1.185   c2.452,0,6.302,0.317,6.341,0.32c0.488,0.039,0.931-0.327,0.971-0.823c0.042-0.495-0.327-0.93-0.822-0.971   c-0.159-0.013-3.906-0.322-6.345-0.322c-0.018,0-0.036,0-0.054,0c-0.101-0.009-2.51-0.23-4.628,1.625   c-0.374,0.328-0.412,0.896-0.084,1.27C68.831,35.694,69.08,35.798,69.33,35.798z"></path><path fill="#B7888A" d="M69.33,40.216c0.211,0,0.422-0.073,0.593-0.223c1.513-1.325,3.194-1.196,3.352-1.185   c2.452,0,6.302,0.317,6.341,0.32c0.488,0.034,0.931-0.327,0.971-0.823c0.042-0.495-0.327-0.93-0.822-0.971   c-0.16-0.013-3.919-0.309-6.398-0.322c-0.101-0.01-2.51-0.23-4.628,1.625c-0.374,0.328-0.412,0.896-0.084,1.27   C68.831,40.112,69.08,40.216,69.33,40.216z"></path><path fill="#B7888A" d="M69.33,44.634c0.211,0,0.422-0.073,0.593-0.223c1.513-1.325,3.194-1.196,3.352-1.185   c2.452,0,6.302,0.317,6.341,0.32c0.488,0.039,0.931-0.327,0.971-0.823c0.042-0.495-0.327-0.93-0.822-0.971   c-0.159-0.013-3.906-0.322-6.345-0.322c-0.018,0-0.036,0-0.054,0c-0.101-0.011-2.51-0.23-4.628,1.625   c-0.374,0.328-0.412,0.896-0.084,1.27C68.831,44.53,69.08,44.634,69.33,44.634z"></path><path fill="#B7888A" d="M69.33,49.052c0.211,0,0.422-0.073,0.593-0.223c1.513-1.325,3.194-1.194,3.352-1.185   c2.452,0,6.302,0.317,6.341,0.32c0.488,0.035,0.931-0.327,0.971-0.823c0.042-0.495-0.327-0.93-0.822-0.971   c-0.159-0.013-3.906-0.322-6.345-0.322c-0.018,0-0.036,0-0.054,0c-0.101-0.009-2.51-0.23-4.628,1.625   c-0.374,0.328-0.412,0.896-0.084,1.27C68.831,48.948,69.08,49.052,69.33,49.052z"></path><path fill="#B7888A" d="M63.147,63.17c-1.652,0-2.997,1.345-2.997,2.996s1.345,2.996,2.997,2.996c1.651,0,2.996-1.345,2.996-2.996   S64.799,63.17,63.147,63.17z M63.147,67.361c-0.66,0-1.196-0.536-1.196-1.195s0.536-1.195,1.196-1.195   c0.659,0,1.195,0.536,1.195,1.195S63.807,67.361,63.147,67.361z"></path><path fill="#B7888A" d="M66.144,55.52c0-0.459-0.112-0.889-0.298-1.278c-0.481-1.011-1.506-1.716-2.698-1.716   c-0.024,0-0.048,0.007-0.072,0.008c-1.618,0.039-2.925,1.36-2.925,2.986c0,1.651,1.345,2.996,2.997,2.996   c1.54,0,2.799-1.175,2.963-2.672c0.005,0.004,0.011,0.007,0.015,0.011c-0.005-0.004-0.009-0.01-0.014-0.015   C66.123,55.733,66.144,55.629,66.144,55.52z M63.147,56.715c-0.66,0-1.196-0.536-1.196-1.195c0-0.658,0.536-1.193,1.196-1.193   c0.659,0,1.195,0.535,1.195,1.193C64.343,56.179,63.807,56.715,63.147,56.715z"></path><path fill="#B7888A" d="M57.823,58.018c-1.651,0-2.995,1.345-2.995,2.996s1.344,2.996,2.995,2.996s2.996-1.345,2.996-2.996   S59.475,58.018,57.823,58.018z M57.823,62.209c-0.659,0-1.194-0.536-1.194-1.195s0.535-1.195,1.194-1.195s1.195,0.536,1.195,1.195   S58.482,62.209,57.823,62.209z"></path><path fill="#B7888A" d="M65.475,61.014c0,1.651,1.344,2.996,2.995,2.996s2.996-1.345,2.996-2.996s-1.345-2.996-2.996-2.996   S65.475,59.362,65.475,61.014z M69.665,61.014c0,0.659-0.536,1.195-1.195,1.195s-1.194-0.536-1.194-1.195s0.535-1.195,1.194-1.195   S69.665,60.354,69.665,61.014z"></path><path fill="#B7888A" d="M82.14,29.254c-0.139-0.03-3.439-0.728-7.047-0.728c-1.148,0-2.213,0.073-3.163,0.215   c-2.854,0.428-4.375,1.584-5.184,2.767c-0.809-1.183-2.329-2.339-5.183-2.767c-0.95-0.143-2.05-0.215-3.266-0.215   c-3.81,0-7.568,0.693-7.727,0.723c-0.426,0.08-0.735,0.451-0.735,0.885v6.297H38.443c0.799-4.058,0.633-7.793,0.62-8.057   c-0.024-0.479-0.419-0.854-0.899-0.854H19.626c-0.479,0-0.875,0.376-0.899,0.854c-0.022,0.452-0.502,11.13,4.239,16.116   c1.593,1.675,3.588,2.524,5.93,2.524c1.699,0,3.212-0.453,4.525-1.338c0.588,2.806,1.648,5.724,3.551,7.725   c1.593,1.675,3.588,2.524,5.93,2.524s4.336-0.85,5.929-2.524c0.401-0.422,0.763-0.888,1.093-1.383   c0.047,0.103,0.11,0.198,0.193,0.277c0.179,0.17,0.414,0.26,0.665,0.247c0.036-0.002,2.124-0.103,4.72-0.188   c-2.204,2.054-3.594,4.972-3.594,8.215c0,0.161,0.018,0.318,0.024,0.478c-0.631-0.462-1.372-0.814-2.233-0.927   c-3.717-0.479-4.748,2.597-5.242,4.078c-0.063,0.189-0.121,0.362-0.177,0.507c-0.118,0.302-0.223,0.605-0.326,0.903   c-0.615,1.776-0.986,2.848-3.563,2.848c-2.017,0-2.94-1.933-3.648-3.744l-0.084-0.216c-1.011-2.557-2.302-5.054-5.935-5.054   c-3.287,0-5.582,2.224-5.582,5.407c0,0.497,0.403,0.9,0.9,0.9s0.9-0.403,0.9-0.9c0-2.191,1.485-3.606,3.782-3.606   c2.307,0,3.212,1.262,4.261,3.915l0.082,0.208c0.62,1.588,1.909,4.891,5.325,4.891c3.859,0,4.638-2.251,5.264-4.06   c0.096-0.276,0.193-0.558,0.302-0.838c0.066-0.169,0.133-0.37,0.208-0.591c0.597-1.788,1.22-3.132,3.303-2.863   c2.256,0.293,3.5,3.421,3.513,3.452c0.013,0.032,0.038,0.054,0.054,0.084c1.819,3.763,5.664,6.37,10.115,6.37   c6.197,0,11.24-5.043,11.24-11.242c0-3.216-1.365-6.112-3.537-8.163c0.403-0.101,0.85-0.163,1.354-0.163   c4.354,0,9.644,0.296,9.696,0.299c0.243,0.012,0.488-0.075,0.669-0.244c0.18-0.17,0.282-0.407,0.282-0.654v-21.51   C82.852,29.71,82.555,29.343,82.14,29.254z M28.896,45.215c-1.854,0-3.367-0.642-4.624-1.962   c-3.494-3.671-3.773-11.363-3.764-13.932h16.774c0.006,1.372-0.076,4.208-0.682,7.111h-2.969c-0.479,0-0.875,0.376-0.899,0.854   c-0.011,0.227-0.137,3.029,0.339,6.395C31.907,44.711,30.536,45.215,28.896,45.215z M49.836,48.127   c-0.545,1.534-1.287,2.958-2.311,4.034c-1.257,1.322-2.77,1.964-4.625,1.964c-1.854,0-3.367-0.642-4.624-1.962   c-1.853-1.947-2.797-5.024-3.278-7.869c-0.151-0.893-0.259-1.761-0.331-2.565c-0.132-1.465-0.157-2.718-0.154-3.497h1.637h1.874   h11.812h1.451C51.295,40.047,51.153,44.419,49.836,48.127z M51.637,50.702v-2.27c1.705-5.037,1.447-10.816,1.431-11.146   c-0.023-0.479-0.419-0.854-0.898-0.854h-0.532v-5.536c1.266-0.199,3.982-0.569,6.661-0.569c1.127,0,2.136,0.065,2.998,0.195   c4.106,0.616,4.55,2.914,4.55,3.874v15.276c-0.866-0.215-1.767-0.341-2.698-0.341c-1.767,0-3.433,0.421-4.921,1.15   C55.611,50.537,52.991,50.643,51.637,50.702z M72.587,60.57c0,5.206-4.234,9.441-9.439,9.441c-3.881,0-7.22-2.355-8.669-5.71   c-0.01-0.022-0.02-0.042-0.03-0.065c-0.478-1.128-0.741-2.366-0.741-3.666c0-3.578,2.001-6.697,4.942-8.298   c1.338-0.728,2.87-1.142,4.498-1.142c0.493,0,0.974,0.05,1.446,0.123c0.427,0.065,0.846,0.153,1.252,0.274   c0.63,0.188,1.233,0.437,1.801,0.745c0.521,0.283,1.01,0.616,1.466,0.988C71.23,54.994,72.587,57.626,72.587,60.57z M81.051,50.696   c-1.738-0.085-5.554-0.252-8.847-0.252c-1.19,0-2.187,0.261-3.018,0.663c-0.489-0.313-1.003-0.593-1.54-0.829V34.396   c0-0.959,0.443-3.258,4.551-3.874c0.862-0.13,1.836-0.195,2.896-0.195c2.456,0,4.817,0.353,5.958,0.553V50.696z"></path></g></svg>