<svg fill="#5388AA" xmlns="http://www.w3.org/2000/svg" data-name="Layer 1" viewBox="0 0 100 100" x="0px" y="0px"><title>143all</title><path d="M63.47,41a12,12,0,1,0,12-12A12,12,0,0,0,63.47,41Zm20,0a8,8,0,1,1-8-8A8,8,0,0,1,83.47,41Z"></path><path d="M73.3,87l0,0H94V83H88.1L70.46,69.33a2,2,0,0,0-2.19-.17l-9.9,5.43-4.48-2.37H61a2,2,0,0,0,1.75-3L55.82,56.7h4.47a2,2,0,0,0,1.62-3.17L51.35,39h2.51a2,2,0,0,0,1.55-3.26l-17.86-22a2.07,2.07,0,0,0-3.11,0l-17.86,22A2,2,0,0,0,18.14,39h2.21L10.17,51.43a2,2,0,0,0,1.55,3.27h4.65L9.2,69.34A2,2,0,0,0,11,72.22H34V83H6v4H73.23ZM69,73.3,81.56,83H74.23L62.6,76.83ZM21.37,53.58a2,2,0,0,0-1.8-2.88H15.94L26.12,38.25A2,2,0,0,0,24.57,35H22.34L36,18.16,49.66,35H47.43a2,2,0,0,0-1.62,3.17L56.36,52.7H52.43a2,2,0,0,0-1.75,3l6.93,12.56H14.2ZM51.6,72.22,38,80.53V72.22ZM41.66,83,52.8,76.18,65.67,83Z"></path></svg>