<svg fill="#D9776B" xmlns="http://www.w3.org/2000/svg" xmlns:xlink="http://www.w3.org/1999/xlink" version="1.1" x="0px" y="0px" viewBox="0 0 100 100" enable-background="new 0 0 100 100" xml:space="preserve"><g><g><path d="M84.938,62.805l-0.002,0.002c-0.659-0.755-1.806-0.834-2.563-0.174c-0.757,0.659-0.839,1.805-0.177,2.563    c3.376,3.891,6.126,9.435,6.503,17.282h-9.076v-3.057c0-1.004-0.812-1.817-1.819-1.817c-1.001,0-1.815,0.813-1.815,1.817v3.057    H58.894v-6.434c0-1.007-0.81-1.822-1.817-1.822c-1.003,0-1.819,0.814-1.819,1.822v6.434H39.121v-3.055    c0-1.008-0.813-1.819-1.817-1.819c-1.004,0-1.819,0.811-1.819,1.819v3.055h-9.666c0.441-8.702,3.935-14.292,7.866-18.052    c0.727-0.694,0.76-1.843,0.067-2.568c-0.689-0.727-1.842-0.761-2.57-0.068c-4.817,4.542-9.067,11.793-9.049,22.511    c0,0.48,0.197,0.943,0.531,1.284c0.34,0.339,0.808,0.535,1.288,0.535h34.267h32.343c0.478,0,0.946-0.196,1.288-0.535    c0.338-0.341,0.531-0.804,0.531-1.284C92.393,74.663,89.12,67.591,84.938,62.805z"></path><path d="M60.379,47.263h-7.456c-1.001,0-1.815,0.814-1.815,1.815c0,1.006,0.814,1.815,1.815,1.815h7.456    c1.003,0,1.819-0.81,1.819-1.815C62.198,48.078,61.382,47.263,60.379,47.263z"></path><path d="M16.253,39.963c0.417,0,0.834-0.143,1.174-0.432c0.768-0.646,0.861-1.797,0.212-2.561l-3.73-4.395H37.48    c-0.633,2.166-0.977,4.474-0.982,6.86c0.021,12.386,9.154,22.637,20.76,22.668c11.604-0.031,20.737-10.282,20.758-22.668    c-0.021-12.395-9.152-22.648-20.758-22.677c-8.072,0.02-14.941,4.99-18.387,12.179H14.144l3.495-4.114    c0.649-0.768,0.556-1.917-0.212-2.563c-0.763-0.65-1.909-0.56-2.561,0.209L8.83,29.578c-0.298,0.351-0.428,0.795-0.416,1.239    c-0.057,0.482,0.076,0.987,0.416,1.389l6.036,7.112C15.225,39.745,15.739,39.963,16.253,39.963z M45.211,25.908    c3.128-3.434,7.367-5.508,12.047-5.513c4.683,0.005,8.923,2.079,12.047,5.513c3.12,3.437,5.074,8.216,5.074,13.527    c0,5.309-1.954,10.086-5.074,13.522c-3.124,3.43-7.364,5.508-12.047,5.511c-4.682-0.003-8.919-2.081-12.047-5.511    c-3.118-3.437-5.074-8.213-5.072-13.522C40.137,34.125,42.093,29.345,45.211,25.908z"></path><path d="M28.855,51.637c0.051-0.497-0.094-1.014-0.456-1.412l-6.467-7.114c-0.669-0.743-1.819-0.8-2.564-0.125    c-0.744,0.677-0.796,1.826-0.122,2.57l3.951,4.344H12.176c-1.001,0-1.815,0.817-1.815,1.822c0,1.003,0.814,1.815,1.815,1.815    l10.771-0.004l-3.7,4.077c-0.674,0.749-0.622,1.896,0.122,2.57c0.349,0.313,0.786,0.471,1.224,0.471    c0.492,0,0.985-0.202,1.344-0.598l6.464-7.11C28.727,52.581,28.875,52.108,28.855,51.637z"></path><path d="M50.768,35.096c1.006,0,1.82-0.814,1.82-1.815h-0.003c0.005-2.279,1.849-4.117,4.124-4.122    c2.273,0.004,4.115,1.842,4.121,4.122c-0.006,2.275-1.848,4.118-4.121,4.118c-0.48,0-0.946,0.196-1.288,0.535    c-0.338,0.339-0.527,0.806-0.527,1.284v3.565c0,1.005,0.81,1.815,1.815,1.815c1.005,0,1.817-0.81,1.817-1.815v-1.959    c3.405-0.822,5.937-3.883,5.939-7.543c-0.003-4.283-3.473-7.758-7.757-7.758c-4.286,0-7.759,3.475-7.759,7.758    C48.95,34.282,49.765,35.096,50.768,35.096z"></path><path d="M55.257,65.856v3.633c0,1.008,0.816,1.819,1.819,1.819c1.008,0,1.817-0.811,1.817-1.819v-3.633    c0-1.006-0.81-1.818-1.817-1.818C56.073,64.038,55.257,64.85,55.257,65.856z"></path></g></g></svg>