<svg fill="#A98889" xmlns="http://www.w3.org/2000/svg" xmlns:xlink="http://www.w3.org/1999/xlink" version="1.1" x="0px" y="0px" viewBox="0 0 100 100" enable-background="new 0 0 100 100" xml:space="preserve"><g><path fill="#A98889" d="M93.434,57.304c-0.101,0.009-12.424,0.251-24.865,5.285l0,0c-0.783,0.318-1.543,0.649-2.288,0.987   c2.202-2.463,4.381-5.213,6.336-8.255c8.662-13.501,9.464-26.946,9.48-27.09c0.034-0.571-0.256-1.119-0.748-1.411   c-0.492-0.292-1.112-0.285-1.597,0.019c-0.047,0.03-3.327,2.088-7.682,5.816c-4.153,3.557-9.278,8.646-13.506,14.961   c0.362-2.605,0.586-5.346,0.586-8.192c-0.017-17.04-7.766-30.628-7.823-30.751c-0.273-0.481-0.781-0.776-1.334-0.776   c-0.553,0-1.061,0.296-1.333,0.777c-0.057,0.123-7.795,13.71-7.812,30.75c0,2.846,0.224,5.588,0.586,8.193   c-4.229-6.316-9.354-11.405-13.507-14.962c-4.354-3.727-7.634-5.786-7.682-5.816c-0.485-0.304-1.105-0.311-1.597-0.019   c-0.492,0.292-0.783,0.84-0.748,1.411c0.016,0.144,0.817,13.59,9.48,27.09c1.956,3.042,4.136,5.792,6.338,8.256   c-0.744-0.338-1.504-0.67-2.287-0.988l-0.001,0C18.99,57.555,6.667,57.313,6.566,57.304c-0.62-0.013-1.19,0.351-1.438,0.92   C4.88,58.793,5,59.458,5.431,59.904c0.091,0.087,7.688,7.949,20.129,13.01l0.001,0c4.011,1.625,7.987,2.735,11.561,3.513   c-1.067,0.327-2.153,0.695-3.245,1.121l0,0c-8.614,3.367-13.968,8.646-14.058,8.729c-0.445,0.438-0.58,1.106-0.339,1.683   c0.24,0.577,0.81,0.951,1.434,0.943c0.1-0.007,8.443-0.096,17.056-3.437l0.001,0c2.778-1.084,5.214-2.368,7.246-3.613l-2.376,3.306   c-0.494,0.688-0.337,1.646,0.35,2.14c0.688,0.494,1.646,0.337,2.14-0.35l3.131-4.356v7.977c0,0.847,0.687,1.533,1.533,1.533   c0.847,0,1.533-0.687,1.533-1.533v-7.991l3.14,4.37c0.494,0.688,1.452,0.844,2.14,0.35c0.688-0.494,0.845-1.452,0.35-2.14   l-2.393-3.33c2.041,1.253,4.469,2.545,7.263,3.637l0.002,0.001c8.612,3.34,16.955,3.429,17.056,3.437   c0.625,0.008,1.194-0.367,1.434-0.943c0.24-0.577,0.106-1.244-0.339-1.683c-0.091-0.082-5.444-5.361-14.058-8.729   c-1.093-0.426-2.178-0.794-3.246-1.121c3.574-0.778,7.55-1.888,11.561-3.513l0.001,0c12.441-5.061,20.038-12.923,20.129-13.01   c0.431-0.446,0.551-1.111,0.303-1.679C94.624,57.656,94.054,57.291,93.434,57.304z M74.066,34.985   c1.755-1.503,3.308-2.705,4.543-3.614c-0.783,4.652-2.925,13.521-8.57,22.293c-4.105,6.391-9.336,11.603-13.537,15.197   c-1.755,1.503-3.308,2.705-4.543,3.614c0.783-4.652,2.925-13.522,8.57-22.293C64.633,43.791,69.865,38.579,74.066,34.985z    M47.636,18.721c0.847-2.416,1.692-4.405,2.361-5.857c2.141,4.65,6.099,14.854,6.087,26.561c0.001,6.739-1.297,12.971-2.818,17.936   c-1.066,2.476-1.896,4.837-2.544,6.994l-0.033,0.089l-0.011,0.041l-0.005,0.034c-0.251,0.844-0.476,1.658-0.674,2.432   c-0.713-2.789-1.753-6.074-3.264-9.584c-1.522-4.967-2.82-11.201-2.819-17.942C43.914,31.375,45.772,24.033,47.636,18.721z    M22.373,36.013c-0.458-1.804-0.77-3.381-0.983-4.647c4.192,3.094,12.271,9.757,18.081,18.815   c4.106,6.388,6.365,12.823,7.589,17.65c0.457,1.804,0.77,3.381,0.983,4.647c-0.813-0.6-1.768-1.332-2.829-2.192l-0.035-0.029   c-4.407-3.577-10.546-9.312-15.217-16.595C25.855,47.276,23.596,40.84,22.373,36.013z M12.709,62.092   c-0.652-0.491-1.227-0.948-1.76-1.381c4.555,0.504,11.988,1.738,19.329,4.719l-0.001-0.001c5.365,2.181,9.823,4.929,13.057,7.282   l0.003,0.002c0.864,0.699,1.663,1.319,2.375,1.853c-0.234,0.032-0.473,0.065-0.719,0.102c-4.597-0.571-11.465-1.832-18.279-4.597   l0.001,0C20.807,67.673,16.013,64.58,12.709,62.092z M36.856,82.608l0.001,0c-3.999,1.556-8.022,2.371-11.03,2.788l-0.058,0.008   c2.251-1.594,5.405-3.512,9.222-4.998l0,0c3.657-1.427,7.331-2.235,10.225-2.671l0.02-0.001c0.289-0.044,0.56-0.081,0.833-0.118   C43.816,79.208,40.674,81.121,36.856,82.608z M74.223,85.399c-3.014-0.416-7.053-1.222-11.08-2.792   c-3.813-1.487-6.956-3.398-9.207-4.993c0.272,0.037,0.541,0.074,0.829,0.117l0.019,0.001c2.893,0.437,6.567,1.244,10.224,2.671   C68.824,81.892,71.973,83.806,74.223,85.399z M73.285,70.073L73.285,70.073c-6.814,2.764-13.681,4.026-18.279,4.596   c-0.246-0.036-0.485-0.07-0.719-0.102c0.683-0.512,1.446-1.104,2.27-1.768l0.021-0.013v0l0.081-0.063   c3.245-2.362,7.697-5.115,13.063-7.292l-0.001,0c5.907-2.396,11.878-3.669,16.358-4.335c1.088-0.162,2.084-0.287,2.974-0.385   C85.818,63.34,80.354,67.205,73.285,70.073z"></path></g></svg>