<svg fill="#857799" xmlns:dc="http://purl.org/dc/elements/1.1/" xmlns:cc="http://creativecommons.org/ns#" xmlns:rdf="http://www.w3.org/1999/02/22-rdf-syntax-ns#" xmlns:svg="http://www.w3.org/2000/svg" xmlns="http://www.w3.org/2000/svg" xmlns:sodipodi="http://sodipodi.sourceforge.net/DTD/sodipodi-0.dtd" xmlns:inkscape="http://www.inkscape.org/namespaces/inkscape" viewBox="0 0 100 100" version="1.1" x="0px" y="0px"><g transform="translate(0,-952.36216)"><path style="color:#000000;font-style:normal;font-variant:normal;font-weight:normal;font-stretch:normal;font-size:medium;line-height:normal;font-family:sans-serif;text-indent:0;text-align:start;text-decoration:none;text-decoration-line:none;text-decoration-style:solid;text-decoration-color:#000000;letter-spacing:normal;word-spacing:normal;text-transform:none;direction:ltr;block-progression:tb;writing-mode:lr-tb;baseline-shift:baseline;text-anchor:start;white-space:normal;clip-rule:nonzero;display:inline;overflow:visible;visibility:visible;opacity:1;isolation:auto;mix-blend-mode:normal;color-interpolation:sRGB;color-interpolation-filters:linearRGB;solid-color:#000000;solid-opacity:1;fill:#857799;fill-opacity:1;fill-rule:evenodd;stroke:none;stroke-width:8;stroke-linecap:round;stroke-linejoin:round;stroke-miterlimit:4;stroke-dasharray:none;stroke-dashoffset:0;stroke-opacity:1;color-rendering:auto;image-rendering:auto;shape-rendering:auto;text-rendering:auto;enable-background:accumulate" d="m 88.013978,973.12497 a 0.74425519,0.74425519 0 0 0 -0.09302,0.01 l -9.176896,1.4803 a 0.74425519,0.74425519 0 0 0 -0.610461,0.8837 l 1.045414,5.1105 -2.091918,-0.9096 a 0.74425519,0.74425519 0 0 0 -0.391713,-0.055 l -9.176893,1.1842 a 0.74425519,0.74425519 0 0 0 -0.27399,0.092 l -2.81248,1.6068 -2.19511,-0.7747 a 0.74425519,0.74425519 0 0 0 -0.32013,-0.039 l -13.61727,1.3321 a 0.74425519,0.74425519 0 0 0 -0.61519,0.4563 l -1.67477,4.0472 -5.5392,2.9826 a 0.74425519,0.74425519 0 0 0 -0.23219,0.1955 l -1.33502,1.6991 -9.0083,-2.1112 -14.65069,-3.5515 a 0.74425519,0.74425519 0 0 0 -0.86628,0.4465 l -1.09665,2.7428 -7.9447103,5.1998 a 0.74425519,0.74425519 0 0 0 -0.31795,0.7878 l 0.73983,3.2561 a 0.74425519,0.74425519 0 0 0 0.53415,0.5541 l 6.2528603,1.66753 0.0414,0.1458 -4.1900203,3.2438 a 0.74425519,0.74425519 0 0 0 -0.28415,0.5061 l -0.29579,2.6643 a 0.74425519,0.74425519 0 0 0 0.12973,0.509 l 1.03633,1.48 a 0.74425519,0.74425519 0 0 0 0.82339,0.2864 l 2.1936703,-0.6581 0.32521,1.4633 -1.45929,1.3376 a 0.74425519,0.74425519 0 0 0 -0.2322,0.6646 l 0.44404,2.8121 a 0.74425519,0.74425519 0 0 0 0.50581,0.5923 l 4.78376,1.5476 3.08065,4.6827 -8.53846,3.9306 a 0.74425519,0.74425519 0 0 0 -0.10901,1.2899 l 2.81212,1.9244 a 0.74425519,0.74425519 0 0 0 0.37391,0.1287 l 7.1046,0.444 a 0.74425519,0.74425519 0 0 0 0.58938,-0.234 l 1.97528,-2.1072 10.89236,0.8601 a 0.74425519,0.74425519 0 0 0 0.6657,-0.3118 l 2.5007,-3.5301 1.5178,-1.8434 6.52539,6.9335 a 0.74425519,0.74425519 0 0 0 1.03633,0.046 l 2.27687,-2.0239 6.20345,3.3085 a 0.74425519,0.74425519 0 0 0 0.61518,0.039 l 6.21653,-2.368 a 0.74425519,0.74425519 0 0 0 0.36591,-1.0902 l -1.90624,-3.0501 1.94948,-1.9494 a 0.74425519,0.74425519 0 0 0 -0.0578,-1.1047 l -2.30812,-1.8684 7.18127,-4.6167 3.26888,0.5447 a 0.74425519,0.74425519 0 0 0 0.86372,-0.6689 l 0.740189,-8.4367 a 0.74425519,0.74425519 0 0 0 -0.251449,-0.625 l -2.10355,-1.8405 0.12137,-3.8822 10.03699,-3.67553 a 0.74425519,0.74425519 0 0 0 0.409517,-0.3659 l 1.406967,-2.814 6.166743,0.4114 a 0.74425519,0.74425519 0 0 0 0.767436,-0.9383 l -1.189307,-4.3608 2.208197,-1.4353 4.25106,1.3714 a 0.74425519,0.74425519 0 0 0 0.844833,-1.1254 l -2.864078,-4.2278 0.24927,-0.4985 a 0.74425519,0.74425519 0 0 0 -0.153704,-0.8732 l -2.567932,-2.4327 0.135536,-3.6599 a 0.74425519,0.74425519 0 0 0 -0.05996,-0.3209 l -0.888076,-2.0719 a 0.74425519,0.74425519 0 0 0 -0.709297,-0.4509 z m -0.429502,1.5712 0.593019,1.3844 -0.141714,3.8292 a 0.74425519,0.74425519 0 0 0 0.231829,0.568 l 2.411683,2.2845 -0.19731,0.3946 a 0.74425519,0.74425519 0 0 0 0.04978,0.7503 l 1.896425,2.7994 -2.531957,-0.8168 a 0.74425519,0.74425519 0 0 0 -0.634082,0.084 l -2.960369,1.924 a 0.74425519,0.74425519 0 0 0 -0.312498,0.8198 l 1.057404,3.8768 -5.61842,-0.3747 a 0.74425519,0.74425519 0 0 0 -0.715111,0.4099 l -1.495991,2.9916 -10.231398,3.7467 a 0.74425519,0.74425519 0 0 0 -0.48764,0.67593 l -0.14825,4.7362 a 0.74425519,0.74425519 0 0 0 0.25399,0.5836 l 2.08392,1.8233 -0.63698,7.2591 -2.7587,-0.4597 a 0.74425519,0.74425519 0 0 0 -0.52507,0.1079 l -8.28846,5.3285 a 0.74425519,0.74425519 0 0 0 -0.0661,1.2045 l 2.46619,1.996 -1.78378,1.7838 a 0.74425519,0.74425519 0 0 0 -0.10501,0.9204 l 1.74054,2.7849 -5.05447,1.9255 -6.36187,-3.3932 a 0.74425519,0.74425519 0 0 0 -0.84447,0.1003 l -2.12354,1.8877 -6.60896,-7.0217 a 0.74425519,0.74425519 0 0 0 -1.11627,0.037 l -2.0723,2.5163 a 0.74425519,0.74425519 0 0 0 -0.0327,0.043 l -2.27215,3.2075 -10.82732,-0.8547 a 0.74425519,0.74425519 0 0 0 -0.60138,0.2326 l -1.98073,2.1126 -6.55046,-0.4092 -1.55922,-1.0672 8.13221,-3.7434 a 0.74425519,0.74425519 0 0 0 0.31032,-1.085 l -3.70019,-5.6246 a 0.74425519,0.74425519 0 0 0 -0.3928,-0.2991 l -4.59772,-1.4872 -0.31032,-1.9666 1.48146,-1.3579 a 0.74425519,0.74425519 0 0 0 0.22384,-0.71 l -0.59229,-2.6643 a 0.74425519,0.74425519 0 0 0 -0.94004,-0.5515 l -2.4451203,0.7336 -0.56685,-0.8096 0.23037,-2.0719 4.3390003,-3.3594 a 0.74425519,0.74425519 0 0 0 0.25981,-0.7929 l -0.29578,-1.0359 a 0.74425519,0.74425519 0 0 0 -0.52398,-0.5149 l -6.2263403,-1.66033 -0.5258,-2.3139 7.7081603,-5.045 a 0.74425519,0.74425519 0 0 0 0.28343,-0.3463 l 0.9444,-2.3612 14.02679,3.4001 a 0.74425519,0.74425519 0 0 0 0.005,0 l 9.47268,2.2202 a 0.74425519,0.74425519 0 0 0 0.75508,-0.2649 l 1.53233,-1.9502 5.63586,-3.0345 a 0.74425519,0.74425519 0 0 0 0.33503,-0.371 l 1.60536,-3.8797 13.00827,-1.2725 2.36045,0.8332 a 0.74425519,0.74425519 0 0 0 0.617,-0.056 l 2.98036,-1.7031 8.826968,-1.1392 3.216184,1.3983 a 0.74425519,0.74425519 0 0 0 1.025792,-0.8314 l -1.176589,-5.7525 7.837153,-1.2638 z"></path></g></svg>