<svg fill="#A98889" xmlns:xlink="http://www.w3.org/1999/xlink" xmlns="http://www.w3.org/2000/svg" stroke-width="0.501" stroke-linejoin="bevel" fill-rule="evenodd" version="1.1" overflow="visible" viewBox="0 0 96 96" x="0px" y="0px"><g fill="none" stroke="black" font-family="Times New Roman" font-size="16" transform="scale(1 -1)"><g transform="translate(0 -96)"><g><path d="M 69.172,64.874 C 69.172,62.804 67.491,61.124 65.422,61.124 C 63.352,61.124 61.672,62.804 61.672,64.874 C 61.672,66.943 63.352,68.624 65.422,68.624 C 67.491,68.624 69.172,66.943 69.172,64.874 Z M 37.672,64.874 C 37.672,62.804 35.991,61.124 33.922,61.124 C 31.852,61.124 30.172,62.804 30.172,64.874 C 30.172,66.943 31.852,68.624 33.922,68.624 C 35.991,68.624 37.672,66.943 37.672,64.874 Z M 57.922,64.874 C 57.922,60.733 61.281,57.374 65.422,57.374 C 69.562,57.374 72.922,60.733 72.922,64.874 C 72.922,69.014 69.562,72.374 65.422,72.374 C 61.281,72.374 57.922,69.014 57.922,64.874 Z M 26.422,64.874 C 26.422,60.733 29.781,57.374 33.922,57.374 C 38.062,57.374 41.422,60.733 41.422,64.874 C 41.422,69.014 38.062,72.374 33.922,72.374 C 29.781,72.374 26.422,69.014 26.422,64.874 Z M 39.036,36.207 L 28.824,36.207 L 28.824,39.957 L 39.036,39.957 L 39.036,36.207 Z M 28.822,25.499 C 28.822,24.464 29.662,23.624 30.697,23.624 C 31.731,23.624 32.572,24.464 32.572,25.499 L 32.572,32.249 L 32.529,32.457 L 35.254,32.457 L 35.212,32.249 L 35.212,25.499 C 35.212,24.464 36.052,23.624 37.087,23.624 C 38.121,23.624 38.962,24.464 38.962,25.499 L 38.962,32.249 L 38.919,32.457 L 40.886,32.457 C 41.917,32.457 42.756,33.291 42.76,34.323 L 42.76,48.807 L 49.098,42.558 C 49.829,41.829 51.014,41.829 51.745,42.558 L 57.223,48.018 L 55.101,33.095 C 54.941,31.967 55.818,30.957 56.958,30.957 L 60.322,30.957 L 60.322,25.499 C 60.322,24.464 61.162,23.624 62.197,23.624 C 63.231,23.624 64.072,24.464 64.072,25.499 L 64.072,30.957 L 66.712,30.957 L 66.712,25.499 C 66.712,24.464 67.552,23.624 68.587,23.624 C 69.621,23.624 70.462,24.464 70.462,25.499 L 70.462,30.957 L 73.886,30.957 C 75.025,30.957 75.902,31.967 75.742,33.095 L 73.62,48.018 L 79.098,42.558 C 79.831,41.827 81.019,41.829 81.749,42.562 C 82.48,43.295 82.478,44.483 81.745,45.213 L 72.298,54.63 C 71.029,55.896 68.866,54.813 69.118,53.039 L 71.725,34.707 L 59.118,34.707 L 61.725,53.039 C 61.977,54.813 59.814,55.896 58.545,54.63 L 50.422,46.533 L 42.298,54.63 C 41.123,55.802 39.107,54.971 39.1,53.311 L 39.1,43.707 L 28.743,43.707 L 28.743,53.311 C 28.736,54.971 26.72,55.802 25.545,54.63 L 16.098,45.213 C 15.365,44.483 15.363,43.295 16.094,42.562 C 16.824,41.829 18.012,41.827 18.745,42.558 L 25.083,48.807 L 25.083,34.323 C 25.087,33.291 25.926,32.457 26.958,32.457 L 28.864,32.457 L 28.822,32.249 L 28.822,25.499 Z" stroke="none" fill="#A98889" fill-rule="evenodd" stroke-width="0.5" marker-start="none" marker-end="none" stroke-miterlimit="79.8403193612775"></path></g></g></g></svg>