<svg fill="#857799" xmlns="http://www.w3.org/2000/svg" xmlns:xlink="http://www.w3.org/1999/xlink" version="1.1" x="0px" y="0px" viewBox="0 0 100 100" style="enable-background:new 0 0 100 100;" xml:space="preserve"><path d="M72.1,74.3c-0.5,0.4-1.1,0.5-1.7,0.2l-8.3-4.3L58.9,79c-0.2,0.6-0.8,1-1.4,1c0,0,0,0,0,0c-0.6,0-1.2-0.4-1.4-1L50,63.5  L43.9,79c-0.2,0.6-0.8,1-1.4,1c0,0,0,0,0,0c-0.6,0-1.2-0.4-1.4-1l-3.2-8.8l-8.3,4.3c-0.6,0.3-1.2,0.2-1.7-0.2  c-0.5-0.4-0.6-1.1-0.4-1.7l6.7-16.9c0.6,0.9,1.4,1.7,2.3,2.3l-4.7,12l6.3-3.3c0.2-0.1,0.5-0.2,0.7-0.2c0.2,0,0.4,0,0.5,0.1  c0.4,0.2,0.7,0.5,0.9,0.9l2.4,6.7l4.7-12c0.7,0,1.5-0.1,2.2-0.3c0.2-0.1,0.3-0.1,0.5-0.1c0.2,0,0.3,0,0.5,0.1  c0.7,0.2,1.4,0.3,2.2,0.3l4.7,12l2.4-6.7c0.1-0.4,0.5-0.7,0.9-0.9c0.4-0.2,0.9-0.1,1.2,0.1l6.3,3.3l-4.7-12c0.9-0.6,1.7-1.4,2.3-2.4  l6.7,17C72.7,73.2,72.6,73.8,72.1,74.3z M30.4,43.5c-1.2-2.1-1.2-4.6,0-6.7c0.4-0.7,0.5-1.4,0.5-2.1c-0.2-2.4,1-4.7,2.9-6  c0.6-0.4,1.1-1,1.4-1.7c0.9-2.2,2.9-3.8,5.2-4.2c0.7-0.1,1.4-0.4,2-0.9c1.8-1.6,4.3-2.2,6.5-1.5c0.7,0.2,1.5,0.2,2.2,0  c2.3-0.7,4.8-0.1,6.5,1.5c0.6,0.5,1.2,0.8,2,0.9c2.4,0.4,4.4,2,5.2,4.2c0.3,0.7,0.8,1.3,1.4,1.7c1.9,1.3,3.1,3.6,2.9,6c0,0,0,0,0,0  c0,0.7,0.1,1.5,0.5,2.1c1.2,2.1,1.2,4.6,0,6.7c0,0,0,0,0,0l0,0c-0.4,0.6-0.5,1.4-0.5,2.1c0,0,0,0,0,0c0.2,2.4-1,4.7-2.9,6  c-0.6,0.4-1.1,1-1.4,1.7c0,0,0,0,0,0c-0.9,2.2-2.9,3.8-5.2,4.1c-0.7,0.1-1.4,0.4-2,0.9c-1.3,1.2-2.9,1.8-4.6,1.8  c-0.7,0-1.3-0.1-1.9-0.3c-0.7-0.2-1.5-0.2-2.2,0c-2.3,0.7-4.8,0.1-6.5-1.5c-0.6-0.5-1.2-0.8-2-0.9c-2.4-0.4-4.4-2-5.2-4.2  c-0.3-0.7-0.7-1.3-1.4-1.7c-1.9-1.3-3.1-3.6-2.9-6c0,0,0,0,0,0C31,44.9,30.8,44.1,30.4,43.5z M33,42c0.7,1.2,1,2.5,0.9,3.8  c0,0,0,0,0,0c-0.1,1.3,0.5,2.6,1.6,3.4c1.1,0.8,1.9,1.8,2.4,3.1c0.5,1.2,1.6,2.1,2.9,2.3c1.3,0.2,2.5,0.8,3.5,1.7  c1,0.9,2.4,1.2,3.6,0.8c0.6-0.2,1.3-0.3,2-0.3c0.7,0,1.3,0.1,2,0.3c1.3,0.4,2.7,0.1,3.6-0.8c1-0.9,2.2-1.5,3.5-1.7  c1.3-0.2,2.4-1.1,2.9-2.3c0,0,0,0,0,0c0.5-1.2,1.3-2.3,2.4-3c1.1-0.7,1.7-2,1.6-3.3c0,0,0,0,0,0C66,44.5,66.3,43.2,67,42l0,0  c0.7-1.1,0.7-2.6,0-3.7c-0.7-1.2-1-2.5-0.9-3.8c0,0,0,0,0,0c0.1-1.3-0.5-2.6-1.6-3.4c-1.1-0.8-1.9-1.8-2.4-3.1  c-0.5-1.2-1.6-2.1-2.9-2.3c-1.3-0.2-2.5-0.8-3.5-1.7c-1-0.9-2.4-1.2-3.6-0.8c-1.3,0.4-2.6,0.4-3.9,0c-1.3-0.4-2.7-0.1-3.6,0.8  c-1,0.9-2.2,1.5-3.5,1.7c-1.3,0.2-2.4,1.1-2.9,2.3c-0.5,1.2-1.3,2.3-2.4,3.1c-1.1,0.8-1.7,2-1.6,3.4c0.1,1.3-0.2,2.6-0.9,3.8  C32.4,39.4,32.4,40.8,33,42z"></path></svg>