<svg fill="#D9776B" xmlns="http://www.w3.org/2000/svg" xmlns:xlink="http://www.w3.org/1999/xlink" version="1.1" x="0px" y="0px" viewBox="0 0 85 85" enable-background="new 0 0 85 85" xml:space="preserve"><g><rect x="49.584" y="21.25" width="8.854" height="5.313"></rect><rect x="53.125" y="31.875" width="5.313" height="5.313"></rect><rect x="53.125" y="42.5" width="5.313" height="5.313"></rect><rect x="53.125" y="53.125" width="5.313" height="5.313"></rect><rect x="63.75" y="21.25" width="8.854" height="5.313"></rect><rect x="13.281" y="42.5" width="8.854" height="5.313"></rect><rect x="27.448" y="42.5" width="8.854" height="5.313"></rect><rect x="13.281" y="53.125" width="8.854" height="5.313"></rect><rect x="27.448" y="53.125" width="8.854" height="5.313"></rect><rect x="63.75" y="31.875" width="8.854" height="5.313"></rect><rect x="63.75" y="42.5" width="8.854" height="5.313"></rect><rect x="63.75" y="53.125" width="8.854" height="5.313"></rect><path d="M83.14,20.86c0.17-0.921-0.114-1.9-0.89-2.536L62.781,2.36c-0.982-0.802-2.387-0.802-3.368,0L39.947,18.324   c-0.728,0.597-1.009,1.497-0.905,2.367h-0.06v8.397L26.531,18.355c-0.996-0.861-2.466-0.861-3.469,0L2.691,35.92   c-0.676,0.583-0.938,1.429-0.862,2.255c-0.011,0.099-0.058,0.186-0.058,0.289v42.12c0,1.466,1.189,2.656,2.656,2.656h40.747   c0.145,0,0.27-0.061,0.408-0.083c0.143,0.022,0.27,0.084,0.418,0.084h34.572c1.467,0,2.656-1.189,2.656-2.656V21.302   C83.229,21.146,83.166,21.009,83.14,20.86z M22.135,77.916v-8.854h5.313v8.854H22.135z M32.76,77.928V63.75H16.823v14.178H7.083   V39.149l17.715-15.275l17.718,15.273v38.781H32.76z M59.322,77.916v-8.854h5.313v8.854H59.322z M69.947,77.929V63.75H54.01v14.179   h-6.18V38.464c0-0.103-0.047-0.19-0.059-0.29c0.076-0.826-0.188-1.671-0.865-2.254l-2.611-2.251V21.63L61.098,7.85l16.818,13.792   v56.287H69.947z"></path></g></svg>