<svg fill="#A4CDEB" xmlns:dc="http://purl.org/dc/elements/1.1/" xmlns:cc="http://creativecommons.org/ns#" xmlns:rdf="http://www.w3.org/1999/02/22-rdf-syntax-ns#" xmlns:svg="http://www.w3.org/2000/svg" xmlns="http://www.w3.org/2000/svg" xmlns:sodipodi="http://sodipodi.sourceforge.net/DTD/sodipodi-0.dtd" xmlns:inkscape="http://www.inkscape.org/namespaces/inkscape" version="1.1" x="0px" y="0px" viewBox="0 0 100 100"><g transform="translate(0,-952.36218)"><path style="font-size:medium;font-style:normal;font-variant:normal;font-weight:normal;font-stretch:normal;text-indent:0;text-align:start;text-decoration:none;line-height:normal;letter-spacing:normal;word-spacing:normal;text-transform:none;direction:ltr;block-progression:tb;writing-mode:lr-tb;text-anchor:start;baseline-shift:baseline;opacity:1;color:#000000;fill:#A4CDEB;fill-opacity:1;stroke:none;stroke-width:4;marker:none;visibility:visible;display:inline;overflow:visible;enable-background:accumulate;font-family:Sans;-inkscape-font-specification:Sans" d="M 80.59375 19 C 74.07104 19.268609 67.714638 22.461235 63.3125 28.3125 C 58.354599 34.902419 56.980605 43.332005 58.78125 51.03125 C 56.669226 56.034699 55.23687 61.051428 55.03125 65.53125 C 54.844091 65.596322 53.977205 65.912915 53.90625 65.9375 L 43.6875 63.34375 C 44.899361 63.05125 46.143817 63 48 63 C 51.290019 63 54 60.29 54 57 C 54 53.71 51.290019 51 48 51 L 37 51 C 33.397464 51 31.09466 52.22225 29.59375 53.28125 C 28.916978 53.758762 28.4571 54.124755 28 54.40625 L 28 53 A 2.0002 2.0002 0 0 0 26 51 L 16 51 A 2.0002 2.0002 0 0 0 15.8125 51 A 2.0002 2.0002 0 0 0 14 53 L 14 79 A 2.0002 2.0002 0 0 0 16 81 L 26 81 A 2.0002 2.0002 0 0 0 28 79 L 28 75.59375 C 28.457101 75.87521 28.916978 76.241193 29.59375 76.71875 C 31.094657 77.77775 33.397461 79 37 79 L 55 79 A 2.0002 2.0002 0 0 0 55.75 78.84375 L 74.96875 71.1875 A 2.0002 2.0002 0 0 0 75.3125 71 C 76.930571 69.926 78 68.0738 78 66 C 78 62.71 75.29002 60 72 60 C 71.328185 60 70.670865 60.1055 70.0625 60.3125 C 69.872244 60.3775 68.920174 60.7041 67.34375 61.25 C 65.767326 61.7959 63.669665 62.5309 61.59375 63.25 C 60.377842 63.671166 60.226915 63.732844 59.1875 64.09375 C 59.587546 60.778461 60.682082 56.916344 62.28125 53 C 69.188953 53.070572 76.033765 49.842183 80.6875 43.65625 C 85.718472 36.96922 87.079071 28.38405 85.15625 20.59375 A 2.0002 2.0002 0 0 0 83.40625 19.0625 C 82.473463 18.980643 81.525566 18.961627 80.59375 19 z M 81.5 23.125 C 82.613417 29.38261 81.41556 36.04554 77.5 41.25 C 74.010582 45.888286 69.18428 48.340336 64.1875 48.78125 C 64.636117 47.872519 65.10311 46.953163 65.59375 46.0625 C 69.518872 38.93721 74.730207 32.5328 79.09375 29.65625 A 2.0002 2.0002 0 0 0 77.96875 25.96875 A 2.0002 2.0002 0 0 0 76.90625 26.3125 C 71.546854 29.84554 66.237893 36.60212 62.09375 44.125 C 62.144463 39.367155 63.5633 34.622147 66.5 30.71875 C 70.38199 25.55885 75.91374 23.11747 81.5 23.125 z M 18 55 L 24 55 L 24 77 L 18 77 L 18 55 z M 37 55 L 48 55 C 49.128259 55 50 55.8717 50 57 C 50 58.1282 49.128259 59 48 59 C 43.742083 59 40.663307 59.58815 36.8125 62.34375 A 2.0002 2.0002 0 0 0 37.5 65.9375 L 53.5 69.9375 A 2.0002 2.0002 0 0 0 54.65625 69.90625 C 54.65625 69.90625 58.785757 68.46935 62.9375 67.03125 C 65.013371 66.31225 67.111243 65.57715 68.6875 65.03125 C 70.263757 64.48535 71.430425 64.06425 71.34375 64.09375 C 71.544441 64.02575 71.769625 64 72 64 C 73.128259 64 74 64.8717 74 66 C 74 66.6695 73.644251 67.1987 73.15625 67.5625 L 54.59375 75 L 37 75 C 34.189895 75 33.172905 74.3312 31.90625 73.4375 C 30.93364 72.751189 29.721148 71.760216 28 71.28125 L 28 58.71875 C 29.721147 58.239766 30.933642 57.248811 31.90625 56.5625 C 33.172903 55.6688 34.189892 55 37 55 z " transform="translate(0,952.36218)"></path></g></svg>