<svg fill="#5388AA" xmlns="http://www.w3.org/2000/svg" xmlns:xlink="http://www.w3.org/1999/xlink" version="1.1" x="0px" y="0px" viewBox="0 0 100 100" enable-background="new 0 0 100 100" xml:space="preserve"><g><path d="M47.695,23.169l2.359,1.607l0.008,0l2.361-1.606c1.217-0.828,1.887-2.094,1.887-3.566V16.65   c0-0.165-0.139-0.265-0.301-0.299l-3.947-0.837h-0.007l-3.947,0.853c-0.161,0.035-0.299,0.135-0.299,0.299v2.937   C45.809,21.075,46.478,22.341,47.695,23.169z"></path><path d="M67.328,57.239c3.525-4.076,5.666-9.383,5.666-15.182c0-2.064-0.283-4.061-0.791-5.965V31.32   c0.047-0.036,0.096-0.069,0.141-0.111l4.486-4.319c1.477-1.42,1.734-3.697,0.615-5.413l-5.188-7.937   c-0.912-1.397-2.125-2.332-3.709-2.858L52.5,5.354c-0.814-0.271-1.633-0.395-2.441-0.372c-0.807-0.023-1.626,0.102-2.441,0.372   L31.57,10.682c-1.584,0.526-2.799,1.461-3.712,2.858l-5.184,7.936c-1.122,1.716-0.864,3.992,0.613,5.413l3.986,3.837v4.479   c-0.023,0.205-0.038,0.411-0.038,0.618c0,0.13,0.011,0.259,0.02,0.388c-0.489,1.869-0.759,3.825-0.759,5.846   c0,5.899,2.213,11.29,5.848,15.395C23.927,63.14,18.376,72.76,18.376,83.66v9.725c0,0.904,0.733,1.637,1.637,1.637h59.973   c0.904,0,1.637-0.732,1.637-1.637V83.66C81.623,72.62,75.928,62.898,67.328,57.239z M50.191,68.336h-1.437l-1.438-3.157   c0.798,0.083,1.608,0.128,2.429,0.128c0.702,0,1.395-0.038,2.081-0.099L50.191,68.336z M51.176,84.537l-1.533,1.533l-1.551-1.552   l1.112-12.908h0.516L51.176,84.537z M45.75,69.638L41.583,72.7L36.25,60.971c2.133,1.526,4.534,2.701,7.118,3.439L45.75,69.638z    M55.904,64.472c2.719-0.749,5.238-1.978,7.463-3.593l-5.379,11.832l-4.617-3.393L55.904,64.472z M68.928,31.667V34.3h-38.38   v-2.633H68.928z M68.326,37.574c-2.033,3.032-9.109,5.852-18.607,5.852c-9.498,0-16.575-2.82-18.608-5.852H68.326z M25.416,23.268   l5.184-7.937c0.5-0.764,1.136-1.254,2.002-1.542L48.65,8.46c0.421-0.14,0.817-0.208,1.212-0.208l0.133,0.002   c0.042,0.002,0.084,0.002,0.128,0l0.133-0.002c0.396,0,0.792,0.068,1.213,0.208l16.049,5.329c0.865,0.288,1.502,0.778,2,1.542   l5.186,7.937c0.271,0.414,0.213,0.92-0.143,1.263l-4.012,3.862H29.57l-4.012-3.862C25.203,24.188,25.145,23.681,25.416,23.268z    M29.814,40.956C33.546,44.4,40.974,46.7,49.719,46.7c8.785,0,16.238-2.321,19.953-5.792c0.023,0.381,0.047,0.762,0.047,1.149   c0,11.014-8.961,19.975-19.974,19.975c-11.014,0-19.975-8.961-19.975-19.975C29.77,41.686,29.794,41.321,29.814,40.956z    M78.35,91.748h-9.152v-6.309c0-0.904-0.732-1.637-1.637-1.637s-1.637,0.732-1.637,1.637v6.309H33.268v-6.309   c0-0.904-0.733-1.637-1.637-1.637s-1.637,0.732-1.637,1.637v6.309H21.65V83.66c0-9.146,4.357-17.288,11.1-22.476l6.687,14.706   c0.205,0.449,0.6,0.782,1.077,0.907c0.137,0.035,0.275,0.053,0.414,0.053c0.345,0,0.686-0.109,0.969-0.317l3.84-2.822   l-0.972,11.286c-0.042,0.481,0.131,0.956,0.474,1.298l2.703,2.703c0.307,0.307,0.724,0.479,1.157,0.479h1.089   c0.434,0,0.851-0.172,1.157-0.479l2.704-2.703c0.352-0.352,0.523-0.846,0.469-1.34l-1.318-11.7l4.477,3.289   c0.283,0.209,0.623,0.317,0.969,0.317c0.139,0,0.277-0.017,0.414-0.053c0.477-0.125,0.871-0.457,1.076-0.907l6.803-14.961   c6.922,5.174,11.412,13.432,11.412,22.72V91.748z"></path></g></svg>