<svg fill="#8FCFEE" xmlns="http://www.w3.org/2000/svg" xmlns:xlink="http://www.w3.org/1999/xlink" version="1.1" x="0px" y="0px" viewBox="0 0 100 100" enable-background="new 0 0 100 100" xml:space="preserve"><path fill="#8FCFEE" d="M25.6,38.282c3.812,0,6.902-3.566,6.902-8.339c0-3.812-3.09-6.902-6.902-6.902s-6.902,3.09-6.902,6.902  C18.698,34.746,21.788,38.282,25.6,38.282z M25.6,25.042c2.703,0,4.902,2.199,4.902,4.902c0,3.554-2.153,6.339-4.902,6.339  s-4.902-2.784-4.902-6.339C20.698,27.241,22.897,25.042,25.6,25.042z"></path><path fill="#8FCFEE" d="M9.852,51.757c17.117,0,12.363,0,31.496,0c0.547,0,0.946-0.508,0.833-1.044  c-1.098-5.221-4.819-9.178-9.796-11.055c-0.384-0.145-0.823,0.019-1.03,0.379c-2.686,4.652-1.927,3.337-3.046,5.275l-1.655-2.867  c0.104-0.18,0.756-1.309,0.861-1.492c0.15-0.26-0.037-0.584-0.337-0.584c-1.142,0-2.013,0-3.155,0c-0.3,0-0.487,0.324-0.337,0.584  c0.096,0.166,0.764,1.324,0.862,1.492l-1.655,2.867c-1.079-1.869-0.781-1.353-3.046-5.275c-0.208-0.36-0.646-0.524-1.03-0.379  c-4.977,1.877-8.698,5.833-9.796,11.055C8.906,51.249,9.305,51.757,9.852,51.757z M18.614,41.905  c0.035,0.06,2.511,4.349,2.545,4.408c0.769,1.333,2.696,1.33,3.464,0l0.977-1.691l0.976,1.691c0.769,1.332,2.696,1.331,3.464,0  l0.047-0.082l1.103-1.91l1.395-2.416c3.558,1.603,6.131,4.388,7.271,7.852H11.344C12.483,46.293,15.056,43.507,18.614,41.905z"></path><path fill="#8FCFEE" d="M74.4,38.282c3.812,0,6.902-3.536,6.902-8.339c0-3.812-3.09-6.902-6.902-6.902s-6.902,3.09-6.902,6.902  C67.498,34.716,70.588,38.282,74.4,38.282z M74.4,25.042c2.703,0,4.902,2.199,4.902,4.902c0,3.554-2.153,6.339-4.902,6.339  s-4.902-2.784-4.902-6.339C69.498,27.241,71.697,25.042,74.4,25.042z"></path><path fill="#8FCFEE" d="M58.652,51.757c19.133,0,14.379,0,31.496,0c0.547,0,0.946-0.508,0.833-1.044  c-1.098-5.221-4.819-9.178-9.796-11.055c-0.384-0.145-0.823,0.019-1.03,0.379c-2.264,3.922-1.967,3.406-3.046,5.275l-1.655-2.867  c0.097-0.169,0.765-1.326,0.862-1.492c0.15-0.26-0.037-0.584-0.337-0.584c-1.142,0-2.013,0-3.155,0c-0.3,0-0.487,0.324-0.337,0.584  c0.106,0.183,0.757,1.312,0.861,1.492l-1.655,2.867c-1.119-1.938-0.36-0.623-3.046-5.275c-0.208-0.36-0.646-0.524-1.03-0.379  c-4.977,1.877-8.698,5.833-9.796,11.055C57.706,51.249,58.105,51.757,58.652,51.757z M67.414,41.905  c0.091,0.157,2.475,4.287,2.545,4.408c0.769,1.333,2.696,1.33,3.464,0l0.976-1.691l0.977,1.691c0.747,1.294,2.664,1.387,3.49-0.045  c1.475-2.555,1.574-2.727,2.519-4.363c3.558,1.603,6.131,4.388,7.271,7.852H60.143C61.283,46.293,63.856,43.507,67.414,41.905z"></path><path fill="#8FCFEE" d="M91,54.757H53.979c-2.009-2.664-5.953-2.661-7.959,0H9c-3.964,0-3.966,6,0,6h37.021  c0.127,0.168,0.265,0.325,0.41,0.475l-8.977,15.549C36.371,78.657,37.723,81,39.89,81H60.11c2.165,0,3.519-2.342,2.437-4.219  L53.57,61.232c0.145-0.149,0.283-0.307,0.41-0.475H91C94.964,60.757,94.966,54.757,91,54.757z M51.915,62.367l8.899,15.413  C61.126,78.32,60.739,79,60.11,79H39.89c-0.628,0-1.016-0.68-0.704-1.219l8.899-15.414C49.342,62.903,50.757,62.861,51.915,62.367z   M91,58.757H53.445c-0.355,0-0.685,0.189-0.864,0.497c-1.149,1.975-4.01,1.98-5.162,0c-0.18-0.308-0.509-0.497-0.864-0.497H9  c-1.321,0-1.323-2,0-2h37.555c0.355,0,0.685-0.189,0.864-0.497c1.166-2.003,3.995-2.006,5.162,0c0.18,0.308,0.509,0.497,0.864,0.497  H91C92.321,56.757,92.323,58.757,91,58.757z"></path></svg>