<?xml version="1.0" encoding="utf-8"?>
<!-- Generator: Adobe Illustrator 22.0.1, SVG Export Plug-In . SVG Version: 6.00 Build 0)  -->
<svg version="1.1" id="Layer_1" xmlns="http://www.w3.org/2000/svg" xmlns:xlink="http://www.w3.org/1999/xlink" x="0px" y="0px"
	 viewBox="0 0 100 100" style="enable-background:new 0 0 100 100;" xml:space="preserve">
<style type="text/css">
	.st0{fill:#857799;stroke:#857799;stroke-width:2;stroke-miterlimit:10;}
</style>
<path class="st0" d="M75.2,79.5c-0.6,0.5-1.2,0.6-1.9,0.2l-9.4-4.9l-3.6,10c-0.2,0.7-0.9,1.1-1.6,1.1l0,0c-0.7,0-1.4-0.5-1.6-1.1
	l-6.9-17.6l-6.9,17.6c-0.2,0.7-0.9,1.1-1.6,1.1l0,0c-0.7,0-1.4-0.5-1.6-1.1l-3.6-10l-9.4,4.9c-0.7,0.3-1.4,0.2-1.9-0.2
	c-0.6-0.5-0.7-1.2-0.5-1.9l7.6-19.2c0.7,1,1.6,1.9,2.6,2.6l-5.3,13.6l7.2-3.7c0.2-0.1,0.6-0.2,0.8-0.2s0.5,0,0.6,0.1
	c0.5,0.2,0.8,0.6,1,1l2.7,7.6L47,65.8c0.8,0,1.7-0.1,2.5-0.3c0.2-0.1,0.3-0.1,0.6-0.1c0.2,0,0.3,0,0.6,0.1c0.8,0.2,1.6,0.3,2.5,0.3
	l5.3,13.6l2.7-7.6c0.1-0.5,0.6-0.8,1-1c0.5-0.2,1-0.1,1.4,0.1l7.2,3.7L65.4,61c1-0.7,1.9-1.6,2.6-2.7l7.6,19.3
	C75.8,78.3,75.7,79,75.2,79.5z M27.8,44.6c-1.4-2.4-1.4-5.2,0-7.6c0.5-0.8,0.6-1.6,0.6-2.4c-0.2-2.7,1.1-5.3,3.3-6.8
	c0.7-0.5,1.2-1.1,1.6-1.9c1-2.5,3.3-4.3,5.9-4.8c0.8-0.1,1.6-0.5,2.3-1c2-1.8,4.9-2.5,7.4-1.7c0.8,0.2,1.7,0.2,2.5,0
	c2.6-0.8,5.5-0.1,7.4,1.7c0.7,0.6,1.4,0.9,2.3,1c2.7,0.5,5,2.3,5.9,4.8c0.3,0.8,0.9,1.5,1.6,1.9c2.2,1.5,3.5,4.1,3.3,6.8l0,0
	c0,0.8,0.1,1.7,0.6,2.4c1.4,2.4,1.4,5.2,0,7.6l0,0l0,0c-0.5,0.7-0.6,1.6-0.6,2.4l0,0c0.2,2.7-1.1,5.3-3.3,6.8
	c-0.7,0.5-1.2,1.1-1.6,1.9l0,0c-1,2.5-3.3,4.3-5.9,4.7c-0.8,0.1-1.6,0.5-2.3,1c-1.5,1.4-3.3,2-5.2,2c-0.8,0-1.5-0.1-2.2-0.3
	c-0.8-0.2-1.7-0.2-2.5,0c-2.6,0.8-5.5,0.1-7.4-1.7c-0.7-0.6-1.4-0.9-2.3-1c-2.7-0.5-5-2.3-5.9-4.8c-0.3-0.8-0.8-1.5-1.6-1.9
	c-2.2-1.5-3.5-4.1-3.3-6.8l0,0C28.5,46.1,28.3,45.2,27.8,44.6z M30.8,42.9c0.8,1.4,1.1,2.8,1,4.3l0,0c-0.1,1.5,0.6,3,1.8,3.9
	c1.2,0.9,2.2,2,2.7,3.5c0.6,1.4,1.8,2.4,3.3,2.6c1.5,0.2,2.8,0.9,4,1.9c1.1,1,2.7,1.4,4.1,0.9c0.7-0.2,1.5-0.3,2.3-0.3
	s1.5,0.1,2.3,0.3c1.5,0.5,3.1,0.1,4.1-0.9c1.1-1,2.5-1.7,4-1.9s2.7-1.2,3.3-2.6l0,0c0.6-1.4,1.5-2.6,2.7-3.4
	c1.2-0.8,1.9-2.3,1.8-3.7l0,0c0.1-1.7,0.5-3.2,1.2-4.5l0,0c0.8-1.2,0.8-3,0-4.2c-0.8-1.4-1.1-2.8-1-4.3l0,0c0.1-1.5-0.6-3-1.8-3.9
	c-1.2-0.9-2.2-2-2.7-3.5c-0.6-1.4-1.8-2.4-3.3-2.6c-1.5-0.2-2.8-0.9-4-1.9c-1.1-1-2.7-1.4-4.1-0.9c-1.5,0.5-3,0.5-4.4,0
	c-1.5-0.5-3.1-0.1-4.1,0.9c-1.1,1-2.5,1.7-4,1.9c-1.5,0.2-2.7,1.2-3.3,2.6s-1.5,2.6-2.7,3.5c-1.2,0.9-1.9,2.3-1.8,3.9
	c0.1,1.5-0.2,3-1,4.3C30.1,39.9,30.1,41.5,30.8,42.9z"/>
</svg>
