<svg fill="#8FCFEE" xmlns:dc="http://purl.org/dc/elements/1.1/" xmlns:cc="http://creativecommons.org/ns#" xmlns:rdf="http://www.w3.org/1999/02/22-rdf-syntax-ns#" xmlns:svg="http://www.w3.org/2000/svg" xmlns="http://www.w3.org/2000/svg" xmlns:sodipodi="http://sodipodi.sourceforge.net/DTD/sodipodi-0.dtd" xmlns:inkscape="http://www.inkscape.org/namespaces/inkscape" version="1.1" x="0px" y="0px" viewBox="0 0 100 100"><g transform="translate(0,-952.36218)"><path style="text-indent:0;text-transform:none;direction:ltr;block-progression:tb;baseline-shift:baseline;color:#000000;enable-background:accumulate;" d="m 30.449785,960.61448 0,6.68687 -7.258535,0 c -1.147358,0 -2.191146,1.05641 -2.191252,2.21741 l 0,9.59722 c 0,1.161 1.043894,2.2173 2.191252,2.21741 l 7.258535,0 0,4.71199 -7.258535,0 c -1.147358,0 -2.191146,1.05641 -2.191252,2.21741 l 0,9.56257 c 0,1.161 1.043894,2.21734 2.191252,2.21744 l 7.258535,0 0,4.712 -7.258535,0 c -1.147358,0 -2.191146,1.0564 -2.191252,2.2174 l 0,9.5279 c 0,1.161 1.043894,2.2173 2.191252,2.2174 l 7.258535,0 0,4.7466 -7.258535,0 c -1.147358,0 -2.191146,1.0564 -2.191252,2.2174 l 0,9.528 c 0,1.161 1.043894,2.2173 2.191252,2.2174 l 7.258535,0 0,6.7561 c 0.01974,1.1482 1.056543,2.1792 2.191252,2.1792 1.134744,0 2.171551,-1.031 2.191252,-2.1792 l 0,-6.7561 30.335386,0 0,6.7561 c 0.0197,1.1482 1.056507,2.1792 2.191251,2.1792 1.13471,0 2.171516,-1.031 2.191253,-2.1792 l 0,-6.7561 7.258535,0 c 1.147323,0 2.191146,-1.0564 2.191287,-2.2174 l 0,-9.528 c 0,-1.161 -1.043964,-2.2173 -2.191287,-2.2174 l -7.258535,0 0,-4.7466 7.258535,0 c 1.147323,0 2.191146,-1.0564 2.191287,-2.2174 l 0,-9.5279 c 0,-1.161 -1.043964,-2.2173 -2.191287,-2.2174 l -7.258535,0 0,-4.712 7.258535,0 c 1.147323,0 2.191146,-1.05644 2.191287,-2.21744 l 0,-9.56257 c 0,-1.161 -1.043964,-2.2173 -2.191287,-2.21741 l -7.258535,0 0,-4.71199 7.258535,0 c 1.147323,0 2.191146,-1.05641 2.191287,-2.21741 l 0,-9.59722 c 0,-1.161 -1.043964,-2.2173 -2.191287,-2.21741 l -7.258535,0 0,-6.68687 c 0.0186,-1.18415 -1.055303,-2.27062 -2.225551,-2.25206 -1.147323,0.0182 -2.174917,1.09103 -2.156953,2.25206 l 0,6.68687 -30.335385,0 0,-6.68687 c 0.01864,-1.18412 -1.055268,-2.27056 -2.225409,-2.25206 -1.209792,0.0176 -2.130024,1.02327 -2.157095,2.25206 z m -5.067283,11.12169 49.234959,0 0,5.1624 -49.234959,0 z m 9.449787,9.59722 30.335386,0 0,4.71199 -30.335385,0 z m -9.449787,9.14681 49.234959,0 0,5.12775 -49.234959,0 z m 9.449787,9.5626 30.335386,0 0,4.712 -30.335385,0 z m -9.449787,9.1468 49.234959,0 0,5.0931 -49.234959,0 z m 9.449787,9.5279 30.335386,0 0,4.7466 -30.335385,0 z m -9.449787,9.1815 49.234959,0 0,5.0931 -49.234959,0 z" fill="#8FCFEE" fill-opacity="1" fill-rule="evenodd" stroke="none" marker="none" visibility="visible" display="inline" overflow="visible"></path></g></svg>