<svg fill="#4F6379" xmlns:dc="http://purl.org/dc/elements/1.1/" xmlns:cc="http://creativecommons.org/ns#" xmlns:rdf="http://www.w3.org/1999/02/22-rdf-syntax-ns#" xmlns:svg="http://www.w3.org/2000/svg" xmlns="http://www.w3.org/2000/svg" xmlns:sodipodi="http://sodipodi.sourceforge.net/DTD/sodipodi-0.dtd" xmlns:inkscape="http://www.inkscape.org/namespaces/inkscape" version="1.1" x="0px" y="0px" viewBox="0 0 100 100"><g transform="translate(0,-952.36218)"><path style="font-size:medium;font-style:normal;font-variant:normal;font-weight:normal;font-stretch:normal;text-indent:0;text-align:start;text-decoration:none;line-height:normal;letter-spacing:normal;word-spacing:normal;text-transform:none;direction:ltr;block-progression:tb;writing-mode:lr-tb;text-anchor:start;baseline-shift:baseline;opacity:1;color:#000000;fill:#4F6379;fill-opacity:1;stroke:none;stroke-width:4;marker:none;visibility:visible;display:inline;overflow:visible;enable-background:accumulate;font-family:Sans;-inkscape-font-specification:Sans" d="M 91.71875 14 A 2.0002 2.0002 0 0 0 91.625 14.03125 C 83.674637 15.52194 74.474338 16.85034 67 21.1875 C 59.588744 25.488055 54.092231 33.084577 54 45.6875 C 52.113213 49.081479 50.577097 53.046894 49.40625 57.75 C 48.414914 55.353616 47.273241 53.13146 46 51.0625 A 2.0002 2.0002 0 0 0 46 51 C 46 38.03487 40.853212 30.78404 33.5625 26.75 C 26.271788 22.71596 17.148689 21.48527 8.53125 19.0625 A 2.0002 2.0002 0 0 0 7.75 19 A 2.0002 2.0002 0 0 0 6.34375 22.125 C 11.359951 29.36671 14.173889 37.23211 17.75 43.59375 C 19.538055 46.77457 21.534615 49.6121 24.25 51.6875 C 26.965385 53.7629 30.391267 55 34.5625 55 C 37.158526 55 39.728732 54.543281 42.84375 53.5 C 44.707547 56.632698 46.250017 60.169849 47.4375 64.21875 C 42.683352 64.951909 38.376696 67.691176 35.90625 72.09375 C 31.522807 72.28445 27.748871 73.5142 24.96875 75.5 C 21.952767 77.6543 19.999998 80.7 20 84 A 2.0002 2.0002 0 0 0 22 86 L 78 86 A 2.0002 2.0002 0 0 0 80 84 C 80.000002 80.7 78.047233 77.6543 75.03125 75.5 C 72.251129 73.5142 68.477193 72.28445 64.09375 72.09375 C 61.55313 67.566118 57.070894 64.760161 52.15625 64.125 C 53.236166 57.572757 54.906104 52.526096 57.0625 48.4375 C 59.819752 49.284686 62.489439 50 65 50 C 69.368368 50 72.910803 48.8241 75.71875 46.78125 C 78.526697 44.7384 80.583955 41.91852 82.375 38.75 C 85.957089 32.41295 88.624767 24.52071 93.65625 17.09375 A 2.0002 2.0002 0 0 0 91.71875 14 z M 87.9375 18.84375 C 84.102873 25.46137 81.613405 31.93676 78.875 36.78125 C 77.23094 39.68974 75.510222 41.97783 73.375 43.53125 C 71.239778 45.08467 68.680209 46 65 46 C 63.574952 46 61.509295 45.499814 59.25 44.84375 C 59.966415 43.809826 60.706006 42.82514 61.5 41.90625 C 66.041433 36.65045 71.962157 32.98124 79.03125 28.6875 A 2.0002 2.0002 0 0 0 77.84375 24.96875 A 2.0002 2.0002 0 0 0 76.96875 25.28125 C 70.04863 29.484513 63.817132 33.265058 58.8125 38.90625 C 60.277379 31.813921 63.991502 27.562552 69 24.65625 C 74.343685 21.55545 81.207098 20.11525 87.9375 18.84375 z M 12.28125 24.125 C 19.50054 25.91068 26.47332 27.39951 31.625 30.25 C 36.70429 33.060435 40.237274 37.190052 41.4375 44.90625 C 36.944668 39.80444 31.397264 35.73819 24.96875 32.21875 A 2.0002 2.0002 0 0 0 23.8125 31.96875 A 2.0002 2.0002 0 0 0 23.03125 35.75 C 30.263237 39.709324 36.093583 44.119022 40.5 50 C 38.287219 50.666357 36.403865 51 34.5625 51 C 31.136452 51 28.7525 50.0783 26.6875 48.5 C 24.6225 46.92167 22.87267 44.5672 21.21875 41.625 C 18.513921 36.81331 16.020365 30.51764 12.28125 24.125 z M 50 68 C 54.798894 68 59.187878 70.382 61.1875 74.8125 A 2.0002 2.0002 0 0 0 63 76 C 67.12963 76 70.484733 77.1543 72.71875 78.75 C 74.110169 79.7438 74.868798 80.8767 75.375 82 L 24.625 82 C 25.131202 80.8767 25.889831 79.7438 27.28125 78.75 C 29.515267 77.1543 32.87037 76 37 76 A 2.0002 2.0002 0 0 0 38.8125 74.8125 C 40.812122 70.382 45.201106 68 50 68 z " transform="translate(0,952.36218)"></path></g></svg>