<?xml version="1.0" encoding="utf-8"?>
<!-- Generator: Adobe Illustrator 22.0.1, SVG Export Plug-In . SVG Version: 6.00 Build 0)  -->
<svg version="1.1" id="Layer_1" xmlns="http://www.w3.org/2000/svg" xmlns:xlink="http://www.w3.org/1999/xlink" x="0px" y="0px"
	 viewBox="0 0 150 150" style="enable-background:new 0 0 150 150;" xml:space="preserve">
<style type="text/css">
	.st0{fill:#5388AA;stroke:#5388AA;stroke-miterlimit:10;}
</style>
<g>
	<path class="st0" d="M75,15c-21.4,0-38.9,16.8-38.9,37.4c0,19.9,35.6,79.1,37.2,81.6c0.4,0.6,1,1,1.7,1s1.3-0.4,1.7-1
		c1.5-2.5,37.2-61.8,37.2-81.6C113.9,31.8,96.4,15,75,15z M75,129.1c-7.2-12.3-34.9-60.3-34.9-76.7C40.1,34,55.8,19,75,19
		s34.9,15,34.9,33.4C109.9,68.8,82.2,116.8,75,129.1z"/>
	<path class="st0" d="M75,24.5c-16.5,0-29.9,12.9-29.9,28.8c0,1.1,0.9,2,2,2s2-0.9,2-2c0-13.7,11.6-24.8,25.9-24.8
		s25.9,11.1,25.9,24.8c0,1.1,0.9,2,2,2s2-0.9,2-2C104.9,37.5,91.5,24.5,75,24.5z"/>
	<path class="st0" d="M94.7,51.3c-0.2-0.9-1-1.5-1.9-1.5H57.3c-0.9,0-1.7,0.6-1.9,1.5l-3,10.5c-0.3,0.9,0.1,1.8,0.9,2.3l0.6,0.3
		c0.6,0.3,1.2,0.6,1.8,0.8v15.1c0,1.1,0.9,2,2,2h34.8c1.1,0,2-0.9,2-2V65.2c0.6-0.2,1.2-0.5,1.8-0.8l0.6-0.3
		c0.8-0.5,1.2-1.4,0.9-2.3L94.7,51.3z M93.4,61.3c-2,0.8-4.2,0.7-6.2-0.3l-1-7.3h5L93.4,61.3z M82.1,53.8l1.1,7.5
		c-2,0.9-4.2,0.8-6.2-0.1v-7.3h5.1V53.8z M73,61.2c-1.9,1-4.2,1-6.2,0.1l1.1-7.4H73V61.2z M62.8,61.1c-1.9,1-4.2,1.1-6.2,0.3
		l2.1-7.5h5L62.8,61.1z M72.8,78v-6h4.5v6H72.8z M81.3,78.3V70c0-1.1-0.9-2-2-2h-8.5c-1.1,0-2,0.9-2,2v8.3h-9.2V65.9
		c1.7,0,3.5-0.4,5-1.2c3.3,1.7,7.2,1.7,10.4,0h0.1c3.2,1.7,7.1,1.6,10.3,0c1.6,0.8,3.3,1.2,5,1.2v12.4H81.3z"/>
</g>
</svg>
