<svg fill="#C0786C" xmlns:dc="http://purl.org/dc/elements/1.1/" xmlns:cc="http://creativecommons.org/ns#" xmlns:rdf="http://www.w3.org/1999/02/22-rdf-syntax-ns#" xmlns:svg="http://www.w3.org/2000/svg" xmlns="http://www.w3.org/2000/svg" xmlns:sodipodi="http://sodipodi.sourceforge.net/DTD/sodipodi-0.dtd" xmlns:inkscape="http://www.inkscape.org/namespaces/inkscape" version="1.1" x="0px" y="0px" viewBox="0 0 100 100"><g transform="translate(0,-952.36218)"><path style="text-indent:0;text-transform:none;direction:ltr;block-progression:tb;baseline-shift:baseline;color:#000000;enable-background:accumulate;" d="m 18,956.36218 c -1.0472,1e-4 -1.9999,0.95283 -2,2 l 0,88.00002 c 0,0.9868 0.8983,1.997 2,2 l 64,0 c 1.0472,-10e-5 1.9999,-0.9528 2,-2 l 0,-74.00002 c 0,-0.52204 -0.2225,-1.03918 -0.5937,-1.40625 l -14,-14 C 69.0392,956.58471 68.522,956.36618 68,956.36218 z m 2,4 46,0 0,12 c 0.013,0.92829 0.7847,1.998 2,2 l 12,0 0,70.00002 -60,0 z m 50,2.84375 7.1563,7.15625 -7.1563,0 z m -9.1875,12.25 c -0.5032,0.0521 -0.9831,0.30344 -1.3125,0.6875 l -12.7812,14.625 -6.5313,-4.90625 c -0.8416,-0.63645 -2.186,-0.4428 -2.8125,0.40625 -0.6265,0.84905 -0.4189,2.19607 0.4375,2.8125 l 8,6 c 0.7948,0.58846 2.0318,0.45901 2.6875,-0.28125 l 14,-16 c 0.5475,-0.59423 0.6765,-1.52868 0.3125,-2.25 -0.364,-0.72133 -1.1968,-1.18119 -2,-1.09375 z M 30,1003.3622 c -1.1046,0 -2,0.8954 -2,2 0,1.1046 0.8954,2 2,2 l 40,0 c 1.1046,0 2,-0.8954 2,-2 0,-1.1046 -0.8954,-2 -2,-2 z m 0,14 c -1.1046,0 -2,0.8954 -2,2 0,1.1046 0.8954,2 2,2 l 40,0 c 1.1046,0 2,-0.8954 2,-2 0,-1.1046 -0.8954,-2 -2,-2 z m 0,14 c -1.1046,0 -2,0.8954 -2,2 0,1.1046 0.8954,2 2,2 l 40,0 c 1.1046,0 2,-0.8954 2,-2 0,-1.1046 -0.8954,-2 -2,-2 z" fill="#C0786C" fill-opacity="1" stroke="none" marker="none" visibility="visible" display="inline" overflow="visible"></path></g></svg>