<svg fill="#857799" xmlns="http://www.w3.org/2000/svg" data-name="Layer 1" viewBox="0 0 100 100" x="0px" y="0px"><title>51 all</title><path d="M83.1,31.08c-2.79-4.77-10.27-5.92-19.87-3.76C60.31,18,55.57,12.18,50,12.18S39.69,18,36.77,27.33c-9.61-2.16-17.09-1-19.87,3.76a9.2,9.2,0,0,0-.66,7.24c1,3.59,3.57,7.63,7.37,11.68-3.8,4.05-6.4,8.09-7.37,11.68a9.21,9.21,0,0,0,.66,7.24c1.89,3.24,5.94,4.81,11.36,4.81a39.35,39.35,0,0,0,8.52-1.05C39.69,82,44.43,87.81,50,87.81S60.31,82,63.23,72.67a39.34,39.34,0,0,0,8.52,1.05c5.41,0,9.47-1.57,11.36-4.81a9.21,9.21,0,0,0,.66-7.24c-1-3.59-3.57-7.63-7.37-11.68,3.8-4.05,6.4-8.09,7.37-11.68A9.21,9.21,0,0,0,83.1,31.08ZM50,16.18c3.33,0,6.88,4.55,9.3,12.17a75.93,75.93,0,0,0-9.3,3.5,75.94,75.94,0,0,0-9.3-3.5C43.12,20.74,46.67,16.18,50,16.18ZM62.31,50c0,2.37-.09,4.65-.27,6.84-1.87,1.27-3.83,2.51-5.88,3.68S52,62.77,50,63.73q-3-1.43-6.16-3.21c-2-1.17-4-2.4-5.88-3.68-.17-2.19-.27-4.47-.27-6.84s.09-4.65.27-6.84c1.87-1.27,3.83-2.51,5.88-3.68S48,37.22,50,36.27c2,1,4.07,2,6.16,3.21s4,2.4,5.88,3.68C62.21,45.35,62.31,47.63,62.31,50Zm3.92-3.79c1.61,1.25,3.11,2.52,4.49,3.79-1.38,1.27-2.88,2.54-4.49,3.79q.07-1.87.08-3.79T66.23,46.21ZM61.47,62c-.3,2-.67,4-1.09,5.76-1.79-.53-3.65-1.18-5.58-1.94,1.11-.58,2.23-1.18,3.35-1.82S60.38,62.67,61.47,62ZM45.2,65.81c-1.93.76-3.79,1.41-5.58,1.94-.43-1.8-.8-3.72-1.09-5.76,1.09.68,2.19,1.35,3.33,2S44.09,65.23,45.2,65.81Zm-11.44-12c-1.61-1.25-3.11-2.52-4.49-3.79,1.38-1.27,2.88-2.54,4.49-3.79q-.07,1.87-.08,3.79T33.77,53.79ZM38.53,38c.3-2,.67-4,1.09-5.76,1.78.53,3.64,1.18,5.57,1.94q-1.66.87-3.34,1.82C40.72,36.66,39.62,37.33,38.53,38Zm19.62-2q-1.68-1-3.34-1.82c1.93-.76,3.79-1.41,5.57-1.94.43,1.8.8,3.72,1.09,5.76C60.38,37.33,59.28,36.66,58.14,36ZM20.36,33.1c1.07-1.83,3.83-2.8,7.76-2.8a35.93,35.93,0,0,1,7.6.93A74,74,0,0,0,34.13,41a76.23,76.23,0,0,0-7.7,6.23c-3.29-3.51-5.53-6.94-6.32-9.9A5.4,5.4,0,0,1,20.36,33.1Zm0,33.8a5.4,5.4,0,0,1-.25-4.18c.79-3,3-6.39,6.32-9.9A76.22,76.22,0,0,0,34.13,59a73.94,73.94,0,0,0,1.58,9.72C27.8,70.51,22,69.76,20.36,66.9ZM50,83.81c-3.33,0-6.88-4.55-9.3-12.18a75.84,75.84,0,0,0,9.3-3.5,75.83,75.83,0,0,0,9.3,3.5C56.88,79.26,53.33,83.81,50,83.81ZM79.64,66.9C78,69.75,72.2,70.51,64.29,68.77A73.94,73.94,0,0,0,65.87,59a76.22,76.22,0,0,0,7.7-6.23c3.29,3.51,5.53,6.94,6.32,9.9A5.39,5.39,0,0,1,79.64,66.9Zm.25-29.61c-.79,3-3,6.39-6.32,9.9A76.22,76.22,0,0,0,65.87,41a73.94,73.94,0,0,0-1.58-9.72,35.93,35.93,0,0,1,7.6-.93c3.93,0,6.69,1,7.76,2.8A5.39,5.39,0,0,1,79.89,37.29Z"></path></svg>