<svg fill="#B7888A" xmlns="http://www.w3.org/2000/svg" xmlns:xlink="http://www.w3.org/1999/xlink" version="1.1" x="0px" y="0px" viewBox="0 0 52 52" style="enable-background:new 0 0 52 52;" xml:space="preserve"><style type="text/css">
	.st0{fill:none;stroke:#B7888A;stroke-width:2;stroke-linecap:round;stroke-linejoin:round;stroke-miterlimit:10;}
</style><g><g><g><path d="M32.9467773,25.7768555c-0.0214844,0-0.043457-0.0004883-0.0649414-0.0019531     c-0.2646484-0.0175781-0.5117188-0.1391602-0.6865234-0.3383789l-9.5957031-10.9326172     c-0.3642578-0.4150391-0.3232422-1.046875,0.0917969-1.4111328l7.2368164-6.3520508     c0.1992188-0.175293,0.456543-0.2680664,0.7246094-0.246582c0.2646484,0.0175781,0.5117188,0.1391602,0.6865234,0.3383789     l9.5957031,10.9326172c0.3642578,0.4150391,0.3232422,1.046875-0.0917969,1.4111328l-7.2368164,6.3520508     C33.4233398,25.6889648,33.1889648,25.7768555,32.9467773,25.7768555z M24.762207,13.9360352l8.2763672,9.4296875     l5.7338867-5.0327148l-8.2763672-9.4296875L24.762207,13.9360352z"></path></g><g><path d="M34.2871094,30.269043c-0.0214844,0-0.043457-0.0004883-0.0649414-0.0019531     c-0.2646484-0.0175781-0.5117188-0.1391602-0.6865234-0.3383789l-2.8105469-3.2021484     c-0.175293-0.1992188-0.2636719-0.4599609-0.246582-0.7246094c0.0175781-0.2646484,0.1391602-0.5117188,0.3383789-0.6865234     l10.1772461-8.9321289c0.4160156-0.3637695,1.0463867-0.3232422,1.4111328,0.0917969l2.8100586,3.2016602     c0.3642578,0.4150391,0.3232422,1.046875-0.0917969,1.4111328l-10.1767578,8.9326172     C34.7636719,30.1811523,34.5292969,30.269043,34.2871094,30.269043z M32.8876953,26.1586914l1.4912109,1.6992188     l8.6738281-7.6132813l-1.4907227-1.6987305L32.8876953,26.1586914z"></path></g><g><path d="M21.8808594,16.1342773c-0.0214844,0-0.043457-0.0004883-0.0649414-0.0019531     c-0.2646484-0.0175781-0.5117188-0.1391602-0.6865234-0.3383789l-2.8100586-3.2021484     c-0.3642578-0.4150391-0.3232422-1.046875,0.0917969-1.4111328l10.1767578-8.9321289     c0.4160156-0.3637695,1.0473633-0.3222656,1.4111328,0.0917969l2.8105469,3.2021484     c0.175293,0.1992188,0.2636719,0.4599609,0.246582,0.7246094c-0.0175781,0.2646484-0.1391602,0.5117188-0.3383789,0.6865234     l-10.1772461,8.9321289C22.3574219,16.0463867,22.1230469,16.1342773,21.8808594,16.1342773z M20.4819336,12.0239258     l1.4907227,1.6992188l8.6743164-7.612793l-1.4912109-1.6992188L20.4819336,12.0239258z"></path></g><g><path d="M21.2514648,26.3647461c-0.277832,0-0.5541992-0.1152344-0.7519531-0.340332     c-0.3642578-0.4150391-0.3232422-1.046875,0.0917969-1.4111328l6.8979492-6.0541992     c0.4155273-0.3647461,1.046875-0.3222656,1.4111328,0.0917969c0.3642578,0.4150391,0.3232422,1.046875-0.0917969,1.4111328     l-6.8979492,6.0541992C21.7207031,26.2827148,21.4853516,26.3647461,21.2514648,26.3647461z"></path></g><g><path d="M8.2470703,41.8828125c-0.277832,0-0.5541992-0.1152344-0.7519531-0.340332L3.4257813,36.90625     c-0.175293-0.1992188-0.2636719-0.4599609-0.246582-0.7246094c0.0175781-0.2646484,0.1391602-0.5117188,0.3383789-0.6865234     l12.7211914-11.1655273c0.8193359-0.7197266,1.8647461-1.0761719,2.9599609-1.0058594     c1.0883789,0.0708008,2.0844727,0.5615234,2.8037109,1.3813477c0.7197266,0.8198242,1.0771484,1.8706055,1.0063477,2.9594727     s-0.5615234,2.0849609-1.3813477,2.8041992L8.90625,41.6342773C8.7163086,41.8007813,8.480957,41.8828125,8.2470703,41.8828125z      M5.5883789,36.3383789l2.75,3.1333008l11.9697266-10.5058594c0.418457-0.3671875,0.6689453-0.8754883,0.7050781-1.4311523     s-0.1464844-1.0917969-0.5136719-1.5102539l0,0c-0.7583008-0.8632813-2.0766602-0.9492188-2.9414063-0.1918945     L5.5883789,36.3383789z"></path></g></g><g><g><path d="M47.8227539,50H27.4638672c-0.5522461,0-1-0.4477539-1-1v-5.7397461c0-0.5522461,0.4477539-1,1-1h20.3588867     c0.5522461,0,1,0.4477539,1,1V49C48.8227539,49.5522461,48.375,50,47.8227539,50z M28.4638672,48h18.3588867v-3.7397461     H28.4638672V48z"></path></g><g><path d="M45.6235352,44.2602539H29.6630859c-0.5522461,0-1-0.4477539-1-1v-6.0180664c0-0.5522461,0.4477539-1,1-1h15.9604492     c0.5522461,0,1,0.4477539,1,1v6.0180664C46.6235352,43.8125,46.1757813,44.2602539,45.6235352,44.2602539z      M30.6630859,42.2602539h13.9604492v-4.0180664H30.6630859V42.2602539z"></path></g></g></g></svg>