<svg fill="#4F6379" xmlns="http://www.w3.org/2000/svg" xmlns:xlink="http://www.w3.org/1999/xlink" version="1.1" x="0px" y="0px" viewBox="0 0 100 100" enable-background="new 0 0 100 100" xml:space="preserve"><path d="M94.266,58.177c-0.273-2.823-2.612-5.681-6.552-5.681c-0.489,0-0.999,0.045-1.463,0.125l-16.449,2.385L48.157,28.918  l2.533-1.976c8.405,10.714,9.738,11.141,10.322,11.328c0.664,0.212,1.597,0.339,2.497,0.339c1.261,0,3.041-0.247,4.362-1.421  c1.358-1.207,2.074-2.943,2.07-5.021c-0.003-2.029-1.226-4.476-2.36-5.89L57.032,13.12c-1.625-2.027-4.02-3.237-6.406-3.237  c-1.472,0-2.82,0.458-3.899,1.323l-10.229,8.283c0.025-2.242-0.694-4.506-2.203-6.388c-1.917-2.391-4.777-3.762-7.845-3.762  c-2.307,0-4.479,0.764-6.28,2.208c-4.323,3.466-5.02,9.803-1.553,14.126c1.917,2.391,4.777,3.762,7.845,3.762  c0.251,0,0.5-0.013,0.747-0.031l-2.516,11.173c-4.263-0.148-11.094-0.385-11.355-0.385c-4.342,0-7.144,1.896-7.484,5.005  l-0.151,1.052c-0.207,1.876,0.52,3.794,1.992,5.261c1.34,1.335,3.17,2.19,5.152,2.408c0.059,0.007,0.119,0.011,0.179,0.012  c2.785,0.056,16.694,0.332,16.958,0.332c3.996,0,6.695-2.035,7.582-5.66l0.717-2.523l2.696,3.795l-4.439,11.264  c-0.66,1.607-1.284,3.125-0.075,5.316c1.353,2.452,11.091,19.633,11.505,20.363c0.055,0.098,0.119,0.19,0.189,0.277  c1.497,1.837,3.167,2.971,4.964,3.37c0.596,0.133,1.146,0.197,1.68,0.197c2.103,0,3.925-1.031,5.418-3.064  c1.202-1.637,2.03-4.484-0.847-8.752c-0.583-0.864-5.047-8.589-8.206-14.09l2.425-5.505l6.165,6.943  c0.688,0.886,1.977,2.372,3.198,2.814c1.323,0.479,2.324,0.52,4.663,0.175c4.963-0.731,20.246-3.396,20.843-3.527  C94.855,64.257,94.412,59.681,94.266,58.177z M21.737,23.171c-2.087-2.602-1.667-6.417,0.935-8.503  c1.085-0.87,2.391-1.33,3.778-1.33c1.849,0,3.571,0.826,4.725,2.265c2.086,2.602,1.667,6.417-0.934,8.502  c-1.086,0.87-2.393,1.33-3.779,1.33C24.613,25.436,22.891,24.61,21.737,23.171z M87.626,61.742  c-0.729,0.145-15.477,2.729-20.591,3.482c-1.578,0.231-2.247,0.185-2.63,0.059c-0.278-0.158-1.003-0.916-1.523-1.589  c-0.028-0.036-0.059-0.073-0.089-0.107l-8.279-9.324c-0.452-0.509-1.13-0.753-1.806-0.648c-0.673,0.106-1.246,0.546-1.52,1.17  l-4.089,9.282c-0.256,0.582-0.221,1.25,0.095,1.801c0.813,1.417,7.969,13.887,8.862,15.212c0.87,1.291,1.74,3.059,0.939,4.149  c-0.926,1.261-1.628,1.432-2.193,1.432c-0.239,0-0.505-0.033-0.813-0.102c-0.851-0.189-1.757-0.834-2.628-1.869  c-0.993-1.752-10.121-17.858-11.396-20.169c-0.272-0.493-0.282-0.512,0.284-1.89l4.847-12.299c0.248-0.629,0.161-1.34-0.23-1.892  l-5.738-8.078c-0.446-0.628-1.216-0.947-1.969-0.813c-0.758,0.13-1.375,0.685-1.585,1.424l-1.875,6.605  c-0.467,1.905-1.543,2.682-3.704,2.682c-0.369-0.003-11.087-0.216-16.792-0.329c-1.051-0.132-2.001-0.577-2.684-1.256  c-0.606-0.604-0.913-1.329-0.848-1.922l0.151-1.052c0.15-1.363,2.51-1.51,3.497-1.51c0.389,0.006,7.923,0.267,12.892,0.441  c0.965,0.035,1.81-0.622,2.021-1.56l3.232-14.352l16.611-13.466c0.069-0.051,0.077-0.055,0.139-0.115l1.017-0.815  c0.362-0.29,0.845-0.443,1.396-0.443c1.184,0,2.412,0.65,3.285,1.739l10.55,13.157c0.787,0.982,1.479,2.568,1.48,3.395  c0.002,1.376-0.547,1.865-0.728,2.025c-0.224,0.199-0.789,0.411-1.705,0.411c-0.492,0-0.891-0.061-1.114-0.108  c-1.256-0.996-5.973-6.689-9.778-11.593c-0.326-0.419-0.805-0.692-1.333-0.758c-0.526-0.068-1.058,0.081-1.478,0.407l-5.735,4.473  c-0.426,0.333-0.7,0.824-0.758,1.362c-0.059,0.538,0.104,1.076,0.449,1.492l23.676,28.538c0.444,0.537,1.134,0.803,1.826,0.703  l17.611-2.554c0.292-0.05,0.574-0.076,0.837-0.076c1.872,0,2.497,1.299,2.571,2.067C90.428,60.04,90.531,61.108,87.626,61.742z"></path></svg>