<svg fill="#4F6379" xmlns:dc="http://purl.org/dc/elements/1.1/" xmlns:cc="http://creativecommons.org/ns#" xmlns:rdf="http://www.w3.org/1999/02/22-rdf-syntax-ns#" xmlns:svg="http://www.w3.org/2000/svg" xmlns="http://www.w3.org/2000/svg" xmlns:sodipodi="http://sodipodi.sourceforge.net/DTD/sodipodi-0.dtd" xmlns:inkscape="http://www.inkscape.org/namespaces/inkscape" version="1.1" x="0px" y="0px" viewBox="0 0 100 100"><g transform="translate(0,-952.36218)"><path style="font-size:medium;font-style:normal;font-variant:normal;font-weight:normal;font-stretch:normal;text-indent:0;text-align:start;text-decoration:none;line-height:normal;letter-spacing:normal;word-spacing:normal;text-transform:none;direction:ltr;block-progression:tb;writing-mode:lr-tb;text-anchor:start;baseline-shift:baseline;opacity:1;color:#000000;fill:#4F6379;fill-opacity:1;stroke:none;stroke-width:4;marker:none;visibility:visible;display:inline;overflow:visible;enable-background:accumulate;font-family:Sans;-inkscape-font-specification:Sans" d="M 50 6.96875 C 26.275446 6.96875 6.96875 26.27542 6.96875 50 L 6.96875 62 A 2.0002 2.0002 0 0 0 9 64 L 21.28125 64 C 21.582888 64.981034 22.111576 65.85706 22.8125 66.5625 C 23.153898 66.9061 23.140469 66.83745 23.3125 66.96875 C 23.484531 67.09995 23.697582 67.26845 23.96875 67.46875 C 24.511085 67.86925 25.25463 68.40085 26.125 69.03125 C 27.865739 70.29215 30.120942 71.9471 32.375 73.5625 C 36.872682 76.7859 41.29199 79.9229 41.3125 79.9375 L 41.34375 79.9375 C 43.223034 81.304665 45.690398 81.271764 47.53125 80.0625 C 48.800081 80.779928 50.030863 81 51 81 C 54.085334 81 58.474186 79.57315 63.15625 77.78125 C 67.822144 75.99565 72.458225 73.83955 75.28125 71.90625 C 75.29105 71.89625 75.30276 71.882 75.3125 71.875 C 76.835731 70.877 78 69.2145 78 67.4375 C 78 66.5094 77.755943 65.59995 77.34375 64.84375 C 77.172345 64.52925 76.921004 64.2733 76.71875 64 L 86.3125 64 C 80.682057 78.6071 66.608576 89 50 89 C 39.322104 89 29.581143 84.871448 22.53125 78 L 26 78 A 2.0002 2.0002 0 1 0 26 74 L 18 74 A 2.0002 2.0002 0 0 0 17.8125 74 A 2.0002 2.0002 0 0 0 16 76 L 16 84 A 2.0002 2.0002 0 1 0 20 84 L 20 81.15625 C 27.776944 88.59684 38.422534 93 50 93 C 69.196292 93 85.295837 80.29135 90.8125 62.90625 A 2.0002 2.0002 0 0 0 90.875 62.75 A 2.0002 2.0002 0 0 0 91 62.34375 A 2.0002 2.0002 0 0 0 91.03125 62.15625 C 92.18515 58.27375 93 54.2538 93 50 L 93 36 A 2.0002 2.0002 0 0 0 91 34 L 70.59375 34 L 53.84375 26.1875 A 2.0002 2.0002 0 0 0 52.6875 26 A 2.0002 2.0002 0 0 0 52.125 26.1875 L 36.09375 34 L 14.4375 34 C 20.536259 20.444484 34.147285 11.03125 50 11.03125 C 60.677895 11.03125 70.39049 15.133398 77.4375 22 L 74 22 A 2.0002 2.0002 0 1 0 74 26 L 82 26 A 2.0002 2.0002 0 0 0 84 24 L 84 16 A 2.0002 2.0002 0 0 0 81.78125 13.96875 A 2.0002 2.0002 0 0 0 80 16 L 80 18.875 C 72.222937 11.432526 61.578148 6.96875 50 6.96875 z M 53 30.21875 L 69.3125 37.8125 A 2.0002 2.0002 0 0 0 70.15625 38 L 89 38 L 89 50 C 89 53.4853 88.417429 56.7864 87.5625 60 L 73.34375 60 L 52.5 36.65625 A 2.0002 2.0002 0 0 0 50.28125 36.125 L 37.6875 40.9375 C 37.6782 40.9405 37.66559 40.9355 37.65625 40.9375 C 37.550373 40.9646 37.428689 41 37.3125 41 C 36.833583 41 36 40.05906 36 39.3125 C 36 38.81987 36.272972 38.41644 36.65625 38.1875 C 36.66425 38.1825 36.64815 38.16085 36.65625 38.15625 L 53 30.21875 z M 12.90625 38 L 32.375 38 C 32.256425 38.44007 32 38.83782 32 39.3125 C 32 42.22418 34.127481 45 37.3125 45 C 37.807583 45 38.293991 44.9083 38.75 44.78125 A 2.0002 2.0002 0 0 0 38.9375 44.71875 L 50.40625 40.34375 L 72.84375 65.4375 C 72.85195 65.4475 72.83565 65.45975 72.84375 65.46875 C 73.370476 66.07635 73.707991 66.5009 73.84375 66.75 C 73.981586 67.0029 74 67.0642 74 67.4375 C 74 67.9999 74.08684 67.9214 73.09375 68.5625 A 2.0002 2.0002 0 0 0 73.0625 68.59375 C 70.830878 70.12755 66.204001 72.31475 61.71875 74.03125 C 57.233499 75.74785 52.574278 77 51 77 C 50.377386 77 50.212679 77.05054 49.8125 76.8125 C 50.276127 74.806641 49.562989 72.604524 47.84375 71.28125 L 47.875 71.25 C 47.875 71.25 47.78215 71.1875 47.78125 71.1875 C 47.69739 71.1185 43.805024 67.8787 39.71875 64.5 C 37.653753 62.7926 35.566778 61.0919 33.9375 59.75 C 32.308222 58.4081 31.304056 57.5763 30.875 57.25 C 29.843929 56.4656 28.536478 56 27.15625 56 C 24.54262 56 22.328447 57.686638 21.4375 60 L 11.03125 60 L 11.03125 50 C 11.03125 45.806827 11.686299 41.782289 12.90625 38 z M 27.15625 60 C 27.659536 60 28.103785 60.12865 28.46875 60.40625 C 28.46125 60.39625 29.780729 61.4737 31.40625 62.8125 C 33.031771 64.1513 35.123536 65.88715 37.1875 67.59375 C 41.315428 71.00675 45.34375 74.34375 45.34375 74.34375 A 2.0002 2.0002 0 0 0 45.4375 74.40625 C 46.103905 74.89665 46.217076 75.7133 45.71875 76.375 C 45.207803 77.0535 44.345257 77.20275 43.6875 76.71875 A 2.0002 2.0002 0 0 0 43.65625 76.6875 C 43.65625 76.6875 39.221224 73.5393 34.71875 70.3125 C 32.467513 68.6991 30.198909 67.0657 28.46875 65.8125 C 27.603671 65.1859 26.867383 64.6367 26.34375 64.25 C 26.081933 64.0566 25.860973 63.921 25.71875 63.8125 C 25.576527 63.704 25.376136 63.4676 25.65625 63.75 C 25.254693 63.3455 25 62.8117 25 62.1875 C 25 60.9381 25.94345 60 27.15625 60 z " transform="translate(0,952.36218)"></path></g></svg>