<svg fill="#8FCFEE" xmlns="http://www.w3.org/2000/svg" data-name="Layer 1" viewBox="0 0 100 100" x="0px" y="0px"><title>bryanlow</title><path d="M61,30a7,7,0,1,0-7-7A7,7,0,0,0,61,30Zm0-10a3,3,0,1,1-3,3A3,3,0,0,1,61,20Z"></path><path d="M72,37a7,7,0,1,0,7-7A7,7,0,0,0,72,37Zm10,0a3,3,0,1,1-3-3A3,3,0,0,1,82,37Z"></path><path d="M59.81,43.11a2,2,0,0,0,2.8-.42l17-23a2,2,0,0,0-3.22-2.38l-17,23A2,2,0,0,0,59.81,43.11Z"></path><path d="M29,33c-2.84,0-17,.29-17,6s14.16,6,17,6,17-.29,17-6S31.84,33,29,33Zm0,8c-6.68,0-11-1.15-12.56-2C18,38.15,22.32,37,29,37s11,1.15,12.56,2C40,39.85,35.68,41,29,41Z"></path><path d="M44,43.5a2,2,0,0,0-2,1.68c-.88.84-5.45,2.32-13,2.32S16.85,46,16,45.18a2,2,0,0,0-4,.32c0,5.71,14.16,6,17,6s17-.29,17-6A2,2,0,0,0,44,43.5Z"></path><path d="M44,50.5a2,2,0,0,0-2,1.68c-.88.84-5.45,2.32-13,2.32S16.85,53,16,52.18a2,2,0,0,0-4,.32c0,5.71,14.16,6,17,6s17-.29,17-6A2,2,0,0,0,44,50.5Z"></path><path d="M44,57.5a2,2,0,0,0-2,1.68c-.88.84-5.45,2.32-13,2.32S16.85,60,16,59.18a2,2,0,0,0-4,.32c0,5.71,14.16,6,17,6s17-.29,17-6A2,2,0,0,0,44,57.5Z"></path><path d="M44,64.5a2,2,0,0,0-2,1.68c-.88.84-5.45,2.32-13,2.32S16.85,67,16,66.18a2,2,0,0,0-4,.32c0,5.71,14.16,6,17,6s17-.29,17-6A2,2,0,0,0,44,64.5Z"></path><path d="M44,71.5a2,2,0,0,0-2,1.68c-.88.84-5.45,2.32-13,2.32S16.85,74,16,73.18a2,2,0,0,0-4,.32c0,5.71,14.16,6,17,6s17-.29,17-6A2,2,0,0,0,44,71.5Z"></path><path d="M71,64c2.84,0,17-.29,17-6s-14.16-6-17-6-17,.29-17,6S68.16,64,71,64Zm0-8c6.68,0,11,1.15,12.56,2C82,58.85,77.68,60,71,60s-11-1.15-12.56-2C60,57.15,64.32,56,71,56Z"></path><path d="M86,62.5a2,2,0,0,0-2,1.68c-.88.84-5.45,2.32-13,2.32S58.85,65,58,64.18a2,2,0,0,0-4,.32c0,5.71,14.16,6,17,6s17-.29,17-6A2,2,0,0,0,86,62.5Z"></path><path d="M86,69.5a2,2,0,0,0-2,1.68c-.88.84-5.45,2.32-13,2.32S58.85,72,58,71.18a2,2,0,0,0-4,.32c0,5.71,14.16,6,17,6s17-.29,17-6A2,2,0,0,0,86,69.5Z"></path><path d="M86,76.5a2,2,0,0,0-2,1.68c-.88.84-5.45,2.32-13,2.32S58.85,79,58,78.18a2,2,0,0,0-4,.32c0,5.71,14.16,6,17,6s17-.29,17-6A2,2,0,0,0,86,76.5Z"></path></svg>