<svg fill="#857799" xmlns="http://www.w3.org/2000/svg" xmlns:xlink="http://www.w3.org/1999/xlink" version="1.1" x="0px" y="0px" viewBox="0 0 100 100" style="enable-background:new 0 0 100 100;" xml:space="preserve"><style type="text/css">
	.st0{fill:none;stroke:#857799;stroke-width:2;stroke-linecap:round;stroke-linejoin:round;stroke-miterlimit:10;}
	.st1{fill:none;stroke:#857799;stroke-width:2;stroke-linecap:round;stroke-linejoin:round;stroke-dasharray:4,4;}
	.st2{fill:none;stroke:#857799;stroke-width:2;stroke-linecap:round;stroke-linejoin:round;}
	.st3{fill:none;stroke:#857799;stroke-width:2;stroke-linecap:round;stroke-linejoin:round;stroke-dasharray:2.9655,3.954;}
	.st4{fill:none;stroke:#857799;stroke-width:2;stroke-linecap:round;stroke-linejoin:round;stroke-dasharray:2.7633,3.6844;}
	.st5{fill:none;stroke:#857799;stroke-width:2;stroke-miterlimit:10;}
	.st6{fill:none;stroke:#857799;stroke-width:1.8;stroke-linecap:round;stroke-linejoin:round;stroke-miterlimit:10;}
	.st7{stroke:#857799;stroke-width:0.2;stroke-miterlimit:10;}
	.st8{fill:none;stroke:#857799;stroke-width:2;stroke-linecap:round;stroke-linejoin:round;stroke-dasharray:2.9177,3.8902;}
</style><path d="M14.695,74.194h37.173c0.553,0,1-0.447,1-1V38.233c0-0.553-0.447-1-1-1H14.695c-0.553,0-1,0.447-1,1v34.961  C13.695,73.747,14.143,74.194,14.695,74.194z M15.695,39.233h35.173v32.961H15.695V39.233z"></path><path d="M74.831,10.746c-0.17-0.524-0.729-0.813-1.259-0.644l-43.854,14.16c-0.252,0.081-0.462,0.26-0.583,0.495  c-0.12,0.236-0.143,0.511-0.061,0.764l2.195,6.796H10.24c-0.553,0-1,0.447-1,1v55.585c0,0.553,0.447,1,1,1h46.084  c0.553,0,1-0.447,1-1V75.861L91.268,64.9c0.525-0.169,0.813-0.732,0.644-1.259L74.831,10.746z M55.324,87.902H11.24V34.317h44.084  V87.902z M38.013,32.194l-0.978-3.027l33.471-10.808l10.129,31.366l-23.311,7.527V33.317c0-0.553-0.447-1-1-1H38.027  C38.019,32.276,38.026,32.235,38.013,32.194z M57.324,73.76V59.353l24.877-8.032c0.252-0.081,0.462-0.26,0.583-0.495  c0.12-0.236,0.143-0.511,0.061-0.764l-10.743-33.27c-0.169-0.524-0.729-0.814-1.259-0.644L35.469,27.571  c-0.252,0.081-0.462,0.26-0.583,0.495c-0.12,0.236-0.143,0.511-0.061,0.764l1.126,3.487h-2.59c-0.004-0.014,0-0.029-0.005-0.043  l-2.072-6.416l41.951-13.546l16.466,50.992L57.324,73.76z"></path><path d="M45.927,43.672c-1.286-1.138-3.162-0.866-3.582-0.791c-1.984,0.217-5.042,3.575-5.916,4.583l-2.35,2.508l-9.38-5.567  c-0.679-0.48-1.672-0.351-2.345,0.323l-0.728,0.728c-0.757,0.756-0.825,1.872-0.106,2.588l7.947,6.906l-4.358,5.109l-2.235-1.213  c-0.681-0.337-1.497-0.204-2.034,0.332l-0.681,0.681c-0.334,0.334-0.518,0.777-0.518,1.249c0.001,0.472,0.185,0.915,0.518,1.246  l7.207,7.207c0.332,0.334,0.775,0.518,1.247,0.519h0.001c0.472,0,0.915-0.184,1.249-0.518l0.687-0.688  c0.526-0.526,0.666-1.332,0.33-2.037l-1.173-2.249l5.073-4.323l6.945,7.987c0.669,0.669,1.783,0.599,2.541-0.157l0.726-0.728  c0.675-0.673,0.807-1.665,0.324-2.345l-5.56-9.369l2.51-2.351c0.031-0.029,0.061-0.061,0.088-0.094  c1.156-1.017,4.276-3.922,4.485-5.832c0.078-0.418,0.346-2.297-0.833-3.626C45.992,43.735,45.941,43.686,45.927,43.672z   M44.87,47.025c-0.01,0.045-0.016,0.091-0.019,0.137c-0.056,0.781-2.079,3.033-3.935,4.646c-0.05,0.044-0.095,0.092-0.134,0.144  l-2.98,2.791c-0.343,0.32-0.416,0.836-0.177,1.24l5.93,9.991l-0.626,0.618l-7.29-8.388c-0.361-0.415-0.988-0.462-1.403-0.104  l-6.433,5.482c-0.355,0.302-0.454,0.81-0.238,1.223l1.448,2.776l-0.399,0.399l-6.874-6.874l0.389-0.39l2.739,1.486  c0.413,0.226,0.931,0.13,1.237-0.229l5.526-6.479c0.356-0.418,0.31-1.044-0.104-1.404l-8.404-7.301l0.63-0.62l9.996,5.934  c0.403,0.238,0.92,0.167,1.24-0.177l2.924-3.122c1.612-1.855,3.864-3.879,4.646-3.935c0.043-0.003,0.09-0.01,0.132-0.018  c0.328-0.068,1.382-0.149,1.86,0.269C45.019,45.647,44.936,46.702,44.87,47.025z"></path></svg>