<svg fill="#62A0DC" xmlns="http://www.w3.org/2000/svg" xmlns:xlink="http://www.w3.org/1999/xlink" version="1.1" x="0px" y="0px" viewBox="-1535.809 -217.761 96 96" enable-background="new -1535.809 -217.761 96 96" xml:space="preserve"><path fill="#62A0DC" d="M-1524.571-190.868c1.19,1.607,2.671,3.607,5.649,3.607c2.977,0,4.458-2,5.648-3.607  c1.131-1.528,1.84-2.393,3.237-2.393s2.106,0.865,3.237,2.393c1.19,1.607,2.671,3.607,5.648,3.607s4.458-2,5.648-3.607  c1.131-1.528,1.839-2.393,3.237-2.393c1.398,0,2.107,0.865,3.239,2.393c1.19,1.607,2.672,3.607,5.649,3.607  c2.979,0,4.46-2,5.651-3.607c1.132-1.528,1.841-2.393,3.24-2.393c1.398,0,2.107,0.865,3.239,2.393  c1.19,1.607,2.672,3.607,5.65,3.607c2.979,0,4.461-2,5.652-3.607c1.133-1.528,1.842-2.393,3.242-2.393s2.109,0.865,3.242,2.393  c1.191,1.607,2.673,3.607,5.652,3.607v-3c-1.4,0-2.109-0.865-3.242-2.393c-1.191-1.607-2.673-3.607-5.652-3.607  c-2.979,0-4.461,2-5.652,3.607c-1.133,1.528-1.842,2.393-3.242,2.393c-1.398,0-2.107-0.865-3.239-2.393  c-1.19-1.607-2.672-3.607-5.65-3.607c-2.978,0-4.46,2-5.65,3.607c-1.132,1.528-1.841,2.393-3.241,2.393  c-1.398,0-2.106-0.865-3.238-2.393c-1.19-1.607-2.672-3.607-5.65-3.607c-2.977,0-4.458,2-5.648,3.607  c-1.131,1.528-1.84,2.393-3.237,2.393s-2.106-0.865-3.237-2.393c-1.19-1.607-2.671-3.607-5.648-3.607s-4.458,2-5.648,3.607  c-1.131,1.528-1.84,2.393-3.237,2.393c-1.398,0-2.106-0.865-3.238-2.393c-1.19-1.607-2.671-3.607-5.649-3.607v3  C-1526.411-193.261-1525.703-192.396-1524.571-190.868z"></path><path fill="#62A0DC" d="M-1524.571-168.868c1.19,1.607,2.671,3.607,5.649,3.607c2.977,0,4.458-2,5.648-3.607  c1.131-1.528,1.84-2.393,3.237-2.393s2.106,0.865,3.237,2.393c1.19,1.607,2.671,3.607,5.648,3.607s4.458-2,5.648-3.607  c1.131-1.528,1.839-2.393,3.237-2.393c1.398,0,2.107,0.865,3.239,2.393c1.19,1.607,2.672,3.607,5.649,3.607  c2.979,0,4.46-2,5.651-3.607c1.132-1.528,1.841-2.393,3.24-2.393c1.398,0,2.107,0.865,3.239,2.393  c1.19,1.607,2.672,3.607,5.65,3.607c2.979,0,4.461-2,5.652-3.607c1.133-1.528,1.842-2.393,3.242-2.393s2.109,0.865,3.242,2.393  c1.191,1.607,2.673,3.607,5.652,3.607v-3c-1.4,0-2.109-0.865-3.242-2.393c-1.191-1.607-2.673-3.607-5.652-3.607  c-2.979,0-4.461,2-5.652,3.607c-1.133,1.528-1.842,2.393-3.242,2.393c-1.398,0-2.107-0.865-3.239-2.393  c-1.19-1.607-2.672-3.607-5.65-3.607c-2.978,0-4.46,2-5.65,3.607c-1.132,1.528-1.841,2.393-3.241,2.393  c-1.398,0-2.106-0.865-3.238-2.393c-1.19-1.607-2.672-3.607-5.65-3.607c-2.977,0-4.458,2-5.648,3.607  c-1.131,1.528-1.84,2.393-3.237,2.393s-2.106-0.865-3.237-2.393c-1.19-1.607-2.671-3.607-5.648-3.607s-4.458,2-5.648,3.607  c-1.131,1.528-1.84,2.393-3.237,2.393c-1.398,0-2.106-0.865-3.238-2.393c-1.19-1.607-2.671-3.607-5.649-3.607v3  C-1526.411-171.261-1525.703-170.396-1524.571-168.868z"></path><path fill="#62A0DC" d="M-1524.571-146.868c1.19,1.607,2.671,3.607,5.649,3.607c2.977,0,4.458-2,5.648-3.607  c1.131-1.528,1.84-2.393,3.237-2.393s2.106,0.865,3.237,2.393c1.19,1.607,2.671,3.607,5.648,3.607s4.458-2,5.648-3.607  c1.131-1.528,1.839-2.393,3.237-2.393c1.398,0,2.107,0.865,3.239,2.393c1.19,1.607,2.672,3.607,5.649,3.607  c2.979,0,4.46-2,5.651-3.607c1.132-1.528,1.841-2.393,3.24-2.393c1.398,0,2.107,0.865,3.239,2.393  c1.19,1.607,2.672,3.607,5.65,3.607c2.979,0,4.461-2,5.652-3.607c1.133-1.528,1.842-2.393,3.242-2.393s2.109,0.865,3.242,2.393  c1.191,1.607,2.673,3.607,5.652,3.607v-3c-1.4,0-2.109-0.865-3.242-2.393c-1.191-1.607-2.673-3.607-5.652-3.607  c-2.979,0-4.461,2-5.652,3.607c-1.133,1.528-1.842,2.393-3.242,2.393c-1.398,0-2.107-0.865-3.239-2.393  c-1.19-1.607-2.672-3.607-5.65-3.607c-2.978,0-4.46,2-5.65,3.607c-1.132,1.528-1.841,2.393-3.241,2.393  c-1.398,0-2.106-0.865-3.238-2.393c-1.19-1.607-2.672-3.607-5.65-3.607c-2.977,0-4.458,2-5.648,3.607  c-1.131,1.528-1.84,2.393-3.237,2.393s-2.106-0.865-3.237-2.393c-1.19-1.607-2.671-3.607-5.648-3.607s-4.458,2-5.648,3.607  c-1.131,1.528-1.84,2.393-3.237,2.393c-1.398,0-2.106-0.865-3.238-2.393c-1.19-1.607-2.671-3.607-5.649-3.607v3  C-1526.411-149.261-1525.703-148.396-1524.571-146.868z"></path></svg>