<svg fill="#857799" xmlns="http://www.w3.org/2000/svg" data-name="Layer 1" viewBox="0 0 100 100" x="0px" y="0px"><title>100all</title><path d="M90.56,70.33A2,2,0,0,0,88.67,69H77.58V52.54a6,6,0,0,0-6-6H70.09v-5a8.91,8.91,0,0,0-2.36-6L38.84,5.7A9,9,0,0,0,27.38,4.48L13.57,13.68a8,8,0,0,0-3.49,7.69l2.69,20.55a12.29,12.29,0,0,0,3,7.78l4.77,5.55V69H11.33a2,2,0,0,0-1.9,1.37l-8,24.07A2,2,0,0,0,3.33,97H96.67a2,2,0,0,0,1.9-2.63ZM16.76,41.77a1.93,1.93,0,0,0,0-.24L14,20.86A4,4,0,0,1,15.79,17L29.6,7.8A5,5,0,0,1,36,8.49L64.82,38.28a4.89,4.89,0,0,1,1.27,3.3v5H39.16l-1.82-3.61a2,2,0,0,0-3.57,1.8L45,67a4.9,4.9,0,0,1-6.15,6.77l-.33-.13a4.92,4.92,0,0,1-2.46-2.1L28.61,58.78a9,9,0,0,0-.94-1.31L18.76,47.1A8.28,8.28,0,0,1,16.76,41.77Zm7.88,18.31a4.9,4.9,0,0,1,.52.72l7.46,12.79a8.94,8.94,0,0,0,4.46,3.81l.33.13a9,9,0,0,0,3.25.61,8.91,8.91,0,0,0,7.92-12.92l-7.4-14.68H71.58a2,2,0,0,1,2,2v31H24.5V59.91ZM6.11,93,12.78,73H20.5v10.6H16.61a2,2,0,0,0,0,4H81.25a2,2,0,0,0,0-4H77.58V73h9.64L93.89,93Z"></path></svg>