<?xml version="1.0" encoding="utf-8"?>
<!-- Generator: Adobe Illustrator 22.0.1, SVG Export Plug-In . SVG Version: 6.00 Build 0)  -->
<svg version="1.1" id="Layer_1" xmlns="http://www.w3.org/2000/svg" xmlns:xlink="http://www.w3.org/1999/xlink" x="0px" y="0px"
	 viewBox="0 0 512 512" style="enable-background:new 0 0 512 512;" xml:space="preserve">
<style type="text/css">
	.st0{fill:#5388AA;stroke:#5388AA;stroke-width:5;stroke-miterlimit:10;}
</style>
<g>
	<path class="st0" d="M342.9,267l-50.7,84.6l-24.8-70.9h17.1v-16.4h-57.4v16.4h17.1l-24.8,70.9L168.7,267
		c-26.4,3.7-93.3,42.2-81.9,122.4L92.3,510h327l5.6-120.6C434.2,338.6,403.9,283.3,342.9,267z M255.8,297.2l25.4,72.6l-25.4,42.3
		l-25.4-42.3L255.8,297.2z M408.6,387.2l-5,106.4H108l-4.9-105.4c-6.5-36.4,9.5-82.4,58.2-101.7L255.8,444l94.5-157.5
		C396.4,303.9,414.8,349.8,408.6,387.2z"/>
	<path class="st0" d="M255.8,247.8c52.3,0,90.1-68.5,90.1-114.7h16.4V83.9h-16.8C341.4,38.1,302.7,2,255.8,2S170.2,38.1,166,83.9
		h-16.8v49.2h16.4C165.7,179.3,203.5,247.8,255.8,247.8z M255.8,231.4c-39,0-73.7-55-73.7-98.3h147.5
		C329.5,176.4,294.8,231.4,255.8,231.4z M264,18.9V43c0,4.5-3.7,8.2-8.2,8.2c-4.5,0-8.2-3.7-8.2-8.2V18.9c2.7-0.3,5.4-0.5,8.2-0.5
		S261.3,18.6,264,18.9z M165.7,100.3h16.4c-2.5-40.7,20.6-67.5,49.2-77.6V43c0,13.6,11,24.6,24.6,24.6s24.6-11,24.6-24.6V22.7
		c28.6,10.2,51.8,39.1,49.2,77.6h16.4v16.4H165.7V100.3z"/>
</g>
</svg>
