<svg fill="#D9776B" xmlns="http://www.w3.org/2000/svg" xmlns:xlink="http://www.w3.org/1999/xlink" xml:space="preserve" version="1.1" style="shape-rendering:geometricPrecision;text-rendering:geometricPrecision;image-rendering:optimizeQuality;" viewBox="0 0 249 235" x="0px" y="0px" fill-rule="evenodd" clip-rule="evenodd"><defs><style type="text/css">
   
    .fil0 {fill:#D9776B}
   
  </style></defs><g><path class="fil0" d="M13 53c16,-5 27,-20 27,-37l0 -16 169 0 0 16c0,17 11,32 27,37l13 3 -1 14c-4,43 -19,87 -48,121 -18,21 -46,44 -75,44 -30,0 -58,-23 -76,-44 -29,-34 -44,-78 -48,-121l-1 -14 13 -3zm112 66l0 99c-30,1 -76,-33 -98,-99l98 0zm85 29c1,-3 2,-5 4,-8 -2,3 -3,5 -4,8zm12 -29l-97 0 0 -103 68 0c0,25 16,46 39,52 -2,19 -5,36 -10,51z"></path></g></svg>