<svg fill="#857799" xmlns="http://www.w3.org/2000/svg" xmlns:xlink="http://www.w3.org/1999/xlink" version="1.1" x="0px" y="0px" viewBox="0 0 100 100" style="enable-background:new 0 0 100 100;" xml:space="preserve"><g><path d="M18.8,56.5c0.7,0,1.4-0.1,2.1-0.2c3-0.5,5.2-1.7,6.4-3.6c2.1-3.2,1.3-7.4,0.1-11.8c-2.2-8.5-7.7-13.3-13.7-11.7h0   c-1.9,0.5-5.2,2.1-6.1,7.3c-0.6,3.5,0.1,7.4,0.8,10.1C10.3,53.2,13.6,56.5,18.8,56.5z M13.7,37.5c0.4-2.2,1.3-2.4,1.6-2.5   c2.8-0.7,5.3,3.2,6.4,7.4c0.5,1.9,1.5,5.8,0.7,7c-0.4,0.6-1.6,0.9-2.3,1C18,50.7,15.9,51,14.3,45C13.6,42.1,13.3,39.4,13.7,37.5z"></path><path d="M36.8,42.7c1.6,0,3.2-0.6,4.6-1.8c5-4.1,6.7-9.2,5.4-15.5c-0.7-3.6-2.2-6.6-4.1-8.7c-2.4-2.6-5.3-3.7-8.4-3   c-5.9,1.2-9.3,8.3-7.7,16.1c0.4,1.7,2.5,10.6,8.1,12.5C35.4,42.6,36.1,42.7,36.8,42.7z M35.5,19.5c0.1,0,0.3-0.1,0.5-0.1   c0.5,0,1.3,0.2,2.3,1.2c1.2,1.3,2.1,3.4,2.6,5.9c0.9,4.1-0.1,7-3.4,9.7c-0.6,0.5-0.8,0.4-0.9,0.4c-1.3-0.5-3.3-3.8-4.2-8.1   C31.5,23.8,33.3,20,35.5,19.5z"></path><path d="M26.3,59.3c-9.2,3.7-9.2,10.5-9.2,15.5c0,5.9,4.3,11.8,14,11.8c4.3,0,6.9-0.3,9.3-0.6c1.8-0.2,3.3-0.4,5.1-0.4   c1.9,0,4.2,0.2,6.9,0.4c3.5,0.3,7.4,0.6,11.6,0.6c5.5,0,12-2,12-11.8c0-5.7-3.2-13-10.3-15.5c-1.9-0.7-2.2-1.5-2.7-4.1   c-0.4-2-1-4.5-3.1-6.8c-4.3-4.6-11.2-4-12.6-3.8c-1.3,0-7,0.5-11.1,4.8c-1.3,1.4-2.2,2.7-3.2,4c-1.8,2.6-3.3,4.7-6.6,5.8L26.3,59.3   z M37.9,56.9c0.8-1.2,1.6-2.3,2.6-3.4c2.7-2.9,6.9-2.9,7-3l0.5,0c0.1,0,5-0.6,7.5,2c0.9,1,1.2,2.1,1.6,3.9c0.6,2.8,1.4,6.7,6.6,8.5   c4.1,1.5,6.3,6.1,6.3,9.8c0,3.9-0.9,5.8-6,5.8c-4,0-7.8-0.3-11.1-0.5c-2.8-0.2-5.2-0.4-7.3-0.4c-2.2,0-3.9,0.2-5.8,0.4   c-2.2,0.2-4.7,0.5-8.7,0.5c-5.1,0-8-2.1-8-5.8c0-4.8,0-7.7,5.4-9.9C33.5,63,35.9,59.8,37.9,56.9z"></path><path d="M88.1,35.5L88.1,35.5c-2.4-2-5.9-2.6-9.4-1.6c-3.2,0.9-6.3,3-8.7,5.9C64,46.9,66.2,53,70.2,56.3c1.7,1.4,3.9,2.1,6.3,2.1   c4.4,0,9.4-2.3,12.8-6.3c3.1-3.8,3.4-7.1,3.1-9.3C92,40,90.5,37.5,88.1,35.5z M84.6,48.2c-3.2,3.9-8.6,5.2-10.6,3.5   c-2.4-2-2.2-4.7,0.6-8.1c1.6-1.9,3.7-3.4,5.7-3.9c0.4-0.1,1.1-0.3,1.7-0.3c0.8,0,1.6,0.2,2.2,0.7v0c0.9,0.7,2,1.9,2.2,3.5   C86.6,45,86,46.6,84.6,48.2z"></path><path d="M71.8,28.9c1.1-7.8-2.8-14.5-8.7-15.3c-5.9-0.8-11.4,4.7-12.5,12.5c-1,7.3,1.2,10.6,5.3,13.7c1.3,1,2.9,1.6,4.5,1.6   c1,0,2-0.2,3-0.6C67.6,39,71.1,34.1,71.8,28.9z M65.9,28.1c-0.4,3.3-2.8,6.3-4.7,7.1c-0.9,0.3-1.3,0.1-1.6-0.1   c-2.6-2.1-3.7-3.4-3-8.2c0.6-4.5,3.3-7.4,5.4-7.4c0.1,0,0.2,0,0.3,0C64.5,19.8,66.5,23.4,65.9,28.1z"></path></g></svg>