<svg xmlns="http://www.w3.org/2000/svg" viewBox="0 0 661.14 611.21"><defs><style>.cls-1{fill:#007b78;}.cls-2{fill:#00a2cc;}.cls-3{fill:#80bdbc;}.cls-4{fill:#fff;}</style></defs><g id="Layer_2" data-name="Layer 2"><g id="Layer_1-2" data-name="Layer 1"><g id="Layer_2-2" data-name="Layer 2"><g id="Layer_1-2-2" data-name="Layer 1-2"><g id="Layer_2-2-2" data-name="Layer 2-2"><g id="Layer_1-2-2-2" data-name="Layer 1-2-2"><g id="Layer_2-2-2-2" data-name="Layer 2-2-2"><g id="Layer_1-2-2-2-2" data-name="Layer 1-2-2-2"><path class="cls-1" d="M14.77,590.23H7.19v20.43H0V559.71H14.77c8.26,0,11.93,4.43,11.93,11.78v7C26.7,585.72,23,590.23,14.77,590.23Zm4.66-19c0-3.37-1.22-5.28-4.59-5.28H7.19v18h7.65c3.37,0,4.59-2,4.59-5.28Z"/><path class="cls-1" d="M52.72,610.66,50,598.19H39l-2.68,12.47h-7l11.56-50.95h7.65l11.55,50.95Zm-8.19-39.55L40.32,592h8.42Z"/><path class="cls-1" d="M94.48,611.2c-5.73,0-7.72-1.61-7.72-6.89v-9.95c0-3.52-1.61-5.89-5.28-5.89H74.29v22.19H67V559.71H81.78c8.27,0,11.94,4.13,11.94,11.4v5.58c0,5-1.68,8-6.58,8.95,4.82.77,6.81,4.82,6.81,8.88v9.25c0,1.38.61,2,2.14,2v5.44Zm-8-40.25c0-2.9-1.22-5-4.67-5H74.29v17H81c3.52,0,5.43-2,5.43-5.81Z"/><path class="cls-1" d="M103.28,610.66V559.71h7.19v44.37h16.14v6.58Z"/><path class="cls-1" d="M154.15,610.66l-2.68-12.47h-11l-2.68,12.47h-7l11.56-50.95H150l11.55,50.95ZM146,571.11,141.75,592h8.42Z"/><path class="cls-1" d="M200,610.66V571l-2.07,9.72-7,30h-7.11l-6.81-30L174.88,571v39.71h-6.43v-51h10.1l7,31.82,2.07,9.72,2.06-9.79,6.81-31.75h10.1v50.95Z"/><path class="cls-1" d="M217,610.66V559.71h23.72v6.58h-16.5v14.53h11.93v6.28H224.22v17h16.52v6.58Z"/><path class="cls-1" d="M263.92,566.36v44.3h-7.27v-44.3H246.17v-6.65h28.16v6.65Z"/><path class="cls-1" d="M281.67,610.66V559.71h23.71v6.58H288.86v14.53h11.93v6.28H288.86v17h16.52v6.58Z"/><path class="cls-1" d="M341.42,611.2c-5.74,0-7.73-1.61-7.73-6.89v-9.95c0-3.52-1.61-5.89-5.28-5.89h-7.19v22.19H314V559.71h14.76c8.27,0,11.94,4.13,11.94,11.4v5.58c0,5-1.68,8-6.58,8.95,4.82.77,6.81,4.82,6.81,8.88v9.25c0,1.38.61,2,2.14,2v5.44Zm-8-40.25c0-2.9-1.22-5-4.67-5h-7.49v17H328c3.52,0,5.43-2,5.43-5.81Z"/><path class="cls-2" d="M105,112.45h0a176,176,0,0,1,142,0h0q2.7,1.2,5.35,2.47l-2.45,38.91H644V0H.48V153.83H102.09l-2.46-38.91C101.41,114.07,103.19,113.25,105,112.45Z"/><path class="cls-3" d="M217.76,267.52a99.7,99.7,0,0,1-41.79,25,99.58,99.58,0,0,1-70.74-89.1l-1.08-17.07H.48v153.8H410V186.32H247.8l-1.08,17.07A99.57,99.57,0,0,1,217.76,267.52Z"/><polygon class="cls-4" points="107.99 112.45 107.99 112.45 108 112.45 108 112.45 107.99 112.45"/></g></g></g></g></g></g><path class="cls-1" d="M.5,526.32V371.72H22.32V506.36h49v20Z"/><path class="cls-1" d="M87.08,526.32V371.72h72v20H108.9v44.11h36.21v19H108.9v51.54H159v20Z"/><path class="cls-1" d="M250.27,526.32,212,451.11,199,424V526.32H178.07V371.72H196l36.67,76.61,12.31,27.15V371.72h20.89v154.6Z"/><path class="cls-1" d="M334.3,526.32H290.66V371.72H334.3c28.78,0,41.32,17.88,41.32,41.79v71C375.62,508.45,363.08,526.32,334.3,526.32Zm19.5-111.65c0-14.63-6.5-22.75-20.89-22.75h-20.2V506.13h20.2c14.39,0,20.89-8.13,20.89-22.52Z"/><path class="cls-1" d="M457.79,526.32l-8.12-37.84H416.24l-8.12,37.84H386.76l35.05-154.6H445l35.05,154.6ZM433,406.31l-12.77,63.37h25.53Z"/><path class="cls-1" d="M534.63,526.32H513.51l-36.45-154.6h23l24.84,119.55,24.84-119.55H572Z"/><path class="cls-1" d="M638.86,526.32l-8.13-37.84H597.31l-8.13,37.84H567.83l35-154.6h23.21l35,154.6ZM614,406.31l-12.77,63.37h25.54Z"/></g></g></svg>