<svg xmlns="http://www.w3.org/2000/svg" viewBox="0 0 166.1 118.6"><path fill="#7380be" d="M-1 35.4h77.8v29.2H-1z"/><path fill="#efcb36" d="M0 0h122.3v29.2H0z"/><path d="M7.1 88H3.7v12.1H0V70.8h7.1c3.7 0 5.9 2 5.9 6V82c0 4-2.1 6-5.9 6zm2.2-11.3c0-1.7-.6-2.6-2.2-2.6H3.7v10.7h3.5c1.5 0 2.1-1 2.1-2.6v-5.5zm16.2 23.4l-1.2-6.7h-5.2l-1.2 6.7h-3.5l5.5-29.3h3.9l5.5 29.3h-3.8zm-3.7-22.5l-2.1 12.5h4l-1.9-12.5zm16.6 10.2h-2v12.3h-3.7V70.8h7.1c3.7 0 5.8 1.9 5.8 5.9v5c0 2.6-1.1 4.7-3.6 5.4l4 12.9h-4l-3.6-12.2zm1-3.2c1.7 0 2.6-1 2.6-2.8v-5.2c0-1.5-.6-2.5-2.2-2.5h-3.4v10.5h3zm10.7 15.5V70.8h3.6v25.9h7.6v3.4H50.1zm24.6 0l-1.2-6.7h-5.2l-1.2 6.7h-3.5l5.5-29.3H73l5.4 29.3h-3.7zM71 77.6l-2 12.5h4l-2-12.5zm26.3 22.5V77.7l-1 5.3-3.3 17.1h-3.5L86.2 83l-1-5.3v22.4H82V70.8h5.2L90.4 89l1 5.3.9-5.3 3.3-18.1h5.1v29.3l-3.4-.1zm8.5 0V70.8h11.5v3.3h-7.8v9.1h5.7v3.2h-5.7v10.3h7.8v3.3h-11.5zm22.8-25.9v25.9H125V74.2h-5v-3.4h13.5v3.4h-4.9zm16.9 25.9l-1.2-6.7h-5.2l-1.2 6.7h-3.5l5.5-29.3h3.9l5.4 29.3h-3.7zm-3.7-22.5l-2.1 12.5h4l-1.9-12.5zm16.6 10.2h-2v12.3h-3.6V70.8h7.1c3.7 0 5.8 1.9 5.8 5.9v5c0 2.6-1.1 4.7-3.6 5.4l4 12.9h-3.9l-3.8-12.2zm1-3.2c1.7 0 2.6-1 2.6-2.8v-5.2c0-1.5-.6-2.5-2.2-2.5h-3.5v10.5h3.1zM2.8 116.4c-.7 0-1.3-.4-1.6-1l-.2.9H.3v-9.7h1.2v3.8c.3-.6.9-1 1.6-1 1 0 1.5.8 1.5 2v3.1c.1 1-.6 1.8-1.6 1.9h-.2zm.6-4.8c0-.8-.3-1.2-.9-1.2-.6 0-1 .4-1 1v2.9c-.1.5.3 1 .9 1.1h.1c.6 0 .9-.4.9-1.2v-2.6zm4.7 5.1c-.3 1.2-.6 1.9-1.9 1.9h-.4v-1h.3c.6 0 .7-.2.8-.6l.1-.6-1.8-7h1.2l.8 3.8.3 1.5.3-1.5.8-3.8h1.2l-1.7 7.3zm8-4.3h-1.4v3.9h-1.4v-9.7h2.8c1.1-.2 2.1.6 2.3 1.7v1.8c.1 1.1-.6 2.1-1.7 2.2-.3.1-.5.1-.6.1zm.8-3.6c0-.6-.2-1-.9-1h-1.4v3.4H16c.6 0 .9-.4.9-1v-1.4zm6.4 7.5l-.5-2.4h-2.1l-.5 2.4h-1.3l2.2-9.7h1.5l2.2 9.7h-1.5zm-1.6-7.6l-.8 4h1.6l-.8-4zm6.5 3.5h-.8v4H26v-9.7h2.8c1.6 0 2.3.8 2.3 2.2v1.3c.1 1-.5 1.8-1.5 2.1l1.6 4.2h-1.5l-1.5-4.1zm.4-1.1c.6 0 1-.4 1-1v-1.4c0-.6-.2-1-.9-1h-1.4v3.3l1.3.1zm4.1 5.2v-9.7H34v8.4h3.1v1.3h-4.4zm9.6 0l-.5-2.4h-2.1l-.5 2.4h-1.3l2.2-9.7h1.5l2.2 9.7h-1.5zm-1.5-7.6l-.8 4h1.6l-.8-4zm10.2 7.6v-7.6l-.4 1.8-1.3 5.7H48l-1.3-5.7-.4-1.8v7.6H45v-9.7h2l1.3 6 .4 1.8.4-1.9 1.3-6h1.9v9.7l-1.3.1zm3.2 0v-9.7h4.5v1.3h-3.1v2.8h2.3v1.2h-2.3v3.2h3.1v1.3l-4.5-.1zm8.9-8.5v8.4h-1.4v-8.4h-2v-1.3H65v1.3h-1.9zm3.3 8.5v-9.7h4.5v1.3h-3.1v2.8h2.3v1.2h-2.3v3.2h3.1v1.3l-4.5-.1zm8.3-4.1h-.8v4h-1.4v-9.7h2.8c1.6 0 2.3.8 2.3 2.2v1.3c.1 1-.5 1.8-1.5 2.1l1.6 4.2h-1.5l-1.5-4.1zm.5-1.1c.7 0 1-.4 1-1.1v-1.3c0-.6-.2-1-.9-1h-1.4v3.3l1.3.1z" fill="#283480"/></svg>
