<?xml version="1.0" encoding="UTF-8"?><svg id="Layer_2" xmlns="http://www.w3.org/2000/svg" viewBox="0 0 769.76 611.21"><defs><style>.cls-1{fill:#80bdbc;}.cls-1,.cls-2,.cls-3{stroke-width:0px;}.cls-2{fill:#00a2cc;}.cls-3{fill:#007b78;}</style></defs><g id="Layer_2-2"><g id="Layer_1-2"><g id="Layer_2-2"><g id="Layer_1-2-2"><g id="Layer_2-2-2"><g id="Layer_1-2-2"><g id="Layer_2-2-2"><g id="Layer_1-2-2-2"><path class="cls-3" d="M14.8,590.23h-7.58v20.43H.03v-50.95h14.77c8.26,0,11.93,4.43,11.93,11.78v7c0,7.23-3.7,11.74-11.93,11.74ZM19.46,571.23c0-3.37-1.22-5.28-4.59-5.28h-7.65v18h7.65c3.37,0,4.59-2,4.59-5.28v-7.44h0Z"/><path class="cls-3" d="M52.75,610.66l-2.72-12.47h-11l-2.68,12.47h-7l11.56-50.95h7.65l11.55,50.95h-7.36ZM44.56,571.11l-4.21,20.89h8.42s-4.21-20.89-4.21-20.89Z"/><path class="cls-3" d="M94.51,611.2c-5.73,0-7.72-1.61-7.72-6.89v-9.95c0-3.52-1.61-5.89-5.28-5.89h-7.19v22.19h-7.29v-50.95h14.78c8.27,0,11.94,4.13,11.94,11.4v5.58c0,5-1.68,8-6.58,8.95,4.82.77,6.81,4.82,6.81,8.88v9.25c0,1.38.61,2,2.14,2v5.44h-1.61,0ZM86.51,570.94c0-2.9-1.22-5-4.67-5h-7.52v17h6.71c3.52,0,5.43-2,5.43-5.81,0,0,.05-6.19.05-6.19Z"/><path class="cls-3" d="M103.31,610.66v-50.95h7.19v44.37h16.14v6.58h-23.33Z"/><path class="cls-3" d="M154.18,610.66l-2.68-12.47h-11l-2.68,12.47h-7l11.56-50.95h7.65l11.55,50.95h-7.4ZM146.03,571.11l-4.25,20.89h8.42l-4.17-20.89Z"/><path class="cls-3" d="M200.03,610.66v-39.66l-2.07,9.72-7,30h-7.11l-6.81-30-2.13-9.72v39.71h-6.43v-51h10.1l7,31.82,2.07,9.72,2.06-9.79,6.81-31.75h10.1v50.95h-6.59Z"/><path class="cls-3" d="M217.03,610.66v-50.95h23.72v6.58h-16.5v14.53h11.93v6.28h-11.93v17h16.52v6.58l-23.74-.02h0Z"/><path class="cls-3" d="M263.95,566.36v44.3h-7.27v-44.3h-10.48v-6.65h28.16v6.65h-10.41Z"/><path class="cls-3" d="M281.7,610.66v-50.95h23.71v6.58h-16.52v14.53h11.93v6.28h-11.93v17h16.52v6.58l-23.71-.02h0Z"/><path class="cls-3" d="M341.45,611.2c-5.74,0-7.73-1.61-7.73-6.89v-9.95c0-3.52-1.61-5.89-5.28-5.89h-7.19v22.19h-7.22v-50.95h14.76c8.27,0,11.94,4.13,11.94,11.4v5.58c0,5-1.68,8-6.58,8.95,4.82.77,6.81,4.82,6.81,8.88v9.25c0,1.38.61,2,2.14,2v5.44h-1.65ZM333.45,570.94c0-2.9-1.22-5-4.67-5h-7.49v17h6.74c3.52,0,5.43-2,5.43-5.81v-6.19h0Z"/><path class="cls-2" d="M105.03,112.45h0c45.23-19.94,96.77-19.94,142,0h0c1.8.8,3.58,1.62,5.35,2.47l-2.45,38.91h394.1V0H.51v153.83h101.61l-2.46-38.91c1.78-.85,3.56-1.67,5.37-2.47Z"/><path class="cls-1" d="M217.79,267.52c-11.65,11.66-26.01,20.25-41.79,25-39.89-11.98-68.12-47.53-70.74-89.1l-1.08-17.07H.51v153.8h409.52v-153.83h-162.2l-1.08,17.07c-1.53,24.19-11.82,46.99-28.96,64.13h0Z"/></g></g></g></g></g></g><path class="cls-3" d="M53.73,391.92v134.09h-22v-134.09H0v-20.15h85.22v20.15h-31.5Z"/><path class="cls-3" d="M183.88,527.63c-17.37,0-23.39-4.86-23.39-20.84v-30.11c0-10.65-4.86-17.83-15.98-17.83h-21.77v67.16h-22v-154.23h44.7c25.01,0,36.13,12.51,36.13,34.51v16.91c0,15.05-5.09,24.08-19.92,27.09,14.59,2.32,20.61,14.59,20.61,26.86v28.02c0,4.17,1.85,6.02,6.48,6.02v16.44h-4.86ZM159.56,405.81c0-8.8-3.71-15.05-14.13-15.05h-22.69v51.41h20.38c10.65,0,16.44-6.02,16.44-17.6v-18.76Z"/><path class="cls-3" d="M251.03,526h-45.85v-154.23h44.7c25.01,0,35.66,12.51,35.66,34.51v12.51c0,15.98-6.48,25.01-19.68,27.79,15.05,3.01,21.31,13.43,21.31,28.48v16.44c0,22-11.12,34.51-36.13,34.51ZM264,405.81c0-8.8-3.47-15.05-13.9-15.05h-22.93v48.63h20.38c10.88,0,16.44-6.02,16.44-17.37v-16.21ZM265.16,474.13c0-11.35-5.79-17.37-16.44-17.37h-21.54v50.25h23.85c10.42,0,14.13-6.25,14.13-14.82v-18.06Z"/><path class="cls-3" d="M349.45,529.48c-28.95,0-43.07-18.99-43.07-44.23v-72.72c0-25.01,14.13-44,43.07-44s43.07,18.99,43.07,44v72.72c0,25.24-13.9,44.23-43.07,44.23ZM370.76,410.68c0-13.2-6.95-22.7-21.31-22.7s-21.07,9.5-21.07,22.7v76.42c0,13.2,6.72,22.7,21.07,22.7s21.31-9.5,21.31-22.7v-76.42Z"/><path class="cls-3" d="M462,526h-21.07l-36.36-154.23h22.93l24.78,119.27,24.78-119.27h22.23l-37.29,154.23Z"/><path class="cls-3" d="M513.64,526v-154.23h21.77v134.32h48.86v19.92h-70.63Z"/><path class="cls-3" d="M634.29,529.48c-26.4,0-40.06-15.05-40.06-40.29v-24.55h20.61v23.85c0,14.36,6.48,21.31,18.76,21.31s17.83-6.95,17.83-21.31v-116.72h22v114.87c0,25.01-11.35,42.84-39.14,42.84Z"/><path class="cls-3" d="M697.97,526v-154.23h71.79v19.92h-50.02v44h36.13v18.99h-36.13v51.41h50.02v19.92h-71.79Z"/></g></g></svg>