<svg xmlns="http://www.w3.org/2000/svg" viewBox="0 0 282.82 170.08"><defs><style>.cls-1{fill:#1f689b;}.cls-2{fill:#50bcbc;}.cls-3{fill:#00837b;}</style></defs><g id="Layer_2" data-name="Layer 2"><g id="Layer_1-2" data-name="Layer 1"><path class="cls-1" d="M79.9,60.19l-.35,5.52A32.19,32.19,0,0,1,56.69,94.49,32.2,32.2,0,0,1,33.84,65.71l-.35-5.52H0v49.7H132.28V60.19Z"/><path class="cls-2" d="M0,0V49.69H32.83L32,37.13c.57-.28,1.15-.54,1.73-.8h0a56.82,56.82,0,0,1,45.85,0h0c.58.26,1.16.52,1.73.8l-.79,12.56H207.87V0Z"/><path class="cls-3" d="M12.46,149.56H6.57v20.52H.37v-49.7H12.46c6.35,0,10,3.36,10,10.22v8.81C22.46,146.2,18.81,149.56,12.46,149.56Zm3.73-19.26c0-2.83-1-4.33-3.65-4.33h-6v18.21h6c2.61,0,3.65-1.64,3.65-4.4Z"/><path class="cls-3" d="M43.73,170.08l-2-11.42H32.91l-2.09,11.42h-5.9l9.33-49.7h6.57l9.25,49.7Zm-6.34-38.21-3.51,21.27h6.87Z"/><path class="cls-3" d="M65.67,149.11H62.24v21H56v-49.7H68.13c6.35,0,9.93,3.21,9.93,10.07V139c0,4.33-1.87,7.91-6,9.25,0-.07,6.72,21.87,6.72,21.87H72.09Zm1.79-5.37c2.84,0,4.4-1.65,4.4-4.78v-8.81c0-2.53-1-4.18-3.73-4.18H62.24v17.77Z"/><path class="cls-3" d="M85.52,170.08v-49.7h6.19v44h12.91v5.75Z"/><path class="cls-3" d="M127.38,170.08l-2-11.42h-8.81l-2.09,11.42h-5.89l9.32-49.7h6.57l9.26,49.7ZM121,131.87l-3.51,21.27h6.87Z"/><path class="cls-3" d="M165.74,170.08V131.94l-1.64,9-5.67,29.11h-6L146.78,141l-1.64-9v38.14h-5.52v-49.7h8.81L154,151.27l1.65,9,1.56-9.1,5.52-30.82h8.66v49.7Z"/><path class="cls-3" d="M180.14,170.08v-49.7h19.48v5.67H186.34V141.5H196v5.44h-9.62v17.47h13.28v5.67Z"/><path class="cls-3" d="M219,126.12v44h-6.2v-44h-8.43v-5.74h22.91v5.74Z"/><path class="cls-3" d="M233.42,170.08v-49.7H252.9v5.67H239.62V141.5h9.62v5.44h-9.62v17.47H252.9v5.67Z"/><path class="cls-3" d="M269.77,149.11h-3.44v21h-6.19v-49.7h12.09c6.34,0,9.92,3.21,9.92,10.07V139c0,4.33-1.86,7.91-6,9.25,0-.07,6.71,21.87,6.71,21.87h-6.64Zm1.79-5.37c2.83,0,4.4-1.65,4.4-4.78v-8.81c0-2.53-1-4.18-3.73-4.18h-5.9v17.77Z"/></g></g></svg>