<svg xmlns="http://www.w3.org/2000/svg" viewBox="0 0 959 611.2"><defs><style>.cls-1{fill:#007b78;}.cls-2{fill:#00a2cc;}.cls-3{fill:#80bdbc;}</style></defs><g id="Layer_2" data-name="Layer 2"><g id="Layer_1-2" data-name="Layer 1"><g id="Layer_2-2" data-name="Layer 2"><g id="Layer_1-2-2" data-name="Layer 1-2"><g id="Layer_2-2-2" data-name="Layer 2-2"><g id="Layer_1-2-2-2" data-name="Layer 1-2-2"><path class="cls-1" d="M15.2,590.2H7.6v20.4H.4V559.7H15.2c8.3,0,11.9,4.4,11.9,11.8v7C27.1,585.7,23.4,590.2,15.2,590.2Zm4.6-19c0-3.4-1.2-5.3-4.6-5.3H7.6V584h7.7c3.4,0,4.6-2,4.6-5.3v-7.5Z"/><path class="cls-1" d="M53.1,610.7l-2.7-12.5h-11l-2.7,12.5h-7l11.6-51H49l11.5,51Zm-8.2-39.6L40.7,592h8.4Z"/><path class="cls-1" d="M94.9,611.2c-5.7,0-7.7-1.6-7.7-6.9v-10c0-3.5-1.6-5.9-5.3-5.9H74.7v22.2H67.4V559.7H82.2c8.3,0,11.9,4.1,11.9,11.4v5.6c0,5-1.7,8-6.6,9,4.8.8,6.8,4.8,6.8,8.9v9.2c0,1.4.6,2,2.1,2v5.4Zm-8-40.2c0-2.9-1.2-5-4.7-5H74.7v17h6.7c3.5,0,5.4-2,5.4-5.8Z"/><path class="cls-1" d="M103.7,610.7V559.8h7.2v44.4H127v6.6Z"/><path class="cls-1" d="M154.5,610.7l-2.7-12.5h-11l-2.7,12.5h-7l11.6-51h7.6l11.6,51Zm-8.1-39.6L142.2,592h8.4Z"/><path class="cls-1" d="M200.4,610.7V571l-2.1,9.7-7,30h-7.1l-6.8-30-2.1-9.7v39.7h-6.4v-51H179l7,31.8,2.1,9.7,2.1-9.8,6.8-31.8h10.1v51Z"/><path class="cls-1" d="M217.4,610.7V559.8h23.7v6.6H224.6v14.5h11.9v6.3H224.6v17h16.5v6.6Z"/><path class="cls-1" d="M264.3,566.4v44.3H257V566.4H246.5v-6.7h28.2v6.7Z"/><path class="cls-1" d="M282.1,610.7V559.8h23.7v6.6H289.3v14.5h11.9v6.3H289.3v17h16.5v6.6Z"/><path class="cls-1" d="M341.8,611.2c-5.7,0-7.7-1.6-7.7-6.9v-10c0-3.5-1.6-5.9-5.3-5.9h-7.2v22.2h-7.2V559.7h14.8c8.3,0,11.9,4.1,11.9,11.4v5.6c0,5-1.7,8-6.6,9,4.8.8,6.8,4.8,6.8,8.9v9.2c0,1.4.6,2,2.1,2v5.4Zm-8-40.2c0-2.9-1.2-5-4.7-5h-7.5v17h6.7c3.5,0,5.4-2,5.4-5.8Z"/><path class="cls-2" d="M105.4,112.4h0a176.34,176.34,0,0,1,142,0h0c1.8.8,3.6,1.6,5.4,2.5l-2.4,38.9h394V0H.9V153.8H102.5L100,114.9C101.8,114.1,103.6,113.2,105.4,112.4Z"/><path class="cls-3" d="M218.2,267.5a99.41,99.41,0,0,1-41.8,25,99.49,99.49,0,0,1-70.7-89.1l-1.1-17.1H.9V340.1H410.4V186.3H248.2l-1.1,17.1A99.37,99.37,0,0,1,218.2,267.5Z"/></g></g></g></g><g id="h0uty0.tif"><path class="cls-1" d="M553.5,350.1s4.7-8,7.6-11.3c5.8-7.6,23-4.3,23-4.3V340c-17.3,0-23.5,21.8-23.5,21.8l-7.2.1Z"/><path class="cls-1" d="M553.5,350.1s-4.9-8-7.9-11.3c-5.8-7.6-23-4.3-23-4.3V340c17.3,0,23.5,21.8,23.5,21.8l7.2.1Z"/></g><path class="cls-1" d="M70.8,525.8l-8.1-37.7H29.4l-8.1,37.7H0L34.9,371.7H58L92.9,525.8ZM46.1,406.2,33.4,469.4H58.8Z"/><path class="cls-1" d="M141.6,529.3c-26.4,0-40-15-40-40.2V464.6h20.6v23.8c0,14.3,6.5,21.3,18.7,21.3s17.8-6.9,17.8-21.3V371.8h22V486.5C180.7,511.5,169.3,529.3,141.6,529.3Z"/><path class="cls-1" d="M248.7,525.8H205.2v-154h43.5c28.7,0,41.2,17.8,41.2,41.6v70.8C289.9,508,277.4,525.8,248.7,525.8Zm19.4-111.2c0-14.6-6.5-22.7-20.8-22.7H227.2V505.7h20.1c14.3,0,20.8-8.1,20.8-22.4Z"/><path class="cls-1" d="M353.7,529.3c-28.9,0-43-19-43-44.2V412.5c0-25,14.1-44,43-44,29.1,0,43,19,43,44v72.6C396.7,510.3,382.9,529.3,353.7,529.3ZM375,410.6c0-13.2-6.9-22.7-21.3-22.7s-21.1,9.5-21.1,22.7V487c0,13.2,6.7,22.7,21.1,22.7S375,500.2,375,487Z"/><path class="cls-1" d="M466.1,525.8H445L408.7,371.7h22.9l24.8,119.2,24.8-119.1h22.2Z"/><path class="cls-1" d="M553.6,529.3c-25.4,0-42.3-16.7-42.3-39.1V479.6H533v7.2c0,15.7,7.2,23.8,20.8,23.8,13.4,0,20.4-8.1,20.4-19.9,0-13.6-6-22.2-25.4-34.5-17.3-11.1-35.6-26.1-35.6-48.3,0-22,14.6-39.3,40.7-39.3,25,0,40.9,16.4,40.9,39.1v9.9H574v-7.2c0-13-6.2-23.1-20.8-23.1-12,0-18.3,7.2-18.3,17.6,0,13.6,6.2,20.8,28.5,35.2,22.4,14.6,32.6,27.5,32.6,47.4C595.9,512.9,577.9,529.3,553.6,529.3Z"/><path class="cls-1" d="M656.5,529.3c-29.1,0-43-20.1-43-42.8V411.1c0-22.7,13.9-42.6,43-42.6s41.9,18,41.9,40.5v16.7H678.7V409.5c0-13-7.2-21.5-21.5-21.5-14.6,0-21.7,8.8-21.7,20.6v80.5c0,11.8,7.2,20.6,21.7,20.6,14.3,0,21.5-8.3,21.5-21.5V472h19.7v16.7C698.4,511,685.7,529.3,656.5,529.3Z"/><path class="cls-1" d="M718.3,525.8v-154h22V525.9h-22Z"/><path class="cls-1" d="M836.7,525.8l-38.2-74.9-13-27.1v102H764.7v-154h17.8L819,448.1l12.3,27.1V371.8h20.8V525.9H836.7Z"/><path class="cls-1" d="M936.9,525.8l-8.1-37.7H895.5l-8.1,37.7H866.1L901,371.7h23.1L959,525.8ZM912.1,406.2l-12.7,63.2h25.4Z"/><g id="h0uty0.tif-2" data-name="h0uty0.tif"><path class="cls-1" d="M655.5,350.1s4.7-8,7.6-11.3c5.8-7.6,23-4.3,23-4.3V340c-17.3,0-23.5,21.8-23.5,21.8l-7.2.1Z"/><path class="cls-1" d="M655.5,350.1s-4.9-8-7.9-11.3c-5.8-7.6-23-4.3-23-4.3V340c17.3,0,23.5,21.8,23.5,21.8l7.2.1Z"/></g></g></g></svg>