<svg xmlns="http://www.w3.org/2000/svg" viewBox="0 0 720.97 611.21">
  <path fill="#007b78" d="M15.09 590.23H7.51v20.43H.32v-50.95h14.77c8.26 0 11.93 4.43 11.93 11.78v7c0 7.23-3.7 11.74-11.93 11.74Zm4.66-19c0-3.37-1.22-5.28-4.59-5.28H7.51v18h7.65c3.37 0 4.59-2 4.59-5.28v-7.44Zm33.29 39.43-2.72-12.47h-11l-2.68 12.47h-7l11.56-50.95h7.65l11.55 50.95h-7.36Zm-8.19-39.55L40.64 592h8.42l-4.21-20.89ZM94.8 611.2c-5.73 0-7.72-1.61-7.72-6.89v-9.95c0-3.52-1.61-5.89-5.28-5.89h-7.19v22.19h-7.29v-50.95H82.1c8.27 0 11.94 4.13 11.94 11.4v5.58c0 5-1.68 8-6.58 8.95 4.82.77 6.81 4.82 6.81 8.88v9.25c0 1.38.61 2 2.14 2v5.44H94.8Zm-8-40.26c0-2.9-1.22-5-4.67-5h-7.52v17h6.71c3.52 0 5.43-2 5.43-5.81l.05-6.19Zm16.8 39.72v-50.95h7.19v44.37h16.14v6.58H103.6Zm50.87 0-2.68-12.47h-11l-2.68 12.47h-7l11.56-50.95h7.65l11.55 50.95h-7.4Zm-8.15-39.55L142.07 592h8.42l-4.17-20.89Zm54 39.55V571l-2.07 9.72-7 30h-7.11l-6.81-30-2.13-9.72v39.71h-6.43v-51h10.1l7 31.82 2.07 9.72 2.06-9.79 6.81-31.75h10.1v50.95h-6.59Zm17 0v-50.95h23.72v6.58h-16.5v14.53h11.93v6.28h-11.93v17h16.52v6.58l-23.74-.02Zm46.92-44.3v44.3h-7.27v-44.3h-10.48v-6.65h28.16v6.65h-10.41Zm17.75 44.3v-50.95h23.71v6.58h-16.52v14.53h11.93v6.28h-11.93v17h16.52v6.58l-23.71-.02Zm59.75.54c-5.74 0-7.73-1.61-7.73-6.89v-9.95c0-3.52-1.61-5.89-5.28-5.89h-7.19v22.19h-7.22v-50.95h14.76c8.27 0 11.94 4.13 11.94 11.4v5.58c0 5-1.68 8-6.58 8.95 4.82.77 6.81 4.82 6.81 8.88v9.25c0 1.38.61 2 2.14 2v5.44h-1.65Zm-8-40.26c0-2.9-1.22-5-4.67-5h-7.49v17h6.74c3.52 0 5.43-2 5.43-5.81v-6.19Z"/>
  <path fill="#00a2cc" d="M105.32 112.45a176.02 176.02 0 0 1 142 0c1.8.8 3.58 1.62 5.35 2.47l-2.45 38.91h394.1V0H.8v153.83h101.61l-2.46-38.91c1.78-.85 3.56-1.67 5.37-2.47Z"/>
  <path fill="#80bdbc" d="M218.08 267.52a99.7 99.7 0 0 1-41.79 25 99.58 99.58 0 0 1-70.74-89.1l-1.08-17.07H.8v153.8h409.52V186.32h-162.2l-1.08 17.07a99.57 99.57 0 0 1-28.96 64.13Z"/>
  <path fill="#007b78" d="M95.42 526.02v-120.2l-6.25 29.41-21.08 90.79H46.55l-20.61-90.79-6.48-29.41v120.2H0V371.78h30.57l21.08 96.34 6.25 29.41 6.25-29.64 20.61-96.11h30.57v154.24H95.41Zm44.93 0V371.78h71.8v19.92h-50.03v44h36.13v18.99h-36.13v51.42h50.03v19.92h-71.8Zm134.56 0h-43.54V371.78h43.54c28.72 0 41.22 17.83 41.22 41.69v70.87c0 23.85-12.51 41.69-41.22 41.69Zm19.45-111.4c0-14.59-6.48-22.7-20.84-22.7h-20.15v113.95h20.15c14.36 0 20.84-8.11 20.84-22.46v-68.78Zm89.87 111.4h-21.08l-36.36-154.24h22.93l24.78 119.27 24.78-119.27h22.23l-37.29 154.24Zm91.25 3.47c-28.95 0-43.08-18.99-43.08-44.24v-72.72c0-25.01 14.13-44 43.08-44s43.08 18.99 43.08 44v72.72c0 25.25-13.9 44.24-43.08 44.24Zm21.31-118.81c0-13.2-6.95-22.7-21.31-22.7s-21.08 9.5-21.08 22.7v76.43c0 13.2 6.72 22.7 21.08 22.7s21.31-9.5 21.31-22.7v-76.43Zm88.23 115.34h-43.54V371.78h43.54c28.72 0 41.22 17.83 41.22 41.69v70.87c0 23.85-12.51 41.69-41.22 41.69Zm19.45-111.4c0-14.59-6.48-22.7-20.84-22.7h-20.15v113.95h20.15c14.36 0 20.84-8.11 20.84-22.46v-68.78Zm44.71 111.4V371.78h71.8v19.92h-50.03v44h36.13v18.99h-36.13v51.42h50.03v19.92h-71.8Z"/>
</svg>
