<svg height='100px' width='100px'  fill="#ffffff" xmlns="http://www.w3.org/2000/svg" xmlns:xlink="http://www.w3.org/1999/xlink" version="1.1" x="0px" y="0px" viewBox="0 0 100 100" style="enable-background:new 0 0 100 100;" xml:space="preserve"><style type="text/css">
	.st0{fill:#ffffff;}
</style><path class="st0" d="M87,28.2V9.6C87,8.7,86.3,8,85.4,8h-8.3c-1,0-1.8,1-1.5,2l0.2,0.6c0.5,1.8,0.1,3.8-1.5,5.2  c-0.6,0.5-1.3,0.9-2.1,1.1C68.9,17.6,66,15.1,66,12c0-0.5,0.1-1,0.2-1.4l0.1-0.5C66.7,9,65.9,8,64.8,8h-8.6c-1.1,0-1.9,1-1.6,2.1  l0.1,0.5c0.5,1.8,0.1,3.8-1.5,5.2c-0.6,0.5-1.3,0.9-2.1,1.1C47.9,17.6,45,15.1,45,12c0-0.5,0.1-1,0.2-1.4l0.1-0.5  C45.7,9,44.9,8,43.8,8H33.2c-3.9-5-10.3-7.9-17.3-6.7C8.3,2.5,2.3,8.7,1.2,16.4c-1.2,8.5,3.6,16,10.7,19.1c0.7,0.3,1.1,1,1.1,1.7  v53.2c0,0.9,0.7,1.6,1.6,1.6h65.8c0.6,0,1.2,0.4,1.4,0.9l1.7,3.7c0.6,1.2,2.3,1.2,2.9,0l6-13.1c0.1-0.2,0.1-0.4,0.1-0.7V33.8  c0-1.5-1.2-2.8-2.8-2.8l0,0C88.2,31,87,29.8,87,28.2z M87,80.8H83c-0.9,0-1.6-0.7-1.6-1.6V37.8c0-1.5,1.2-2.8,2.8-2.8h1.5  c1.5,0,2.8,1.2,2.8,2.8v41.4C88.5,80,87.8,80.8,87,80.8z M5,19c0-7.7,6.3-14,14-14s14,6.3,14,14s-6.3,14-14,14S5,26.7,5,19z   M17,86.4V38.9c0-1.1,0.9-1.9,2-1.9c0,0,0,0,0,0c9.9,0,18-8.1,18-18c0-2.5-0.5-4.8-1.4-7H41c0,5,4,9,9,9c4.5,0,8.2-3.3,8.9-7.6  c0.1-0.8,0.8-1.4,1.6-1.4l0,0c0.8,0,1.5,0.6,1.6,1.4c0.7,4.3,4.4,7.6,8.9,7.6c4.5,0,8.2-3.3,8.9-7.6c0.1-0.8,0.8-1.4,1.5-1.4l0,0  c0.9,0,1.6,0.7,1.6,1.6v14.7c0,1.5-1.2,2.8-2.8,2.8l0,0c-1.5,0-2.8,1.2-2.8,2.8v49.1c0,0.2,0,0.5,0.1,0.7l1,2.2  c0.5,1-0.3,2.2-1.4,2.2H18.6C17.7,88,17,87.3,17,86.4z M85,84.8L85,84.8c1.2,0,1.9,1.2,1.4,2.2l0,0c-0.6,1.2-2.3,1.2-2.9,0l0,0  C83.1,85.9,83.8,84.8,85,84.8z"></path><path class="st0" d="M32,41.8h36c1.1,0,2-0.9,2-2v0c0-1.1-0.9-2-2-2H32c-1.1,0-2,0.9-2,2v0C30,40.9,30.9,41.8,32,41.8z"></path><path class="st0" d="M42,31.8h26c1.1,0,2-0.9,2-2v0c0-1.1-0.9-2-2-2H42c-1.1,0-2,0.9-2,2v0C40,30.9,40.9,31.8,42,31.8z"></path><path class="st0" d="M31.6,51.8h36.8c0.9,0,1.6-0.7,1.6-1.6v-0.8c0-0.9-0.7-1.6-1.6-1.6H31.6c-0.9,0-1.6,0.7-1.6,1.6v0.8  C30,51,30.7,51.8,31.6,51.8z"></path><path class="st0" d="M31.6,61.8h36.8c0.9,0,1.6-0.7,1.6-1.6v-0.8c0-0.9-0.7-1.6-1.6-1.6H31.6c-0.9,0-1.6,0.7-1.6,1.6v0.8  C30,61,30.7,61.8,31.6,61.8z"></path><path class="st0" d="M31.6,71.8h36.8c0.9,0,1.6-0.7,1.6-1.6v-0.8c0-0.9-0.7-1.6-1.6-1.6H31.6c-0.9,0-1.6,0.7-1.6,1.6v0.8  C30,71,30.7,71.8,31.6,71.8z"></path><path class="st0" d="M31.6,81.8h36.8c0.9,0,1.6-0.7,1.6-1.6v-0.8c0-0.9-0.7-1.6-1.6-1.6H31.6c-0.9,0-1.6,0.7-1.6,1.6v0.8  C30,81,30.7,81.8,31.6,81.8z"></path><path class="st0" d="M27.2,18.8h-6c-1.1,0-2-0.9-2-2v-6c0-1.1-0.9-2-2-2h0c-1.1,0-2,0.9-2,2v10c0,1.1,0.9,2,2,2h10c1.1,0,2-0.9,2-2  v0C29.2,19.7,28.3,18.8,27.2,18.8z"></path></svg>