<?xml version="1.0" encoding="utf-8"?>
<!-- Generator: Adobe Illustrator 22.1.0, SVG Export Plug-In . SVG Version: 6.00 Build 0)  -->
<svg version="1.1" id="Layer_1" xmlns="http://www.w3.org/2000/svg" xmlns:xlink="http://www.w3.org/1999/xlink" x="0px" y="0px"
	 viewBox="0 0 98 98.1" style="enable-background:new 0 0 98 98.1;" xml:space="preserve">
<style type="text/css">
	.st0{fill:#FFFFFF;}
</style>
<title>zakonodaja-modra</title>
<g id="Layer_2_1_">
	<g id="Layer_1-2">
		<path class="st0" d="M94.2,20h-6.7v-8.4c0-1.4-1.1-2.5-2.5-2.5h-8.2V2.5c0-1.4-1.1-2.5-2.5-2.5h-5.4c-9.8,0-18.5,6.3-21.5,15.6
			c-5.2-4.2-11.8-6.5-18.5-6.5H13c-1.4,0-2.5,1.1-2.5,2.5V20H3.8C1.7,20,0,21.7,0,23.8c0,0,0,0,0,0l0,0v61.3c0,2.1,1.7,3.8,3.8,3.8
			h24.8c4.2,0,8.3,1.8,11.1,5l0.3,0.4c0.5,0.5,0.9,0.9,1.5,1.3c0.2,0.2,0.4,0.3,0.6,0.4c0.5,0.3,0.9,0.6,1.4,0.8l0.3,0.1
			c0.3,0.1,0.5,0.2,0.8,0.3c0.3,0.1,0.7,0.2,1.1,0.3c0.3,0.1,0.6,0.2,0.9,0.2c0.5,0.1,1.1,0.2,1.6,0.2l0.8,0c0.8,0,1.6-0.1,2.5-0.3
			c0.3,0,0.5-0.1,0.7-0.2c0.4-0.1,0.8-0.2,1.2-0.4h0.1l0.6-0.3l0.2-0.1l0,0c0.5-0.3,1-0.6,1.5-0.9l0.5-0.4c0.6-0.4,1.1-0.9,1.6-1.4
			l0.1-0.1l0.2-0.2c2.8-3.1,6.8-4.9,11-4.9h24.9c2.1,0,3.8-1.7,3.8-3.8V23.8C98,21.7,96.3,20,94.2,20z M82.5,14v58.9H69.1
			c-6,0-11.8,1.8-16.8,5.2c2.6-6.9,9.2-11.4,16.5-11.3h5.4c1.4,0,2.5-1.1,2.5-2.5V14.1L82.5,14z M68.9,5h2.9v56.8h-2.9
			c-6.7,0-13,2.9-17.4,8V19.7c0.1-0.7,0.2-1.3,0.4-2C54.1,10.1,61,4.9,68.9,5z M15.4,14.1h13.4c6.7,0,13,2.7,17.6,7.5v57.2
			C41.4,75,35.2,73,28.9,73H15.4V14.1z M93,83.9H69.4c-5.7,0-11.1,2.4-14.8,6.6l-0.1,0.1l1.8,1.7l-1.9-1.6c-0.3,0.3-0.6,0.6-1,0.8
			l-0.3,0.2c-0.3,0.2-0.6,0.4-0.9,0.5h-0.1L52,92.4l-0.4,0.2c-0.2,0.1-0.5,0.2-0.8,0.2l-0.4,0.1C50,92.9,49.5,93,49,93h-0.4
			c-0.3,0-0.7-0.1-1-0.1c-0.2,0-0.4-0.1-0.6-0.1c-0.2-0.1-0.4-0.1-0.6-0.2l-0.4-0.2l-0.2-0.1c-0.3-0.1-0.6-0.3-0.9-0.5l-0.3-0.3
			c-0.3-0.2-0.6-0.5-0.9-0.8l-0.2-0.2c-3.8-4.2-9.2-6.6-14.8-6.6H5V25h5.4v50.4c0,1.4,1.1,2.5,2.5,2.5h15.9c7,0,13.6,3,18.3,8.2
			c0.9,1,2.5,1.1,3.5,0.2c0,0,0,0,0,0l0.2-0.2c4.6-5.2,11.3-8.2,18.3-8.2H85c1.4,0,2.5-1.1,2.5-2.5V25H93V83.9z"/>
		<path class="st0" d="M23.1,29.3h4.1c3.6,0,7.2,0.8,10.5,2.5c1.2,0.7,2.7,0.2,3.4-1c0.7-1.2,0.2-2.7-1-3.4c0,0-0.1,0-0.1-0.1
			c-4-2-8.3-3-12.7-3h-4.2c-1.4,0-2.5,1.1-2.5,2.5S21.7,29.2,23.1,29.3L23.1,29.3z"/>
		<path class="st0" d="M23.1,40.3h4.1c3.6,0,7.2,0.8,10.5,2.5c1.3,0.6,2.7,0,3.3-1.2c0.6-1.2,0.1-2.6-1.1-3.3c-4-2-8.3-3-12.7-3
			h-4.2c-1.4,0-2.5,1.1-2.5,2.5S21.7,40.2,23.1,40.3L23.1,40.3z"/>
		<path class="st0" d="M23.1,51.3h4.1c3.6,0,7.2,0.8,10.5,2.5c1.2,0.7,2.7,0.2,3.4-1c0.7-1.2,0.2-2.7-1-3.4c0,0-0.1,0-0.1-0.1
			c-4-2-8.3-3-12.7-3h-4.2c-1.4,0-2.5,1.1-2.5,2.5S21.7,51.2,23.1,51.3L23.1,51.3z"/>
		<path class="st0" d="M37.7,64.7c1.2,0.7,2.7,0.2,3.4-1s0.2-2.7-1-3.4c0,0-0.1,0-0.1-0.1l0,0c-4-2-8.3-3-12.7-3h-4.2
			c-1.4,0-2.5,1.1-2.5,2.5s1.1,2.5,2.5,2.5h4.1C30.9,62.2,34.5,63,37.7,64.7L37.7,64.7z"/>
	</g>
</g>
</svg>
