<svg fill="#FFF" xmlns="http://www.w3.org/2000/svg" viewBox="0 0 100 100"><path d="M83.555 48.742C82.869 47.895 66.576 28 50 28S17.13 47.895 16.445 48.742a2 2 0 0 0 0 2.516C17.131 52.105 33.424 72 50 72s32.87-19.895 33.555-20.742a2 2 0 0 0 0-2.516zM50 68c-12.44 0-25.57-13.72-29.363-18C24.43 45.72 37.56 32 50 32s25.57 13.72 29.363 18C75.57 54.28 62.44 68 50 68z"/><path d="M50 39c-6.396 0-11.6 4.935-11.6 11S43.604 61 50 61s11.6-4.935 11.6-11S56.396 39 50 39zm0 18c-4.19 0-7.6-3.14-7.6-7s3.41-7 7.6-7 7.6 3.14 7.6 7-3.41 7-7.6 7z"/><ellipse cx="50" cy="50" rx="2.133" ry="2"/><path d="M50 26a2 2 0 0 0 2-2v-9a2 2 0 0 0-4 0v9a2 2 0 0 0 2 2zM27.976 32.453c.39.39.902.586 1.414.586s1.023-.195 1.414-.586a2 2 0 0 0 0-2.828l-6.477-6.477a2 2 0 1 0-2.828 2.829l6.477 6.476zM70.61 33.04c.512 0 1.024-.196 1.414-.587l6.477-6.476a2 2 0 1 0-2.828-2.829l-6.477 6.477a2 2 0 0 0 1.414 3.414zM27.976 67.547l-6.477 6.476a2 2 0 1 0 2.828 2.829l6.477-6.477a2 2 0 1 0-2.828-2.828zM72.024 67.547a2 2 0 1 0-2.828 2.828l6.477 6.477c.39.39.902.586 1.414.586s1.023-.196 1.414-.586a2 2 0 0 0 0-2.829l-6.477-6.476zM50 74a2 2 0 0 0-2 2v9a2 2 0 0 0 4 0v-9a2 2 0 0 0-2-2z"/></svg>
