<svg fill="#FFFFFF" xmlns="http://www.w3.org/2000/svg" xmlns:xlink="http://www.w3.org/1999/xlink" version="1.1" x="0px" y="0px" viewBox="0 0 100 100" style="enable-background:new 0 0 100 100;" xml:space="preserve"><g><path d="M83.55469,48.7417C82.86914,47.89502,66.57617,28,50,28S17.13086,47.89502,16.44531,48.7417   c-0.59375,0.73389-0.59375,1.78271,0,2.5166C17.13086,52.10498,33.42383,72,50,72s32.86914-19.89502,33.55469-20.7417   C84.14844,50.52441,84.14844,49.47559,83.55469,48.7417z M50,68c-12.43945,0-25.57031-13.71924-29.36328-18   C24.42969,45.71924,37.56055,32,50,32s25.57031,13.71924,29.36328,18C75.57031,54.28076,62.43945,68,50,68z"></path><path d="M50,39c-6.39648,0-11.59961,4.93457-11.59961,11S43.60352,61,50,61s11.59961-4.93457,11.59961-11S56.39648,39,50,39z    M50,57c-4.19043,0-7.59961-3.14014-7.59961-7S45.80957,43,50,43s7.59961,3.14014,7.59961,7S54.19043,57,50,57z"></path><ellipse cx="50" cy="50" rx="2.1333" ry="2"></ellipse><path d="M50,26c1.10449,0,2-0.89551,2-2v-9c0-1.10449-0.89551-2-2-2s-2,0.89551-2,2v9C48,25.10449,48.89551,26,50,26z"></path><path d="M27.97559,32.45313c0.39063,0.39063,0.90234,0.58594,1.41406,0.58594s1.02344-0.19531,1.41406-0.58594   c0.78125-0.78076,0.78125-2.04736,0-2.82813l-6.47656-6.47656c-0.78125-0.78125-2.04688-0.78125-2.82813,0   c-0.78125,0.78076-0.78125,2.04736,0,2.82813L27.97559,32.45313z"></path><path d="M70.61035,33.03906c0.51172,0,1.02344-0.19531,1.41406-0.58594l6.47656-6.47656c0.78125-0.78076,0.78125-2.04736,0-2.82813   c-0.78125-0.78125-2.04688-0.78125-2.82813,0L69.19629,29.625c-0.78125,0.78076-0.78125,2.04736,0,2.82813   C69.58691,32.84375,70.09863,33.03906,70.61035,33.03906z"></path><path d="M27.97559,67.54688l-6.47656,6.47656c-0.78125,0.78076-0.78125,2.04736,0,2.82813   c0.39063,0.39063,0.90234,0.58594,1.41406,0.58594s1.02344-0.19531,1.41406-0.58594l6.47656-6.47656   c0.78125-0.78076,0.78125-2.04736,0-2.82813C30.02246,66.76563,28.75684,66.76563,27.97559,67.54688z"></path><path d="M72.02441,67.54688c-0.78125-0.78125-2.04688-0.78125-2.82813,0c-0.78125,0.78076-0.78125,2.04736,0,2.82813   l6.47656,6.47656c0.39063,0.39063,0.90234,0.58594,1.41406,0.58594s1.02344-0.19531,1.41406-0.58594   c0.78125-0.78076,0.78125-2.04736,0-2.82813L72.02441,67.54688z"></path><path d="M50,74c-1.10449,0-2,0.89551-2,2v9c0,1.10449,0.89551,2,2,2s2-0.89551,2-2v-9C52,74.89551,51.10449,74,50,74z"></path></g></svg>