<svg fill="#FFFFFF" xmlns="http://www.w3.org/2000/svg" data-name="Layer 1" viewBox="0 0 100 100" x="0px" y="0px"><title>Artboard 8</title><path d="M94,70.23a2.5,2.5,0,0,0,.46-5L87.81,64a2.5,2.5,0,1,0-.92,4.92l6.66,1.24A2.53,2.53,0,0,0,94,70.23Z"></path><path d="M82.74,80.56A2.5,2.5,0,0,0,87,78l-3.17-5.23a2.5,2.5,0,0,0-4.28,2.59Z"></path><path d="M85.23,60a2.49,2.49,0,0,0,1.52-.52l4.85-3.74a2.5,2.5,0,1,0-3.05-4l-4.85,3.74A2.5,2.5,0,0,0,85.23,60Z"></path><path d="M81.79,41.21a7.33,7.33,0,0,0-3-2.56A12.65,12.65,0,0,1,71.9,28,35.17,35.17,0,0,0,71.51,24C69.77,13.25,63,.5,40.81.5H40.4C20.56.5,5.11,13.67,3.61,31.89A34.24,34.24,0,0,0,8.44,52.56a34.3,34.3,0,0,1,1.95,32.73,2.5,2.5,0,0,0,.52,2.89A45.64,45.64,0,0,0,40.58,99.51a44.28,44.28,0,0,0,9.68-1.08,2.5,2.5,0,0,0,2-2.44V85.72q1.08.16,2.2.26a47.07,47.07,0,0,0,12.7-.56A8.81,8.81,0,0,0,73.84,74a9.15,9.15,0,0,1,.25-2.42l.31-1.24A4.24,4.24,0,0,0,73.85,67a4.16,4.16,0,0,0-2.75-1.83c-3.05-.54-5.11-1.84-6-3.76A32.51,32.51,0,0,0,74.88,60a2.5,2.5,0,0,0,1.69-2.49l-.29-5.88a12.65,12.65,0,0,0,4.85-3.27A6,6,0,0,0,81.79,41.21ZM77.4,45.06A8.84,8.84,0,0,1,73,47.48,2.5,2.5,0,0,0,71.21,50l.28,5.75a27.82,27.82,0,0,1-7,.63,4.46,4.46,0,0,0-3.7,1.73,4.53,4.53,0,0,0-.73,4.11c.71,2.29,2.86,6.25,9.29,7.69l-.11.43A12.39,12.39,0,0,0,69,75.14a2.41,2.41,0,0,0,.09.31,3.82,3.82,0,0,1-.28,3.2A3.73,3.73,0,0,1,66.2,80.5,42,42,0,0,1,54.84,81,27.4,27.4,0,0,1,44.07,77.9a14.45,14.45,0,0,1-5.33-4.49,2.5,2.5,0,0,0-4.19,2.73,19.3,19.3,0,0,0,7.13,6.15,29.78,29.78,0,0,0,5.53,2.31v9.34c-15.79,2.7-27.68-5.24-31.52-8.26a39.39,39.39,0,0,0-3-35.71A29.26,29.26,0,0,1,8.59,32.3C9.87,16.75,23.23,5.5,40.42,5.5h.38C56,5.5,64.47,11.81,66.57,24.77a30,30,0,0,1,.33,3.5,17.6,17.6,0,0,0,9.5,14.78,4,4,0,0,1,1.1.74A1.08,1.08,0,0,1,77.4,45.06Z"></path></svg>