<svg id="Layer_1" data-name="Layer 1" xmlns="http://www.w3.org/2000/svg" viewBox="0 0 69.24 73.51"><defs><style>.cls-1{fill:#fff;}</style></defs><title>speeches</title><path class="cls-1" d="M83.69,64.77A1.86,1.86,0,0,0,84,61.06l-4.94-.91a1.86,1.86,0,1,0-.68,3.65l4.94.92A2,2,0,0,0,83.69,64.77Zm-8.36,7.67a1.85,1.85,0,0,0,3.16-1.9l-2.35-3.88A1.86,1.86,0,1,0,73,68.58Zm1.85-15.26a1.89,1.89,0,0,0,1.13-.39L81.91,54a1.87,1.87,0,0,0-2.27-3h0L76,53.82a1.85,1.85,0,0,0-.41,2.59A1.89,1.89,0,0,0,77.18,57.18Zm-2.56-14a5.4,5.4,0,0,0-2.22-1.91,9.36,9.36,0,0,1-5.12-7.9,26.66,26.66,0,0,0-.29-3C65.7,22.47,60.67,13,44.2,13h-.31c-14.73,0-26.2,9.78-27.31,23.31a25.41,25.41,0,0,0,3.58,15.34A25.45,25.45,0,0,1,21.61,76,1.86,1.86,0,0,0,22,78.1a33.9,33.9,0,0,0,22,8.41,32.78,32.78,0,0,0,7.18-.8A1.87,1.87,0,0,0,52.7,83.9V76.27c.53.08,1.08.15,1.63.19a35.06,35.06,0,0,0,9.43-.41,6.54,6.54,0,0,0,5.17-7.67,5.67,5.67,0,0,0-.21-.81,6.45,6.45,0,0,1,.19-1.8l.23-.92A3.12,3.12,0,0,0,66.69,61c-2.27-.4-3.8-1.36-4.46-2.79a24.11,24.11,0,0,0,7.26-1,1.86,1.86,0,0,0,1.26-1.85L70.53,51a9.34,9.34,0,0,0,3.6-2.43A4.44,4.44,0,0,0,74.62,43.23Zm-3.26,2.85a6.47,6.47,0,0,1-3.26,1.8,1.85,1.85,0,0,0-1.33,1.87L67,54a20.69,20.69,0,0,1-5.2.47,3.32,3.32,0,0,0-3.29,4.33c.53,1.7,2.12,4.64,6.9,5.71l-.09.32a9.14,9.14,0,0,0-.17,3.57c0,.07,0,.15.06.23a2.83,2.83,0,0,1-2.14,3.75,31.4,31.4,0,0,1-8.44.37,20.38,20.38,0,0,1-8-2.3,10.84,10.84,0,0,1-4-3.34,1.86,1.86,0,0,0-3.11,2,14.49,14.49,0,0,0,5.29,4.57A22.71,22.71,0,0,0,49,75.44v6.93c-11.72,2-20.55-3.89-23.4-6.13a29.26,29.26,0,0,0-2.23-26.51,21.64,21.64,0,0,1-3-13.12c.95-11.55,10.86-19.9,23.63-19.9h.28c11.28,0,17.57,4.69,19.13,14.31a22.65,22.65,0,0,1,.25,2.6,13,13,0,0,0,7.05,11,3,3,0,0,1,.82.55A.8.8,0,0,1,71.36,46.08Z" transform="translate(-16.48 -13)"/></svg>