<svg id="Layer_1" data-name="Layer 1" xmlns="http://www.w3.org/2000/svg" viewBox="0 0 65.6 92.7"><defs><style>.cls-1{fill:#fff;}</style></defs><title>votings</title><path class="cls-1" d="M83,59.85A6.84,6.84,0,0,0,76.18,53a6.64,6.64,0,0,0-3.9,1.27,6.78,6.78,0,0,0-10.24-3A6.7,6.7,0,0,0,55.71,47a6.6,6.6,0,0,0-3.41.87V44.74a14.24,14.24,0,1,0-13.65,0V67.26l-4.78-4.68a6.86,6.86,0,0,0-11.6,3.9,6.7,6.7,0,0,0,1.56,5.36L37.77,88.7a22,22,0,0,0,17,8h8.68A19.63,19.63,0,0,0,82.9,77.2ZM34.65,32.17a10.82,10.82,0,0,1,21.64,0,10.7,10.7,0,0,1-4,8.38V32.17a6.38,6.38,0,0,0-2-4.78,6.82,6.82,0,0,0-11.6,4.88v8.38A11.37,11.37,0,0,1,34.65,32.17ZM74.91,88.51a16.08,16.08,0,0,1-11.4,4.68H54.83A18.68,18.68,0,0,1,40.4,86.46L26.47,69.6a3.12,3.12,0,0,1-.78-2.73,3.57,3.57,0,0,1,1.46-2.44,3.48,3.48,0,0,1,2-.58,3.86,3.86,0,0,1,2.43,1l5.66,5.56a2.87,2.87,0,0,0,4.87-2V32.17a3.45,3.45,0,0,1,3.41-3.41,3.86,3.86,0,0,1,2.44,1,3.26,3.26,0,0,1,1,2.44V57.12a1.64,1.64,0,0,0,1.66,1.66,1.71,1.71,0,0,0,1.66-1.66V53.71a3.41,3.41,0,1,1,6.82,0v6.44a1.66,1.66,0,0,0,3.32,0V56.73a3.41,3.41,0,1,1,6.82,0v6.44a1.64,1.64,0,0,0,1.66,1.65,1.71,1.71,0,0,0,1.65-1.65V59.85a3.42,3.42,0,0,1,6.83,0V77.11A14.71,14.71,0,0,1,74.91,88.51ZM45.57,13.94a1.65,1.65,0,0,0,1.66-1.65V5.66a1.66,1.66,0,1,0-3.32,0v6.53A1.62,1.62,0,0,0,45.57,13.94ZM30.17,19.3a1.64,1.64,0,0,0,2.34,0,1.7,1.7,0,0,0,0-2.43L28,12.29a1.69,1.69,0,0,0-2.43,0,1.7,1.7,0,0,0,0,2.43ZM27.24,32.17a1.64,1.64,0,0,0-1.65-1.66H19.06a1.64,1.64,0,0,0-1.66,1.66,1.71,1.71,0,0,0,1.66,1.66h6.53A1.59,1.59,0,0,0,27.24,32.17Z" transform="translate(-17.4 -4)"/><path class="cls-1" d="M63.9,32.17a1.64,1.64,0,0,0,1.65,1.66h6.53a1.64,1.64,0,0,0,1.66-1.66,1.71,1.71,0,0,0-1.66-1.66H65.55A1.64,1.64,0,0,0,63.9,32.17ZM59.7,19.79a1.76,1.76,0,0,0,1.17-.49l4.58-4.58A1.72,1.72,0,0,0,63,12.29l-4.58,4.58a1.69,1.69,0,0,0,0,2.43A2,2,0,0,0,59.7,19.79Z" transform="translate(-17.4 -4)"/></svg>