<svg fill="#FFF" xmlns="http://www.w3.org/2000/svg" viewBox="0 0 100 100"><switch><g><path d="M83.7 59.8c0-3.8-3.1-7-7-7-1.5 0-2.9.5-4 1.3-1-2.6-3.5-4.4-6.5-4.4-1.5 0-2.9.5-4 1.3-1-2.6-3.5-4.4-6.5-4.4-1.3 0-2.5.3-3.5.9v-3.2c4.5-2.5 7.6-7.3 7.6-12.8 0-8.1-6.5-14.6-14.6-14.6s-14.6 6.6-14.6 14.6c0 5.5 3.1 10.3 7.6 12.8v23.1l-4.9-4.8c-2.4-2.4-6.1-2.7-8.9-.8-1.6 1.1-2.8 2.9-3 4.8-.3 2 .3 4 1.6 5.5l14.3 17.3c4.3 5.2 10.7 8.2 17.4 8.2h8.9c5.3 0 10.4-2.1 14.1-5.9 3.8-3.8 5.9-8.8 5.9-14.1l.1-17.8zM34.1 31.4c0-6.1 5-11.1 11.1-11.1s11.1 5 11.1 11.1c0 3.5-1.6 6.6-4.1 8.6v-8.6c0-1.9-.7-3.6-2.1-4.9-1.3-1.3-3.1-2-4.9-2-3.8 0-7 3.1-7 7v8.6c-2.4-2.1-4.1-5.2-4.1-8.7zm41.3 57.8c-3.1 3.1-7.3 4.8-11.7 4.8h-8.9C49 94 43.7 91.5 40 87.1L25.7 69.8c-.7-.8-1-1.8-.8-2.8.1-1 .7-1.9 1.5-2.5.6-.4 1.3-.6 2-.6.9 0 1.8.4 2.5 1l5.8 5.7c.9.8 2.1 1.1 3.2.6 1.1-.5 1.8-1.5 1.8-2.7V31.4c0-1.9 1.6-3.5 3.5-3.5.9 0 1.8.4 2.5 1 .7.7 1 1.5 1 2.5V57c0 1 .8 1.7 1.7 1.7s1.7-.8 1.7-1.7v-3.5c0-1.9 1.6-3.5 3.5-3.5s3.5 1.6 3.5 3.5v6.6c0 1 .8 1.7 1.7 1.7 1 0 1.7-.8 1.7-1.7v-3.5c0-1.9 1.6-3.5 3.5-3.5s3.5 1.6 3.5 3.5v6.6c0 1 .8 1.7 1.7 1.7s1.7-.8 1.7-1.7V60v-.2c0-1.9 1.6-3.5 3.5-3.5s3.5 1.6 3.5 3.5v17.7c.3 4.4-1.4 8.6-4.5 11.7zM45.3 12.7c1 0 1.7-.8 1.7-1.7V4.2c0-1-.8-1.7-1.7-1.7-1 0-1.7.8-1.7 1.7v6.7c-.1 1 .7 1.8 1.7 1.8zM29.5 18.2c.3.3.8.5 1.2.5.4 0 .9-.2 1.2-.5.7-.7.7-1.8 0-2.5L27.3 11c-.7-.7-1.8-.7-2.5 0s-.7 1.8 0 2.5l4.7 4.7zM26.5 31.4c0-1-.8-1.7-1.7-1.7h-6.7c-1 0-1.7.8-1.7 1.7s.8 1.7 1.7 1.7h6.7c.9.1 1.7-.7 1.7-1.7z"/><path d="M64.1 31.4c0 1 .8 1.7 1.7 1.7h6.7c1 0 1.7-.8 1.7-1.7s-.8-1.7-1.7-1.7h-6.7c-1 0-1.7.8-1.7 1.7zM59.8 18.7c.4 0 .9-.2 1.2-.5l4.7-4.7c.7-.7.7-1.8 0-2.5s-1.8-.7-2.5 0l-4.7 4.7c-.7.7-.7 1.8 0 2.5.4.3.8.5 1.3.5z"/></g></switch></svg>
