<svg xmlns="http://www.w3.org/2000/svg" viewBox="0 0 166.09 118.64"><defs><style>.cls-1{fill:#ea5658;}.cls-2{fill:#e52421;}.cls-3{fill:#535252;}</style></defs><title>parlametar_logo</title><g id="Layer_2" data-name="Layer 2"><g id="Layer_1-2" data-name="Layer 1"><rect class="cls-1" y="35.42" width="77.84" height="29.24"/><rect class="cls-2" width="122.33" height="29.24"/><path class="cls-3" d="M7.12,88H3.65v12.08H0V70.84H7.12c3.73,0,5.88,2,5.88,6V82C13,86,10.85,88,7.12,88ZM9.31,76.68c0-1.67-.61-2.55-2.15-2.55H3.65V84.85H7.16c1.54,0,2.15-1,2.15-2.59Z"/><path class="cls-3" d="M25.52,100.09l-1.19-6.72H19.15l-1.23,6.72H14.45l5.49-29.25H23.8l5.45,29.25ZM21.78,77.6,19.72,90.12h4Z"/><path class="cls-3" d="M38.43,87.75h-2v12.34H32.76V70.84h7.12c3.73,0,5.84,1.89,5.84,5.93v5c0,2.55-1.1,4.66-3.56,5.45,0,0,4,12.87,4,12.87H42.2Zm1-3.17c1.67,0,2.59-1,2.59-2.81V76.59c0-1.49-.61-2.46-2.19-2.46H36.41V84.58Z"/><path class="cls-3" d="M50.11,100.09V70.84h3.64V96.7h7.6v3.39Z"/><path class="cls-3" d="M74.74,100.09l-1.18-6.72H68.38l-1.23,6.72H63.68l5.49-29.25H73l5.45,29.25ZM71,77.6,69,90.12h4Z"/><path class="cls-3" d="M97.32,100.09V77.65l-1,5.31L93,100.09H89.5L86.16,83l-1-5.31v22.44H82V70.84h5.18L90.42,89l1,5.31L92.31,89l3.25-18.14h5.09v29.25Z"/><path class="cls-3" d="M105.79,100.09V70.84h11.46v3.34h-7.81v9.09h5.66v3.2h-5.66V96.75h7.81v3.34Z"/><path class="cls-3" d="M128.63,74.22v25.87H125V74.22h-5V70.84H133.5v3.38Z"/><path class="cls-3" d="M145.49,100.09l-1.19-6.72h-5.18l-1.23,6.72h-3.47l5.49-29.25h3.87l5.44,29.25ZM141.76,77.6l-2.07,12.52h4Z"/><path class="cls-3" d="M158.4,87.75h-2v12.34h-3.64V70.84h7.11c3.73,0,5.84,1.89,5.84,5.93v5c0,2.55-1.1,4.66-3.56,5.45,0,0,4,12.87,4,12.87h-3.91Zm1-3.17c1.67,0,2.6-1,2.6-2.81V76.59c0-1.49-.62-2.46-2.2-2.46h-3.47V84.58Z"/><path class="cls-3" d="M2.84,116.36a1.59,1.59,0,0,1-1.59-1l-.18.94H.27v-9.69h1.2v3.75a1.76,1.76,0,0,1,1.57-1c1,0,1.54.85,1.54,2v3.07A1.76,1.76,0,0,1,2.84,116.36Zm.55-4.78c0-.83-.32-1.19-.91-1.19a1,1,0,0,0-1,1.11v2.77a1,1,0,0,0,1,1.12c.59,0,.94-.37.94-1.19Z"/><path class="cls-3" d="M8.09,116.7c-.31,1.2-.61,1.94-1.86,1.94H5.78v-1h.35c.59,0,.72-.2.84-.64l.12-.58-1.81-7H6.5l.82,3.77.29,1.52.3-1.52.82-3.77H9.94Z"/><path class="cls-3" d="M16.06,112.36H14.62v3.89H13.25v-9.69h2.81a2,2,0,0,1,2.27,2.24v1.34A2,2,0,0,1,16.06,112.36Zm.89-3.6c0-.64-.24-1-.88-1H14.62v3.43h1.45c.64,0,.88-.37.88-1Z"/><path class="cls-3" d="M23.27,116.25l-.51-2.37H20.67l-.51,2.37H18.82l2.2-9.69h1.45l2.2,9.69Zm-1.55-7.52-.8,4h1.6Z"/><path class="cls-3" d="M28.16,112.2h-.83v4H26v-9.69h2.79c1.57,0,2.28.79,2.28,2.17V110a2,2,0,0,1-1.47,2.1s1.59,4.19,1.59,4.19h-1.5Zm.43-1.13a1,1,0,0,0,1-1.09V108.7c0-.55-.22-1-.87-1H27.33v3.32Z"/><path class="cls-3" d="M32.67,116.25v-9.69H34V115H37.1v1.26Z"/><path class="cls-3" d="M42.35,116.25l-.51-2.37H39.75l-.51,2.37H37.9l2.2-9.69h1.45l2.2,9.69Zm-1.55-7.52-.8,4h1.6Z"/><path class="cls-3" d="M51,116.25V108.7l-.39,1.85-1.33,5.7H48l-1.29-5.7-.41-1.85v7.55H45v-9.69H47l1.32,6,.39,1.85.4-1.86,1.29-6h1.92v9.69Z"/><path class="cls-3" d="M54.22,116.25v-9.69h4.51v1.25H55.59v2.76h2.26v1.2H55.59V115h3.14v1.26Z"/><path class="cls-3" d="M63.09,107.83v8.42H61.71v-8.42h-2v-1.27h5.35v1.27Z"/><path class="cls-3" d="M66.42,116.25v-9.69h4.51v1.25H67.79v2.76h2.27v1.2H67.79V115h3.14v1.26Z"/><path class="cls-3" d="M74.72,112.2H73.9v4H72.51v-9.69h2.8c1.57,0,2.28.79,2.28,2.17V110a2,2,0,0,1-1.47,2.1s1.59,4.19,1.59,4.19h-1.5Zm.44-1.13c.68,0,1-.38,1-1.09V108.7c0-.55-.22-1-.87-1H73.9v3.32Z"/></g></g></svg>