<svg xmlns="http://www.w3.org/2000/svg" viewBox="0 0 282.82 170.08"><defs><style>.cls-1{fill:#227497;}.cls-2{fill:#009cd9;}.cls-3{fill:#003143;}</style></defs><title>Asset 1</title><g id="Layer_2" data-name="Layer 2"><g id="Layer_1-2" data-name="Layer 1"><g id="_Group_" data-name="&lt;Group&gt;"><path id="_Path_" data-name="&lt;Path&gt;" class="cls-1" d="M79.9,60.19l-.35,5.51A32.17,32.17,0,0,1,56.69,94.49,32.17,32.17,0,0,1,33.84,65.71l-.35-5.51H0v49.69H132.28V60.19Z"/><path id="_Path_2" data-name="&lt;Path&gt;" class="cls-2" d="M0,0V49.69H32.83L32,37.13q.86-.41,1.73-.8h0a56.83,56.83,0,0,1,45.86,0h0q.87.39,1.73.8l-.79,12.57H207.87V0Z"/><g id="_Group_2" data-name="&lt;Group&gt;"><path id="_Compound_Path_" data-name="&lt;Compound Path&gt;" class="cls-3" d="M12.46,149.56H6.57v20.52H.37v-49.7H12.46c6.34,0,10,3.36,10,10.22v8.81C22.46,146.2,18.81,149.56,12.46,149.56Zm3.73-19.25c0-2.84-1-4.33-3.66-4.33h-6v18.21h6c2.61,0,3.66-1.64,3.66-4.4Z"/><path id="_Compound_Path_2" data-name="&lt;Compound Path&gt;" class="cls-3" d="M43.73,170.08l-2-11.42H32.91l-2.09,11.42h-5.9l9.33-49.7h6.57l9.25,49.7Zm-6.34-38.21-3.51,21.27h6.87Z"/><path id="_Compound_Path_3" data-name="&lt;Compound Path&gt;" class="cls-3" d="M65.67,149.11H62.24v21H56v-49.7H68.13c6.34,0,9.93,3.21,9.93,10.07V139c0,4.33-1.87,7.91-6,9.25,0-.07,6.72,21.87,6.72,21.87H72.09Zm1.79-5.37c2.84,0,4.4-1.64,4.4-4.78v-8.81c0-2.54-1-4.18-3.73-4.18h-5.9v17.76Z"/><path id="_Compound_Path_4" data-name="&lt;Compound Path&gt;" class="cls-3" d="M85.52,170.08v-49.7h6.19v44h12.91v5.75Z"/><path id="_Compound_Path_5" data-name="&lt;Compound Path&gt;" class="cls-3" d="M127.38,170.08l-2-11.42h-8.81l-2.09,11.42h-5.9l9.33-49.7h6.57l9.25,49.7ZM121,131.87l-3.51,21.27h6.87Z"/><path id="_Compound_Path_6" data-name="&lt;Compound Path&gt;" class="cls-3" d="M165.74,170.08V131.94l-1.64,9-5.67,29.1h-6L146.78,141l-1.64-9v38.13h-5.52v-49.7h8.81l5.6,30.9,1.64,9,1.57-9.1,5.52-30.82h8.66v49.7Z"/><path id="_Compound_Path_7" data-name="&lt;Compound Path&gt;" class="cls-3" d="M180.14,170.08v-49.7h19.48V126H186.34V141.5H196v5.45h-9.63v17.46h13.28v5.67Z"/><path id="_Compound_Path_8" data-name="&lt;Compound Path&gt;" class="cls-3" d="M218.95,126.12v44h-6.19v-44h-8.43v-5.75h22.91v5.75Z"/><path id="_Compound_Path_9" data-name="&lt;Compound Path&gt;" class="cls-3" d="M233.42,170.08v-49.7H252.9V126H239.62V141.5h9.63v5.45h-9.63v17.46H252.9v5.67Z"/><path id="_Compound_Path_10" data-name="&lt;Compound Path&gt;" class="cls-3" d="M269.77,149.11h-3.43v21h-6.19v-49.7h12.09c6.34,0,9.93,3.21,9.93,10.07V139c0,4.33-1.87,7.91-6,9.25,0-.07,6.72,21.87,6.72,21.87h-6.64Zm1.79-5.37c2.84,0,4.4-1.64,4.4-4.78v-8.81c0-2.54-1-4.18-3.73-4.18h-5.9v17.76Z"/></g></g></g></g></svg>