<svg xmlns="http://www.w3.org/2000/svg" viewBox="0 0 1056.12 611.2">
  <defs>
    <style>
      .cls-1 {
        isolation: isolate;
      }
      .cls-2 {
        fill: #007b78;
      }
      .cls-3 {
        fill: #00a2cc;
      }
      .cls-4 {
        fill: #80bdbc;
      }
      .cls-5 {
        fill: #fff;
      }
    </style>
  </defs>
  <g id="Layer_2" data-name="Layer 2">
    <g id="Layer_1-2" data-name="Layer 1">
      <g id="Layer_2-2" data-name="Layer 2">
        <g id="Layer_1-2-2" data-name="Layer 1-2">
          <g class="cls-1">
            <g class="cls-1">
              <path
                class="cls-2"
                d="M84.78,525.66v-118L79.7,435.57,62.15,525.66H43.67L26.11,435.57,21,407.62v118H3.93V371.81H31.19l17.33,95.64L53.6,495.4l4.85-28.18,17.09-95.41h26.8V525.66Z"
              />
              <path
                class="cls-2"
                d="M164.94,528.43c-23.56,0-36.27-15.94-36.27-37.88V406.92c0-21.71,12.71-37.88,36.27-37.88s36.27,16.17,36.27,37.88v83.63C201.21,512.49,188.5,528.43,164.94,528.43ZM182,404.85c0-10.4-5.77-18.25-17.09-18.25-11.55,0-17.09,7.85-17.09,18.25v87.78c0,10.62,5.54,18.25,17.09,18.25,11.32,0,17.09-7.63,17.09-18.25Z"
              />
              <path
                class="cls-2"
                d="M266.35,525.66V371.81h19.17V507.87h40v17.79Z"
              />
              <path
                class="cls-2"
                d="M374.92,528.43c-21.72,0-33.73-12.93-33.73-34.65V464.44h18.25v29.34c0,11.32,4.85,17.1,15,17.1,9.94,0,14.33-5.78,14.33-17.1v-122H408V492.17C408,513.65,397.55,528.43,374.92,528.43Z"
              />
              <path
                class="cls-2"
                d="M470.55,528.43c-20.79,0-35.81-13.17-35.81-35.34V371.81h19.17V493.55c0,11.55,5.55,17.56,16.87,17.56,11.55,0,16.86-6,16.86-17.56V371.81h18.94V493.09C506.58,515.26,491.57,528.43,470.55,528.43Z"
              />
              <path
                class="cls-2"
                d="M572.18,525.66H533.84V371.81h37.65c19.64,0,30.49,9.7,30.49,31v19.17c0,13.63-5.08,21.94-16.4,24.95,12.48,3,17.33,12,17.33,25.18v22.64C602.91,516,591.82,525.66,572.18,525.66ZM583,402.07c0-8.08-3.23-12.93-11.55-12.93H553.24V440h16.17c8.78,0,13.63-5.31,13.63-15Zm.69,68.38c0-9.7-4.85-15-13.63-15H553.24v52.89h18.94c8.09,0,11.55-4.85,11.55-12.7Z"
              />
              <path
                class="cls-2"
                d="M627.85,525.66V371.81H647V507.87h40v17.79Z"
              />
              <path
                class="cls-2"
                d="M736.42,528.43c-21.71,0-33.73-12.93-33.73-34.65V464.44h18.25v29.34c0,11.32,4.85,17.1,15,17.1,9.93,0,14.32-5.78,14.32-17.1v-122h19.17V492.17C769.45,513.65,759.06,528.43,736.42,528.43Z"
              />
              <path
                class="cls-2"
                d="M846.37,525.66l-6.23-35.34H812.88l-6.47,35.34H788.16L817,371.81h20.32L866,525.66ZM826.74,407.39l-10.86,65.83h21.25Z"
              />
              <path
                class="cls-2"
                d="M945.47,525.66,913.36,449.2,903.2,423.33V525.66H885V371.81h16.4l30.26,77.62,9.47,26.1V371.81h18.25V525.66Z"
              />
              <path
                class="cls-2"
                d="M1036.48,525.66l-6.23-35.34H1003l-6.47,35.34H978.27l28.88-153.85h20.33l28.64,153.85Zm-19.63-118.27L1006,473.22h21.25Z"
              />
            </g>
            <g class="cls-1">
              <path
                class="cls-2"
                d="M14.77,590.23H7.19v20.43H0V559.71H14.77c8.26,0,11.93,4.43,11.93,11.78v7C26.7,585.72,23,590.23,14.77,590.23Zm4.66-19c0-3.37-1.22-5.28-4.59-5.28H7.19V584h7.65c3.37,0,4.59-2,4.59-5.28Z"
              />
            </g>
            <g class="cls-1">
              <path
                class="cls-2"
                d="M52.72,610.66,50,598.19H39l-2.68,12.47h-7l11.56-50.95h7.65l11.55,50.95Zm-8.19-39.55L40.32,592h8.42Z"
              />
              <path
                class="cls-2"
                d="M94.48,611.2c-5.73,0-7.72-1.61-7.72-6.89v-9.95c0-3.52-1.61-5.89-5.28-5.89H74.29v22.19H67V559.71H81.78c8.27,0,11.94,4.13,11.94,11.4v5.58c0,5-1.68,8-6.58,8.95,4.82.77,6.81,4.82,6.81,8.88v9.25c0,1.38.61,2,2.14,2v5.44Zm-8-40.25c0-2.9-1.22-5-4.67-5H74.29v17H81c3.52,0,5.43-2,5.43-5.81Z"
              />
            </g>
            <g class="cls-1">
              <path
                class="cls-2"
                d="M103.28,610.66V559.71h7.19v44.37h16.14v6.58Z"
              />
            </g>
            <g class="cls-1">
              <path
                class="cls-2"
                d="M154.15,610.66l-2.68-12.47h-11l-2.68,12.47h-7l11.56-50.95h7.65l11.55,50.95ZM146,571.11,141.75,592h8.42Z"
              />
              <path
                class="cls-2"
                d="M200,610.66V571l-2.07,9.72-7,30h-7.11l-6.81-30L174.88,571v39.71h-6.43V559.71h10.1l7,31.82,2.07,9.72,2.06-9.79,6.81-31.75h10.1v50.95Z"
              />
              <path
                class="cls-2"
                d="M217,610.66V559.71h23.72v6.58H224.22v14.53h11.93v6.28H224.22v17h16.52v6.58Z"
              />
              <path
                class="cls-2"
                d="M263.92,566.36v44.3h-7.27v-44.3H246.17v-6.65h28.16v6.65Z"
              />
              <path
                class="cls-2"
                d="M281.67,610.66V559.71h23.71v6.58H288.86v14.53h11.93v6.28H288.86v17h16.52v6.58Z"
              />
              <path
                class="cls-2"
                d="M341.42,611.2c-5.74,0-7.73-1.61-7.73-6.89v-9.95c0-3.52-1.61-5.89-5.28-5.89h-7.19v22.19H314V559.71h14.76c8.27,0,11.94,4.13,11.94,11.4v5.58c0,5-1.68,8-6.58,8.95,4.82.77,6.81,4.82,6.81,8.88v9.25c0,1.38.61,2,2.14,2v5.44Zm-8-40.25c0-2.9-1.22-5-4.67-5h-7.49v17H328c3.52,0,5.43-2,5.43-5.81Z"
              />
            </g>
          </g>
          <path
            class="cls-3"
            d="M108,112.45h0a176,176,0,0,1,142,0h0q2.7,1.2,5.35,2.47l-2.45,38.91H647V0H3.48V153.83H105.09l-2.46-38.91C104.41,114.07,106.19,113.25,108,112.45Z"
          />
          <path
            class="cls-4"
            d="M220.76,267.52a99.7,99.7,0,0,1-41.79,25,99.58,99.58,0,0,1-70.74-89.1l-1.08-17.07H3.48v153.8H413V186.32H250.8l-1.08,17.07A99.57,99.57,0,0,1,220.76,267.52Z"
          />
          <polygon
            class="cls-5"
            points="107.99 112.45 107.99 112.45 108 112.45 108 112.45 107.99 112.45"
          />
        </g>
      </g>
    </g>
  </g>
</svg>
