<svg xmlns="http://www.w3.org/2000/svg" viewBox="0 0 748.36 611.21"><defs><style>.cls-1{fill:#007b78;}.cls-2{fill:#00a2cc;}.cls-3{fill:#80bdbc;}.cls-4{fill:#fff;}</style></defs><g id="Layer_2" data-name="Layer 2"><g id="Layer_1-2" data-name="Layer 1"><g id="Layer_2-2" data-name="Layer 2"><g id="Layer_1-2-2" data-name="Layer 1-2"><g id="Layer_2-2-2" data-name="Layer 2-2"><g id="Layer_1-2-2-2" data-name="Layer 1-2-2"><path class="cls-1" d="M14.77,590.23H7.19v20.43H0V559.71H14.77c8.26,0,11.93,4.43,11.93,11.78v7C26.7,585.72,23,590.23,14.77,590.23Zm4.66-19c0-3.37-1.22-5.28-4.59-5.28H7.19v18h7.65c3.37,0,4.59-2,4.59-5.28Z"/><path class="cls-1" d="M52.72,610.66,50,598.19H39l-2.68,12.47h-7l11.56-50.95h7.65l11.55,50.95Zm-8.19-39.55L40.32,592h8.42Z"/><path class="cls-1" d="M94.48,611.2c-5.73,0-7.72-1.61-7.72-6.89v-9.95c0-3.52-1.61-5.89-5.28-5.89H74.29v22.19H67V559.71H81.78c8.27,0,11.94,4.13,11.94,11.4v5.58c0,5-1.68,8-6.58,8.95,4.82.77,6.81,4.82,6.81,8.88v9.25c0,1.38.61,2,2.14,2v5.44Zm-8-40.25c0-2.9-1.22-5-4.67-5H74.29v17H81c3.52,0,5.43-2,5.43-5.81Z"/><path class="cls-1" d="M103.28,610.66V559.71h7.19v44.37h16.14v6.58Z"/><path class="cls-1" d="M154.15,610.66l-2.68-12.47h-11l-2.68,12.47h-7l11.56-50.95H150l11.55,50.95ZM146,571.11,141.75,592h8.42Z"/><path class="cls-1" d="M200,610.66V571l-2.07,9.72-7,30h-7.11l-6.81-30L174.88,571v39.71h-6.43v-51h10.1l7,31.82,2.07,9.72,2.06-9.79,6.81-31.75h10.1v50.95Z"/><path class="cls-1" d="M217,610.66V559.71h23.72v6.58h-16.5v14.53h11.93v6.28H224.22v17h16.52v6.58Z"/><path class="cls-1" d="M263.92,566.36v44.3h-7.27v-44.3H246.17v-6.65h28.16v6.65Z"/><path class="cls-1" d="M281.67,610.66V559.71h23.71v6.58H288.86v14.53h11.93v6.28H288.86v17h16.52v6.58Z"/><path class="cls-1" d="M341.42,611.2c-5.74,0-7.73-1.61-7.73-6.89v-9.95c0-3.52-1.61-5.89-5.28-5.89h-7.19v22.19H314V559.71h14.76c8.27,0,11.94,4.13,11.94,11.4v5.58c0,5-1.68,8-6.58,8.95,4.82.77,6.81,4.82,6.81,8.88v9.25c0,1.38.61,2,2.14,2v5.44Zm-8-40.25c0-2.9-1.22-5-4.67-5h-7.49v17H328c3.52,0,5.43-2,5.43-5.81Z"/><path class="cls-2" d="M105,112.45h0a176,176,0,0,1,142,0h0q2.7,1.2,5.35,2.47l-2.45,38.91H644V0H.48V153.83H102.09l-2.46-38.91C101.41,114.07,103.19,113.25,105,112.45Z"/><path class="cls-3" d="M217.76,267.52a99.7,99.7,0,0,1-41.79,25,99.58,99.58,0,0,1-70.74-89.1l-1.08-17.07H.48v153.8H410V186.32H247.8l-1.08,17.07A99.57,99.57,0,0,1,217.76,267.52Z"/><polygon class="cls-4" points="107.99 112.45 107.99 112.45 108 112.45 108 112.45 107.99 112.45"/></g></g></g></g><path class="cls-1" d="M66.19,525.84V458.3H22.47v67.54H.49V371.78h22v66.85H66.19V371.78H87.93V525.84Z"/><path class="cls-1" d="M196,527.46c-17.35,0-23.36-4.86-23.36-20.82V476.57c0-10.64-4.86-17.81-16-17.81H134.89v67.08h-22V371.78h44.64c25,0,36.09,12.49,36.09,34.47v16.88c0,15-5.09,24.06-19.9,27.07,14.58,2.31,20.59,14.57,20.59,26.83v28c0,4.17,1.85,6,6.48,6v16.42ZM171.67,405.79c0-8.79-3.7-15-14.11-15H134.89V442.1h20.36c10.64,0,16.42-6,16.42-17.58Z"/><path class="cls-1" d="M277.15,525.84l-8.09-37.7H235.75l-8.1,37.7H206.37L241.3,371.78h23.13l34.93,154.06ZM252.4,406.25,239.68,469.4h25.45Z"/><path class="cls-1" d="M349.56,529.31c-25.45,0-42.33-16.65-42.33-39.09V479.58H329v7.17c0,15.73,7.17,23.82,20.82,23.82,13.42,0,20.36-8.09,20.36-19.89,0-13.65-6-22.21-25.45-34.47-17.35-11.1-35.62-26.14-35.62-48.34,0-22,14.57-39.33,40.71-39.33,25,0,40.94,16.43,40.94,39.1v9.94H369.92v-7.17c0-13-6.25-23.13-20.82-23.13-12,0-18.28,7.17-18.28,17.58,0,13.65,6.25,20.82,28.45,35.16,22.44,14.57,32.62,27.53,32.62,47.42C391.89,512.89,373.85,529.31,349.56,529.31Z"/><path class="cls-1" d="M455.74,391.91V525.84h-22V391.91H402.07V371.78H487.2v20.13Z"/><path class="cls-1" d="M574.41,525.84l-38.17-75-13-27.06v102H502.46V371.78h17.82l36.55,76.34,12.26,27.06V371.78H589.9V525.84Z"/><path class="cls-1" d="M614.66,525.84V371.78h22V525.84Z"/><path class="cls-1" d="M724.54,525.84l-29.15-68.7-12.26,21.05v47.65H661.38V371.78h21.75v75l41.87-75h23.36L709.5,437.94l38.86,87.9Z"/></g></g></svg>