<svg xmlns="http://www.w3.org/2000/svg" viewBox="0 0 19.36 19.36"><defs><style>.cls-1{fill:#525252;}</style></defs><title>kompas</title><g id="Layer_2" data-name="Layer 2"><g id="Layer_1-2" data-name="Layer 1"><path class="cls-1" d="M9.68,0a9.68,9.68,0,1,0,9.68,9.68A9.69,9.69,0,0,0,9.68,0Zm0,18.39a8.71,8.71,0,1,1,8.71-8.71A8.72,8.72,0,0,1,9.68,18.39Z"/><path class="cls-1" d="M14.29,4.41,8,7.8a.49.49,0,0,0-.2.2L4.41,14.29a.48.48,0,0,0,.66.66l6.29-3.39a.49.49,0,0,0,.2-.2l3.39-6.29a.48.48,0,0,0-.66-.66ZM6,13.33,8.35,9l2,2Zm5-3-2-2L13.33,6Z"/><rect class="cls-1" x="9.2" y="1.45" width="0.97" height="1.94"/><rect class="cls-1" x="9.2" y="15.97" width="0.97" height="1.94"/><rect class="cls-1" x="15.97" y="9.2" width="1.94" height="0.97"/><rect class="cls-1" x="1.45" y="9.2" width="1.94" height="0.97"/></g></g></svg>