<svg xmlns="http://www.w3.org/2000/svg" viewBox="0 0 50 50"><defs><style>.cls-1{fill:#525252;stroke:#525252;stroke-miterlimit:10;}</style></defs><title>neenotnost</title><g id="Layer_2" data-name="Layer 2"><g id="Layer_1-2" data-name="Layer 1"><g id="Layer_2-2" data-name="Layer 2"><g id="Layer_1-2-2" data-name="Layer 1-2"><path class="cls-1" d="M21,.5H1A.5.5,0,0,0,.5,1V21a.5.5,0,0,0,.5.5H21a.5.5,0,0,0,.5-.5V1A.5.5,0,0,0,21,.5Zm-.5,20H1.5V1.5h19Z"/><path class="cls-1" d="M21,28.5H1a.5.5,0,0,0-.5.5V49a.5.5,0,0,0,.5.5H21a.5.5,0,0,0,.5-.5V29A.5.5,0,0,0,21,28.5Zm-.5,20H1.5v-19h19Z"/><path class="cls-1" d="M49,28.5H29a.5.5,0,0,0-.5.5V49a.5.5,0,0,0,.5.5H49a.5.5,0,0,0,.5-.5V29A.5.5,0,0,0,49,28.5Zm-.5,20h-19v-19h19Z"/><path class="cls-1" d="M39,21.5A10.5,10.5,0,1,0,28.5,11,10.5,10.5,0,0,0,39,21.5Zm0-20A9.5,9.5,0,1,1,29.5,11,9.5,9.5,0,0,1,39,1.5Z"/></g></g></g></g></svg>