<svg xmlns="http://www.w3.org/2000/svg" xmlns:xlink="http://www.w3.org/1999/xlink" version="1.1" x="0px" y="0px" viewBox="0 0 100 100" style="enable-background:new 0 0 100 100;" xml:space="preserve"><style type="text/css">
	.st0{fill:#010101;}
</style><g><path class="st0" d="M47.6,48.5c-0.8,0-1.5,0.7-1.5,1.5s0.7,1.5,1.5,1.5h23.6l3.7,3.7c0.3,0.3,0.7,0.4,1.1,0.4   s0.8-0.1,1.1-0.4c0.6-0.6,0.6-1.5,0-2.1l-1.6-1.6h3.1l3.7,3.7c0.3,0.3,0.7,0.4,1.1,0.4s0.8-0.1,1.1-0.4c0.6-0.6,0.6-1.5,0-2.1   L81.2,50l3.3-3.3c0.6-0.6,0.6-1.5,0-2.1c-0.6-0.6-1.5-0.6-2.1,0l-3.9,3.9h-3.1l1.8-1.8c0.6-0.6,0.6-1.5,0-2.1   c-0.6-0.6-1.5-0.6-2.1,0l-3.9,3.9H47.6z"></path><path class="st0" d="M47.6,76.5c11.9,0,22.4-8,25.5-19.5c0.2-0.8-0.3-1.6-1.1-1.8c-0.8-0.2-1.6,0.3-1.8,1.1   c-2.8,10.2-12.1,17.3-22.7,17.3c-13,0-23.5-10.5-23.5-23.5s10.5-23.5,23.5-23.5c10.7,0,20,7.2,22.7,17.5c0.2,0.8,1,1.3,1.8,1.1   c0.8-0.2,1.3-1,1.1-1.8c-3.1-11.6-13.6-19.8-25.6-19.8C33,23.5,21.1,35.4,21.1,50S33,76.5,47.6,76.5z"></path><path class="st0" d="M62,44.2c0.3,0.8,1.2,1.1,2,0.8c0.8-0.3,1.1-1.2,0.8-2c-2.8-7-9.6-11.6-17.1-11.6   c-10.2,0-18.5,8.3-18.5,18.5s8.3,18.5,18.5,18.5c7.5,0,14.2-4.5,17-11.3c0.3-0.8,0-1.6-0.8-2c-0.8-0.3-1.6,0-2,0.8   c-2.4,5.8-8,9.5-14.3,9.5c-8.5,0-15.5-7-15.5-15.5s7-15.5,15.5-15.5C53.9,34.5,59.6,38.3,62,44.2z"></path><path class="st0" d="M47.6,43.3c1.5,0,3,0.5,4.2,1.5c0.6,0.5,1.6,0.4,2.1-0.2c0.5-0.6,0.4-1.6-0.2-2.1   c-1.7-1.4-3.8-2.1-6-2.1c-5.3,0-9.7,4.3-9.7,9.7c0,5.3,4.3,9.7,9.7,9.7c2.1,0,4-0.7,5.7-1.9c0.7-0.5,0.8-1.4,0.3-2.1   c-0.5-0.7-1.4-0.8-2.1-0.3c-1.2,0.9-2.5,1.3-3.9,1.3c-3.7,0-6.7-3-6.7-6.7S43.9,43.3,47.6,43.3z"></path></g></svg>
