<svg xmlns="http://www.w3.org/2000/svg" viewBox="0 0 63.85 52.9"><defs><style>.cls-1{fill:#525252;}</style></defs><title>obvestila</title><g id="Layer_2" data-name="Layer 2"><g id="Layer_1-2" data-name="Layer 1"><path class="cls-1" d="M26.5,24.9a1.5,1.5,0,0,0,0,3H50.1l3.7,3.7a1.71,1.71,0,0,0,2.2,0,1.45,1.45,0,0,0,0-2.1l-1.6-1.6h3.1l3.7,3.7a1.71,1.71,0,0,0,2.2,0,1.45,1.45,0,0,0,0-2.1l-3.3-3.1,3.3-3.3A1.48,1.48,0,0,0,61.3,21l-3.9,3.9H54.3l1.8-1.8A1.48,1.48,0,0,0,54,21l-3.9,3.9Z"/><path class="cls-1" d="M26.5,52.9A26.44,26.44,0,0,0,52,33.4a1.49,1.49,0,0,0-2.9-.7,23.6,23.6,0,1,1,0-12.2,1.49,1.49,0,0,0,2.9-.7A26.42,26.42,0,0,0,0,26.4,26.55,26.55,0,0,0,26.5,52.9Z"/><path class="cls-1" d="M40.9,20.6a1.52,1.52,0,0,0,2.8-1.2,18.47,18.47,0,1,0-.1,14.1,1.52,1.52,0,1,0-2.8-1.2,15.37,15.37,0,0,1-14.3,9.5,15.5,15.5,0,0,1,0-31A15.78,15.78,0,0,1,40.9,20.6Z"/><path class="cls-1" d="M26.5,19.7a6.55,6.55,0,0,1,4.2,1.5,1.49,1.49,0,0,0,1.9-2.3,9.34,9.34,0,0,0-6-2.1,9.7,9.7,0,1,0,5.7,17.5,1.5,1.5,0,1,0-1.8-2.4,6.31,6.31,0,0,1-3.9,1.3,6.75,6.75,0,0,1-.1-13.5Z"/></g></g></svg>