<svg xmlns="http://www.w3.org/2000/svg" viewBox="0 0 122.79 75.81"><defs><style>.cls-1{fill:#525252;}</style></defs><title>parlatube</title><g id="Layer_2" data-name="Layer 2"><g id="Layer_1-2" data-name="Layer 1"><g id="Layer_2-2" data-name="Layer 2"><g id="Layer_1-2-2" data-name="Layer 1-2"><polygon class="cls-1" points="0 4.69 0 70.78 49 37.73 0 4.69"/><path class="cls-1" d="M27.55,65.08A13.93,13.93,0,0,0,47,68h0L79,44.18l9.9,7.33a3.4,3.4,0,0,1,1.3,3.5,16.77,16.77,0,1,0,7.5-9.9,3.49,3.49,0,0,1-3.8-.2l-9.5-7.1,9.5-7.1a3.49,3.49,0,0,1,3.8-.2,16.41,16.41,0,1,0-7.8-16.7,16.59,16.59,0,0,0,.3,6.7,3.4,3.4,0,0,1-1.3,3.5L79,31.31,47.05,7.51a13.91,13.91,0,0,0-19.47,2.83l0,0,36.8,27.4Zm78.6-12.8a6.8,6.8,0,1,1-6.8,6.8,6.68,6.68,0,0,1,6.56-6.8Zm0-42.8a6.8,6.8,0,1,1-6.8,6.8,6.8,6.8,0,0,1,6.8-6.8Zm-32.9,24.9a3.3,3.3,0,1,1-3.3,3.3h0A3.33,3.33,0,0,1,73.25,34.38Z"/></g></g></g></g></svg>