<svg fill="#333" xmlns="http://www.w3.org/2000/svg" xmlns:xlink="http://www.w3.org/1999/xlink" version="1.1" x="0px" y="0px" viewBox="0 0 100 100" style="enable-background:new 0 0 100 100;" xml:space="preserve"><path d="M84.3,40.9v4.8h-4.4v10.7h2v-8.7h2.4v31.1l3.4,4.9l3.3-4.9V40.9H84.3z M86.3,42.9h2.8v2.8h-2.8V42.9z M89.1,47.7v22.4h-2.8  V47.7H89.1z M86.3,76.7v-4.6h2.8v4.6H86.3z M86.7,78.7h2.1l-1.1,1.5L86.7,78.7z"></path><g><polygon points="50.3,28.7 50.3,30.7 73.9,30.7 73.9,80.9 32.3,80.9 32.3,49.8 30.3,49.8 30.3,82.9 75.9,82.9 75.9,28.7  "></polygon><rect x="40.8" y="55.3" width="1" height="1"></rect><rect x="56.2" y="55.3" width="2.1" height="1"></rect><rect x="60.3" y="55.3" width="2.1" height="1"></rect><rect x="52.1" y="55.3" width="2.1" height="1"></rect><rect x="48" y="55.3" width="2" height="1"></rect><rect x="43.8" y="55.3" width="2.1" height="1"></rect><rect x="64.5" y="55.3" width="1" height="1"></rect><rect x="42" y="48.1" width="1" height="1"></rect><rect x="56.6" y="48.1" width="2" height="1"></rect><rect x="44.9" y="48.1" width="2" height="1"></rect><rect x="52.7" y="48.1" width="2" height="1"></rect><rect x="60.6" y="48.1" width="2" height="1"></rect><rect x="48.8" y="48.1" width="2" height="1"></rect><rect x="64.5" y="48.1" width="1" height="1"></rect><rect x="49.3" y="40.9" width="1" height="1"></rect><rect x="60.5" y="40.9" width="2" height="1"></rect><rect x="52.3" y="40.9" width="2" height="1"></rect><rect x="56.4" y="40.9" width="2" height="1"></rect><rect x="64.5" y="40.9" width="1" height="1"></rect><rect x="40.8" y="69.7" width="1" height="1"></rect><rect x="56.2" y="69.7" width="2.1" height="1"></rect><rect x="43.8" y="69.7" width="2.1" height="1"></rect><rect x="48" y="69.7" width="2" height="1"></rect><rect x="52.1" y="69.7" width="2.1" height="1"></rect><rect x="60.3" y="69.7" width="2.1" height="1"></rect><rect x="64.5" y="69.7" width="1" height="1"></rect><rect x="40.8" y="62.5" width="1" height="1"></rect><rect x="48" y="62.5" width="2" height="1"></rect><rect x="52.1" y="62.5" width="2.1" height="1"></rect><rect x="60.3" y="62.5" width="2.1" height="1"></rect><rect x="43.8" y="62.5" width="2.1" height="1"></rect><rect x="56.2" y="62.5" width="2.1" height="1"></rect><rect x="64.5" y="62.5" width="1" height="1"></rect></g><g><g><path d="M14.8,60.3c-0.6,0-2.1-0.2-3.9-1.9C8.8,56.3,9,54.5,9,54.3V54l11.2-11.2c-1.5-2.6-2.3-5.6-2.3-8.6    c0-9.4,7.6-17,17-17s17,7.6,17,17s-7.6,17-17,17c-2.9,0-5.8-0.8-8.4-2.2L15.3,60.3H15C15,60.3,14.9,60.3,14.8,60.3z M11,54.8    c0.1,0.4,0.4,1.2,1.3,2.2c1,1,1.8,1.2,2.2,1.3l11.7-11.9l0.7,0.4c2.4,1.5,5.2,2.3,8,2.3c8.3,0,15-6.8,15-15s-6.8-15-15-15    s-15,6.8-15,15c0,2.9,0.8,5.8,2.5,8.2l0.4,0.7L11,54.8z"></path></g><g><path d="M34.9,44.7c-5.8,0-10.6-4.8-10.6-10.6s4.8-10.6,10.6-10.6s10.6,4.8,10.6,10.6    C45.5,40,40.8,44.7,34.9,44.7z M34.9,25.5c-4.7,0-8.6,3.9-8.6,8.6s3.9,8.6,8.6,8.6s8.6-3.9,8.6-8.6S39.7,25.5,34.9,25.5z"></path></g></g></svg>