<svg xmlns="http://www.w3.org/2000/svg" viewBox="0 0 24 22"><defs><style>.cls-1{fill:#525252;}</style></defs><title>seznam besed</title><g id="Layer_2" data-name="Layer 2"><g id="Layer_1-2" data-name="Layer 1"><path class="cls-1" d="M20.5,0H3.5A3.5,3.5,0,0,0,0,3.5v10A3.5,3.5,0,0,0,3.5,17H5.76L4,21.31a.49.49,0,0,0,.15.58A.51.51,0,0,0,4.5,22a.52.52,0,0,0,.29-.09L11.66,17H20.5A3.5,3.5,0,0,0,24,13.5V3.5A3.5,3.5,0,0,0,20.5,0ZM23,13.5A2.5,2.5,0,0,1,20.5,16h-9a.5.5,0,0,0-.29.09l-5.61,4L7,16.69a.47.47,0,0,0,0-.47A.48.48,0,0,0,6.5,16h-3A2.5,2.5,0,0,1,1,13.5V3.5A2.5,2.5,0,0,1,3.5,1h17A2.5,2.5,0,0,1,23,3.5Z"/><polygon class="cls-1" points="12.45 4.36 14.02 4.36 14.02 3.69 12.45 3.69 12.45 2.12 11.78 2.12 11.78 3.69 10.21 3.69 10.21 4.36 11.78 4.36 11.78 5.93 12.45 5.93 12.45 4.36"/><rect class="cls-1" x="2.71" y="3.44" width="6.46" height="1.17"/><rect class="cls-1" x="14.83" y="3.44" width="6.46" height="1.17"/><polygon class="cls-1" points="4.97 8.8 6.54 8.8 6.54 8.13 4.97 8.13 4.97 6.56 4.29 6.56 4.29 8.13 2.73 8.13 2.73 8.8 4.29 8.8 4.29 10.37 4.97 10.37 4.97 8.8"/><rect class="cls-1" x="7.31" y="7.88" width="9.46" height="1.17"/><polygon class="cls-1" points="19.75 8.8 21.31 8.8 21.31 8.13 19.75 8.13 19.75 6.56 19.07 6.56 19.07 8.13 17.5 8.13 17.5 8.8 19.07 8.8 19.07 10.37 19.75 10.37 19.75 8.8"/><polygon class="cls-1" points="12.47 13.24 14.04 13.24 14.04 12.57 12.47 12.57 12.47 11 11.8 11 11.8 12.57 10.23 12.57 10.23 13.24 11.8 13.24 11.8 14.81 12.47 14.81 12.47 13.24"/><rect class="cls-1" x="2.73" y="12.32" width="6.46" height="1.17"/><rect class="cls-1" x="14.85" y="12.32" width="6.46" height="1.17"/></g></g></svg>