<?xml version="1.0" encoding="utf-8"?>
<!-- Generator: Adobe Illustrator 26.5.0, SVG Export Plug-In . SVG Version: 6.00 Build 0)  -->
<svg version="1.1"
	 id="svg4151" xmlns:dc="http://purl.org/dc/elements/1.1/" xmlns:cc="http://creativecommons.org/ns#" xmlns:svg="http://www.w3.org/2000/svg" xmlns:rdf="http://www.w3.org/1999/02/22-rdf-syntax-ns#"
	 xmlns="http://www.w3.org/2000/svg" xmlns:xlink="http://www.w3.org/1999/xlink" x="0px" y="0px" viewBox="0 0 100 100"
	 style="enable-background:new 0 0 100 100;" xml:space="preserve">
<path d="M50,31.9c-5.7,0-10.4,4.6-10.4,10.4c0,1.5,1.2,2.6,2.6,2.6s2.6-1.2,2.6-2.6c0-2.8,2.3-5,5-5c2.9,0,5,2.1,5,4.8
	c0,0,0,0.1,0,0.2c0,1.6-0.4,5.2-5.5,6c-1.3,0.2-2.3,1.3-2.3,2.6v7.2c0,1.5,1.2,2.6,2.6,2.6c1.4,0,2.6-1.2,2.6-2.6v-5
	c6.7-2.1,7.7-7.8,7.7-11C60.4,36.4,55.7,31.9,50,31.9z"/>
<path d="M50,63.9c-1.9,0-3.4,1.6-3.4,3.4s1.6,3.4,3.4,3.4s3.4-1.6,3.4-3.4S51.8,63.9,50,63.9z"/>
<path d="M50,16.4c-19.1,0-34.6,15.5-34.6,34.6S30.9,85.6,50,85.6S84.6,70.1,84.6,51S69,16.4,50,16.4z M50,80.4
	c-16.2,0-29.4-13.2-29.4-29.4S33.8,21.7,50,21.7S79.3,34.8,79.3,51C79.3,67.2,66.1,80.4,50,80.4z"/>
</svg>
