<svg xmlns="http://www.w3.org/2000/svg" viewBox="139.21 208.27 473.58 404.53" fill="#000">
  <path d="m596.32 457.33-95.85-86.26H251.52l-95.85 86.26-13.2-14.66 101.48-91.33h264.1l101.48 91.33z"/>
  <path d="M583.19 612.79H168.81a29.63 29.63 0 0 1-29.6-29.6V440.13h157.86V450a44.44 44.44 0 0 0 44.4 44.4h69.06a44.44 44.44 0 0 0 44.4-44.4v-9.87h157.86V583.2a29.63 29.63 0 0 1-29.6 29.6zM158.94 459.86v123.33a9.88 9.88 0 0 0 9.87 9.87h414.38a9.88 9.88 0 0 0 9.86-9.87V459.86H473.9c-4.76 30.7-31.37 54.27-63.37 54.27h-69.07c-32 0-58.62-23.57-63.38-54.27zm121.79-242.07 34.53 54.27-16.65 10.59-34.53-54.27zm195.48-.02 16.65 10.6-34.53 54.26-16.65-10.6zm-110.07-9.5h19.73v64.13h-19.73z"/>
</svg>
