<?xml version="1.0" encoding="UTF-8"?>
<svg width="128pt" height="128pt" version="1.1" viewBox="0 0 128 128" xmlns="http://www.w3.org/2000/svg">
 <g fill="#fff">
  <path d="m30.977 113.54h66.176c4.2227 0 7.6797-3.457 7.6797-7.6797v-53.246c0-4.2227-3.457-7.6797-7.6797-7.6797h-16.512v5.1211h16.383c1.4062 0 2.5586 1.1523 2.5586 2.5586v53.375c0 1.4062-1.1523 2.5586-2.5586 2.5586h-66.047c-1.4062 0-2.5586-1.1523-2.5586-2.5586l-0.003907-53.375c0-1.4062 1.1523-2.5586 2.5586-2.5586l16.387-0.003906v-5.1211l-16.383 0.003907c-4.2227 0-7.6797 3.457-7.6797 7.6797v53.375c0 4.0938 3.457 7.5508 7.6797 7.5508z"/>
  <path d="m43.648 63.742-3.3281 3.8398 21.375 18.434c0.51172 0.38281 1.0234 0.64062 1.6641 0.64062s1.1523-0.25781 1.6641-0.64062l21.504-18.434-3.3281-3.8398-17.277 14.723v-61.441h-5.1211v61.441z"/>
 </g>
</svg>
