<svg xmlns="http://www.w3.org/2000/svg" xmlns:xlink="http://www.w3.org/1999/xlink" version="1.1" x="0px" y="0px" viewBox="0 0 100 100" style="enable-background:new 0 0 100 100;" xml:space="preserve"><path d="M71.7,54.5c1.1-1.2,1.7-2.8,1.7-4.5c0-2.4-1.3-4.5-3.2-5.7c0.6-1,0.9-2.1,0.9-3.3c0-3.1-2.1-5.8-5-6.6  c0.3-0.8,0.5-1.6,0.5-2.5c0-3.8-3.1-6.8-6.8-6.8H46.3c-8.4,0-16.3,4.3-20.9,11.3H12.3c-1.3,0-2.3,1-2.3,2.3c0,1.3,1,2.3,2.3,2.3  h13.6c0.1,0,0.3,0,0.4,0c0.9,0.2,1.9-0.2,2.3-1.1c3.3-5.7,9.2-9.5,15.8-10.1C44.1,30.3,44,31,44,31.8c0,1.7,0.7,3.3,1.7,4.5  c-1.1,1.2-1.7,2.8-1.7,4.5c0,1.7,0.7,3.3,1.7,4.5c-1.1,1.2-1.7,2.8-1.7,4.5c0,0.2,0,0.4,0,0.6c-2.2-1.8-4.9-2.9-8-2.9  c-1.3,0-2.3,1-2.3,2.3s1,2.3,2.3,2.3c4.4,0,7.9,3.6,7.9,7.9v7.9c0,0.6,0.2,1.2,0.7,1.6l2.3,2.3c0,0,0,0,0,0c1.4,1.4,2.2,3.2,2.2,5.2  c0,1.2-0.3,2.3-0.8,3.3L32,64.2c-1.3-1.3-2.4-2.7-3.4-4.2c-0.4-0.6-1.1-1-1.9-1H12.3C11,59,10,60,10,61.3c0,1.3,1,2.3,2.3,2.3h13.3  c1,1.4,2.1,2.7,3.3,3.9l18.1,18.1c0.9,0.9,2.3,0.9,3.2,0c2.2-2.2,3.5-5.2,3.5-8.4s-1.2-6.2-3.5-8.4c0,0,0,0,0,0l-1.6-1.6v-1.7  c0.7,0.3,1.5,0.4,2.3,0.4h15.9c3.8,0,6.8-3.1,6.8-6.8C73.5,57.3,72.8,55.7,71.7,54.5z M50.8,61.3c-1.3,0-2.3-1-2.3-2.3  c0-1.2,1-2.3,2.3-2.3h15.9c1.3,0,2.3,1,2.3,2.3c0,1.3-1,2.3-2.3,2.3H50.8z M66.7,52.2H50.8c-1.3,0-2.3-1-2.3-2.3  c0-1.3,1-2.3,2.3-2.3h15.9c1.3,0,2.3,1,2.3,2.3C69,51.2,67.9,52.2,66.7,52.2z M62.2,31.8c0,1.3-1,2.3-2.3,2.3h-9.1  c-1.3,0-2.3-1-2.3-2.3c0-1.2,1-2.3,2.3-2.3h9.1C61.1,29.5,62.2,30.6,62.2,31.8z M66.7,40.9c0,1.2-1,2.3-2.3,2.3H50.8  c-1.3,0-2.3-1-2.3-2.3s1-2.3,2.3-2.3h13.6C65.7,38.6,66.7,39.6,66.7,40.9z"></path></svg>