<svg xmlns="http://www.w3.org/2000/svg" xmlns:xlink="http://www.w3.org/1999/xlink" version="1.1" x="0px" y="0px" viewBox="0 0 100 100" style="enable-background:new 0 0 100 100;" xml:space="preserve"><g><path d="M91.4306641,56.039032c-0.0043945-0.2382812-0.0083008-0.4472656-0.0083008-0.6220703V34.4716492   c0-2.4013672-1.9541016-4.3554668-4.355957-4.3554668c-0.4763184,0-0.9266357,0.0958252-1.355957,0.2377319v-1.7728882   c0-2.4013672-1.9541016-4.3554688-4.3564453-4.3554688c-0.4763184,0-0.9266357,0.0958252-1.355957,0.2377319v-0.7015991   c0-2.4023438-1.9541016-4.3564453-4.355957-4.3564453c-2.2880249,0-4.1488037,1.7785034-4.3226929,4.022644   c-0.4389648-0.1491089-0.901001-0.24823-1.3897095-0.24823c-2.4018555,0-4.355957,1.9541016-4.355957,4.3564453v17.9892559   c0,0.7177734-0.2958984,1.4160156-0.8115234,1.9150391l-0.1461182,0.1413574l-4.243042-4.3601074   c-1.9150391-1.8730469-5.0126953-1.8564453-6.9077148,0.0371094c-0.9331055,0.9335938-1.4438477,2.1748047-1.4379883,3.4951172   c0.0063477,1.3203125,0.5283203,2.5566406,1.4702148,3.4814453c0.0332031,0.0322266,0.0678711,0.0634766,0.1040039,0.0927734   l1.7255859,1.4052734c1.496582,1.4980469,2.0356445,3.4355469,2.6318359,6.0009766   c1.8812866,8.0925293,5.5592041,11.0645142,8.3286133,12.1315918v15.0080566c0,0.828125,0.6713867,1.5,1.5,1.5   s1.5-0.671875,1.5-1.5V70.4415588c0.3046875-0.0021362,0.5008545-0.0249023,0.5483398-0.0314331   c0.8208008-0.1123047,1.3950195-0.8691406,1.2827148-1.6894531c-0.112793-0.8212891-0.8735352-1.3916016-1.6899414-1.2832031   c-0.0615234,0.0058594-5.9746094,0.6845703-8.5478516-10.3828125c-0.5458984-2.3505859-1.2255859-5.2753906-3.4985352-7.5087891   c-0.0332031-0.0322266-0.0683594-0.0634766-0.1044922-0.0927734l-1.7207031-1.4013672   c-0.3398438-0.3544922-0.5273438-0.8173828-0.5297852-1.3115234c-0.0024414-0.5136719,0.1967773-0.9970703,0.5595703-1.3603516   c0.7368164-0.7363281,1.9423828-0.7431641,2.6616211-0.0400391l6.8574219,7.046875   c0.5791016,0.5957031,1.5283203,0.6064453,2.1210938,0.0292969c0.59375-0.578125,0.6069336-1.5273438,0.0292969-2.1210938   l-0.5481567-0.5632935l0.1404419-0.1359253c1.0961914-1.0615234,1.7250977-2.5449219,1.7250977-4.0703125V27.5361042   c0-0.7480469,0.6083984-1.3564453,1.355957-1.3564453s1.355957,0.6083984,1.355957,1.3564453v5.4746075v13.9570312   c0,0.828125,0.6713867,1.5,1.5,1.5s1.5-0.671875,1.5-1.5V33.0107117v-5.4746075v-3.7744141   c0-0.7480469,0.6083984-1.3564453,1.3564453-1.3564453c0.7475586,0,1.355957,0.6083984,1.355957,1.3564453v4.8193359v0.6542969   v17.73242c0,0.828125,0.6713867,1.5,1.5,1.5s1.5-0.671875,1.5-1.5v-17.73242v-0.6542969   c0-0.7470703,0.6083984-1.3554688,1.355957-1.3554688c0.7480469,0,1.3564453,0.6083984,1.3564453,1.3554688v5.4746075   c0,0.0714111,0.0113525,0.1396484,0.0209961,0.208374c-0.0033569,0.0702515-0.0209961,0.1365356-0.0209961,0.2076416v14.4589844   c0,0.828125,0.6713867,1.5,1.5,1.5s1.5-0.671875,1.5-1.5V34.4716492c0-0.7470703,0.6083984-1.3554688,1.355957-1.3554688   s1.355957,0.6083984,1.355957,1.3554688v20.9453125c0,0.1904297,0.0039062,0.4179688,0.0087891,0.6767578   c0.0410156,2.2675781,0.1269531,6.9873047-2.3764648,9.5371094c-1.1850586,1.2060547-2.8198242,1.7929688-4.9980469,1.7929688   c-0.8286133,0-1.5,0.671875-1.5,1.5s0.6713867,1.5,1.5,1.5c0.6824341,0,1.3304443-0.0533447,1.9511719-0.1477661v14.8352661   c0,0.828125,0.6713867,1.5,1.5,1.5s1.5-0.671875,1.5-1.5V69.3371277c0.8132935-0.416748,1.5447998-0.9502563,2.1875-1.6047363   C91.5805664,64.2851257,91.4790039,58.7157898,91.4306641,56.039032z"></path><path d="M71.2641602,55.4403992c-0.6831055-0.4580078-1.6020508-0.2792969-2.0683594,0.3984375   s-0.293457,1.609375,0.3803711,2.0820312c0.1176758,0.0820312,2.8798828,2.0732422,2.8798828,6.6777344   c0,0.828125,0.6713867,1.5,1.5,1.5s1.5-0.671875,1.5-1.5C75.4560547,58.3388367,71.4355469,55.5566101,71.2641602,55.4403992z"></path><path d="M38.0722656,43.2480164l-4.2174072,4.3339233l-0.1453857-0.140564c-0.5161133-0.5-0.8120117-1.1982422-0.8120117-1.9160156   V27.5361042c0-2.4023438-1.9541016-4.3564453-4.355957-4.3564453c-0.4888916,0-0.9511108,0.0991211-1.3901978,0.248291   c-0.1738892-2.2442627-2.0346069-4.0227051-4.3222046-4.0227051c-2.4018555,0-4.355957,1.9541016-4.355957,4.3564453v0.7015991   c-0.4293213-0.1419067-0.8796387-0.2377319-1.355957-0.2377319c-2.4023438,0-4.3564453,1.9541016-4.3564453,4.3554688v1.7728882   c-0.4293213-0.1419067-0.8796387-0.2377319-1.355957-0.2377319c-2.4018555,0-4.355957,1.9540997-4.355957,4.3554668v20.9453125   c0,0.1748047-0.0039062,0.3837891-0.0083008,0.6220703c-0.0483398,2.6767578-0.1499023,8.2460938,3.2353516,11.6933594   c0.6427002,0.65448,1.3742065,1.1879883,2.1875,1.6047363v15.7741699c0,0.828125,0.6713867,1.5,1.5,1.5s1.5-0.671875,1.5-1.5   V70.2760315c0.6207275,0.0944214,1.2687378,0.1477661,1.9511719,0.1477661c0.8286133,0,1.5-0.671875,1.5-1.5   s-0.6713867-1.5-1.5-1.5c-2.1782227,0-3.8129883-0.5869141-4.9980469-1.7929688   c-2.503418-2.5498047-2.4174805-7.2695312-2.3764648-9.5371094c0.0048828-0.2587891,0.0087891-0.4863281,0.0087891-0.6767578   V34.4716492c0-0.7470703,0.6083984-1.3554688,1.355957-1.3554688s1.355957,0.6083984,1.355957,1.3554688v14.4589844   c0,0.828125,0.6713867,1.5,1.5,1.5s1.5-0.671875,1.5-1.5V34.4716492c0-0.071106-0.0176392-0.1373901-0.0209961-0.2076416   c0.0096436-0.0687256,0.0209961-0.1369629,0.0209961-0.208374v-5.4746075c0-0.7470703,0.6083984-1.3554688,1.3564453-1.3554688   c0.7475586,0,1.355957,0.6083984,1.355957,1.3554688v0.6542969v17.73242c0,0.828125,0.6713867,1.5,1.5,1.5s1.5-0.671875,1.5-1.5   v-17.73242v-0.6542969v-4.8193359c0-0.7480469,0.6083984-1.3564453,1.355957-1.3564453s1.355957,0.6083984,1.355957,1.3564453   v3.7744141v5.4746075v13.9570312c0,0.828125,0.6713867,1.5,1.5,1.5s1.5-0.671875,1.5-1.5V33.0107117v-5.4746075   c0-0.7480469,0.6083984-1.3564453,1.3564453-1.3564453c0.7475586,0,1.355957,0.6083984,1.355957,1.3564453v17.9892559   c0,1.5253906,0.6289062,3.0087891,1.7255859,4.0712891l0.1397095,0.1351929l-0.5479126,0.5630493   c-0.5776367,0.59375-0.5644531,1.5429688,0.0292969,2.1210938c0.5942383,0.5771484,1.5424805,0.5664062,2.1210938-0.0292969   l6.831543-7.0205078c0.7436523-0.7294922,1.9501953-0.7246094,2.6870117,0.0136719   c0.3632812,0.3632812,0.5625,0.8466797,0.5600586,1.3603516c-0.0024414,0.4941406-0.1899414,0.9570312-0.5297852,1.3115234   l-1.7207031,1.4013672c-0.0361328,0.0292969-0.0708008,0.0605469-0.1044922,0.0927734   c-2.2719727,2.2314453-2.9526367,5.1582031-3.4990234,7.5087891c-2.5258789,10.8652344-8.2807617,10.4130859-8.5654297,10.3808594   c-0.8120117-0.1015625-1.5595703,0.4707031-1.671875,1.2851562c-0.1123047,0.8203125,0.4619141,1.5771484,1.2827148,1.6894531   c0.0474854,0.0065308,0.2436523,0.0292969,0.5483398,0.0314331v14.4324341c0,0.828125,0.6713867,1.5,1.5,1.5s1.5-0.671875,1.5-1.5   V69.8659973c2.7694092-1.0670166,6.4471436-4.0389404,8.328125-12.1316528   c0.5966797-2.5654297,1.1367188-4.5029297,2.6323242-6.0009766l1.7255859-1.4052734   c0.0361328-0.0292969,0.0708008-0.0605469,0.1040039-0.0927734c0.9418945-0.9248047,1.4638672-2.1611328,1.4702148-3.4814453   c0.0058594-1.3203125-0.5048828-2.5615234-1.4384766-3.4951172C43.1113281,41.3661804,40.0131836,41.3486023,38.0722656,43.2480164   z"></path><path d="M28.8935547,57.9218445c0.6787109-0.4648438,0.8564453-1.3916016,0.3955078-2.0761719   c-0.4619141-0.6865234-1.3945312-0.8662109-2.0820312-0.4052734c-0.1713867,0.1162109-4.1918945,2.8984375-4.1918945,9.1582031   c0,0.828125,0.6713867,1.5,1.5,1.5s1.5-0.671875,1.5-1.5C26.0151367,60.0126648,28.7543945,58.0195007,28.8935547,57.9218445z"></path></g></svg>