<svg xmlns="http://www.w3.org/2000/svg" xmlns:xlink="http://www.w3.org/1999/xlink" version="1.1" x="0px" y="0px" viewBox="0 0 100 100" style="enable-background:new 0 0 100 100;" xml:space="preserve"><path d="M93.9,34.8H72.7L55.8,15.9c-0.2-0.2-0.4-0.3-0.7-0.4c-0.3,0-0.6,0.1-0.8,0.3L33,34.8h-27c-0.6,0-1.1,0.5-1.1,1.1v47.6  c0,0.6,0.5,1.1,1.1,1.1h87.9c0.6,0,1.1-0.5,1.1-1.1V35.8C95,35.3,94.5,34.8,93.9,34.8z M54.9,18.1l16,18L61,44.9l-4.4,3.9  c-0.1,0.1-0.1,0.1-0.1,0.2H36c0-0.1-0.1-0.2-0.1-0.3L32.5,45l-3.4-3.8L54.9,18.1z M62.1,46.7h15.4V49H59.6L62.1,46.7z M31.2,46.7  l2,2.3H22.5v-2.3H31.2z M30.7,36.9l-3.8,3.4c-0.4,0.4-0.5,1.1-0.1,1.5l2.5,2.9h-7.9c-0.6,0-1.1,0.5-1.1,1.1V50  c0,0.6,0.5,1.1,1.1,1.1h57c0.6,0,1.1-0.5,1.1-1.1v-4.4c0-0.6-0.5-1.1-1.1-1.1h-14l8.7-7.7c0,0,0,0,0,0h19.8v21.7H7.1V36.9H30.7z   M7.1,82.4V60.7h85.8v21.7H7.1z"></path></svg>