<svg xmlns="http://www.w3.org/2000/svg" viewBox="0 0 32.4 61.5"><path d="M28.3 6.8H28a4.2 4.2 0 00-1.3.2v-.3a4 4 0 00-4-4h-.3a4 4 0 00-1.5.2A4.1 4.1 0 0017 0h-.3a4.1 4.1 0 00-4 3.3 4 4 0 00-1.3-.2H11A4 4 0 007 7v13a4 4 0 00-5.6.2l-.2.2a4 4 0 000 5.8l7 6.8 2.2 2.3a3.9 3.9 0 011.2 3v4.3a5.8 5.8 0 012.8-.3v-4a6.6 6.6 0 00-2-5l-2.4-2-6.9-6.8a1.4 1.4 0 010-2l.2-.1a1.4 1.4 0 012 0l2 2.1a1.4 1.4 0 002.4-1V7.2a1.4 1.4 0 011.4-1.4h.2a1.4 1.4 0 011.3 1v13a1.4 1.4 0 102.8 0V4a1.4 1.4 0 011.3-1.4h.3A1.4 1.4 0 0118.4 4v15.7a1.4 1.4 0 002.7 0V6.5a1.4 1.4 0 011.3-1.2h.3A1.4 1.4 0 0124 6.7V19a1.4 1.4 0 102.7 0v-8.6a1.4 1.4 0 011.3-.8h.3a1.4 1.4 0 011.3 1.3v17.5a4.8 4.8 0 01-1.4 3.5l-1 1a7.5 7.5 0 00-2 5.3V43h.4a5.6 5.6 0 012.2.4v-5.3a4.8 4.8 0 011.4-3.5l1-1a7.5 7.5 0 002.1-5.3V11a4.1 4.1 0 00-4-4z" fill="#333"/><path fill="none" stroke="#333" stroke-width="3" d="M9.3 42.4H29v17.7H9.3z"/></svg>
