<svg xmlns="http://www.w3.org/2000/svg" xmlns:xlink="http://www.w3.org/1999/xlink" version="1.1" x="0px" y="0px" viewBox="0 0 512 512" enable-background="new 0 0 512 512" xml:space="preserve"><g><rect x="216" y="192" width="16" height="128"></rect></g><g><rect x="128" y="280" width="128" height="16"></rect></g><g><rect x="152" y="192" width="16" height="128"></rect></g><g><rect x="128" y="216" width="128" height="16"></rect></g><g><path d="M328,424H56V88h272V424z M72,408h240V104H72V408z"></path></g><g><polygon points="392,392 352,392 352,376 376,376 376,136 352,136 352,120 392,120  "></polygon></g><g><polygon points="456,360 416,360 416,344 440,344 440,168 416,168 416,152 456,152  "></polygon></g></svg>