<svg xmlns="http://www.w3.org/2000/svg" viewBox="0 0 60 48"><defs><style>.cls-1,.cls-2{fill:#525252;}.cls-2{font-size:20px;font-family:RobotoSlab-Regular, Roboto Slab;}</style></defs><title>missing-excerpt</title><g id="Layer_2" data-name="Layer 2"><g id="Layer_1-2" data-name="Layer 1"><path class="cls-1" d="M59,12H58V7a.94.94,0,0,0-1-1H29.4L23.7.3A.91.91,0,0,0,23,0H3A.94.94,0,0,0,2,1V6H1A.94.94,0,0,0,0,7V47a.94.94,0,0,0,1,1H59a.94.94,0,0,0,1-1V13A.94.94,0,0,0,59,12ZM4,2H22.6l5.7,5.7A.91.91,0,0,0,29,8H56v4H25.4L19.7,6.3A.91.91,0,0,0,19,6H4ZM58,46H2V8H18.6l5.7,5.7a.91.91,0,0,0,.7.3H58Z"/><text class="cls-2" transform="translate(25.35 37.25)">?</text></g></g></svg>