<svg xmlns="http://www.w3.org/2000/svg" xmlns:xlink="http://www.w3.org/1999/xlink" version="1.1" x="0px" y="0px" viewBox="0 0 32 32" enable-background="new 0 0 32 32" xml:space="preserve"><g><g><path fill="#000000" d="M16,31.3c-4.1,0-7.9-1.6-10.8-4.5S0.8,20.1,0.8,16S2.3,8.1,5.2,5.2S11.9,0.8,16,0.8s7.9,1.6,10.8,4.5    s4.5,6.7,4.5,10.8s-1.6,7.9-4.5,10.8C23.9,29.7,20.1,31.3,16,31.3z M16,2.3c-3.7,0-7.1,1.4-9.7,4s-4,6.1-4,9.7    c0,3.7,1.4,7.1,4,9.7s6,4,9.7,4s7.1-1.4,9.7-4s4-6,4-9.7s-1.4-7.1-4-9.7S19.7,2.3,16,2.3z"></path></g><g><rect x="1.7" y="15.2" transform="matrix(-0.6001 -0.7999 0.7999 -0.6001 12.8815 38.384)" fill="#000000" width="28.6" height="1.5"></rect></g></g></svg>