<?xml version="1.0" encoding="UTF-8"?><svg id="Layer_2" xmlns="http://www.w3.org/2000/svg" viewBox="0 0 71.34 63.6"><defs><style>.cls-1{fill:none;stroke:#000;stroke-miterlimit:10;stroke-width:3px;}.cls-2{stroke-width:0px;}</style></defs><g id="Layer_1-2"><path class="cls-2" d="m8,48.2h8.7v15.4l15.7-15.4h31c4.4,0,7.9-3.6,7.9-7.9v-2.7s.08-24.86.02-28.24-.18-9.03-9.15-9.36C55.96,0,7.9.1,7.9.1,5.7.1,3.7,1,2.3,2.4c-.2.2-.4.4-.5.6-1.1,1.4-1.8,3.1-1.8,5v32.3c0,4.4,3.6,7.9,8,7.9ZM3,8c0-1,.3-2,.8-2.8.9-1.3,2.4-2.2,4.1-2.2h55.5c2.7,0,4.9,2.2,4.9,4.9v32.4c0,2.7-2.2,4.9-4.9,4.9H31.2l-.9.9-10.7,10.4v-8.3h0v-3H7.9c-2.7,0-4.9-2.2-4.9-4.9,0,0,0-32.3,0-32.3Z"/><line class="cls-1" x1="8.22" y1="12.62" x2="61.43" y2="12.62"/><line class="cls-1" x1="8.22" y1="23.6" x2="61.43" y2="23.6"/><line class="cls-1" x1="8.22" y1="35.25" x2="61.43" y2="35.25"/></g></svg>