<svg xmlns:dc="http://purl.org/dc/elements/1.1/" xmlns:cc="http://creativecommons.org/ns#" xmlns:rdf="http://www.w3.org/1999/02/22-rdf-syntax-ns#" xmlns:svg="http://www.w3.org/2000/svg" xmlns="http://www.w3.org/2000/svg" xmlns:sodipodi="http://sodipodi.sourceforge.net/DTD/sodipodi-0.dtd" xmlns:inkscape="http://www.inkscape.org/namespaces/inkscape" viewBox="0 0 32 32.000001" version="1.1" x="0px" y="0px"><g transform="translate(0,-1020.3622)"><path style="color:#fff;font-style:normal;font-variant:normal;font-weight:normal;font-stretch:normal;font-size:medium;line-height:normal;font-family:sans-serif;text-indent:0;text-align:start;text-decoration:none;text-decoration-line:none;text-decoration-style:solid;text-decoration-color:#fff;letter-spacing:normal;word-spacing:normal;text-transform:none;direction:ltr;block-progression:tb;writing-mode:lr-tb;baseline-shift:baseline;text-anchor:start;white-space:normal;clip-rule:nonzero;display:inline;overflow:visible;visibility:visible;opacity:1;isolation:auto;mix-blend-mode:normal;color-interpolation:sRGB;color-interpolation-filters:linearRGB;solid-color:#fff;solid-opacity:1;fill:#fff;fill-opacity:1;fill-rule:evenodd;stroke:none;stroke-width:0.99999988px;stroke-linecap:round;stroke-linejoin:round;stroke-miterlimit:4;stroke-dasharray:none;stroke-dashoffset:0;stroke-opacity:1;color-rendering:auto;image-rendering:auto;shape-rendering:auto;text-rendering:auto;enable-background:accumulate" d="M 15.990234 1.4609375 C 14.478678 1.4609375 13.249994 2.7101687 13.25 4.2304688 C 13.249997 4.936259 13.522047 5.5753362 13.957031 6.0664062 C 12.280681 6.3806854 11 7.8087732 11 9.5371094 L 11 11.486328 A 0.50004994 0.50004994 0 0 0 11.5 11.986328 L 13.382812 11.986328 A 0.50004994 0.50004994 0 0 0 13.613281 11.986328 L 18.382812 11.986328 A 0.50004994 0.50004994 0 0 0 18.613281 11.986328 L 20.5 11.986328 A 0.50004994 0.50004994 0 0 0 21 11.486328 L 21 9.5371094 C 21 7.8028839 19.710155 6.3721625 18.025391 6.0644531 C 18.459883 5.5736008 18.732425 4.9354005 18.732422 4.2304688 C 18.732428 2.7101687 17.501791 1.4609375 15.990234 1.4609375 z M 15.990234 2.4609375 C 16.954576 2.4609375 17.732426 3.2438687 17.732422 4.2304688 C 17.732426 5.2170687 16.954576 6 15.990234 6 C 15.025892 6 14.249996 5.2170688 14.25 4.2304688 C 14.249996 3.2438688 15.025892 2.4609375 15.990234 2.4609375 z M 19.392578 3.4609375 L 19.142578 4.4296875 L 19.560547 4.5371094 L 20.673828 4.9433594 L 20.929688 5.0683594 L 21.365234 4.1660156 L 21.082031 4.03125 L 21.037109 4.0117188 L 19.888672 3.5917969 L 19.841797 3.5761719 L 19.392578 3.4609375 z M 12.216797 3.5761719 L 11.699219 3.7285156 L 11.662109 3.7421875 L 10.767578 4.0976562 L 10.730469 4.1132812 L 10.285156 4.3320312 L 10.724609 5.2304688 L 11.152344 5.0195312 L 11.992188 4.6855469 L 12.003906 4.6855469 L 12.509766 4.53125 L 12.216797 3.5761719 z M 22.302734 4.6347656 L 21.783203 5.4863281 L 22.714844 6.0527344 L 23.40625 6.5703125 L 24.003906 5.7695312 L 23.289062 5.2324219 L 23.248047 5.2089844 L 22.302734 4.6347656 z M 9.3730469 4.8222656 L 9.0175781 5.03125 L 8.984375 5.0527344 L 8.2050781 5.59375 L 8.1757812 5.6171875 L 7.6796875 6.0195312 L 8.3105469 6.7949219 L 8.7910156 6.4042969 L 9.5234375 5.8945312 L 9.5390625 5.8847656 L 9.8789062 5.6835938 L 9.3730469 4.8222656 z M 24.800781 6.4511719 L 24.126953 7.1894531 L 24.484375 7.5136719 L 25.265625 8.375 L 25.419922 8.5820312 L 26.222656 7.9824219 L 26.046875 7.7480469 L 26.015625 7.7109375 L 25.208984 6.8261719 L 25.175781 6.7929688 L 24.800781 6.4511719 z M 6.9101562 6.71875 L 6.7246094 6.890625 L 6.6992188 6.9179688 L 6.0625 7.6171875 L 6.0371094 7.6464844 L 5.546875 8.2773438 L 6.3359375 8.890625 L 6.8027344 8.2910156 L 6.8066406 8.2910156 L 7.4296875 7.6035156 L 7.4394531 7.59375 L 7.5976562 7.4453125 L 6.9101562 6.71875 z M 14.650391 7 L 17.349609 7 C 18.836483 7 20 8.1338094 20 9.5371094 L 20 10.986328 L 18.998047 10.986328 L 18.998047 9.4335938 A 0.50004994 0.50004994 0 0 0 18.492188 8.9257812 A 0.50004994 0.50004994 0 0 0 17.998047 9.4335938 L 17.998047 10.986328 L 13.998047 10.986328 L 13.998047 9.4335938 A 0.50004994 0.50004994 0 0 0 13.492188 8.9257812 A 0.50004994 0.50004994 0 0 0 12.998047 9.4335938 L 12.998047 10.986328 L 12 10.986328 L 12 9.5371094 C 12 8.1338094 13.163518 7 14.650391 7 z M 26.839844 8.828125 L 25.986328 9.3476562 L 26.550781 10.279297 L 26.925781 11.056641 L 27.826172 10.621094 L 27.441406 9.8242188 L 27.417969 9.78125 L 26.839844 8.828125 z M 4.9628906 9.1308594 L 4.9082031 9.2167969 L 4.8886719 9.25 L 4.421875 10.082031 L 4.4042969 10.115234 L 4.0078125 10.974609 L 4.9140625 11.394531 L 5.2949219 10.570312 L 5.3027344 10.556641 L 5.7402344 9.7695312 L 5.7460938 9.7597656 L 5.796875 9.6855469 L 4.9628906 9.1308594 z M 28.21875 11.59375 L 27.279297 11.9375 L 27.457031 12.419922 L 27.755859 13.580078 L 27.783203 13.765625 L 28.773438 13.615234 L 28.740234 13.404297 L 28.730469 13.355469 L 28.421875 12.158203 L 28.408203 12.109375 L 28.21875 11.59375 z M 3.6328125 11.986328 L 3.3730469 12.898438 L 3.3632812 12.935547 L 3.1699219 13.900391 L 3.1621094 13.939453 L 3.1542969 14.005859 L 4.1484375 14.125 L 4.15625 14.060547 L 4.3398438 13.150391 L 4.59375 12.261719 L 3.6328125 11.986328 z M 15.992188 12.957031 A 0.50005 0.50005 0 0 0 15.5 13.464844 L 15.5 17.224609 L 11.228516 20.082031 A 0.50005 0.50005 0 1 0 11.783203 20.912109 L 16.011719 18.083984 L 20.214844 20.912109 A 0.50023176 0.50023176 0 0 0 20.773438 20.082031 L 16.5 17.207031 L 16.5 13.464844 A 0.50005 0.50005 0 0 0 15.992188 12.957031 z M 28.923828 14.599609 L 28.011719 14.742188 L 27.935547 14.742188 L 27.935547 14.753906 L 27.998047 15.994141 L 27.939453 17.167969 L 28.939453 17.21875 L 29 16.019531 L 28.5 15.996094 L 29 15.970703 L 28.935547 14.691406 L 28.929688 14.640625 L 28.923828 14.599609 z M 3.0371094 15.039062 L 3 15.978516 L 3 16.023438 L 3.0546875 17.082031 L 4.0527344 17.03125 L 4.0019531 15.994141 L 4.0371094 15.080078 L 3.0371094 15.039062 z M 4.1757812 17.974609 L 3.1875 18.123047 L 3.2597656 18.59375 L 3.2695312 18.644531 L 3.578125 19.839844 L 3.5917969 19.890625 L 3.6914062 20.160156 L 4.6308594 19.816406 L 4.5429688 19.578125 L 4.2441406 18.417969 L 4.1757812 17.974609 z M 27.802734 18.111328 L 27.755859 18.416016 L 27.457031 19.578125 L 27.322266 19.945312 L 28.259766 20.289062 L 28.408203 19.888672 L 28.421875 19.839844 L 28.730469 18.642578 L 28.740234 18.59375 L 28.791016 18.261719 L 27.802734 18.111328 z M 6.9921875 19.460938 C 5.480631 19.460938 4.2499942 20.710169 4.25 22.230469 C 4.2499973 22.936386 4.5234099 23.575304 4.9589844 24.066406 C 3.2817088 24.379967 2 25.808126 2 27.537109 L 2 29.486328 A 0.50004994 0.50004994 0 0 0 2.5 29.986328 L 4.3828125 29.986328 A 0.50004994 0.50004994 0 0 0 4.6152344 29.986328 L 9.3828125 29.986328 A 0.50004994 0.50004994 0 0 0 9.6152344 29.986328 L 11.501953 29.986328 A 0.50004994 0.50004994 0 0 0 12.001953 29.486328 L 12.001953 27.537109 C 12.001953 25.802884 10.712108 24.372162 9.0273438 24.064453 C 9.4618356 23.573601 9.7343777 22.9354 9.734375 22.230469 C 9.7343808 20.710169 8.503744 19.460938 6.9921875 19.460938 z M 24.990234 19.460938 C 23.478678 19.460938 22.248041 20.710169 22.248047 22.230469 C 22.248044 22.936386 22.521457 23.575304 22.957031 24.066406 C 21.279755 24.379967 19.998047 25.808126 19.998047 27.537109 L 19.998047 29.486328 A 0.50004994 0.50004994 0 0 0 20.498047 29.986328 L 22.382812 29.986328 A 0.50004994 0.50004994 0 0 0 22.613281 29.986328 L 27.382812 29.986328 A 0.50004994 0.50004994 0 0 0 27.613281 29.986328 L 29.5 29.986328 A 0.50004994 0.50004994 0 0 0 30 29.486328 L 30 27.537109 C 30 25.802884 28.710155 24.372162 27.025391 24.064453 C 27.459883 23.573601 27.732425 22.9354 27.732422 22.230469 C 27.732428 20.710169 26.501791 19.460938 24.990234 19.460938 z M 6.9921875 20.460938 C 7.9565295 20.460938 8.7343787 21.243869 8.734375 22.230469 C 8.7343787 23.217069 7.9565295 24 6.9921875 24 C 6.0278455 24 5.2499963 23.217069 5.25 22.230469 C 5.2499963 21.243869 6.0278455 20.460938 6.9921875 20.460938 z M 24.990234 20.460938 C 25.954577 20.460938 26.732426 21.243869 26.732422 22.230469 C 26.732426 23.217069 25.954577 24 24.990234 24 C 24.025892 24 23.248043 23.217069 23.248047 22.230469 C 23.248043 21.243869 24.025892 20.460938 24.990234 20.460938 z M 5.6503906 25 L 8.3515625 25 C 9.838436 25 11.001953 26.133809 11.001953 27.537109 L 11.001953 28.986328 L 10 28.986328 L 10 27.433594 A 0.50004994 0.50004994 0 0 0 9.4921875 26.927734 A 0.50004994 0.50004994 0 0 0 9 27.433594 L 9 28.986328 L 5 28.986328 L 5 27.433594 A 0.50004994 0.50004994 0 0 0 4.4921875 26.927734 A 0.50004994 0.50004994 0 0 0 4 27.433594 L 4 28.986328 L 3 28.986328 L 3 27.537109 C 3 26.133809 4.1635175 25 5.6503906 25 z M 23.648438 25 L 26.349609 25 C 27.836482 25 29 26.133809 29 27.537109 L 29 28.986328 L 27.998047 28.986328 L 27.998047 27.433594 A 0.50004994 0.50004994 0 0 0 27.490234 26.925781 A 0.50004994 0.50004994 0 0 0 26.998047 27.433594 L 26.998047 28.986328 L 22.998047 28.986328 L 22.998047 27.433594 A 0.50004994 0.50004994 0 0 0 22.490234 26.925781 A 0.50004994 0.50004994 0 0 0 21.998047 27.433594 L 21.998047 28.986328 L 20.998047 28.986328 L 20.998047 27.537109 C 20.998047 26.133809 22.161564 25 23.648438 25 z M 12.417969 26.859375 L 12.240234 27.847656 L 12.873047 28.029297 L 12.910156 28.039062 L 13.875 28.234375 L 13.914062 28.244141 L 13.980469 28.253906 L 14.101562 27.259766 L 14.037109 27.25 L 13.126953 27.064453 L 12.417969 26.859375 z M 19.554688 26.873047 L 18.392578 27.167969 L 17.949219 27.236328 L 18.097656 28.226562 L 18.568359 28.154297 L 18.617188 28.144531 L 19.816406 27.837891 L 19.865234 27.824219 L 19.554688 26.873047 z M 17.007812 27.357422 L 15.970703 27.40625 L 15.056641 27.369141 L 15.013672 28.369141 L 15.953125 28.408203 L 15.998047 28.408203 L 17.056641 28.355469 L 17.007812 27.357422 z " transform="translate(0,1020.3622)"></path></g></svg>
