<svg fill="#FF5E41" xmlns="http://www.w3.org/2000/svg" xmlns:xlink="http://www.w3.org/1999/xlink" version="1.1" x="0px" y="0px" viewBox="0 0 595.28 596" enable-background="new 0 0 595.28 596" xml:space="preserve"><path d="M368.833,215.033l-7.83-10.444l-15.912,23.992c-11.427-18.956-36.647-51.294-81.977-66.557l-22.394-7.524l11.397,20.713  c0.138,0.252,11.984,22.146,9.867,46.072l-36.091-21.313l4.264,20.42c0.09,0.432,8.687,42.506,0.784,82.254  c-1.012,0.845-2.391,1.582-4.268,1.582c-2.865,0-9.184-1.684-19.264-12.979l-13.271-14.869l-2.723,19.748  c-0.132,0.979-12.613,98.477,63.105,134.442c13.98,7.146,30.294,10.929,47.182,10.929h0.006c30.485,0,58.819-12.087,77.728-33.153  c19.706-21.948,28.142-52.2,24.406-87.5C403.7,314.769,401.481,258.575,368.833,215.033z"></path></svg>