<?xml version="1.0" encoding="UTF-8"?>
<svg width="24px" height="24px" viewBox="0 0 24 24" version="1.1" xmlns="http://www.w3.org/2000/svg" xmlns:xlink="http://www.w3.org/1999/xlink">
    <!-- Generator: Sketch 43.2 (39069) - http://www.bohemiancoding.com/sketch -->
    <title>search</title>
    <desc>Created with Sketch.</desc>
    <defs></defs>
    <g id="Page-1" stroke="none" stroke-width="1" fill="none" fill-rule="evenodd">
        <g id="search">
            <g id="background">
                <rect id="canvas_background" x="0" y="0" width="24" height="24"></rect>
            </g>
            <g id="Layer-1" transform="translate(0.470588, 0.470588)" fill-rule="nonzero" fill="#197197">
                <path d="M23.5294118,21.7070581 L16.1503529,14.3277649 C17.3037647,12.7882348 17.9284704,10.9258826 17.9284704,8.96776424 C17.9284704,6.57247059 16.9952948,4.32117624 15.3018816,2.62752918 C13.6087064,0.933646824 11.357412,0.00117623529 8.96164753,0.00117623529 C6.56658847,0.00117623529 4.31505906,0.933646824 2.62164706,2.62752918 C-0.873882353,6.12305882 -0.873882353,11.8115294 2.62117647,15.3075289 C4.31482329,17.0014106 6.56635271,17.9341176 8.96141129,17.9341176 C10.9232939,17.9341176 12.7882348,17.3075289 14.3296471,16.1503527 L21.7075301,23.5282358 L23.5294115,21.7070581 L23.5294118,21.7070581 Z M8.96117624,15.5981176 C7.19035294,15.5981176 5.52494141,14.9084706 4.27247082,13.6564708 C3.02,12.4039998 2.33035294,10.7385882 2.33035294,8.96729412 C2.33035294,7.196 3.02023529,5.53105882 4.27270588,4.27858824 C5.52517647,3.02658824 7.190588,2.33694118 8.96141129,2.33694118 C10.7329414,2.33694118 12.3981179,3.02658824 13.6498826,4.27882329 C16.2352941,6.864 16.2352941,11.0710584 13.6498826,13.6564706 C12.3976468,14.9084704 10.7329416,15.5981174 8.96117624,15.5981174 L8.96117624,15.5981176 Z" id="Shape"></path>
            </g>
        </g>
    </g>
</svg>