<svg xmlns:dc="http://purl.org/dc/elements/1.1/" xmlns:cc="http://creativecommons.org/ns#" xmlns:rdf="http://www.w3.org/1999/02/22-rdf-syntax-ns#" xmlns:svg="http://www.w3.org/2000/svg" xmlns="http://www.w3.org/2000/svg" xmlns:sodipodi="http://sodipodi.sourceforge.net/DTD/sodipodi-0.dtd" xmlns:inkscape="http://www.inkscape.org/namespaces/inkscape" version="1.1" x="0px" y="0px" viewBox="0 0 100 100"><g transform="translate(0,-952.36218)"><path style="font-size:medium;font-style:normal;font-variant:normal;font-weight:normal;font-stretch:normal;text-indent:0;text-align:start;text-decoration:none;line-height:normal;letter-spacing:normal;word-spacing:normal;text-transform:none;direction:ltr;block-progression:tb;writing-mode:lr-tb;text-anchor:start;baseline-shift:baseline;opacity:1;color:#000000;fill:#000000;fill-opacity:1;stroke:none;stroke-width:3.33333324999999990;marker:none;visibility:visible;display:inline;overflow:visible;enable-background:accumulate;font-family:Sans;-inkscape-font-specification:Sans" d="M 7.84375 5.96875 C 7.0908276 6.02005 6.3985264 6.54665 6.125 7.25 C 5.8514736 7.95335 6.0107985 8.79726 6.53125 9.34375 L 29.4375 34 L 20 34 A 2.0002 2.0002 0 1 0 20 38 L 34 38 A 2.0002 2.0002 0 0 0 36 36 L 36 22 A 2.0002 2.0002 0 0 0 33.78125 19.96875 A 2.0002 2.0002 0 0 0 32 22 L 32 30.875 L 9.46875 6.625 C 9.0639259 6.17583 8.4469653 5.92667 7.84375 5.96875 z M 91.875 5.96875 C 91.365408 6.00505 90.873224 6.24545 90.53125 6.625 L 68 30.875 L 68 22 A 2.0002 2.0002 0 0 0 65.78125 19.96875 A 2.0002 2.0002 0 0 0 64 22 L 64 36 A 2.0002 2.0002 0 0 0 66 38 L 80 38 A 2.0002 2.0002 0 1 0 80 34 L 70.5625 34 L 93.46875 9.34375 C 94.02203 8.76336 94.186148 7.85008 93.84375 7.125 C 93.501352 6.39992 92.674719 5.91023 91.875 5.96875 z M 50 36 C 42.291703 36 36 42.29168 36 50 C 36 57.7083 42.291703 64 50 64 C 57.708297 64 64 57.7083 64 50 C 64 42.29168 57.708297 36 50 36 z M 50 40 C 55.546537 40 60 44.45344 60 50 C 60 55.5465 55.546537 60 50 60 C 44.453463 60 40 55.5465 40 50 C 40 44.45344 44.453463 40 50 40 z M 19.8125 62 A 2.0021961 2.0021961 0 1 0 20 66 L 29.40625 66 L 6.53125 90.625 C 5.8194698 91.394 5.8559643 92.75705 6.625 93.46875 C 7.3940357 94.18055 8.7569698 94.11275 9.46875 93.34375 L 32 69.09375 L 32 78 A 2.0002 2.0002 0 1 0 36 78 L 36 64 A 2.0002 2.0002 0 0 0 34 62 L 20 62 A 2.0002 2.0002 0 0 0 19.8125 62 z M 65.8125 62 A 2.0002 2.0002 0 0 0 64 64 L 64 78 A 2.0002 2.0002 0 1 0 68 78 L 68 69.09375 L 90.53125 93.34375 C 91.24303 94.11275 92.605965 94.18055 93.375 93.46875 C 94.144036 92.75705 94.18053 91.394 93.46875 90.625 L 70.59375 66 L 80 66 A 2.0002 2.0002 0 1 0 80 62 L 66 62 A 2.0002 2.0002 0 0 0 65.8125 62 z " transform="translate(0,952.36218)"></path></g></svg>