<svg xmlns="http://www.w3.org/2000/svg" data-name="Layer 1" viewBox="0 0 436.22 236.24">
  <circle cx="135.58" cy="110.6" r="21.61" transform="rotate(-18 -40.15 229.78)"/>
  <circle cx="204.31" cy="126.07" r="21.61" transform="rotate(-72 148.24 133.1)"/>
  <circle cx="109.71" cy="108.81" r="21.61"/>
  <circle cx="67.05" cy="242.56" r="21.61" transform="rotate(-18 -108.69 361.76)"/>
  <circle cx="31.61" cy="141.06" r="21.61"/>
  <circle cx="236.48" cy="70.08" r="21.61" transform="rotate(-36 139.19 115.76)"/>
  <circle cx="263.48" cy="112.5" r="21.61" transform="rotate(-36 166.18 158.18)"/>
  <circle cx="124.96" cy="207.56" r="21.61" transform="rotate(-72 68.89 214.6)"/>
  <circle cx="112.65" cy="262.69" r="21.59" transform="rotate(-18.07 -62.45 381.36)"/>
  <circle cx="180.03" cy="82.24" r="21.61" transform="rotate(-36 82.73 127.92)"/>
  <circle cx="54.88" cy="98.35" r="21.61"/>
  <circle cx="391.51" cy="110.59" r="21.61" transform="rotate(-72 335.44 117.62)"/>
  <circle cx="322.78" cy="126.08" r="21.61" transform="rotate(-18 147.06 245.29)"/>
  <circle cx="326.52" cy="108.81" r="21.61"/>
  <circle cx="460.04" cy="242.56" r="21.61" transform="rotate(-72 403.96 249.6)"/>
  <circle cx="404.62" cy="141.06" r="21.61"/>
  <circle cx="290.62" cy="70.09" r="21.61" transform="rotate(-54 220.34 90.44)"/>
  <circle cx="402.13" cy="207.56" r="21.61" transform="rotate(-18 226.42 326.75)"/>
  <circle cx="414.59" cy="263.09" r="21.61" transform="rotate(-72 358.51 270.13)"/>
  <circle cx="347.07" cy="82.24" r="21.61" transform="rotate(-53.8 277.1 101.87)"/>
  <circle cx="381.35" cy="98.35" r="21.61"/>
  <path stroke="#000" stroke-width="9" d="M278.64 138.94a3.12 3.12 0 0 0-2.82-1.43 3.06 3.06 0 0 0-.91.19l-36.12 14.83c-5.6-2.25-12.37-4.34-19.8-4.34s-14.24 2.09-19.85 4.34l-29.65-12.14a4.52 4.52 0 0 1-1.43-.59l-5-2.06a3 3 0 0 0-3.76 1.19c-4.73 7.6-7.53 19.8-7.53 33.7s2.76 26.06 7.49 33.69a3.15 3.15 0 0 0 3.72 1.19l36.12-14.79a53.28 53.28 0 0 0 19.85 4.34c7.45 0 14.24-2.09 19.85-4.34l36.12 14.81a3.15 3.15 0 0 0 3.72-1.24c4.73-7.63 7.49-19.74 7.49-33.64s-2.76-26.12-7.49-33.71Zm-82.55 48.47-32.73 13.41c-3.13-6.33-5.44-16.48-5.44-28.15s2.29-21.82 5.41-28.15l32.71 13.4v11.69h-20.09a3.06 3.06 0 1 0 .09 6.12h20v11.69Zm39.66-.17c-5.07 2-10.76 3.72-16.8 3.72s-11.69-1.72-16.76-3.72v-29.2c5.07-2 10.76-3.73 16.8-3.73 6 0 11.73 1.74 16.8 3.72v29.18Zm38.82 13.53-32.73-13.41v-11.67h19.85a3.06 3.06 0 1 0 0-6.11h-19.8v-11.69l32.68-13.36c3.12 6.33 5.44 16.5 5.44 28.15s-2.3 21.75-5.44 28.09Z"/>
</svg>
