<svg xmlns="http://www.w3.org/2000/svg" viewBox="0 0 91 91"><path d="M37.21 67.765a5.394 5.394 0 0 1-7.62 0l-4.12-4.122a5.393 5.393 0 0 1 0-7.618l6.774-6.775-2.404-2.404-6.775 6.776c-3.424 3.427-3.424 9 0 12.426l4.12 4.123c1.714 1.713 3.966 2.57 6.216 2.57s4.5-.858 6.214-2.57l13.55-13.552a8.72 8.72 0 0 0 2.575-6.213 8.73 8.73 0 0 0-2.575-6.213l-4.123-4.12-2.404 2.404 4.123 4.12a5.352 5.352 0 0 1 1.58 3.81c0 1.438-.562 2.79-1.58 3.808l-13.55 13.55z"/><path d="M64.256 24.858a8.728 8.728 0 0 0-6.213-2.575h-.002a8.73 8.73 0 0 0-6.212 2.574l-13.55 13.55c-1.66 1.66-2.575 3.866-2.575 6.214s.914 4.556 2.574 6.216l4.12 4.12 2.405-2.403-4.12-4.12a5.357 5.357 0 0 1-1.58-3.812c0-1.437.562-2.79 1.58-3.808l13.55-13.55c1.018-1.02 2.37-1.58 3.81-1.58s2.792.562 3.81 1.58l4.12 4.12c2.1 2.1 2.1 5.518 0 7.617L59.2 45.775l2.404 2.404 6.775-6.777c3.426-3.427 3.426-9 0-12.426l-4.12-4.12z"/></svg>