<svg xmlns="http://www.w3.org/2000/svg" xmlns:xlink="http://www.w3.org/1999/xlink" version="1.1" x="0px" y="0px" viewBox="0 0 100 100" enable-background="new 0 0 100 100" xml:space="preserve"><path d="M69.708,93.583H12.674c-3.169,0-5.846-2.765-5.846-6.038V30.108c0-3.197,2.568-5.701,5.846-5.701h34.52  c0.677,0,1.225,0.548,1.225,1.225s-0.548,1.225-1.225,1.225h-34.52c-1.936,0-3.396,1.398-3.396,3.252v57.437  c0,1.945,1.555,3.589,3.396,3.589h57.034c1.85,0,3.473-1.677,3.473-3.589V52.472c0-0.677,0.548-1.225,1.225-1.225  s1.225,0.548,1.225,1.225v35.073C75.631,90.818,72.919,93.583,69.708,93.583z M20.035,81.132c-0.317,0-0.63-0.123-0.865-0.356  c-0.367-0.365-0.464-0.922-0.244-1.391l4.22-8.957c0.018-0.105,0.05-0.209,0.096-0.31l7.096-15.359  c0.044-0.103,0.104-0.2,0.178-0.29c0.027-0.033,0.056-0.064,0.086-0.095l42.654-42.901l2.647-2.695  c1.526-1.525,3.63-2.36,5.932-2.36c2.839,0,5.721,1.252,7.905,3.436c1.982,1.983,3.19,4.51,3.4,7.115  c0.212,2.624-0.611,5.009-2.317,6.714l-2.641,2.688c-0.004,0.004-0.008,0.008-0.012,0.012L45.273,69.048  c-0.029,0.029-0.06,0.059-0.093,0.085c-0.084,0.07-0.176,0.127-0.271,0.171L29.784,76.63c-0.042,0.021-0.085,0.038-0.128,0.054  c-0.022,0.012-0.045,0.023-0.069,0.035l-9.026,4.295C20.393,81.094,20.213,81.132,20.035,81.132z M24.754,72.764l-2.15,4.564  l4.55-2.165L24.754,72.764z M25.824,70.37l3.675,3.675l13.591-6.583l-0.362-3.402l-4.61-0.302c-1.034-0.068-1.875-0.863-2-1.892  l-0.599-4.917l-3.318-0.384L25.824,70.37z M45.064,62.851l0.284,2.667l40.224-40.007l-1.846-1.847L45.064,62.851z M38.521,61.329  l4.324,0.282l39.148-39.68l-4.454-4.454L38.055,57.499L38.521,61.329z M34.111,54.32l2.649,0.306c0.187,0.021,0.36,0.084,0.511,0.18  l38.536-39.061l-1.677-1.677L34.111,54.32z M75.852,12.325l11.447,11.447l1.784-1.815c1.197-1.197,1.768-2.896,1.615-4.792  c-0.163-2.026-1.119-4.008-2.69-5.58c-1.728-1.728-3.978-2.719-6.172-2.719c-1.648,0-3.137,0.581-4.192,1.636L75.852,12.325z"></path></svg>