<svg xmlns="http://www.w3.org/2000/svg" viewBox="0 0 100 100" fill="#000"><path d="M58.296 60.819a2.547 2.547 0 0 0 2.836 0c.873-.582 21.401-14.377 28.963-28.234a17.817 17.817 0 0 0 2.858-9.688C92.953 13.027 84.924 5 75.056 5c-7.257 0-12.631 6.021-15.341 9.167C57.004 11.021 51.631 5 44.375 5c-9.87 0-17.899 8.027-17.899 17.897 0 3.442.989 6.789 2.858 9.688 7.561 13.857 28.089 27.652 28.962 28.234zM44.375 10.112c5.112 0 9.388 4.975 11.687 7.648 1.428 1.662 2.215 2.579 3.653 2.579s2.225-.917 3.655-2.579c2.297-2.674 6.573-7.648 11.687-7.648 7.049 0 12.784 5.736 12.784 12.785 0 2.481-.721 4.896-2.083 6.979-.038.059-.075.12-.108.182-5.84 10.787-21.186 22.169-25.934 25.523-4.748-3.354-20.092-14.736-25.934-25.523a3.004 3.004 0 0 0-.108-.182 12.725 12.725 0 0 1-2.083-6.979c-.002-7.048 5.733-12.785 12.784-12.785z"/><path d="M90.461 60.201c-4.676-2.739-8.597 1.323-10.074 2.851-3.113 3.225-6.863 6.413-8.761 7.979a6.574 6.574 0 0 0-2.631-.575c-5.783-.311-14.897-1.354-17.178-2.71-2.451-1.457-4.414-2.88-6.145-4.134-4.975-3.606-8.903-6.452-18.686-6.452-2.836 0-5.322.786-7.727 1.548-2.468.782-4.8 1.521-7.613 1.521a5.63 5.63 0 0 0-5.625 5.625V80.17a5.63 5.63 0 0 0 5.625 5.625c5.348 0 13.709.275 15.554.891 3.325 1.108 11.118 5.729 13.84 7.415.035.021.07.043.105.062a6.67 6.67 0 0 0 3.23.837h26c2.752 0 5.811-2.546 6.872-4.307 3.409-5.657 15.633-21.05 15.756-21.205.11-.14.205-.29.284-.448 1.584-3.168.368-6.969-2.826-8.839zM70.374 89.885h-26c-.246 0-.489-.059-.706-.17-.961-.595-10.421-6.404-14.851-7.88-3.294-1.098-14.883-1.154-17.171-1.154a.512.512 0 0 1-.513-.511V65.853c0-.284.23-.513.513-.513 3.602 0 6.554-.935 9.155-1.758 2.222-.703 4.14-1.31 6.185-1.31 8.124 0 10.97 2.062 15.686 5.479 1.819 1.318 3.882 2.812 6.53 4.389 1.33.791 3.533 1.412 6.003 1.895 5.309 1.038 11.848 1.438 13.579 1.53.044.003.089.003.135.003a1.534 1.534 0 0 1 0 3.067c-.045 0-.089.003-.135.005l-19.348 1.018c-1.541-.056-5.177-2.631-7.592-4.339-.625-.444-1.235-.87-1.835-1.284-1.307-.904-2.555-1.716-3.697-2.287-1.263-.635-2.798-.12-3.429 1.143s-.12 2.799 1.143 3.431c1.317.657 3.04 1.878 4.865 3.17 3.835 2.716 7.459 5.282 10.597 5.282l.135-.003 19.373-1.021c3.631-.04 6.573-3.008 6.573-6.646a6.6 6.6 0 0 0-.425-2.341c2.051-1.699 5.745-4.866 8.924-8.156 2.178-2.256 3.047-2.44 3.812-1.992.678.398 1.175 1.175.913 1.954-1.699 2.145-12.558 15.899-15.924 21.486-.449.74-1.949 1.772-2.495 1.83z"/></svg>
