<?xml version="1.0" encoding="utf-8"?>
<!-- Generator: Adobe Illustrator 22.0.1, SVG Export Plug-In . SVG Version: 6.00 Build 0)  -->
<svg version="1.1" id="Layer_1" xmlns="http://www.w3.org/2000/svg" xmlns:xlink="http://www.w3.org/1999/xlink" x="0px" y="0px"
	 viewBox="0 0 100 100" style="enable-background:new 0 0 100 100;" xml:space="preserve">
<style type="text/css">
	.st0{fill:#D9776B;}
</style>
<path class="st0" d="M84.7,27.1h-10v3.6h8.2v34.6H56.5c-1.4,0-2.9,0.4-3.9,1.1V34.6c0-2.1,1.8-3.9,3.9-3.9h0.8v-3.6h-0.8
	c-2.3,0-4.4,1.1-5.7,2.6c-1.4-1.7-3.5-2.6-5.7-2.6H16.8c-1,0-1.8,0.8-1.8,1.8v43.9c0,1,0.8,1.8,1.8,1.8h67.9c1,0,1.8-0.8,1.8-1.8
	V28.9C86.5,27.9,85.7,27.1,84.7,27.1z M18.6,30.6H45c2.1,0,3.9,1.8,3.9,3.9v31.7c-1.2-0.7-2.5-1.1-3.9-1.1H18.6V30.6z M18.6,68.7H45
	c1.5,0,2.9,1,3.6,2.1h-30V68.7z M53,70.9c0.7-1.3,2-2.1,3.6-2.1h26.3v2.1H53z M60.8,47.6c0.2,0.1,0.5,0.1,0.7,0.1
	c0.4,0,0.8-0.1,1.2-0.4l3.3-2.9l3.3,2.9c0.5,0.5,1.3,0.5,1.9,0.2s1.1-1,1.1-1.7V25c0-1-0.8-1.8-1.8-1.8h-9.1c-1,0-1.8,0.8-1.8,1.8
	v21C59.7,46.7,60.2,47.3,60.8,47.6z M63.3,26.8h5.5v15.4l-1.5-1.3c-0.4-0.2-0.7-0.4-1.2-0.4s-0.8,0.1-1.2,0.4l-1.5,1.3V26.8z"/>
</svg>
