<?xml version="1.0" encoding="utf-8"?>
<!-- Generator: Adobe Illustrator 22.0.1, SVG Export Plug-In . SVG Version: 6.00 Build 0)  -->
<svg version="1.1" id="Layer_1" xmlns="http://www.w3.org/2000/svg" xmlns:xlink="http://www.w3.org/1999/xlink" x="0px" y="0px"
	 viewBox="0 0 100 100" style="enable-background:new 0 0 100 100;" xml:space="preserve">
<style type="text/css">
	.st0{fill:#857799;}
</style>
<path class="st0" d="M82.6,28.3H69.7v-6.8c0-3.3-2.7-5.9-5.9-5.9H37.5c-3.3,0-5.9,2.7-5.9,5.9v6.8H18.7c-3.3,0-5.9,2.7-5.9,5.9V80
	c0,3.3,2.7,5.9,5.9,5.9h63.9c3.3,0,5.9-2.7,5.9-5.9V34.2C88.5,31,85.9,28.3,82.6,28.3z M35.7,21.5c0-1,0.8-1.8,1.8-1.8h26.3
	c1,0,1.8,0.8,1.8,1.8v6.8H35.7V21.5z M18.7,32.4h63.9c1,0,1.8,0.8,1.8,1.8v14.1l-33.6,8.1l-34-8.1V34.2
	C16.8,33.2,17.7,32.4,18.7,32.4z M82.6,81.8H18.7c-1,0-1.8-0.8-1.8-1.8V52.5l33.5,8c0.2,0,0.3,0.1,0.5,0.1c0.2,0,0.3,0,0.5-0.1
	l33.1-8V80C84.4,81,83.6,81.8,82.6,81.8z"/>
</svg>
