<?xml version="1.0" encoding="utf-8"?>
<!-- Generator: Adobe Illustrator 22.0.1, SVG Export Plug-In . SVG Version: 6.00 Build 0)  -->
<svg version="1.1" id="Layer_1" xmlns="http://www.w3.org/2000/svg" xmlns:xlink="http://www.w3.org/1999/xlink" x="0px" y="0px"
	 viewBox="0 0 52 52" style="enable-background:new 0 0 52 52;" xml:space="preserve">
<style type="text/css">
	.st0{fill:#B7888A;}
</style>
<g>
	<g>
		<g>
			<path class="st0" d="M32.1,25.9C32.1,25.9,32.1,25.9,32.1,25.9c-0.3,0-0.5-0.1-0.6-0.3l-8-9.2c-0.3-0.3-0.3-0.9,0.1-1.2l6.1-5.3
				c0.2-0.1,0.4-0.2,0.6-0.2c0.2,0,0.4,0.1,0.6,0.3l8,9.2c0.3,0.3,0.3,0.9-0.1,1.2l-6.1,5.3C32.5,25.9,32.3,25.9,32.1,25.9z
				 M25.3,16l6.9,7.9l4.8-4.2l-6.9-7.9L25.3,16z"/>
		</g>
		<g>
			<path class="st0" d="M33.3,29.7C33.3,29.7,33.2,29.7,33.3,29.7c-0.3,0-0.5-0.1-0.6-0.3l-2.4-2.7c-0.1-0.2-0.2-0.4-0.2-0.6
				c0-0.2,0.1-0.4,0.3-0.6l8.5-7.5c0.3-0.3,0.9-0.3,1.2,0.1l2.4,2.7c0.3,0.3,0.3,0.9-0.1,1.2l-8.5,7.5
				C33.7,29.6,33.5,29.7,33.3,29.7z M32.1,26.3l1.3,1.4l7.3-6.4l-1.3-1.4L32.1,26.3z"/>
		</g>
		<g>
			<path class="st0" d="M22.9,17.9C22.8,17.9,22.8,17.9,22.9,17.9c-0.3,0-0.5-0.1-0.6-0.3l-2.4-2.7c-0.3-0.3-0.3-0.9,0.1-1.2
				l8.5-7.5c0.3-0.3,0.9-0.3,1.2,0.1L32,9c0.1,0.2,0.2,0.4,0.2,0.6c0,0.2-0.1,0.4-0.3,0.6l-8.5,7.5C23.3,17.8,23.1,17.9,22.9,17.9z
				 M21.7,14.4l1.3,1.4l7.3-6.4L29,8L21.7,14.4z"/>
		</g>
		<g>
			<path class="st0" d="M22.3,26.4c-0.2,0-0.5-0.1-0.6-0.3c-0.3-0.3-0.3-0.9,0.1-1.2l5.8-5.1c0.3-0.3,0.9-0.3,1.2,0.1
				c0.3,0.3,0.3,0.9-0.1,1.2l-5.8,5.1C22.7,26.4,22.5,26.4,22.3,26.4z"/>
		</g>
		<g>
			<path class="st0" d="M11.4,39.5c-0.2,0-0.5-0.1-0.6-0.3l-3.4-3.9c-0.1-0.2-0.2-0.4-0.2-0.6c0-0.2,0.1-0.4,0.3-0.6l10.7-9.4
				c0.7-0.6,1.6-0.9,2.5-0.8c0.9,0.1,1.7,0.5,2.4,1.2c0.6,0.7,0.9,1.6,0.8,2.5c-0.1,0.9-0.5,1.7-1.2,2.4L12,39.2
				C11.8,39.4,11.6,39.5,11.4,39.5z M9.2,34.8l2.3,2.6l10-8.8c0.4-0.3,0.6-0.7,0.6-1.2c0-0.5-0.1-0.9-0.4-1.3l0,0
				c-0.6-0.7-1.7-0.8-2.5-0.2L9.2,34.8z"/>
		</g>
	</g>
	<g>
		<g>
			<path class="st0" d="M44.6,46.3H27.5c-0.5,0-0.8-0.4-0.8-0.8v-4.8c0-0.5,0.4-0.8,0.8-0.8h17.1c0.5,0,0.8,0.4,0.8,0.8v4.8
				C45.5,45.9,45.1,46.3,44.6,46.3z M28.4,44.6h15.4v-3.1H28.4V44.6z"/>
		</g>
		<g>
			<path class="st0" d="M42.8,41.4H29.4c-0.5,0-0.8-0.4-0.8-0.8v-5c0-0.5,0.4-0.8,0.8-0.8h13.4c0.5,0,0.8,0.4,0.8,0.8v5
				C43.6,41.1,43.2,41.4,42.8,41.4z M30.2,39.8h11.7v-3.4H30.2V39.8z"/>
		</g>
	</g>
</g>
</svg>
