<svg fill="#4F6379" xmlns="http://www.w3.org/2000/svg" data-name="Layer 1" viewBox="0 0 100 100" x="0px" y="0px"><title>04</title><g data-name="Group"><path data-name="Path" d="M69.3,11.6h-.2a28.9,28.9,0,0,0-18.4,6.9c-5.8-5.2-11.4-7.8-16.5-7.8a25.9,25.9,0,0,0-18.7,7.9A26.9,26.9,0,0,0,8.4,32.4a3,3,0,0,0,5.9,1.1,20.9,20.9,0,0,1,5.6-10.8,19.9,19.9,0,0,1,14.4-6.1c4,0,9,2.7,14.3,7.9a3.2,3.2,0,0,0,4.5,0,23.3,23.3,0,0,1,16.3-7,17,17,0,0,1,12.3,5.1,21.1,21.1,0,0,1,6,14.8,21.7,21.7,0,0,1-1.2,6.9H63.9a3,3,0,0,0-2.2.9l-9.1,9.6L42.2,31.3a3,3,0,0,0-5.3-.4L28.6,44.5H9.4a3,3,0,0,0,0,6H30.3A3,3,0,0,0,32.8,49L39,39,49,61.6a3,3,0,0,0,2.2,1.7h.5a3,3,0,0,0,2.2-.9l11.3-12h18l-1.5,1.8L50.7,82.2,26.3,58.5a3,3,0,1,0-4.2,4.3L48.7,88.5a3,3,0,0,0,4.2,0l33.1-32a27.4,27.4,0,0,0,0-38A22.9,22.9,0,0,0,69.3,11.6Z"></path></g></svg>