<?xml version="1.0" encoding="utf-8"?>
<!-- Generator: Adobe Illustrator 22.0.1, SVG Export Plug-In . SVG Version: 6.00 Build 0)  -->
<svg version="1.1" id="Layer_1" xmlns="http://www.w3.org/2000/svg" xmlns:xlink="http://www.w3.org/1999/xlink" x="0px" y="0px"
	 viewBox="0 0 249 235" style="enable-background:new 0 0 249 235;" xml:space="preserve">
<style type="text/css">
	.st0{fill:#D9776B;}
	.st1{fill:#FFFFFF;}
</style>
<path class="st0" d="M56,76.8c9.9-3.1,16.7-12.4,16.7-22.9V44h104.6v9.9c0,10.5,6.8,19.8,16.7,22.9l8,1.9l-0.6,8.7
	c-2.5,26.6-11.8,53.8-29.7,74.9c-11.1,13-28.5,27.2-46.4,27.2c-18.6,0-35.9-14.2-47-27.2c-17.9-21-27.2-48.3-29.7-74.9L48,78.6
	L56,76.8z"/>
<path class="st1" d="M125.3,117.6v61.2c-18.6,0.6-47-20.4-60.6-61.2H125.3z"/>
<path class="st0" d="M177.9,135.6c0.6-1.9,1.2-3.1,2.5-4.9C179.2,132.5,178.5,133.7,177.9,135.6z"/>
<path class="st1" d="M185.3,117.6h-60V53.9h42.1c0,15.5,9.9,28.5,24.1,32.2C190.3,97.8,188.4,108.3,185.3,117.6z"/>
</svg>
