<svg xmlns="http://www.w3.org/2000/svg" viewBox="0 0 98 98.05"><defs><style>.cls-1{fill:#227497;}</style></defs><title>zakonodaja-modra</title><g id="Layer_2" data-name="Layer 2"><g id="Layer_1-2" data-name="Layer 1"><path class="cls-1" d="M94.22,20H87.55V11.56a2.5,2.5,0,0,0-2.5-2.5H76.82V2.46A2.5,2.5,0,0,0,74.32,0H68.87A22.53,22.53,0,0,0,47.34,15.57,29.53,29.53,0,0,0,28.86,9.06H13a2.5,2.5,0,0,0-2.5,2.5V20H3.78A3.78,3.78,0,0,0,0,23.78H0V85.12A3.78,3.78,0,0,0,3.78,88.9H28.6a14.88,14.88,0,0,1,11.09,5l.35.38a12.52,12.52,0,0,0,1.46,1.28c.21.15.41.3.61.43a12.45,12.45,0,0,0,1.42.81l.26.13c.27.13.53.24.8.34a10.22,10.22,0,0,0,1.06.34c.25.07.57.16.94.23a12.07,12.07,0,0,0,1.64.21L49,98a12.39,12.39,0,0,0,2.45-.25,6.18,6.18,0,0,0,.74-.18,11,11,0,0,0,1.22-.38h.12l.61-.27.23-.11h0a12.45,12.45,0,0,0,1.54-.88l.51-.36A12.59,12.59,0,0,0,58,94.17l.13-.13.21-.23a14.59,14.59,0,0,1,11-4.91H94.22A3.78,3.78,0,0,0,98,85.12V23.78A3.78,3.78,0,0,0,94.22,20ZM82.54,14V72.94H69.14a29.53,29.53,0,0,0-16.78,5.24A17.56,17.56,0,0,1,68.87,66.85h5.45a2.5,2.5,0,0,0,2.5-2.5V14.06ZM68.87,5h2.95V61.85H68.87a22.74,22.74,0,0,0-17.37,8V19.69a14.32,14.32,0,0,1,.42-2A17.51,17.51,0,0,1,68.87,5ZM15.45,14.06H28.86a24.52,24.52,0,0,1,17.64,7.5V78.81A29.53,29.53,0,0,0,28.86,73H15.45ZM93,83.9H69.4a19.59,19.59,0,0,0-14.82,6.63l-.08.09,1.83,1.71-1.9-1.63a7.67,7.67,0,0,1-1,.85l-.3.21a7.54,7.54,0,0,1-.9.52h-.06l-.15.07-.4.17a6.91,6.91,0,0,1-.75.23l-.42.1A7.44,7.44,0,0,1,49,93h-.44a7.27,7.27,0,0,1-1-.13,2.45,2.45,0,0,1-.58-.14,5.92,5.92,0,0,1-.62-.2l-.44-.19-.18-.09a7.66,7.66,0,0,1-.87-.5l-.35-.25a7.61,7.61,0,0,1-.9-.79l-.19-.2A19.89,19.89,0,0,0,28.6,83.9H5V25h5.45V75.44a2.5,2.5,0,0,0,2.5,2.5H28.86a24.52,24.52,0,0,1,18.27,8.18,2.5,2.5,0,0,0,3.53.2l.2-.2a24.52,24.52,0,0,1,18.27-8.18H85a2.5,2.5,0,0,0,2.5-2.5V25H93Z"/><path class="cls-1" d="M23.11,29.27h4.12a23.74,23.74,0,0,1,10.51,2.45A2.51,2.51,0,1,0,40,27.24a28.72,28.72,0,0,0-12.72-3H23.11a2.5,2.5,0,0,0,0,5Z"/><path class="cls-1" d="M23.11,40.26h4.12a23.76,23.76,0,0,1,10.51,2.45A2.51,2.51,0,0,0,40,38.23a28.75,28.75,0,0,0-12.72-3H23.11a2.5,2.5,0,0,0,0,5Z"/><path class="cls-1" d="M23.11,51.25h4.12A23.74,23.74,0,0,1,37.74,53.7,2.51,2.51,0,1,0,40,49.22a28.72,28.72,0,0,0-12.72-3H23.11a2.5,2.5,0,0,0,0,5Z"/><path class="cls-1" d="M37.74,64.69A2.51,2.51,0,1,0,40,60.21h0a28.72,28.72,0,0,0-12.72-3H23.11a2.5,2.5,0,0,0,0,5h4.12a23.74,23.74,0,0,1,10.51,2.45Z"/></g></g></svg>