<?xml version="1.0" encoding="utf-8"?>
<!-- Generator: Adobe Illustrator 22.0.1, SVG Export Plug-In . SVG Version: 6.00 Build 0)  -->
<svg version="1.1" id="Layer_1" xmlns="http://www.w3.org/2000/svg" xmlns:xlink="http://www.w3.org/1999/xlink" x="0px" y="0px"
	 viewBox="0 0 100 100" style="enable-background:new 0 0 100 100;" xml:space="preserve">
<style type="text/css">
	.st0{fill:#B7888A;stroke:#B7888A;stroke-miterlimit:10;}
</style>
<path class="st0" d="M59.8,72.6c0.2,0.1,0.4,0.1,0.5,0.1c0.2,0,0.4-0.1,0.6-0.2l8.7-5.2c0.3-0.2,0.5-0.6,0.5-0.9
	c0-0.4-0.2-0.7-0.5-0.9l-8.7-5.2c-0.3-0.2-0.8-0.2-1.1,0s-0.6,0.6-0.6,0.9v10.4C59.2,72.1,59.4,72.4,59.8,72.6z M61.4,63.2l5.5,3.3
	l-5.5,3.3V63.2z M38.1,27.1h10.8c0.6,0,1.1-0.5,1.1-1.1s-0.5-1.1-1.1-1.1H38.1c-0.6,0-1.1,0.5-1.1,1.1C37,26.7,37.5,27.1,38.1,27.1z
	 M38.1,35.9h21.2c0.6,0,1.1-0.5,1.1-1.1s-0.5-1.1-1.1-1.1H38.1c-0.6,0-1.1,0.5-1.1,1.1S37.5,35.9,38.1,35.9z M22.7,70.3
	c2.7,0,4.8-2.2,4.8-4.8c0-2.7-2.2-4.8-4.8-4.8s-4.8,2.2-4.8,4.8C17.9,68.1,20.1,70.3,22.7,70.3z M22.7,62.8c1.5,0,2.7,1.2,2.7,2.7
	s-1.2,2.7-2.7,2.7S20,67,20,65.5C20.1,64,21.3,62.8,22.7,62.8z M89.2,41.7H70.1V25.8c0-0.3-0.1-0.6-0.3-0.8L57.4,12.9
	c-0.2-0.2-0.5-0.3-0.8-0.3H29.2c-0.6,0-1.1,0.5-1.1,1.1v40.8H11.3c-0.6,0-1.1,0.5-1.1,1.1v30.6c0,0.6,0.5,1.1,1.1,1.1h37.5
	c0.6,0,1.1-0.5,1.1-1.1v-3.6h39.2c0.6,0,1.1-0.5,1.1-1.1V42.8C90.2,42.2,89.8,41.7,89.2,41.7z M57.4,16l9.2,9h-9.2
	C57.4,25,57.4,16,57.4,16z M30.3,14.8h24.9V26c0,0.6,0.5,1.1,1.1,1.1h11.6v14.6H38.1c-0.6,0-1.1,0.5-1.1,1.1v11.3
	c0,0.1,0,0.3,0.1,0.4h-6.8V14.8z M47.8,85.2H12.4v-1.7l7.6-7.6l3.9,3.9c0.4,0.4,1.1,0.4,1.5,0l12.4-12.4l10,10V85.2z M47.8,74.3
	l-9.2-9.2c-0.4-0.4-1.1-0.4-1.5,0L24.7,77.5l-3.9-3.9c-0.4-0.4-1.1-0.4-1.5,0l-6.8,6.8V56.7h35.3V74.3z M88.1,80.5H49.9V55.6
	c0-0.6-0.5-1.1-1.1-1.1h-9.7c0-0.1,0.1-0.3,0.1-0.4v-2.6h48.9C88.1,51.5,88.1,80.5,88.1,80.5z M88.1,49.4H39.2v-5.5h48.9
	C88.1,43.9,88.1,49.4,88.1,49.4z"/>
</svg>
