<?xml version="1.0" encoding="utf-8"?>
<!-- Generator: Adobe Illustrator 22.0.1, SVG Export Plug-In . SVG Version: 6.00 Build 0)  -->
<svg version="1.1" id="Layer_1" xmlns="http://www.w3.org/2000/svg" xmlns:xlink="http://www.w3.org/1999/xlink" x="0px" y="0px"
	 viewBox="0 0 100 100" style="enable-background:new 0 0 100 100;" xml:space="preserve">
<style type="text/css">
	.st0{fill:#B7888A;stroke:#B7888A;stroke-miterlimit:10;}
</style>
<path class="st0" d="M83.2,22.2h-67c-0.7,0-1.2,0.5-1.2,1.2v37.2c0,0.7,0.5,1.2,1.2,1.2h67c0.7,0,1.2-0.5,1.2-1.2V23.4
	C84.3,22.7,83.9,22.2,83.2,22.2z M17.3,32.8c4.4-0.6,7.9-4,8.4-8.4h47.9c0.6,4.4,4,7.9,8.4,8.4v18c-4.4,0.6-7.9,4-8.4,8.4H25.7
	c-0.6-4.4-4-7.9-8.4-8.4V32.8z M82,30.5c-3.1-0.5-5.5-3-6-6h6V30.5z M23.3,24.5c-0.5,3.1-3,5.5-6,6v-6H23.3z M17.3,53.3
	c3.1,0.5,5.5,2.9,6,6h-6V53.3z M76,59.3c0.5-3.1,3-5.5,6-6v6H76z M49.7,51.5c5.3,0,9.6-4.3,9.6-9.6s-4.3-9.6-9.6-9.6
	s-9.6,4.3-9.6,9.6S44.3,51.5,49.7,51.5z M49.7,34.6c4,0,7.3,3.2,7.3,7.3s-3.2,7.3-7.3,7.3s-7.3-3.2-7.3-7.3S45.6,34.6,49.7,34.6z
	 M84.3,66.4c0,0.7-0.5,1.2-1.2,1.2h-67c-0.7,0-1.2-0.5-1.2-1.2s0.5-1.2,1.2-1.2h67C83.9,65.3,84.3,65.8,84.3,66.4z M84.3,72.5
	c0,0.7-0.5,1.2-1.2,1.2h-67c-0.7,0-1.2-0.5-1.2-1.2s0.5-1.2,1.2-1.2h67C83.9,71.3,84.3,71.8,84.3,72.5z M84.3,78.3
	c0,0.7-0.5,1.2-1.2,1.2h-67c-0.7,0-1.2-0.5-1.2-1.2s0.5-1.2,1.2-1.2h67C83.9,77.2,84.3,77.8,84.3,78.3z"/>
</svg>
