<?xml version="1.0" encoding="utf-8"?>
<!-- Generator: Adobe Illustrator 22.0.1, SVG Export Plug-In . SVG Version: 6.00 Build 0)  -->
<svg version="1.1" id="Layer_1" xmlns="http://www.w3.org/2000/svg" xmlns:xlink="http://www.w3.org/1999/xlink" x="0px" y="0px"
	 viewBox="0 0 25 25" style="enable-background:new 0 0 25 25;" xml:space="preserve">
<style type="text/css">
	.st0{fill:#D9776B;}
</style>
<g>
	<g>
		<path class="st0" d="M22,21.5h-0.5v-12C21.5,9.2,21.3,9,21,9h-6.5V3c0-0.3-0.2-0.5-0.5-0.5H4C3.7,2.5,3.5,2.7,3.5,3v18.5H3
			c-0.3,0-0.5,0.2-0.5,0.5s0.2,0.5,0.5,0.5h19c0.3,0,0.5-0.2,0.5-0.5S22.3,21.5,22,21.5z M20.5,10v1.5H16c-0.3,0-0.5,0.2-0.5,0.5
			s0.2,0.5,0.5,0.5h4.5v2H16c-0.3,0-0.5,0.2-0.5,0.5s0.2,0.5,0.5,0.5h4.5v2H16c-0.3,0-0.5,0.2-0.5,0.5s0.2,0.5,0.5,0.5h4.5v3h-6V10
			H20.5z M4.5,3.5h9v18h-9V3.5z"/>
		<path class="st0" d="M12,5.5c-0.3,0-0.5,0.2-0.5,0.5v1c0,0.3,0.2,0.5,0.5,0.5s0.5-0.2,0.5-0.5V6C12.5,5.7,12.3,5.5,12,5.5z"/>
		<path class="st0" d="M6,5.5C5.7,5.5,5.5,5.7,5.5,6v1c0,0.3,0.2,0.5,0.5,0.5S6.5,7.3,6.5,7V6C6.5,5.7,6.3,5.5,6,5.5z"/>
		<path class="st0" d="M8,5.5C7.7,5.5,7.5,5.7,7.5,6v1c0,0.3,0.2,0.5,0.5,0.5S8.5,7.3,8.5,7V6C8.5,5.7,8.3,5.5,8,5.5z"/>
		<path class="st0" d="M10,5.5C9.7,5.5,9.5,5.7,9.5,6v1c0,0.3,0.2,0.5,0.5,0.5s0.5-0.2,0.5-0.5V6C10.5,5.7,10.3,5.5,10,5.5z"/>
		<path class="st0" d="M12,8.5c-0.3,0-0.5,0.2-0.5,0.5v1c0,0.3,0.2,0.5,0.5,0.5s0.5-0.2,0.5-0.5V9C12.5,8.7,12.3,8.5,12,8.5z"/>
		<path class="st0" d="M6,8.5C5.7,8.5,5.5,8.7,5.5,9v1c0,0.3,0.2,0.5,0.5,0.5s0.5-0.2,0.5-0.5V9C6.5,8.7,6.3,8.5,6,8.5z"/>
		<path class="st0" d="M8,8.5C7.7,8.5,7.5,8.7,7.5,9v1c0,0.3,0.2,0.5,0.5,0.5s0.5-0.2,0.5-0.5V9C8.5,8.7,8.3,8.5,8,8.5z"/>
		<path class="st0" d="M10,8.5C9.7,8.5,9.5,8.7,9.5,9v1c0,0.3,0.2,0.5,0.5,0.5s0.5-0.2,0.5-0.5V9C10.5,8.7,10.3,8.5,10,8.5z"/>
		<path class="st0" d="M12,11.5c-0.3,0-0.5,0.2-0.5,0.5v1c0,0.3,0.2,0.5,0.5,0.5s0.5-0.2,0.5-0.5v-1C12.5,11.7,12.3,11.5,12,11.5z"
			/>
		<path class="st0" d="M6,11.5c-0.3,0-0.5,0.2-0.5,0.5v1c0,0.3,0.2,0.5,0.5,0.5s0.5-0.2,0.5-0.5v-1C6.5,11.7,6.3,11.5,6,11.5z"/>
		<path class="st0" d="M8,11.5c-0.3,0-0.5,0.2-0.5,0.5v1c0,0.3,0.2,0.5,0.5,0.5s0.5-0.2,0.5-0.5v-1C8.5,11.7,8.3,11.5,8,11.5z"/>
		<path class="st0" d="M10,11.5c-0.3,0-0.5,0.2-0.5,0.5v1c0,0.3,0.2,0.5,0.5,0.5s0.5-0.2,0.5-0.5v-1C10.5,11.7,10.3,11.5,10,11.5z"
			/>
		<path class="st0" d="M12,14.5c-0.3,0-0.5,0.2-0.5,0.5v1c0,0.3,0.2,0.5,0.5,0.5s0.5-0.2,0.5-0.5v-1C12.5,14.7,12.3,14.5,12,14.5z"
			/>
		<path class="st0" d="M6,14.5c-0.3,0-0.5,0.2-0.5,0.5v1c0,0.3,0.2,0.5,0.5,0.5s0.5-0.2,0.5-0.5v-1C6.5,14.7,6.3,14.5,6,14.5z"/>
		<path class="st0" d="M8,14.5c-0.3,0-0.5,0.2-0.5,0.5v1c0,0.3,0.2,0.5,0.5,0.5s0.5-0.2,0.5-0.5v-1C8.5,14.7,8.3,14.5,8,14.5z"/>
		<path class="st0" d="M10,14.5c-0.3,0-0.5,0.2-0.5,0.5v1c0,0.3,0.2,0.5,0.5,0.5s0.5-0.2,0.5-0.5v-1C10.5,14.7,10.3,14.5,10,14.5z"
			/>
		<path class="st0" d="M12,17.5c-0.3,0-0.5,0.2-0.5,0.5v1c0,0.3,0.2,0.5,0.5,0.5s0.5-0.2,0.5-0.5v-1C12.5,17.7,12.3,17.5,12,17.5z"
			/>
		<path class="st0" d="M6,17.5c-0.3,0-0.5,0.2-0.5,0.5v1c0,0.3,0.2,0.5,0.5,0.5s0.5-0.2,0.5-0.5v-1C6.5,17.7,6.3,17.5,6,17.5z"/>
		<path class="st0" d="M8,17.5c-0.3,0-0.5,0.2-0.5,0.5v1c0,0.3,0.2,0.5,0.5,0.5s0.5-0.2,0.5-0.5v-1C8.5,17.7,8.3,17.5,8,17.5z"/>
		<path class="st0" d="M10,17.5c-0.3,0-0.5,0.2-0.5,0.5v1c0,0.3,0.2,0.5,0.5,0.5s0.5-0.2,0.5-0.5v-1C10.5,17.7,10.3,17.5,10,17.5z"
			/>
	</g>
</g>
</svg>
