<?xml version="1.0" encoding="utf-8"?>
<!-- Generator: Adobe Illustrator 22.0.1, SVG Export Plug-In . SVG Version: 6.00 Build 0)  -->
<svg version="1.1" id="Layer_1" xmlns="http://www.w3.org/2000/svg" xmlns:xlink="http://www.w3.org/1999/xlink" x="0px" y="0px"
	 viewBox="0 0 100 100" style="enable-background:new 0 0 100 100;" xml:space="preserve">
<style type="text/css">
	.st0{fill:#8FCFEE;stroke:#8FCFEE;stroke-miterlimit:10;}
</style>
<path class="st0" d="M25.6,38.3c3.8,0,6.9-3.6,6.9-8.3c0-3.8-3.1-6.9-6.9-6.9s-6.9,3.1-6.9,6.9C18.7,34.7,21.8,38.3,25.6,38.3z
	 M25.6,25c2.7,0,4.9,2.2,4.9,4.9c0,3.6-2.2,6.3-4.9,6.3s-4.9-2.8-4.9-6.3C20.7,27.2,22.9,25,25.6,25z"/>
<path class="st0" d="M9.9,51.8c17.1,0,12.4,0,31.5,0c0.5,0,0.9-0.5,0.8-1c-1.1-5.2-4.8-9.2-9.8-11.1c-0.4-0.1-0.8,0-1,0.4
	c-2.7,4.7-1.9,3.3-3,5.3l-1.7-2.9c0.1-0.2,0.8-1.3,0.9-1.5c0.1-0.3,0-0.6-0.3-0.6c-1.1,0-2,0-3.2,0c-0.3,0-0.5,0.3-0.3,0.6
	c0.1,0.2,0.8,1.3,0.9,1.5l-1.7,2.9c-1.1-1.9-0.8-1.4-3-5.3c-0.2-0.4-0.6-0.5-1-0.4c-5,1.9-8.7,5.8-9.8,11.1
	C8.9,51.2,9.3,51.8,9.9,51.8z M18.6,41.9c0,0.1,2.5,4.3,2.5,4.4c0.8,1.3,2.7,1.3,3.5,0l1-1.7l1,1.7c0.8,1.3,2.7,1.3,3.5,0l0-0.1
	l1.1-1.9l1.4-2.4c3.6,1.6,6.1,4.4,7.3,7.9H11.3C12.5,46.3,15.1,43.5,18.6,41.9z"/>
<path class="st0" d="M74.4,38.3c3.8,0,6.9-3.5,6.9-8.3c0-3.8-3.1-6.9-6.9-6.9s-6.9,3.1-6.9,6.9C67.5,34.7,70.6,38.3,74.4,38.3z
	 M74.4,25c2.7,0,4.9,2.2,4.9,4.9c0,3.6-2.2,6.3-4.9,6.3s-4.9-2.8-4.9-6.3C69.5,27.2,71.7,25,74.4,25z"/>
<path class="st0" d="M58.7,51.8c19.1,0,14.4,0,31.5,0c0.5,0,0.9-0.5,0.8-1c-1.1-5.2-4.8-9.2-9.8-11.1c-0.4-0.1-0.8,0-1,0.4
	c-2.3,3.9-2,3.4-3,5.3l-1.7-2.9c0.1-0.2,0.8-1.3,0.9-1.5c0.2-0.3,0-0.6-0.3-0.6c-1.1,0-2,0-3.2,0c-0.3,0-0.5,0.3-0.3,0.6
	c0.1,0.2,0.8,1.3,0.9,1.5l-1.7,2.9c-1.1-1.9-0.4-0.6-3-5.3c-0.2-0.4-0.6-0.5-1-0.4c-5,1.9-8.7,5.8-9.8,11.1
	C57.7,51.2,58.1,51.8,58.7,51.8z M67.4,41.9c0.1,0.2,2.5,4.3,2.5,4.4c0.8,1.3,2.7,1.3,3.5,0l1-1.7l1,1.7c0.7,1.3,2.7,1.4,3.5,0
	c1.5-2.6,1.6-2.7,2.5-4.4c3.6,1.6,6.1,4.4,7.3,7.9H60.1C61.3,46.3,63.9,43.5,67.4,41.9z"/>
<path class="st0" d="M91,54.8H54c-2-2.7-6-2.7-8,0H9c-4,0-4,6,0,6h37c0.1,0.2,0.3,0.3,0.4,0.5l-9,15.5c-1.1,1.9,0.3,4.2,2.4,4.2
	h20.2c2.2,0,3.5-2.3,2.4-4.2l-9-15.5c0.1-0.1,0.3-0.3,0.4-0.5h37C95,60.8,95,54.8,91,54.8z M51.9,62.4l8.9,15.4
	c0.3,0.5-0.1,1.2-0.7,1.2H39.9c-0.6,0-1-0.7-0.7-1.2l8.9-15.4C49.3,62.9,50.8,62.9,51.9,62.4z M91,58.8H53.4c-0.4,0-0.7,0.2-0.9,0.5
	c-1.1,2-4,2-5.2,0c-0.2-0.3-0.5-0.5-0.9-0.5H9c-1.3,0-1.3-2,0-2h37.6c0.4,0,0.7-0.2,0.9-0.5c1.2-2,4-2,5.2,0
	c0.2,0.3,0.5,0.5,0.9,0.5H91C92.3,56.8,92.3,58.8,91,58.8z"/>
</svg>
