<svg fill="#857799" xmlns="http://www.w3.org/2000/svg" xmlns:xlink="http://www.w3.org/1999/xlink" version="1.1" x="0px" y="0px" viewBox="0 0 100 100" style="enable-background:new 0 0 100 100;" xml:space="preserve"><style type="text/css">
	.st0{display:none;}
	.st1{display:inline;fill:#857799;}
	.st2{fill:none;stroke:#857799;stroke-width:3;stroke-miterlimit:10;}
	.st3{fill:#857799;}
</style><g class="st0"><rect x="-395" y="-997" class="st1" width="1253" height="1253"></rect></g><g><g><path d="M62.6,65.1h-51c-0.8,0-1.5,0.7-1.5,1.5v9.5c0,0.8,0.7,1.5,1.5,1.5h51c0.8,0,1.5-0.7,1.5-1.5v-9.5    C64.1,65.8,63.5,65.1,62.6,65.1z M13.1,68.1h9.4v6.5h-9.4V68.1z M61.1,74.6H25.5v-6.5h35.6V74.6z"></path><path d="M66.8,65.1c-0.8,0-1.5,0.7-1.5,1.5v9.5c0,0.8,0.7,1.5,1.5,1.5s1.5-0.7,1.5-1.5v-9.5C68.3,65.8,67.6,65.1,66.8,65.1z"></path><path d="M70.9,65.1c-0.8,0-1.5,0.7-1.5,1.5v9.5c0,0.8,0.7,1.5,1.5,1.5s1.5-0.7,1.5-1.5v-9.5C72.4,65.8,71.7,65.1,70.9,65.1z"></path><path d="M82,36.2c0.7-0.4,0.9-1.3,0.5-2.1c-0.4-0.7-1.3-0.9-2.1-0.5c-7.7,4.6-4.4,11.6-1.6,17.8c3.3,7.2,6.2,13.5-2.4,18.7    c-0.7,0.4-0.9,1.4-0.5,2.1c0.3,0.5,0.8,0.7,1.3,0.7c0.3,0,0.5-0.1,0.8-0.2c10.8-6.6,6.8-15.4,3.6-22.5    C78.4,43.3,76.9,39.2,82,36.2z"></path><path d="M86.4,23c-0.5-0.7-1.4-0.9-2.1-0.4c-0.7,0.5-0.9,1.4-0.4,2.1c6.6,9.9,0,22-0.1,22.1c-0.4,0.7-0.1,1.6,0.6,2    c0.2,0.1,0.5,0.2,0.7,0.2c0.5,0,1-0.3,1.3-0.8C86.8,47.7,94,34.5,86.4,23z"></path></g></g></svg>