<svg fill="#D9776B" xmlns="http://www.w3.org/2000/svg" xmlns:xlink="http://www.w3.org/1999/xlink" version="1.1" x="0px" y="0px" viewBox="0 0 100 100" style="enable-background:new 0 0 100 100;" xml:space="preserve"><g><path d="M93.5,36.3L51,20.7c-0.7-0.2-1.4-0.2-2.1,0L6.5,36.3c-1.2,0.4-2,1.5-2,2.8c0,1.2,0.7,2.4,1.9,2.8L18,46.4v24.8   c0,1.3,0.8,2.4,1.9,2.8c9.7,3.6,19.9,5.4,30,5.4s20.3-1.8,30-5.4c1.2-0.4,1.9-1.6,1.9-2.8V46.4l6.6-2.6v27.5h6v-30   c0.6-0.6,1-1.4,1-2.2C95.5,37.8,94.7,36.7,93.5,36.3z M76,69.1c-16.8,5.8-35.1,5.8-52,0V48.8l24.9,9.7c0.4,0.1,0.7,0.2,1.1,0.2   s0.7-0.1,1.1-0.2L76,48.8V69.1z M50,52.5L16,39.2l34-12.5l34,12.5L50,52.5z"></path></g></svg>