<?xml version="1.0" encoding="utf-8"?>
<!-- Generator: Adobe Illustrator 22.0.1, SVG Export Plug-In . SVG Version: 6.00 Build 0)  -->
<svg version="1.1" id="Layer_1" xmlns="http://www.w3.org/2000/svg" xmlns:xlink="http://www.w3.org/1999/xlink" x="0px" y="0px"
	 viewBox="0 0 64 64" style="enable-background:new 0 0 64 64;" xml:space="preserve">
<style type="text/css">
	.st0{fill:#8FCFEE;stroke:#8FCFEE;stroke-width:0.75;stroke-miterlimit:10;}
</style>
<path class="st0" d="M56.9,57.3L56.9,57.3h1.2c0.5,0,0.8,0.4,0.8,0.8S58.6,59,58.2,59H5.8C5.4,59,5,58.6,5,58.2s0.4-0.8,0.8-0.8H7
	c0,0,0,0,0,0c0.2-0.4,0.4-0.9,0.7-1.4c0.7-1.5,1.4-3.1,2.1-4.9c1.3-3.4,2.3-6.7,2.7-9.8c0.7-4.6,0.7-9.5,0.3-14.2
	c-0.1-0.7-0.1-1.3-0.2-1.8c0-0.3-0.1-0.5-0.1-0.6c-0.1-0.5,0.3-1,0.8-1H32c0.5,0,0.9,0.5,0.8,1c0,0.1,0,0.3-0.1,0.6
	c-0.1,0.5-0.1,1.1-0.2,1.8c-0.4,4.6-0.4,9.6,0.3,14.2c0.4,2.6,1.1,5.4,2.2,8.3c1-2.2,1.7-4.2,2.1-5.8c0.2-1,0.4-2.1,0.4-3.2
	c0.2-2.5,0.1-5.2-0.2-7.8c-0.1-0.6-0.1-1.1-0.2-1.6c0-0.3-0.1-0.5-0.1-0.6c-0.1-0.5,0.3-1,0.8-1h11.8c0.5,0,0.9,0.5,0.8,1
	c0,0.1,0,0.3-0.1,0.6c-0.1,0.5-0.1,1-0.2,1.6c-0.3,2.6-0.4,5.3-0.2,7.8c0.1,1.2,0.2,2.2,0.4,3.2c0.3,1.2,0.7,2.6,1.4,4.2
	c0.5,1.2,1.1,2.5,1.8,3.8c0.8,1.5,1.6,2.9,2.4,4.3C56.4,56.4,56.6,56.9,56.9,57.3C56.9,57.3,56.9,57.3,56.9,57.3z M14.6,26.8
	c0.4,4.7,0.4,9.8-0.3,14.6c-0.5,3.2-1.5,6.7-2.8,10.2c-0.7,1.8-1.4,3.5-2.2,5c-0.1,0.2-0.2,0.5-0.3,0.7h27.6
	c-0.1-0.2-0.2-0.5-0.3-0.7c-0.7-1.5-1.5-3.2-2.2-5c-1.4-3.5-2.4-7-2.8-10.2c-0.7-4.8-0.7-9.8-0.3-14.6c0.1-0.6,0.1-1.1,0.2-1.6H14.4
	C14.5,25.7,14.5,26.3,14.6,26.8z M54.9,57.3c-0.1-0.2-0.2-0.3-0.3-0.5c-0.8-1.4-1.7-2.9-2.4-4.4c-0.7-1.4-1.3-2.7-1.8-3.9
	c-0.7-1.7-1.2-3.2-1.5-4.5c-0.2-1.1-0.4-2.2-0.5-3.4c-0.2-2.6-0.1-5.4,0.2-8.1c0-0.4,0.1-0.9,0.1-1.3h-9.9c0.1,0.4,0.1,0.8,0.1,1.3
	c0.3,2.7,0.4,5.5,0.2,8.1c-0.1,1.2-0.3,2.4-0.5,3.4c-0.5,2.1-1.5,4.7-2.9,7.6c0,0,0,0,0,0.1c0.6,1.5,1.2,2.9,1.9,4.3
	c0.3,0.5,0.5,1,0.7,1.4c0,0,0,0,0,0H54.9L54.9,57.3z M23.4,18.1c-0.3,0.4-0.8,0.5-1.2,0.2s-0.5-0.8-0.2-1.2c0.1-0.1,0.2-0.3,0.3-0.6
	c0.5-1.3,0.5-2.8-0.3-4.5C20.9,10,20.9,8,21.6,6.3c0.2-0.4,0.3-0.8,0.5-1c0.3-0.4,0.8-0.5,1.2-0.2s0.5,0.8,0.2,1.2
	c-0.1,0.1-0.2,0.3-0.3,0.6c-0.5,1.3-0.5,2.8,0.3,4.5c1.1,2.1,1.1,4.1,0.4,5.8C23.7,17.6,23.5,17.9,23.4,18.1z M16.7,18
	c-0.2,0.4-0.7,0.6-1.1,0.4c-0.4-0.2-0.6-0.7-0.4-1.1c0-0.1,0.1-0.2,0.1-0.4c0.2-0.7,0.2-1.5-0.1-2.3c-0.6-1.2-0.6-2.4-0.2-3.5
	c0.1-0.3,0.2-0.5,0.2-0.6c0.2-0.4,0.7-0.6,1.1-0.4c0.4,0.2,0.6,0.7,0.4,1.1c0,0.1-0.1,0.2-0.1,0.4c-0.2,0.7-0.2,1.5,0.1,2.3
	c0.6,1.2,0.6,2.4,0.2,3.5C16.9,17.7,16.8,17.9,16.7,18z M30.2,18c-0.2,0.4-0.7,0.6-1.1,0.4c-0.4-0.2-0.6-0.7-0.4-1.1
	c0-0.1,0.1-0.2,0.1-0.4c0.2-0.7,0.2-1.5-0.1-2.3c-0.6-1.2-0.6-2.4-0.2-3.5c0.1-0.3,0.2-0.5,0.2-0.6c0.2-0.4,0.7-0.6,1.1-0.4
	c0.4,0.2,0.6,0.7,0.4,1.1c0,0.1-0.1,0.2-0.1,0.4c-0.2,0.7-0.2,1.5,0.1,2.3c0.6,1.2,0.6,2.4,0.2,3.5C30.4,17.7,30.3,17.9,30.2,18z"/>
</svg>
