<svg fill="#B7888A" xmlns="http://www.w3.org/2000/svg" data-name="Layer 1" viewBox="0 0 100 100" x="0px" y="0px"><title>14</title><path d="M96.65,44.38a2.5,2.5,0,0,0-.79-1.83l-17-15.87A2.5,2.5,0,0,0,77.17,26H49.08a11.46,11.46,0,0,0-7.89,3.13L27.68,41.88H15.85a12.51,12.51,0,0,0-12.5,12.5v5.12A6.51,6.51,0,0,0,9.85,66h3.24a11.21,11.21,0,0,0,21.48,0H66.63a11.21,11.21,0,0,0,21.48,0h2a6.51,6.51,0,0,0,6.5-6.5ZM67.44,31,78.73,41.89H58.46V31ZM44.62,32.78A6.47,6.47,0,0,1,49.08,31h4.38V41.89H35ZM23.83,69A6.21,6.21,0,1,1,30,62.78,6.22,6.22,0,0,1,23.83,69Zm53.53,0a6.21,6.21,0,1,1,6.21-6.21A6.22,6.22,0,0,1,77.37,69Zm14.28-9.5a1.5,1.5,0,0,1-1.5,1.5H88.43a11.2,11.2,0,0,0-22.12,0H34.89a11.2,11.2,0,0,0-22.12,0H9.85a1.5,1.5,0,0,1-1.5-1.5V54.38a7.51,7.51,0,0,1,7.5-7.5H91.12L74.65,31h1.54L91.65,45.46Z"></path><path d="M54.35,50.35H49a2.5,2.5,0,0,0,0,5h5.36a2.5,2.5,0,0,0,0-5Z"></path></svg>