<svg xmlns="http://www.w3.org/2000/svg" viewBox="0 0 98 98.1"><style>.st0{fill:#fff}</style><g><path class="st0" d="M94.2 20h-6.7v-8.4c0-1.4-1.1-2.5-2.5-2.5h-8.2V2.5c0-1.4-1.1-2.5-2.5-2.5h-5.4c-9.8 0-18.5 6.3-21.5 15.6-5.2-4.2-11.8-6.5-18.5-6.5H13c-1.4 0-2.5 1.1-2.5 2.5V20H3.8C1.7 20 0 21.7 0 23.8v61.3c0 2.1 1.7 3.8 3.8 3.8h24.8c4.2 0 8.3 1.8 11.1 5l.3.4c.5.5.9.9 1.5 1.3.2.2.4.3.6.4.5.3.9.6 1.4.8l.3.1c.3.1.5.2.8.3.3.1.7.2 1.1.3.3.1.6.2.9.2.5.1 1.1.2 1.6.2h.8c.8 0 1.6-.1 2.5-.3.3 0 .5-.1.7-.2.4-.1.8-.2 1.2-.4h.1l.6-.3.2-.1 1.5-.9.5-.4c.6-.4 1.1-.9 1.6-1.4l.1-.1.2-.2c2.8-3.1 6.8-4.9 11-4.9h24.9c2.1 0 3.8-1.7 3.8-3.8V23.8c.1-2.1-1.6-3.8-3.7-3.8zm-11.7-6v58.9H69.1c-6 0-11.8 1.8-16.8 5.2 2.6-6.9 9.2-11.4 16.5-11.3h5.4c1.4 0 2.5-1.1 2.5-2.5V14.1l5.8-.1zM68.9 5h2.9v56.8h-2.9c-6.7 0-13 2.9-17.4 8V19.7c.1-.7.2-1.3.4-2C54.1 10.1 61 4.9 68.9 5zm-53.5 9.1h13.4c6.7 0 13 2.7 17.6 7.5v57.2C41.4 75 35.2 73 28.9 73H15.4V14.1zM93 83.9H69.4c-5.7 0-11.1 2.4-14.8 6.6l-.1.1 1.8 1.7-1.9-1.6c-.3.3-.6.6-1 .8l-.3.2c-.3.2-.6.4-.9.5h-.1l-.1.2-.4.2c-.2.1-.5.2-.8.2l-.4.1c-.4 0-.9.1-1.4.1h-.4c-.3 0-.7-.1-1-.1-.2 0-.4-.1-.6-.1-.2-.1-.4-.1-.6-.2l-.4-.2-.2-.1c-.3-.1-.6-.3-.9-.5l-.3-.3c-.3-.2-.6-.5-.9-.8l-.2-.2c-3.8-4.2-9.2-6.6-14.8-6.6H5V25h5.4v50.4c0 1.4 1.1 2.5 2.5 2.5h15.9c7 0 13.6 3 18.3 8.2.9 1 2.5 1.1 3.5.2l.2-.2c4.6-5.2 11.3-8.2 18.3-8.2H85c1.4 0 2.5-1.1 2.5-2.5V25H93v58.9z"/><path class="st0" d="M23.1 29.3h4.1c3.6 0 7.2.8 10.5 2.5 1.2.7 2.7.2 3.4-1 .7-1.2.2-2.7-1-3.4 0 0-.1 0-.1-.1-4-2-8.3-3-12.7-3h-4.2c-1.4 0-2.5 1.1-2.5 2.5s1.1 2.4 2.5 2.5zM23.1 40.3h4.1c3.6 0 7.2.8 10.5 2.5 1.3.6 2.7 0 3.3-1.2.6-1.2.1-2.6-1.1-3.3-4-2-8.3-3-12.7-3H23c-1.4 0-2.5 1.1-2.5 2.5s1.2 2.4 2.6 2.5zM23.1 51.3h4.1c3.6 0 7.2.8 10.5 2.5 1.2.7 2.7.2 3.4-1 .7-1.2.2-2.7-1-3.4 0 0-.1 0-.1-.1-4-2-8.3-3-12.7-3h-4.2c-1.4 0-2.5 1.1-2.5 2.5s1.1 2.4 2.5 2.5zM37.7 64.7c1.2.7 2.7.2 3.4-1s.2-2.7-1-3.4c0 0-.1 0-.1-.1-4-2-8.3-3-12.7-3h-4.2c-1.4 0-2.5 1.1-2.5 2.5s1.1 2.5 2.5 2.5h4.1c3.7 0 7.3.8 10.5 2.5z"/></g></svg>
