<svg id="Layer_1" data-name="Layer 1" xmlns="http://www.w3.org/2000/svg" viewBox="0 0 68 74"><defs><style>.cls-1{fill:#fff;}</style></defs><title>overview</title><path class="cls-1" d="M84.56,48.74C83.87,47.9,67.58,28,51,28S18.13,47.9,17.44,48.74a2,2,0,0,0,0,2.52C18.13,52.1,34.42,72,51,72S83.87,52.1,84.56,51.26A2,2,0,0,0,84.56,48.74ZM51,68C38.56,68,25.43,54.28,21.64,50,25.43,45.72,38.56,32,51,32S76.57,45.72,80.36,50C76.57,54.28,63.44,68,51,68Z" transform="translate(-17 -13)"/><path class="cls-1" d="M51,39c-6.4,0-11.6,4.94-11.6,11S44.6,61,51,61s11.6-4.94,11.6-11S57.4,39,51,39Zm0,18c-4.19,0-7.6-3.14-7.6-7s3.41-7,7.6-7,7.6,3.14,7.6,7S55.19,57,51,57Z" transform="translate(-17 -13)"/><ellipse class="cls-1" cx="34" cy="37" rx="2.13" ry="2"/><path class="cls-1" d="M51,26a2,2,0,0,0,2-2V15a2,2,0,0,0-4,0v9A2,2,0,0,0,51,26ZM29,32.45a2,2,0,0,0,2.82-2.82l-6.47-6.48A2,2,0,1,0,22.5,26ZM71.61,33A2,2,0,0,0,73,32.45L79.5,26a2,2,0,1,0-2.83-2.83L70.2,29.63a2,2,0,0,0,0,2.82,2,2,0,0,0,1.41.59ZM29,67.55,22.5,74a2,2,0,1,0,2.83,2.83l6.47-6.47A2,2,0,0,0,29,67.5.12.12,0,0,0,29,67.55Zm44,0a2,2,0,1,0-2.87,2.78l0,0,6.47,6.47A2,2,0,1,0,79.5,74h0ZM51,74a2,2,0,0,0-2,2v9a2,2,0,0,0,4,0V76A2,2,0,0,0,51,74Z" transform="translate(-17 -13)"/></svg>