<svg xmlns="http://www.w3.org/2000/svg" viewBox="0 0 128 128" fill="#333"><path d="M112 8h-6V4a4 4 0 0 0-4-4H16a4 4 0 0 0-4 4v120a4 4 0 0 0 4 4h86a4 4 0 0 0 4-4v-4h6a4 4 0 0 0 4-4V12a4 4 0 0 0-4-4zM16 4h86v4H24a4 4 0 0 0-4 4v9h-4zm0 21h4v6h-4zm0 10h4v6h-4zm0 10h4v6h-4zm0 10h4v6h-4zm0 10h4v6h-4zm0 10h4v6h-4zm0 10h4v6h-4zm0 10h4v6h-4zm0 29v-19h4v11a4 4 0 0 0 4 4h78v4zm8-8v-11h4a2 2 0 0 0 0-4h-4v-6h4a2 2 0 0 0 0-4h-4v-6h4a2 2 0 0 0 0-4h-4v-6h4a2 2 0 0 0 0-4h-4v-6h4a2 2 0 0 0 0-4h-4v-6h4a2 2 0 0 0 0-4h-4v-6h4a2 2 0 0 0 0-4h-4v-6h4a2 2 0 0 0 0-4h-4v-6h4a2 2 0 0 0 0-4h-4v-9h88v104z"/><path d="M106 97H36a2 2 0 0 0 0 4h70a2 2 0 0 0 0-4zm0-70H36a2 2 0 0 0 0 4h70a2 2 0 0 0 0-4zM34 39a2 2 0 0 0 2 2h13.56a29.54 29.54 0 0 1 6.58-4H36a2 2 0 0 0-2 2zm72-2H79.87a29.54 29.54 0 0 1 6.58 4H106a2 2 0 0 0 0-4zM36 51h5.53a29.52 29.52 0 0 1 2.39-4H36a2 2 0 0 0 0 4zm70-4H92.09a29.52 29.52 0 0 1 2.39 4H106a2 2 0 0 0 0-4zm0 10h-9.35a29.3 29.3 0 0 1 .69 4H106a2 2 0 0 0 0-4zm-70 4h2.65a29.3 29.3 0 0 1 .69-4H36a2 2 0 0 0 0 4zm70 6h-8.65a29.3 29.3 0 0 1-.69 4H106a2 2 0 0 0 0-4zm-70 4h3.35a29.3 29.3 0 0 1-.69-4H36a2 2 0 0 0 0 4zm70 6H94.47a29.52 29.52 0 0 1-2.39 4H106a2 2 0 0 0 0-4zm-70 4h7.91a29.52 29.52 0 0 1-2.39-4H36a2 2 0 0 0 0 4zm0 10h20.13a29.54 29.54 0 0 1-6.58-4H36a2 2 0 0 0 0 4zm70-4H86.44a29.54 29.54 0 0 1-6.58 4H106a2 2 0 0 0 0-4zM52.74 67l8.19 8.19a2 2 0 0 0 2.83 0l19.5-19.5a2 2 0 0 0-2.83-2.83L62.34 70.92l-6.77-6.77A2 2 0 0 0 52.74 67z"/><path d="M68 89.5A25.5 25.5 0 1 0 42.5 64 25.53 25.53 0 0 0 68 89.5zm0-47A21.5 21.5 0 1 1 46.5 64 21.52 21.52 0 0 1 68 42.5z"/></svg>
