<svg xmlns="http://www.w3.org/2000/svg" viewBox="28.3 17.88 43.4 61.12">
  <path d="M58 61.3c-.8-.3-1.6.1-1.9.8-.8 2-3 3.4-5.4 3.4-3.1 0-5.7-2.3-5.7-5V59h9.5c.8 0 1.5-.7 1.5-1.5s-.7-1.5-1.5-1.5H45v-2h9.5c.8 0 1.5-.7 1.5-1.5s-.7-1.5-1.5-1.5H45v-1.5c0-2.8 2.6-5 5.7-5 2.4 0 4.6 1.4 5.4 3.4.3.8 1.2 1.1 1.9.8.8-.3 1.2-1.2.8-1.9-1.2-3.2-4.5-5.3-8.2-5.3-4.8 0-8.7 3.6-8.7 8V51h-1.5c-.8 0-1.5.7-1.5 1.5s.7 1.5 1.5 1.5H42v2h-1.5c-.8 0-1.5.7-1.5 1.5s.7 1.5 1.5 1.5H42v1.5c0 4.4 3.9 8 8.7 8 3.6 0 6.9-2.1 8.2-5.3.3-.7-.1-1.6-.9-1.9zm-3.9-33.9c-.3 0-.6-.1-.9-.3-.7-.5-.8-1.4-.3-2.1l2.8-3.7-5.5.6h-.3l-5.5-.6 2.8 3.7c.5.7.4 1.6-.3 2.1s-1.6.4-2.1-.3l-4.9-6.5c-.4-.5-.4-1.1-.1-1.6.3-.5.9-.8 1.5-.8l8.8 1 8.8-1c.6-.1 1.2.2 1.5.8s.3 1.2-.1 1.6l-4.9 6.5c-.4.4-.9.6-1.3.6z"/>
  <path d="M50 79c-10.2 0-21.7 0-21.7-14.9C28.3 50.2 38 29 50 29s21.7 21.2 21.7 35.1C71.7 79 60.2 79 50 79zm0-47c-4.4 0-9.1 4.1-12.9 11.1-3.5 6.5-5.7 14.7-5.7 20.9-.1 11.4 7 12 18.6 12s18.7-.6 18.7-11.9c0-6.3-2.2-14.5-5.7-20.9C59.1 36.1 54.4 32 50 32z"/>
</svg>
