<svg xmlns="http://www.w3.org/2000/svg" viewBox="0 0 1024 1024"><defs><style>.cls-1{fill:none;}</style></defs><g id="Layer_2" data-name="Layer 2"><g id="Layer_1-2" data-name="Layer 1"><path d="M605.65,650.19a17.3,17.3,0,0,0-22.24,9.37c-9.37,23.41-35.12,39.8-63.22,39.8-36.29,0-66.72-26.92-66.72-58.53V623.27H564.68a17.56,17.56,0,0,0,0-35.12H453.47V564.73H564.68a17.56,17.56,0,1,0,0-35.12H453.47V512.06c0-32.78,30.43-58.54,66.72-58.54,28.1,0,53.85,16.39,63.22,39.8a16.75,16.75,0,0,0,22.24,9.37c9.37-3.51,14.05-14.05,9.37-22.24C601,443,562.34,418.4,519,418.4c-56.19,0-101.84,42.15-101.84,93.66v17.55H399.62a17.56,17.56,0,0,0,0,35.12h18.73v23.42H400.79a17.56,17.56,0,0,0,0,35.12h17.56v17.56c0,51.51,45.65,93.65,101.84,93.65,42.15,0,80.78-24.58,96-62C619.7,664.24,615,653.7,605.65,650.19Z"/><path d="M560,253.34a18.9,18.9,0,0,1-10.54-3.51c-8.19-5.86-9.36-16.39-3.51-24.59l32.78-43.31-64.39,7h-3.51l-64.39-7,32.78,43.31c5.85,8.2,4.68,18.73-3.51,24.59s-18.73,4.68-24.58-3.51l-57.37-76.1a15.89,15.89,0,0,1-1.17-18.73c3.51-5.85,10.54-9.36,17.56-9.36l103,11.7,103-11.7c7-1.17,14,2.34,17.56,9.36s3.51,14-1.17,18.73l-57.36,76.1C570.53,251,564.68,253.34,560,253.34Z"/><path d="M512,857.4c-119.41,0-254,0-254-174.43,0-162.72,113.55-410.9,254-410.9S766,520.25,766,683C766,857.4,631.41,857.4,512,857.4Zm0-550.21c-51.51,0-106.53,48-151,129.94-41,76.1-66.73,172.09-66.73,244.67C293.09,815.26,376.2,822.28,512,822.28s218.91-7,218.91-139.31c0-73.75-25.75-169.74-66.72-244.67C618.53,355.19,563.51,307.19,512,307.19Z"/><rect class="cls-1" width="1024" height="1024"/></g></g></svg>