<svg width="48" height="60" xmlns="http://www.w3.org/2000/svg">

 <g>
  <title>background</title>
  <rect fill="none" id="canvas_background" height="402" width="582" y="-1" x="-1"/>
 </g>
 <g>
  <title>Layer 1</title>
  <g id="svg_1">
   <path fill="#505050" id="svg_2" d="m47,46.5l-46,0c-0.553,0 -1,-0.448002 -1,-1l0,-34c0,-0.552 0.447,-1 1,-1l18,0l0,2l-17,0l0,32l44,0l0,-32l-17,0l0,-2l18,0c0.553001,0 1,0.448 1,1l0,34c0,0.551998 -0.446999,1 -1,1z"/>
   <path fill="#505050" id="svg_3" d="m29,16.5l-10,0c-0.552999,0 -1,-0.448 -1,-1l0,-8c0,-3.309 2.691,-6 6,-6s6,2.691 6,6l0,8c0,0.552 -0.447001,1 -1,1zm-9,-2l8,0l0,-7c0,-2.206 -1.794001,-4 -4,-4s-4,1.794 -4,4l0,7z"/>
   <rect fill="#505050" id="svg_4" height="2" width="46" y="18.5" x="1"/>
   <path fill="#505050" id="svg_5" d="m41,40.5l-16,0c-0.552999,0 -1,-0.448002 -1,-1s0.447001,-1 1,-1l16,0c0.553001,0 1,0.448002 1,1s-0.446999,1 -1,1z"/>
   <path fill="#505050" id="svg_6" d="m41,36.5l-16,0c-0.552999,0 -1,-0.448002 -1,-1s0.447001,-1 1,-1l16,0c0.553001,0 1,0.448002 1,1s-0.446999,1 -1,1z"/>
   <path fill="#505050" id="svg_7" d="m41,32.5l-16,0c-0.552999,0 -1,-0.448002 -1,-1s0.447001,-1 1,-1l16,0c0.553001,0 1,0.448 1,1s-0.446999,1 -1,1z"/>
   <path fill="#505050" id="svg_8" d="m34,28.5l-9,0c-0.552999,0 -1,-0.448 -1,-1s0.447001,-1 1,-1l9,0c0.553001,0 1,0.448 1,1s-0.446999,1 -1,1z"/>
   <path fill="#505050" id="svg_9" d="m19,40.5l-12,0c-0.553,0 -1,-0.448002 -1,-1l0,-12c0,-0.552 0.447,-1 1,-1l12,0c0.552999,0 1,0.448 1,1l0,12c0,0.551998 -0.447001,1 -1,1zm-11,-2l10,0l0,-10l-10,0l0,10z"/>
   <path fill="#505050" id="svg_10" d="m24,9.5c-0.528999,0 -1.040001,-0.21 -1.41,-0.59c-0.380001,-0.37 -0.59,-0.88 -0.59,-1.41s0.209999,-1.04 0.59,-1.41c0.74,-0.75 2.08,-0.75 2.83,0c0.370001,0.37 0.58,0.89 0.58,1.41s-0.209999,1.04 -0.58,1.41c-0.379999,0.38 -0.891001,0.59 -1.42,0.59z"/>
  </g>
 </g>
</svg>