<svg xmlns="http://www.w3.org/2000/svg" xmlns:xlink="http://www.w3.org/1999/xlink" version="1.1" x="0px" y="0px" viewBox="0 0 512 512" enable-background="new 0 0 512 512" xml:space="preserve"><g><g><polygon points="256,71.211 444.672,196.992 451.328,187.008 256,56.789 60.672,187.008 67.328,196.992   "></polygon><path d="M447.676,328.473c-5.611-15.391-26.465-24.462-37.603-28.312c2.827-8.04,4.349-17.396,4.349-27.828    c0-41.034-14.187-59.333-46-59.333s-46,18.299-46,59.333c0,10.355,1.498,19.65,4.284,27.65c-3.414,1.176-7.907,2.891-12.628,5.16    c-9.717,4.671-16.855,9.963-21.355,15.793c-8.608-7.882-20.586-11.745-36.426-11.745c-16.069,0-28.168,3.969-36.802,12.083    c-4.483-5.964-11.706-11.371-21.61-16.131c-4.446-2.137-8.687-3.78-12.018-4.947c2.835-8.048,4.362-17.416,4.362-27.863    c0-41.034-14.187-59.333-46-59.333s-46,18.299-46,59.333c0,10.355,1.498,19.65,4.284,27.65c-3.413,1.176-7.907,2.891-12.628,5.16    c-13.752,6.61-22.365,14.459-25.599,23.329c-10.165,27.882-6.134,50.661-5.958,51.617l11.801-2.18    c-0.038-0.202-3.625-20.485,5.431-45.327c2.082-5.709,8.775-11.43,19.356-16.543c4.848-2.342,9.514-4.054,12.699-5.111    c7.991,13.17,20.694,20.738,36.614,20.738c15.85,0,28.513-7.499,36.51-20.561c9.754,3.312,26.316,10.647,30.938,20.234    c-6.335,11.121-9.332,26.543-9.332,47.789c0,12.768,1.925,24.164,5.49,33.879c-4.161,1.395-10.005,3.565-16.168,6.528    c-16.196,7.785-26.318,16.97-30.084,27.3l11.273,4.111c4.851-13.303,27.737-23.059,40.096-27.013    c9.345,15.944,24.401,25.129,43.345,25.129c18.857,0,33.863-9.102,43.217-24.911c12.498,4.077,34.625,13.702,39.397,26.794    l11.274-4.11c-3.766-10.33-13.887-19.515-30.083-27.3c-5.809-2.792-11.333-4.881-15.434-6.28c3.624-9.769,5.58-21.252,5.58-34.127    c0-21.616-3.1-37.206-9.664-48.368c2.729-5.098,9.069-10.152,18.524-14.721c4.848-2.342,9.514-4.054,12.698-5.111    c7.991,13.17,20.694,20.738,36.614,20.738c15.843,0,28.502-7.492,36.5-20.544c3.158,1.067,7.556,2.709,12.125,4.917    c10.581,5.113,17.274,10.834,19.355,16.543c8.99,24.657,5.465,45.137,5.431,45.327l11.801,2.18    C453.81,379.134,457.842,356.355,447.676,328.473z M144.229,319.667c-25.068,0-34-24.451-34-47.333    c0-39.416,13.009-47.333,34-47.333s34,7.918,34,47.333C178.229,295.216,169.297,319.667,144.229,319.667z M256.297,437.064    c-20.281,0-41.952-15.22-41.952-57.936c0-22.111,3.491-37.224,10.674-46.202c6.404-8.006,16.343-11.734,31.278-11.734    s24.874,3.729,31.278,11.734c7.183,8.978,10.674,24.091,10.674,46.202C298.249,421.844,276.578,437.064,256.297,437.064z     M368.422,319.667c-25.068,0-34-24.451-34-47.333c0-39.415,13.009-47.333,34-47.333s34,7.918,34,47.333    C402.422,295.215,393.49,319.667,368.422,319.667z"></path></g></g></svg>