<svg width="96.568" height="100" xmlns="http://www.w3.org/2000/svg">

 <g>
  <title>background</title>
  <rect fill="none" id="canvas_background" height="402" width="582" y="-1" x="-1"/>
 </g>
 <g>
  <title>Layer 1</title>
  <path fill="#505050" id="svg_1" d="m19.184,24.500999l0.926001,15.758999l7.418001,0l0.925999,-15.759001c1.536001,0 2.781,-1.246 2.781,-2.783998l0,-9.003001c0,-1.533 -1.643,-3.179 -3.178999,-3.179l-8.476,0c-1.536001,0 -3.179001,1.646 -3.179001,3.179l0,9.003001c0.000999,1.538 1.245998,2.784 2.782999,2.784z"/>
  <path fill="#505050" id="svg_2" d="m6.562,33.151001l-2.856,-0.861c-0.29,0.959 -0.52,2.011002 -0.686,3.127998l2.95,0.439003c0.145,-0.975002 0.344,-1.886002 0.592,-2.706001z"/>
  <path fill="#505050" id="svg_3" d="m9.12,28.726l-2.014,-2.198999c-0.818,0.749001 -1.532,1.66 -2.123,2.712l2.598,1.462c0.437,-0.775 0.955,-1.439001 1.539,-1.975z"/>
  <path fill="#505050" id="svg_4" d="m29.290001,65.453003c0,-0.717003 -0.034,-1.436996 -0.097,-2.151001l-2.971001,0.266003c0.056002,0.626995 0.085001,1.256001 0.085001,1.888996c0,0.301003 -0.006001,0.603004 -0.021,0.902l2.979,0.134003c0.015999,-0.348007 0.025,-0.696007 0.025,-1.040001z"/>
  <path fill="#505050" id="svg_5" d="m6,38.316002l-2.926,0.580002c0.222,1.114998 0.651,2.206997 1.277,3.243l2.553,-1.544003c-0.447001,-0.738003 -0.75,-1.504002 -0.904,-2.278999z"/>
  <polygon fill="#505050" id="svg_6" points="31.311,26.724 31.305,26.811 31.316,26.719 "/>
  <path fill="#505050" id="svg_7" d="m24.677,81.026001c0,-0.166 0.003,-0.330002 0.013,-0.495003l-2.978001,-0.168999c-0.011999,0.220001 -0.018,0.442001 -0.018,0.666c0,0.890999 0.098999,1.800003 0.294001,2.702003l2.915998,-0.629005c-0.151999,-0.696999 -0.226999,-1.395996 -0.226999,-2.074997z"/>
  <path fill="#505050" id="svg_8" d="m28.893,69.678001l-2.927,-0.570999c-0.182999,0.933998 -0.438,1.806 -0.756001,2.591995l2.764002,1.122002c0.389,-0.963997 0.698999,-2.021996 0.918999,-3.142998z"/>
  <path fill="#505050" id="svg_9" d="m18.252001,48.693001l-1.313,2.677002l0.228001,0.112c0.852999,0.418999 1.671,0.819 2.424,1.209999l1.373999,-2.646999c-0.771999,-0.400002 -1.608999,-0.812 -2.483999,-1.240002l-0.229,-0.112z"/>
  <path fill="#505050" id="svg_10" d="m6.442,44.751999c0.714,0.706001 1.521,1.383999 2.467,2.069l1.75,-2.414001c-0.81,-0.586998 -1.522,-1.183998 -2.117001,-1.771999l-2.1,2.117001z"/>
  <path fill="#505050" id="svg_11" d="m11.533,48.527c0.886,0.523998 1.794,1.016998 2.698,1.485001l1.372,-2.646999c-0.855,-0.442001 -1.714,-0.908001 -2.552,-1.403l-1.518,2.564999z"/>
  <path fill="#505050" id="svg_12" d="m13.393,23.881001c-1.219,0.118 -2.304999,0.373001 -3.316999,0.779999l1.113999,2.767c0.744,-0.299999 1.559,-0.489 2.490001,-0.578999l-0.287001,-2.968z"/>
  <path fill="#505050" id="svg_13" d="m28.695,60.148998c-0.247,-1.084999 -0.572001,-2.122002 -0.962,-3.081001l-2.763,1.124001c0.329,0.811001 0.605001,1.693001 0.818001,2.624001l2.907,-0.667z"/>
  <path fill="#505050" id="svg_14" d="m26.375,75.696999l-2.476,-1.666c-0.646,0.959 -1.156,1.969002 -1.52,2.997002l2.812,0.991997c0.281,-0.792 0.677999,-1.572998 1.184,-2.322998z"/>
  <path fill="#505050" id="svg_15" d="m58.287998,52.915001c-0.771,-0.207001 -1.446999,-0.509998 -2.339001,-1.042999l-1.530998,2.557999c1.126999,0.677002 2.052998,1.084999 3.095997,1.365002l0.774002,-2.880001z"/>
  <path fill="#505050" id="svg_16" d="m51.772999,52.632999l1.880001,-2.314999c-0.678001,-0.549004 -1.27,-1.166 -1.812,-1.887001l-2.383999,1.791c0.690998,0.918999 1.447998,1.706001 2.315998,2.410999z"/>
  <path fill="#505050" id="svg_17" d="m63.900002,53.525002c-1.149002,-0.058998 -2.104,-0.117001 -2.923,-0.188999l-0.264999,2.970997c0.850998,0.075001 1.841999,0.137001 3.035999,0.198002l0.152,-2.98z"/>
  <path fill="#505050" id="svg_18" d="m93.598,66.786003l2.971001,-0.271004c-0.105003,-1.156998 -0.347,-2.262993 -0.717003,-3.285995l-2.805,1.015999c0.282005,0.781998 0.469002,1.635994 0.551003,2.541z"/>
  <path fill="#505050" id="svg_19" d="m45.558998,41.634998l2.845001,-0.892002c-0.276001,-0.887997 -0.559002,-1.832996 -0.851002,-2.836998l-2.862,0.835999c0.296001,1.025002 0.584003,1.987003 0.868,2.893002z"/>
  <path fill="#505050" id="svg_20" d="m23.725,55.847l2.447001,-1.703999c-0.392,-0.561001 -0.813002,-1.071003 -1.261002,-1.519001c-0.319,-0.318001 -0.709,-0.636002 -1.191999,-0.973999l-1.707001,2.442997c0.334002,0.234001 0.602001,0.450001 0.792002,0.639c0.32,0.323002 0.629,0.697002 0.921,1.115002z"/>
  <path fill="#505050" id="svg_21" d="m25.757,85.610001l-2.702,1.259003c0.441,0.948997 0.99,1.895996 1.631001,2.809998l2.439999,-1.711998c-0.539,-0.771004 -0.998999,-1.563004 -1.368999,-2.357002z"/>
  <path fill="#505050" id="svg_22" d="m37.301998,98.960999c1.058998,0.352997 2.111,0.615997 3.125999,0.781998l0.485001,-2.941002c-0.862,-0.142998 -1.761002,-0.367996 -2.671001,-0.670998l-0.939999,2.830002z"/>
  <path fill="#505050" id="svg_23" d="m69.112,83.468002l0.217003,2.973999c0.866997,-0.061996 1.796997,-0.070999 2.796997,-0.017998l0.156998,-2.979004c-1.133995,-0.058998 -2.184998,-0.047997 -3.170998,0.023003z"/>
  <path fill="#505050" id="svg_24" d="m26.712,92.160004c0.711,0.755997 1.493,1.485001 2.321001,2.169998l1.898998,-2.300995c-0.733999,-0.605003 -1.424999,-1.249001 -2.050999,-1.913002l-2.169001,2.043999z"/>
  <path fill="#505050" id="svg_25" d="m75.078003,83.5l0.226997,2.973c1.000999,-0.076996 2.065002,-0.239998 3.166,-0.486l-0.645996,-2.908997c-0.965004,0.213997 -1.889008,0.355995 -2.747002,0.421997z"/>
  <path fill="#505050" id="svg_26" d="m91.258003,75.152c-0.348999,0.464996 -0.743004,0.926003 -1.172997,1.373001l2.151993,2.063995c0.512001,-0.531998 0.984001,-1.085999 1.405006,-1.646996c0.225998,-0.301003 0.437996,-0.607002 0.636993,-0.917999l-2.514999,-1.604004c-0.158997,0.248001 -0.327003,0.492004 -0.505997,0.732002z"/>
  <path fill="#505050" id="svg_27" d="m92.925003,72.039001l2.810997,1.001999c0.370003,-1.034996 0.627007,-2.115997 0.769005,-3.213997l-2.957001,-0.382004c-0.116005,0.887001 -0.324005,1.760002 -0.623001,2.594002z"/>
  <path fill="#505050" id="svg_28" d="m85.693001,79.938004l1.521004,2.566002c0.931999,-0.554001 1.814995,-1.150002 2.627998,-1.777l-1.820999,-2.361c-0.717003,0.551994 -1.5,1.081993 -2.328003,1.571999z"/>
  <path fill="#505050" id="svg_29" d="m91.852997,62.120998l2.264,-1.945c-0.751999,-0.872002 -1.625,-1.514999 -2.600998,-1.910999l-0.429001,-0.170002l-1.083,2.778l0.392998,0.157001c0.530006,0.214001 1.019005,0.581001 1.456001,1.091z"/>
  <path fill="#505050" id="svg_30" d="m80.543999,82.306999l0.965004,2.821999c0.980995,-0.335999 1.962997,-0.727997 2.915993,-1.165001l-1.242996,-2.710999c-0.863998,0.396004 -1.750999,0.750999 -2.638,1.054001z"/>
  <path fill="#505050" id="svg_31" d="m40.643002,27.322001l-1.653999,2.480999c0.774998,0.519001 1.482998,1.09 2.104,1.699001l2.091999,-2.125999c-0.754002,-0.741001 -1.611,-1.432001 -2.542,-2.054001z"/>
  <path fill="#505050" id="svg_32" d="m46.706001,34.998001c-0.341,-1.062 -0.820999,-2.087002 -1.428001,-3.042l-2.518997,1.598999c0.469997,0.740002 0.841999,1.532001 1.105999,2.355l2.841,-0.911999z"/>
  <path fill="#505050" id="svg_33" d="m31.594,96.196999c0.891001,0.574997 1.820002,1.098 2.758001,1.555l1.305,-2.681999c-0.831001,-0.404999 -1.655003,-0.870003 -2.449001,-1.381004l-1.614,2.508003z"/>
  <path fill="#505050" id="svg_34" d="m34.82,24.635l-0.841999,2.862999c0.891998,0.261002 1.767998,0.588001 2.600998,0.970001l1.244003,-2.711c-0.964001,-0.441 -1.974003,-0.818001 -3.003002,-1.122z"/>
  <path fill="#505050" id="svg_35" d="m43.650002,97.017998l0.062,2.982002c1.113998,-0.000999 2.185001,-0.096001 3.178001,-0.278999l-0.542,-2.932999c-0.819004,0.151001 -1.707005,0.227997 -2.698002,0.229996z"/>
  <path fill="#505050" id="svg_36" d="m48.872002,96.025002l1.188,2.734001c0.984001,-0.428001 1.919003,-0.963005 2.858002,-1.637001l-1.737003,-2.422005c-0.764999,0.549004 -1.521,0.982002 -2.308998,1.325005z"/>
  <path fill="#505050" id="svg_37" d="m62.837002,85.016998l1.238003,2.711998c0.804001,-0.366997 1.660995,-0.660995 2.547997,-0.874001l-0.698997,-2.899994c-1.071007,0.257996 -2.112003,0.615997 -3.087002,1.061996z"/>
  <path fill="#505050" id="svg_38" d="m57.554001,88.666l2.027,2.186996c0.757999,-0.700996 1.461998,-1.278999 2.154999,-1.770996l-1.722,-2.434998c-0.799999,0.565994 -1.606998,1.225998 -2.459999,2.018997z"/>
  <path fill="#505050" id="svg_39" d="m55.230999,90.976997c-0.636002,0.654999 -1.269001,1.308998 -1.924,1.931999l2.056999,2.161003c0.685001,-0.649002 1.344002,-1.331001 2.010002,-2.018005l0.142998,-0.145996l-2.140999,-2.077003l-0.145,0.148003z"/>
  <path fill="#505050" id="svg_40" d="m49.337002,43.504002l-2.797001,1.034c0.406002,1.099998 0.806999,2.046001 1.228001,2.895l2.673,-1.321999c-0.375,-0.754005 -0.736,-1.606003 -1.104,-2.607002z"/>
  <polygon fill="#505050" id="svg_41" points="66.812,55.157 66.839,54.641 66.88,53.667 "/>
  <path fill="#505050" id="svg_42" d="m3.708,61.862999c0,2.046001 1.66,3.707001 3.709,3.707001c2.047,0 3.708,-1.660999 3.708,-3.707001c0,-2.048 -1.661,-3.709 -3.708,-3.709c-2.049,0 -3.709,1.660999 -3.709,3.709"/>
  <path fill="#505050" id="svg_43" d="m14.833,79.872002l0,-9.003998c0,-1.533005 -1.643001,-3.179001 -3.179,-3.179001l-8.475,0c-1.536,0 -3.179,1.644997 -3.179,3.178993l0,9.003998c0,1.537003 1.245,2.784004 2.781,2.784004l0.927,15.758995l7.417,0l0.927,-15.758995c1.536,0 2.781,-1.247002 2.781,-2.783997"/>
  <path fill="#505050" id="svg_44" d="m37.077,73.708l0.927002,15.759003l7.417,0l0.926998,-15.759003c1.535999,0 2.780998,-1.246002 2.780998,-2.783997l0,-9.003002c0,-1.534 -1.642998,-3.18 -3.178997,-3.18l-8.476002,0c-1.535999,0 -3.179001,1.646 -3.179001,3.18l0,9.003002c0.001003,1.537994 1.246002,2.783997 2.782001,2.783997z"/>
  <path fill="#505050" id="svg_45" d="m58.958,8.182c0,2.046 1.66,3.708 3.709,3.708c2.046997,0 3.709,-1.662001 3.709,-3.708c0,-2.047 -1.662003,-3.709 -3.709,-3.709c-2.049,0 -3.709,1.662 -3.709,3.709"/>
  <path fill="#505050" id="svg_46" d="m70.083,26.191l0,-9.004c0,-1.533 -1.642998,-3.179 -3.179001,-3.179l-8.473999,0c-1.535999,0 -3.179001,1.646 -3.179001,3.179l0,9.004c0,1.537001 1.243999,2.784 2.781002,2.784l0.925999,15.759001l7.417999,0l0.926003,-15.759001c1.535995,0 2.780998,-1.247 2.780998,-2.784"/>
  <path fill="#505050" id="svg_47" d="m20.110001,3.709c0,2.046 1.66,3.708 3.709,3.708c2.047001,0 3.709002,-1.662 3.709002,-3.708c-0.000002,-2.047 -1.662003,-3.709 -3.709002,-3.709c-2.048,0 -3.709,1.662 -3.709,3.709"/>
  <path fill="#505050" id="svg_48" d="m76.772003,39.495998c0,2.046001 1.660004,3.708 3.709,3.708c2.047997,0 3.709,-1.661999 3.709,-3.708c0,-2.047001 -1.661003,-3.709 -3.709,-3.709c-2.048004,0 -3.709,1.662003 -3.709,3.709"/>
  <path fill="#505050" id="svg_49" d="m38.004002,52.916c0,2.047001 1.66,3.708 3.709,3.708c2.047001,0 3.708,-1.660999 3.708,-3.708s-1.660999,-3.708 -3.708,-3.708c-2.049,0 -3.709,1.660999 -3.709,3.708"/>
  <path fill="#505050" id="svg_50" d="m75.847,60.289001l0.926003,15.759003l7.417999,0l0.926994,-15.759003c1.536003,0 2.781006,-1.246002 2.781006,-2.784l0,-9.005001c0,-1.533001 -1.643005,-3.179001 -3.18,-3.179001l-8.474998,0c-1.536003,0 -3.179001,1.646 -3.179001,3.179001l0,9.004002c0,1.537998 1.245995,2.785 2.781998,2.785z"/>
  <path fill="#505050" id="svg_51" d="m70.083,53.854c-1.106003,-0.080002 -2.094002,-0.133999 -2.893997,-0.171001l-0.298004,-0.015999l-0.053001,0.973999l-0.083,2.006001l0.275002,0.014999c0.825005,0.039001 1.822998,0.092003 2.950005,0.173l0.101997,-1.405998l0,-1.575001l0.000999,0z"/>
 </g>
</svg>