<svg xmlns="http://www.w3.org/2000/svg" viewBox="21.5 12.75 57 74.5">
  <path d="M72.5 87.25a1 1 0 0 0 1-1v-4h4a1 1 0 0 0 1-1v-55a1 1 0 0 0-.3-.7l-12.5-12.5a1 1 0 0 0-.7-.3H27.5a1 1 0 0 0-1 1v4h-4a1 1 0 0 0-1 1v67.5a1 1 0 0 0 1 1h50zM66 24.75v-8.59l9.09 9.09H66v-.5zm-37.5 52.5v-62.5H64v11.5a1 1 0 0 0 1 1h11.5v53h-48v-3zm-5-57.5h3v61.5a1 1 0 0 0 1 1h44v3h-48v-65.5z"/>
  <path d="M32.5 34.75h40a1 1 0 1 0 0-2h-40a1 1 0 1 0 0 2zm0 7.5h40a1 1 0 1 0 0-2h-40a1 1 0 1 0 0 2zm0 7.5h40a1 1 0 1 0 0-2h-40a1 1 0 1 0 0 2zm0 7.5h40a1 1 0 1 0 0-2h-40a1 1 0 1 0 0 2zm0 7.5h40a1 1 0 1 0 0-2h-40a1 1 0 1 0 0 2zm40 7.5a1 1 0 1 0 0-2h-40a1 1 0 1 0 0 2h40z"/>
</svg>
