<svg xmlns="http://www.w3.org/2000/svg" xmlns:xlink="http://www.w3.org/1999/xlink" version="1.1" x="0px" y="0px" viewBox="0 0 100 100" enable-background="new 0 0 100 100" xml:space="preserve"><path d="M28,59c4.7,0,8.5-3.8,8.5-8.5c0-4.7-3.8-8.5-8.5-8.5c-4.7,0-8.5,3.8-8.5,8.5C19.5,55.2,23.3,59,28,59z M28,45.1  c3,0,5.4,2.4,5.4,5.4c0,3-2.4,5.4-5.4,5.4c-3,0-5.4-2.4-5.4-5.4C22.5,47.5,25,45.1,28,45.1z"></path><path d="M28,61.1c-7.8,0-14.2,6.4-14.2,14.2c0,0.8,0.7,1.5,1.5,1.5h25.4c0.8,0,1.5-0.7,1.5-1.5C42.2,67.5,35.8,61.1,28,61.1z   M16.9,73.8c0.8-5.4,5.4-9.6,11.1-9.6s10.3,4.2,11.1,9.6H16.9z"></path><path d="M94.6,26.5H60.2V12.4c0-0.8-0.7-1.5-1.5-1.5H41.3c-0.8,0-1.5,0.7-1.5,1.5v14.1H5.4c-0.8,0-1.5,0.7-1.5,1.5v58.6  c0,0.8,0.7,1.5,1.5,1.5h89.2c0.8,0,1.5-0.7,1.5-1.5V28C96.1,27.2,95.4,26.5,94.6,26.5z M42.8,13.9h14.3v20.5H42.8V13.9z M93,85H6.9  V29.6h32.8v6.4c0,0.8,0.7,1.5,1.5,1.5h17.4c0.8,0,1.5-0.7,1.5-1.5v-6.4H93V85z"></path><path d="M50,16c-2.8,0-5.1,2.3-5.1,5.1s2.3,5.1,5.1,5.1s5.1-2.3,5.1-5.1S52.8,16,50,16z M50,23.1c-1.1,0-2-0.9-2-2s0.9-2,2-2  s2,0.9,2,2S51.1,23.1,50,23.1z"></path><path d="M81,50.2H53.1c-0.8,0-1.5-0.7-1.5-1.5s0.7-1.5,1.5-1.5H81c0.8,0,1.5,0.7,1.5,1.5S81.9,50.2,81,50.2z"></path><path d="M81,61.6H53.1c-0.8,0-1.5-0.7-1.5-1.5s0.7-1.5,1.5-1.5H81c0.8,0,1.5,0.7,1.5,1.5S81.9,61.6,81,61.6z"></path><path d="M67.1,73.8h-14c-0.8,0-1.5-0.7-1.5-1.5s0.7-1.5,1.5-1.5h14c0.8,0,1.5,0.7,1.5,1.5S67.9,73.8,67.1,73.8z"></path><path d="M81,73.8h-6.8c-0.8,0-1.5-0.7-1.5-1.5s0.7-1.5,1.5-1.5H81c0.8,0,1.5,0.7,1.5,1.5S81.8,73.8,81,73.8z"></path></svg>