<svg xmlns="http://www.w3.org/2000/svg" xmlns:xlink="http://www.w3.org/1999/xlink" version="1.1" x="0px" y="0px" viewBox="0 0 100 100" style="enable-background:new 0 0 100 100;" xml:space="preserve"><path d="M73.5,41c0-3.8-3.1-6.8-6.8-6.8H50.8c-0.8,0-1.6,0.1-2.3,0.4v-1.7l1.6-1.6c0,0,0,0,0,0c2.2-2.2,3.5-5.2,3.5-8.4  s-1.2-6.2-3.5-8.4c-0.9-0.9-2.3-0.9-3.2,0L28.8,32.6c-1.2,1.2-2.3,2.5-3.3,3.9H12.3c-1.3,0-2.3,1-2.3,2.3c0,1.3,1,2.3,2.3,2.3h14.5  c0.8,0,1.5-0.4,1.9-1c1-1.5,2.1-2.9,3.4-4.2l16.3-16.3c0.5,1,0.8,2.2,0.8,3.3c0,2-0.8,3.8-2.2,5.2c0,0,0,0,0,0l-2.3,2.3  c-0.4,0.4-0.7,1-0.7,1.6v7.9c0,4.4-3.6,7.9-7.9,7.9c-1.3,0-2.3,1-2.3,2.3s1,2.3,2.3,2.3c3,0,5.8-1.1,8-2.9c0,0.2,0,0.4,0,0.6  c0,1.7,0.7,3.3,1.7,4.5c-1.1,1.2-1.7,2.8-1.7,4.5c0,1.7,0.7,3.3,1.7,4.5c-1.1,1.2-1.7,2.8-1.7,4.5c0,0.8,0.1,1.5,0.4,2.2  c-6.5-0.6-12.5-4.4-15.8-10.1c-0.5-0.8-1.4-1.2-2.3-1.1c-0.1,0-0.3,0-0.4,0H12.3c-1.3,0-2.3,1-2.3,2.3c0,1.3,1,2.3,2.3,2.3h13.1  C30,70.7,37.9,75,46.3,75h13.6c3.8,0,6.8-3.1,6.8-6.8c0-0.9-0.2-1.7-0.5-2.5c2.9-0.8,5-3.4,5-6.6c0-1.2-0.3-2.4-0.9-3.3  c1.9-1.2,3.2-3.3,3.2-5.7c0-1.7-0.7-3.3-1.7-4.5C72.8,44.3,73.5,42.7,73.5,41z M66.7,38.7c1.3,0,2.3,1,2.3,2.3c0,1.2-1,2.3-2.3,2.3  H50.8c-1.3,0-2.3-1-2.3-2.3c0-1.3,1-2.3,2.3-2.3H66.7z M69,50.1c0,1.3-1,2.3-2.3,2.3H50.8c-1.3,0-2.3-1-2.3-2.3c0-1.2,1-2.3,2.3-2.3  h15.9C67.9,47.8,69,48.8,69,50.1z M59.9,70.5h-9.1c-1.3,0-2.3-1-2.3-2.3c0-1.3,1-2.3,2.3-2.3h9.1c1.3,0,2.3,1,2.3,2.3  C62.2,69.4,61.1,70.5,59.9,70.5z M64.4,61.4H50.8c-1.3,0-2.3-1-2.3-2.3s1-2.3,2.3-2.3h13.6c1.3,0,2.3,1,2.3,2.3S65.7,61.4,64.4,61.4  z"></path></svg>