<svg width="80" height="95" xmlns="http://www.w3.org/2000/svg">

 <g>
  <title>background</title>
  <rect fill="none" id="canvas_background" height="97" width="82" y="-1" x="-1"/>
 </g>
 <g>
  <title>Layer 1</title>
  <path fill="#197197" id="svg_1" d="m70.387001,40.25c-0.000999,-0.042 -0.001999,-0.083 -0.007004,-0.125c-0.003998,-0.046001 -0.011993,-0.09 -0.019997,-0.136002c-0.006996,-0.045998 -0.014999,-0.091 -0.026001,-0.134998c-0.008995,-0.036999 -0.018997,-0.073002 -0.028999,-0.109001c-0.013,-0.042999 -0.028,-0.084999 -0.043999,-0.126999c-0.016998,-0.043999 -0.032997,-0.087002 -0.052002,-0.130001c-0.017998,-0.037998 -0.036995,-0.073997 -0.056999,-0.111c-0.010002,-0.02 -0.015999,-0.041 -0.027,-0.059998s-0.027,-0.035 -0.039001,-0.053001c-0.021996,-0.035999 -0.043999,-0.070999 -0.068001,-0.105c-0.025993,-0.036999 -0.056,-0.071999 -0.084,-0.107002c-0.029999,-0.035999 -0.058998,-0.070999 -0.090996,-0.105c-0.026001,-0.027 -0.052002,-0.053997 -0.080002,-0.079998c-0.032997,-0.029999 -0.066002,-0.059002 -0.100998,-0.087002c-0.037003,-0.029999 -0.072998,-0.060997 -0.112,-0.087997c-0.034004,-0.024002 -0.069,-0.045002 -0.104004,-0.067001c-0.018997,-0.012001 -0.033997,-0.027 -0.053001,-0.037998l-9.906998,-5.720001l1.607002,-0.957001l6.051003,-3.604c0.054001,-0.032 0.098999,-0.073999 0.148994,-0.110001c0.056999,-0.042 0.118004,-0.078999 0.169006,-0.125c0.048996,-0.043999 0.086998,-0.094999 0.129997,-0.143c0.044998,-0.049 0.094002,-0.094999 0.134003,-0.147999c0.038994,-0.053001 0.067993,-0.111 0.101997,-0.167c0.032997,-0.055 0.07,-0.107 0.097,-0.164001c0.028,-0.059999 0.045998,-0.122999 0.068001,-0.184999c0.020996,-0.059 0.046997,-0.115 0.062996,-0.176001c0.017006,-0.063999 0.022003,-0.130999 0.032005,-0.196999c0.008995,-0.061001 0.023994,-0.120001 0.028,-0.181002c0.003998,-0.067999 -0.003006,-0.136 -0.006004,-0.203999c-0.001999,-0.061001 0.000999,-0.121 -0.006996,-0.182001c-0.009003,-0.066999 -0.029999,-0.133999 -0.046005,-0.201c-0.014999,-0.060999 -0.022995,-0.122 -0.042999,-0.181999c-0.021996,-0.063999 -0.056999,-0.125 -0.084999,-0.187c-0.026001,-0.058001 -0.045998,-0.118 -0.079002,-0.174l-12.724998,-21.812c-0.001999,-0.003 -0.004997,-0.007 -0.007004,-0.011c-0.000999,-0.002 -0.001999,-0.005 -0.002998,-0.007c-0.018997,-0.032 -0.043999,-0.056 -0.063995,-0.086c-0.050003,-0.074 -0.098999,-0.149 -0.158005,-0.216c-0.003998,-0.005 -0.008995,-0.011 -0.014,-0.016c-0.039001,-0.042 -0.083,-0.076 -0.125,-0.115c-0.047997,-0.045 -0.092995,-0.094 -0.145996,-0.134c-0.007004,-0.005 -0.014,-0.011 -0.021004,-0.016c-0.042,-0.031 -0.087997,-0.053 -0.132996,-0.081c-0.014999,-0.009 -0.028999,-0.018 -0.043999,-0.027c-0.045006,-0.027 -0.086006,-0.059 -0.134003,-0.081c-0.007004,-0.004 -0.014999,-0.007 -0.022003,-0.011c-0.035995,-0.017 -0.073997,-0.026 -0.110001,-0.041c-0.082993,-0.034 -0.165993,-0.068 -0.251999,-0.09c-0.027,-0.007 -0.056,-0.008 -0.084,-0.014c-0.097,-0.021 -0.194,-0.04 -0.292999,-0.046c-0.048996,-0.003 -0.097,0.004 -0.145996,0.004c-0.081001,0.001 -0.162003,0 -0.242004,0.01c-0.070999,0.01 -0.139999,0.031 -0.209,0.049001c-0.056,0.014 -0.112999,0.022 -0.168999,0.041c-0.128998,0.044 -0.252998,0.102 -0.369999,0.171c-0.001999,0.001 -0.003002,0.001 -0.005001,0.002l-26.307999,15.670999c-0.014,0.007999 -0.023998,0.02 -0.037998,0.028c-0.083,0.052 -0.161003,0.108999 -0.235001,0.173c-0.014999,0.011999 -0.031002,0.021999 -0.045002,0.035c-0.048,0.042999 -0.085999,0.094 -0.128998,0.141001c-0.042,0.046 -0.089001,0.087999 -0.127003,0.137999c-0.002998,0.004 -0.005997,0.008001 -0.008999,0.012001c-0.037998,0.050999 -0.064999,0.107 -0.098,0.160999c-0.021999,0.037001 -0.048,0.073 -0.068001,0.112c-0.008999,0.017 -0.021,0.031 -0.028999,0.048c-0.000999,0.003 -0.001999,0.007 -0.004002,0.01c-0.026997,0.057001 -0.043999,0.118999 -0.064999,0.177999c-0.021999,0.061001 -0.049,0.120001 -0.064999,0.182001c-0.016003,0.063 -0.021,0.128 -0.031002,0.191999c-0.009998,0.062 -0.024998,0.123001 -0.028,0.186001c0,0.007 0,0.014 -0.000999,0.021c-0.002998,0.055 0.004002,0.106998 0.006001,0.161999c0,0.006001 0,0.013 0.000999,0.02c0.001999,0.062 -0.000999,0.122 0.007,0.183001c0.000999,0.007999 0.001999,0.017 0.004002,0.025c0.009998,0.065001 0.029999,0.128 0.045998,0.191999c0.014,0.055 0.021,0.111 0.040001,0.166c0.001999,0.007 0.005001,0.014 0.007999,0.021c0.030003,0.084 0.070999,0.162001 0.111,0.241001c0.017002,0.032999 0.027,0.067999 0.046001,0.099998l0.008999,0.015001l0,0c0,0 0,0 0,0l0,0c0,0 0,0.000999 0,0.000999l3.235001,5.542l-20.003002,11.576c-0.02,0.011002 -0.034,0.026001 -0.052999,0.037998c-0.035,0.022003 -0.069,0.043003 -0.102001,0.066002c-0.039,0.028 -0.076,0.057999 -0.112999,0.088001c-0.035,0.028999 -0.069,0.057999 -0.102001,0.088997c-0.026999,0.025002 -0.052999,0.051003 -0.077999,0.078003c-0.032,0.034 -0.061001,0.069 -0.09,0.104c-0.030001,0.035999 -0.059999,0.071999 -0.086,0.109997c-0.024,0.033001 -0.045,0.068001 -0.066999,0.104c-0.011999,0.019001 -0.027,0.034 -0.039,0.053001c-0.011,0.019001 -0.016001,0.040001 -0.027,0.060001c-0.02,0.037998 -0.040001,0.075001 -0.058001,0.113998c-0.018999,0.042 -0.035,0.084 -0.050999,0.126999c-0.016001,0.042 -0.031,0.084003 -0.044001,0.127003c-0.011,0.036999 -0.021,0.073997 -0.030001,0.111c-0.01,0.043999 -0.018,0.087997 -0.025,0.132999c-0.007999,0.044998 -0.016001,0.09 -0.02,0.135998c-0.004,0.042 -0.005999,0.084003 -0.007,0.126003c0,0.021999 -0.005999,0.042 -0.005999,0.063999l0,6.788998l0,27.152c0,0.022003 0.005999,0.043999 0.007,0.066002c0.001999,0.070999 0.011,0.140999 0.021,0.210999c0.008999,0.062004 0.017,0.124001 0.031,0.183998c0.014999,0.062004 0.035999,0.122002 0.056,0.182007c0.021,0.061996 0.042,0.125 0.069,0.183998c0.025999,0.057999 0.059,0.112 0.091,0.167c0.032,0.056 0.063,0.111 0.1,0.164001c0.037998,0.052994 0.080999,0.100998 0.123999,0.149994c0.043001,0.049004 0.084,0.098007 0.131001,0.142006c0.044001,0.042 0.093,0.078995 0.142,0.116997c0.056999,0.043999 0.114,0.086998 0.174999,0.125999c0.019001,0.012001 0.034,0.027 0.053001,0.038002l29.393,16.970001c0.001999,0.000999 0.003998,0.000999 0.006001,0.001999c0.027,0.015999 0.056999,0.022995 0.084,0.036995c0.102001,0.052002 0.208,0.095001 0.318001,0.129005c0.042,0.013 0.084,0.028999 0.126999,0.040001c0.141998,0.033997 0.286999,0.055 0.438,0.056999c0.007999,0 0.015999,0.002998 0.022999,0.002998c0,0 0.000999,0 0.002003,0s0.000999,0 0.001999,0c0.007999,0 0.015999,-0.002998 0.022999,-0.002998c0.151001,-0.001999 0.297001,-0.023003 0.438,-0.056999c0.042999,-0.010002 0.084999,-0.026001 0.127003,-0.040001c0.111,-0.035004 0.216999,-0.077003 0.317997,-0.129005c0.027,-0.014 0.057003,-0.020996 0.084,-0.036995c0.002003,-0.000999 0.004002,-0.000999 0.006001,-0.001999l29.395,-16.970001c0.020004,-0.011002 0.034004,-0.026001 0.053001,-0.038002c0.060997,-0.039001 0.117996,-0.082001 0.174995,-0.125999c0.049004,-0.038002 0.098007,-0.074997 0.142006,-0.116997c0.046997,-0.043999 0.087997,-0.093002 0.130997,-0.142006c0.042,-0.048996 0.085999,-0.097 0.124001,-0.149994c0.037003,-0.052002 0.068001,-0.108002 0.099998,-0.164001c0.032005,-0.055 0.064003,-0.109001 0.091003,-0.167c0.027,-0.059998 0.046997,-0.122002 0.069,-0.183998c0.020996,-0.061005 0.042,-0.120003 0.056,-0.182007c0.014999,-0.059998 0.021996,-0.121994 0.030998,-0.183998c0.010002,-0.07 0.018997,-0.139999 0.021004,-0.210999c0.000999,-0.022003 0.006996,-0.043999 0.006996,-0.066002l0,-27.149998l0,-6.787998c0.003998,-0.023003 -0.001999,-0.044003 -0.002998,-0.066002zm-58.781,6.855l0,-3.325001l25.393,14.661999l0,5.632999l0,23.688004l-25.393,-14.660004l0,-25.997997zm29.393,16.969997l0,-5.632999l25.394997,-14.661999l0,3.324001l0,25.997997l-25.394997,14.661003l0,-23.688004zm15.286003,-28.439999l8.108002,4.681l-25.394005,14.662003l-25.396,-14.664001l17.02,-9.848999l0.683998,1.171997l-0.278999,-0.160999c-0.957001,-0.552998 -2.18,-0.224998 -2.731998,0.732002s-0.225002,2.18 0.731998,2.731998l6.787003,3.918999c0,0 0.000999,0 0.000999,0.001003l13.183998,7.737999c0.318001,0.187 0.667,0.275002 1.009998,0.275002c0.686001,0 1.354,-0.354 1.727001,-0.988003c0.559002,-0.952999 0.240002,-2.177998 -0.713001,-2.737l-4.434998,-2.603001l2.927998,-1.743999l6.181,-3.681c0.155998,0.202 0.352005,0.379002 0.587006,0.514999zm-9.836002,-12.364998l-14.182999,-3.583l17.947998,-10.690001l-3.764999,14.273001zm0.916,4.357c0.000999,0 0.000999,0.000999 0.001999,0.000999s0.001003,0 0.002003,0l0.017998,0.004002c0.165001,0.042 0.329002,0.061998 0.491001,0.061998c0.222,0 0.439999,-0.038 0.645,-0.108c0.069,-0.024 0.125999,-0.070999 0.191998,-0.101999c0.129002,-0.061001 0.263,-0.115999 0.376003,-0.203001c0.063999,-0.049 0.108997,-0.119999 0.167,-0.175999c0.097,-0.095001 0.201,-0.183001 0.278,-0.297001c0.046997,-0.07 0.069,-0.159 0.106998,-0.236c0.060001,-0.119999 0.131001,-0.233 0.167,-0.368l4.289997,-16.256001l9.294998,15.933001l-4.348,2.59l-11.574997,6.894001l-4.818001,2.869999l-4.361,-2.560001l-3.163002,-5.422997c0,-0.001003 -0.000999,-0.001003 -0.000999,-0.002003l-1.479,-2.536999l-1.48,-2.539l0,0c0,0 0,0 0,-0.001001l-0.948997,-1.625l16.144001,4.079z"/>
 </g>
</svg>