<svg xmlns="http://www.w3.org/2000/svg" viewBox="0 0 100 100">
  <path d="M85.79 84.9a49.85 49.85 0 00.38-69.4c-.38-.42-.61-.71-.93-.99A49.88 49.88 0 0050-.04a49.88 49.88 0 00-35.66 14.98c-.03.03-.07.02-.1.05-.02.03-.01.07-.03.1a49.84 49.84 0 00-.38 69.4c.28.4.48.64.88.95A49.88 49.88 0 0050 100.04a49.86 49.86 0 0035.66-15c.03-.02.07-.01.1-.04.02-.03.01-.07.03-.1zm-12.75-8.88A83.12 83.12 0 0077 51.11h20.79a47.59 47.59 0 01-13 31.63 42.2 42.2 0 00-11.74-6.72zm-57.81 6.72a47.6 47.6 0 01-13-31.63H23a83.05 83.05 0 003.95 24.91 42.16 42.16 0 00-11.73 6.72zm0-65.48a42.12 42.12 0 0011.73 6.72A83.1 83.1 0 0023 48.89H2.23a47.6 47.6 0 0113-31.63zm69.55 0a47.61 47.61 0 0113 31.63H77a83.12 83.12 0 00-3.96-24.91c4.5-1.75 8.48-4 11.73-6.72zm-10 31.63H51.1V28.1a64.9 64.9 0 0019.93-3.35 82.12 82.12 0 013.75 24.15zM51.1 25.88V2.28c7.95.68 14.93 8.55 19.22 20.36-5.8 2-12.36 3.13-19.22 3.24zm-2.2 0a62.73 62.73 0 01-19.22-3.24c4.3-11.8 11.27-19.68 19.21-20.36v23.6zm0 2.21v20.8H25.21a82.08 82.08 0 013.75-24.16 64.95 64.95 0 0019.92 3.36zM25.21 51.11h23.67v20.8a64.79 64.79 0 00-19.92 3.35 82.09 82.09 0 01-3.75-24.15zm23.67 23v23.61c-7.94-.68-14.92-8.56-19.21-20.37a62.4 62.4 0 0119.21-3.23zm2.21 0a62.7 62.7 0 0119.22 3.25c-4.29 11.8-11.27 19.68-19.22 20.36v-23.6zm0-2.2V51.1h23.68a82.16 82.16 0 01-3.75 24.16A65.03 65.03 0 0051.1 71.9zm32.13-56.24a39.95 39.95 0 01-10.89 6.22c-3.14-8.54-7.69-15.15-13-18.79a47.74 47.74 0 0123.89 12.57zm-55.57 6.22a40.1 40.1 0 01-10.89-6.22A47.7 47.7 0 0140.67 3.1c-5.34 3.64-9.87 10.25-13.02 18.8zM16.77 84.33a39.97 39.97 0 0110.89-6.22c3.14 8.54 7.68 15.15 13 18.79a47.71 47.71 0 01-23.88-12.57zm55.57-6.22a39.94 39.94 0 0110.89 6.22 47.72 47.72 0 01-23.9 12.57c5.32-3.64 9.87-10.25 13.01-18.8z"/>
</svg>
