<svg xmlns="http://www.w3.org/2000/svg" viewBox="0 0 1024 1024"><defs><style>.cls-1{stroke:#000;stroke-miterlimit:10;stroke-width:9px;}.cls-2{fill:none;}</style></defs><g id="Layer_2" data-name="Layer 2"><g id="Layer_1-2" data-name="Layer 1"><path class="cls-1" d="M782.71,288.86a225.37,225.37,0,0,0-15.86-18.12c-63.43-68-154-109.87-254.85-109.87S320.58,202.78,257.15,270.74c-5.67,5.66-10.2,11.32-15.86,18.12C191.45,350,160.87,427.05,160.87,512s30.58,162,80.42,223.14c5.66,5.66,10.19,12.46,15.86,18.12,64.56,68,155.17,109.87,254.85,109.87s191.42-41.91,254.85-109.87c5.67-5.66,11.33-11.32,15.86-18.12C832.55,674,863.13,597,863.13,512S832.55,350,782.71,288.86Zm57.77,211.81H693.23C692.1,439.51,684.17,384,669.44,335.3c35.12-9.06,66.83-20.39,94-35.11C808.76,354.56,838.21,424.78,840.48,500.67Zm-317.15-316c46.44,6.8,88.35,58.9,115.53,133.66a735.88,735.88,0,0,1-115.53,12.46Zm-22.66,0V330.77a735.88,735.88,0,0,1-115.53-12.46C412.32,243.55,454.23,191.45,500.67,184.65ZM377.21,339.83c37.38,7.93,79.29,12.46,123.46,13.59V500.67H353.42A639.88,639.88,0,0,1,377.21,339.83Zm123.46,183.5V670.58c-44.17,1.13-84.95,5.66-123.46,13.59-14.72-47.57-22.65-101.94-23.79-160.84Zm0,169.9V839.35c-46.44-6.8-88.35-58.9-115.53-133.66A735.88,735.88,0,0,1,500.67,693.23Zm22.66,146.12V693.23a735.88,735.88,0,0,1,115.53,12.46C611.68,780.45,569.77,832.55,523.33,839.35ZM646.79,684.17c-37.38-7.93-79.29-12.46-123.46-13.59V523.33H670.58A639.88,639.88,0,0,1,646.79,684.17ZM523.33,500.67V353.42c44.17-1.13,84.95-5.66,123.46-13.59,14.72,47.57,22.65,101.94,23.79,160.84ZM589,192.58a326.68,326.68,0,0,1,157.45,89.48c-24.92,12.46-53.24,22.66-83.82,30.59-19.26-52.11-44.18-94-73.63-120.07Zm-152.91,0h0c-29.45,26-55.5,68-73.62,120.07-31.72-7.93-60-18.13-83.82-30.59A326.65,326.65,0,0,1,436.11,192.58ZM261.68,300.19a478.72,478.72,0,0,0,94,35.11C341,384,333,440.64,331.9,500.67H183.52C186.92,424.78,215.24,354.56,261.68,300.19ZM183.52,523.33H330.77c1.13,61.16,9.06,116.66,23.79,165.37-35.12,9.06-66.83,20.39-94,35.11C215.24,669.44,186.92,599.22,183.52,523.33ZM436.11,831.42a326.65,326.65,0,0,1-157.44-89.48c24.92-12.46,53.23-22.66,83.82-30.59,18.12,52.11,43,94,73.62,120.07Zm152.91,0h0c29.45-26,55.5-68,73.63-120.07,31.71,7.93,60,18.13,83.82,30.59C703.42,785,649.06,816.69,589,831.42Zm173.3-107.61a478.72,478.72,0,0,0-94-35.11C683,640,691,583.36,692.1,523.33H839.35C838.21,599.22,808.76,669.44,762.32,723.81Z"/><rect class="cls-2" width="1024" height="1024"/></g></g></svg>