<svg xmlns="http://www.w3.org/2000/svg" xmlns:xlink="http://www.w3.org/1999/xlink" version="1.1" x="0px" y="0px" viewBox="0 0 512 512" enable-background="new 0 0 512 512" xml:space="preserve"><g><g><path d="M120,435.314V360H80c-13.233,0-24-10.766-24-24V112c0-13.234,10.767-24,24-24h352c13.233,0,24,10.766,24,24v224    c0,13.234-10.767,24-24,24H195.313L120,435.314z M80,104c-4.411,0-8,3.589-8,8v224c0,4.411,3.589,8,8,8h56v52.686L188.687,344H432    c4.411,0,8-3.589,8-8V112c0-4.411-3.589-8-8-8H80z"></path></g></g></svg>