<svg xmlns="http://www.w3.org/2000/svg" viewBox="0 0 185.73 385.14">
  <path fill="#333" d="M186,74.92v112a74.92,74.92,0,0,1-32.16,61.4v30.42h10.83a10.67,10.67,0,0,1,10.67,10.67v85.34a10.67,10.67,0,0,1-10.67,10.66H58a10.66,10.66,0,0,1-10.66-10.66V289.39A10.67,10.67,0,0,1,58,278.72h10.5V248.06a75.19,75.19,0,0,1-27.19-35.39l-4.46-7.47h0L4,150.23a26.63,26.63,0,0,1,32.63-38.46V42.91A26.7,26.7,0,0,1,63.33,16.25a26.3,26.3,0,0,1,7.14,1,26.67,26.67,0,0,1,49.69,0A26.7,26.7,0,0,1,154,42.91v5.87a26.7,26.7,0,0,1,32,26.14Z" />
</svg>
