<svg xmlns="http://www.w3.org/2000/svg" fill="#333" viewBox="0 0 64 64"><path d="M46 62h-6a1 1 0 0 1-1-.945l-.2-3.665a14.928 14.928 0 0 1-3-1.25l-2.743 2.46a1 1 0 0 1-1.374-.038l-4.24-4.24a1 1 0 0 1-.038-1.375l2.454-2.747a15.006 15.006 0 0 1-1.249-3l-3.665-.2A1 1 0 0 1 24 46v-6a1 1 0 0 1 .945-1l3.665-.2a15.006 15.006 0 0 1 1.249-3l-2.454-2.738a1 1 0 0 1 .038-1.375l4.24-4.24a1 1 0 0 1 1.374-.038L35.8 29.86a14.928 14.928 0 0 1 3-1.25l.2-3.665A1 1 0 0 1 40 24h6a1 1 0 0 1 1 .945l.2 3.665a14.928 14.928 0 0 1 3 1.25l2.739-2.455a1 1 0 0 1 1.374.038l4.24 4.24a1 1 0 0 1 .038 1.375l-2.45 2.742a15.006 15.006 0 0 1 1.249 3l3.665.2A1 1 0 0 1 62 40v6a1 1 0 0 1-.945 1l-3.665.2a15.006 15.006 0 0 1-1.249 3l2.459 2.742a1 1 0 0 1-.038 1.375l-4.24 4.24a1 1 0 0 1-1.374.038L50.2 56.14a14.928 14.928 0 0 1-3 1.25l-.2 3.665A1 1 0 0 1 46 62zm-5.053-2h4.106l.189-3.445a1 1 0 0 1 .767-.918 12.953 12.953 0 0 0 3.8-1.578 1 1 0 0 1 1.191.107l2.575 2.308 2.9-2.9L54.165 51a1 1 0 0 1-.106-1.192 13 13 0 0 0 1.579-3.8 1 1 0 0 1 .918-.766L60 45.053v-4.106l-3.444-.189a1 1 0 0 1-.918-.766 13 13 0 0 0-1.579-3.8A1 1 0 0 1 54.165 35l2.308-2.574-2.9-2.9L51 31.834a1 1 0 0 1-1.191.107 12.953 12.953 0 0 0-3.8-1.578 1 1 0 0 1-.767-.918L45.053 26h-4.106l-.189 3.445a1 1 0 0 1-.767.918 12.953 12.953 0 0 0-3.8 1.578A1 1 0 0 1 35 31.834l-2.575-2.308-2.9 2.9L31.835 35a1 1 0 0 1 .106 1.192 13 13 0 0 0-1.579 3.8 1 1 0 0 1-.918.766L26 40.947v4.106l3.444.189a1 1 0 0 1 .918.766 13 13 0 0 0 1.579 3.8A1 1 0 0 1 31.835 51l-2.308 2.574 2.9 2.9L35 54.166a1 1 0 0 1 1.191-.107 12.953 12.953 0 0 0 3.8 1.578 1 1 0 0 1 .767.918z"/><path d="M43 53a10 10 0 1 1 10-10 10.011 10.011 0 0 1-10 10zm0-18a8 8 0 1 0 8 8 8.009 8.009 0 0 0-8-8z"/><path d="M39 44h3v2h-3zm5.707 2.707l-1.414-1.414L45.586 43l-2.293-2.293 1.414-1.414 3 3a1 1 0 0 1 0 1.414zM21 40h-3a1 1 0 0 1-1-.945l-.2-3.665a14.928 14.928 0 0 1-3-1.25l-2.743 2.46a1 1 0 0 1-1.374-.038l-4.24-4.24a1 1 0 0 1-.038-1.375L7.859 28.2a15.006 15.006 0 0 1-1.249-3L2.945 25A1 1 0 0 1 2 24v-6a1 1 0 0 1 .945-1l3.665-.2a15.006 15.006 0 0 1 1.249-3l-2.454-2.742a1 1 0 0 1 .038-1.375l4.24-4.24a1 1 0 0 1 1.374-.038L13.8 7.86a14.928 14.928 0 0 1 3-1.25l.2-3.665A1 1 0 0 1 18 2h6a1 1 0 0 1 1 .945l.2 3.665a14.928 14.928 0 0 1 3 1.25l2.739-2.455a1 1 0 0 1 1.374.038l4.24 4.24a1 1 0 0 1 .038 1.375l-2.45 2.742a15.006 15.006 0 0 1 1.249 3l3.665.2A1 1 0 0 1 40 18v3h-2v-2.053l-3.444-.189a1 1 0 0 1-.918-.766 13 13 0 0 0-1.579-3.8A1 1 0 0 1 32.165 13l2.308-2.574-2.9-2.9L29 9.834a1 1 0 0 1-1.191.107 12.953 12.953 0 0 0-3.8-1.578 1 1 0 0 1-.767-.918L23.053 4h-4.106l-.189 3.445a1 1 0 0 1-.767.918 12.953 12.953 0 0 0-3.8 1.578A1 1 0 0 1 13 9.834l-2.572-2.308-2.9 2.9L9.835 13a1 1 0 0 1 .106 1.192 13 13 0 0 0-1.579 3.8 1 1 0 0 1-.918.766L4 18.947v4.106l3.444.189a1 1 0 0 1 .918.766 13 13 0 0 0 1.579 3.8A1 1 0 0 1 9.835 29l-2.308 2.572 2.9 2.9L13 32.166a1 1 0 0 1 1.191-.107 12.953 12.953 0 0 0 3.8 1.578 1 1 0 0 1 .767.918L18.947 38H21z"/><path d="M21 31a10 10 0 1 1 10-10 10.011 10.011 0 0 1-10 10zm0-18a8 8 0 1 0 8 8 8.009 8.009 0 0 0-8-8z"/><path d="M17 22h3v2h-3zm5.707 2.707l-1.414-1.414L23.586 21l-2.293-2.293 1.414-1.414 3 3a1 1 0 0 1 0 1.414zM56 24C40.183 24 40 6.18 40 6V4h2v2c0 .652.189 16 14 16zm2-2h2v2h-2zM40 0h2v2h-2zM24 60h-2v-2c0-.652-.189-16-14-16v-2c15.817 0 16 17.82 16 18zM4 40h2v2H4zm-4 0h2v2H0zm62-18h2v2h-2zM22 62h2v2h-2z"/><path d="M12 63H8a1 1 0 0 1-.992-.876l-.4-3.2a5.99 5.99 0 0 1-1.529-1.529l-3.2-.4A1 1 0 0 1 1 56v-4a1 1 0 0 1 .876-.992l3.2-.4a5.99 5.99 0 0 1 1.529-1.529l.4-3.2A1 1 0 0 1 8 45h4a1 1 0 0 1 .992.876l.4 3.2a5.99 5.99 0 0 1 1.529 1.529l3.2.4A1 1 0 0 1 19 52v4a1 1 0 0 1-.876.992l-3.2.4a5.99 5.99 0 0 1-1.529 1.529l-.4 3.2A1 1 0 0 1 12 63zm-3.117-2h2.234l.35-2.8a1 1 0 0 1 .5-.746 4 4 0 0 0 1.5-1.5 1 1 0 0 1 .745-.5l2.8-.35v-2.221l-2.795-.35a1 1 0 0 1-.745-.5 4 4 0 0 0-1.5-1.5 1 1 0 0 1-.5-.746l-.35-2.8H8.883l-.35 2.8a1 1 0 0 1-.5.746 4 4 0 0 0-1.5 1.5 1 1 0 0 1-.745.5L3 52.883v2.234l2.8.35a1 1 0 0 1 .745.5 4 4 0 0 0 1.5 1.5 1 1 0 0 1 .5.746zM56 19h-4a1 1 0 0 1-.992-.876l-.4-3.2a5.99 5.99 0 0 1-1.529-1.529l-3.2-.4A1 1 0 0 1 45 12V8a1 1 0 0 1 .876-.992l3.2-.4a5.99 5.99 0 0 1 1.529-1.529l.4-3.2A1 1 0 0 1 52 1h4a1 1 0 0 1 .992.876l.4 3.2a5.99 5.99 0 0 1 1.529 1.529l3.2.4A1 1 0 0 1 63 8v4a1 1 0 0 1-.876.992l-3.2.4a5.99 5.99 0 0 1-1.529 1.529l-.4 3.2A1 1 0 0 1 56 19zm-3.117-2h2.234l.35-2.795a1 1 0 0 1 .5-.746 4 4 0 0 0 1.5-1.495 1 1 0 0 1 .745-.5l2.8-.35V8.883l-2.8-.35a1 1 0 0 1-.745-.5 4 4 0 0 0-1.5-1.495 1 1 0 0 1-.5-.746L55.117 3h-2.234l-.35 2.8a1 1 0 0 1-.5.746 4 4 0 0 0-1.5 1.495 1 1 0 0 1-.745.5l-2.8.35v2.234l2.8.35a1 1 0 0 1 .745.5 4 4 0 0 0 1.5 1.495 1 1 0 0 1 .5.746z"/></svg>
