<svg width="36" height="100" xmlns="http://www.w3.org/2000/svg">

 <g>
  <title>background</title>
  <rect fill="none" id="canvas_background" height="402" width="582" y="-1" x="-1"/>
 </g>
 <g>
  <title>Layer 1</title>
  <path id="svg_1" d="m35.714001,75l0,7.142998q0,1.451004 -1.060001,2.511002t-2.510998,1.059998l-28.571,0q-1.451,0 -2.511,-1.059998t-1.06,-2.511002l0,-7.142998q0,-1.450996 1.06,-2.511002t2.511,-1.059998l3.571,0l0,-21.429001l-3.571,0q-1.451,0 -2.511,-1.060001t-1.06,-2.510998l0,-7.143002q0,-1.451 1.06,-2.511002t2.511,-1.059998l21.429001,0q1.451,0 2.510998,1.059998t1.060001,2.511002l0,32.143002l3.570999,0q1.451,0 2.511002,1.059998t1.059998,2.511002zm-7.143002,-64.286l0,10.714q0,1.451 -1.059999,2.511t-2.511002,1.059999l-14.285999,0q-1.451,0 -2.511,-1.059999t-1.06,-2.511l0,-10.714q0,-1.451 1.06,-2.511t2.511,-1.06l14.285999,0q1.451,0 2.511002,1.06t1.059999,2.511z" fill="#505050"/>
 </g>
</svg>