<svg width="70" height="90" xmlns="http://www.w3.org/2000/svg">

 <g>
  <title>background</title>
  <rect fill="none" id="canvas_background" height="92" width="72" y="-1" x="-1"/>
 </g>
 <g>
  <title>Layer 1</title>
  <g id="svg_1">
   <path fill="#505050" id="svg_2" d="m21.229,37.687l29.542995,0c1.248001,0 2.260002,-1.012001 2.260002,-2.260002l0,-2.424c0,-1.247997 -1.012001,-2.259998 -2.260002,-2.259998l-29.542995,0c-1.248001,0 -2.259998,1.012001 -2.259998,2.259998l0,2.424c0,1.248001 1.011997,2.260002 2.259998,2.260002z"/>
   <path fill="#505050" id="svg_3" d="m18.969002,45.919998c0,1.248001 1.012001,2.259998 2.260002,2.259998l20.654999,0c1.248001,0 2.259998,-1.011997 2.259998,-2.259998l0,-2.424c0,-1.248001 -1.011997,-2.260002 -2.259998,-2.260002l-20.655003,0c-1.248001,0 -2.259998,1.012001 -2.259998,2.260002l0,2.424z"/>
   <path fill="#505050" id="svg_4" d="m64.387001,22.729l0.014999,-0.014999l-14.348,-14.348001l-0.014999,0.014999c-1.59,-1.589999 -3.748001,-2.483999 -5.997002,-2.483999l-27.763,0c-5.267,0 -9.536001,4.27 -9.536001,9.536l0,55.921003c0,5.266998 4.27,9.535995 9.536001,9.535995l3.368999,0l0,5.537003c0,1.372002 1.561001,2.161003 2.665001,1.347l2.993,-2.205002l2.993,2.205002c1.105,0.814003 2.665001,0.025002 2.665001,-1.347l0,-5.537003l0,-5.370003l0,-5.806l0.127998,-0.559998c0.139999,-0.612999 0.550999,-1.128998 1.118,-1.402l1.549999,-0.746002c1.195,-0.575996 1.546001,-2.112999 0.719002,-3.149994l-1.072002,-1.345001c-0.391998,-0.492004 -0.538998,-1.135002 -0.398998,-1.748001l0.382999,-1.677002c0.295002,-1.293999 -0.688,-2.525997 -2.014999,-2.525997l-1.720001,0c-0.628998,0 -1.223,-0.286003 -1.616001,-0.778l-1.071999,-1.345001c-0.827,-1.036999 -2.403999,-1.036999 -3.230999,0l-1.071999,1.345001c-0.392002,0.491997 -0.987003,0.778 -1.616001,0.778l-1.720001,0c-1.327,0 -2.309999,1.232998 -2.014999,2.525997l0.382999,1.677002c0.140001,0.612999 -0.007,1.255997 -0.399,1.748001l-1.071999,1.345001c-0.827002,1.036995 -0.476002,2.573997 0.719,3.149994l1.549999,0.746002c0.567001,0.273003 0.978001,0.789001 1.118,1.402l0.035,0.153999l0,6.211998l-3.368999,0c-2.301001,0 -4.166,-1.864998 -4.166,-4.166l0,-55.920996c0,-2.301001 1.865,-4.165999 4.166,-4.165999l24.263,0c4.573997,0.434999 5.235001,3.681001 5.314999,4.984l0,0.281c0,0.074999 0.004002,0.149 0.006001,0.223999c-0.000999,0.02 -0.001999,0.034 -0.001999,0.034l0.002998,-0.011999c0.131001,5.153 4.346001,9.289999 9.529999,9.289999l2.462006,0l2.030998,0l5.369995,0l0,-1.238001c0.000008,-0.788 -0.312996,-1.544001 -0.869995,-2.101zm-39.034,36.782001c1.953999,0 3.538002,1.584 3.538002,3.538002c0,1.953995 -1.584003,3.538002 -3.538002,3.538002c-1.953999,0 -3.537998,-1.584007 -3.537998,-3.538002c-0.000004,-1.954002 1.583996,-3.538002 3.537998,-3.538002z"/>
   <path fill="#505050" id="svg_5" d="m59.887001,71.353996c0,2.301003 -1.864998,4.166 -4.166,4.166l-21.084,0l0,5.370003l21.083,0c5.266998,0 9.536003,-4.270004 9.536003,-9.536003l0,-41.628998l-5.370003,0l0,41.628998l0.000999,0z"/>
  </g>
 </g>
</svg>