<svg xmlns="http://www.w3.org/2000/svg" viewBox="0 0 67.94 67.94"><defs><style>.cls-1{fill:#525252;stroke:#525252;stroke-miterlimit:10}</style></defs><path class="cls-1" d="M33.71 43h6.86a2.74 2.74 0 0 0 2.74-2.73v-1.58a.85.85 0 0 0-.84-.84h-1.25l-3.3-11c.28-.14.56-.3.86-.47a14.22 14.22 0 0 1 7.34-2.11v20h-2.67a2.27 2.27 0 0 0-2.27 2.27v2.63A.83.83 0 0 0 42 50h9.9a.84.84 0 0 0 .84-.84v-2.64a2.27 2.27 0 0 0-2.27-2.27h-2.68v-20a14.25 14.25 0 0 1 7.35 2.11q.3.18.6.33L52.4 37.85h-.81a.85.85 0 0 0-.84.84v1.62A2.74 2.74 0 0 0 53.49 43h6.86a2.73 2.73 0 0 0 2.73-2.73v-1.58a.84.84 0 0 0-.83-.84H61l-3-10.24a8.59 8.59 0 0 0 2.54.43 4.49 4.49 0 0 0 1.62-.25.83.83 0 0 0 .46-1.07.85.85 0 0 0-1.08-.48s-2 .72-5.49-1.35a15.89 15.89 0 0 0-8.21-2.35v-1.1a.84.84 0 0 0-1.67 0v1.1a15.76 15.76 0 0 0-8.2 2.35c-3.46 2.07-5.47 1.36-5.48 1.36a.83.83 0 0 0-.64 1.54 4.51 4.51 0 0 0 1.63.25 8.15 8.15 0 0 0 2.22-.33l-3 10.14h-.81a.85.85 0 0 0-.84.84v1.62A2.74 2.74 0 0 0 33.71 43zm17.35 3.48v1.8h-8.21v-1.8a.59.59 0 0 1 .6-.59h7a.58.58 0 0 1 .61.63zm10.35-6.21a1.06 1.06 0 0 1-1.06 1.06h-6.86a1.06 1.06 0 0 1-1.06-1.06v-.79h9zm-7.26-2.46l2.55-8.56 2.55 8.56zm-12.52 2.5a1.06 1.06 0 0 1-1.06 1.06h-6.86a1.06 1.06 0 0 1-1.06-1.06v-.79h9zm-4.71-11l2.55 8.56h-5.1z"/><path class="cls-1" d="M66.6 14.61H54.42V3.41A2.91 2.91 0 0 0 51.51.5H3.41A2.91 2.91 0 0 0 .5 3.41v61.12a2.91 2.91 0 0 0 2.91 2.91h48.1a2.92 2.92 0 0 0 2.91-2.91V56H66.6a.84.84 0 0 0 .84-.84V15.44a.84.84 0 0 0-.84-.83zM52.74 3.41v11.2h-3.58V6a.84.84 0 0 0-.83-.84h-7.48V2.17h10.66a1.24 1.24 0 0 1 1.23 1.24zm-25.28 11.2a.84.84 0 0 0-.84.83v4.42H13.68a.84.84 0 0 0-.84.83.85.85 0 0 0 .84.84h12.94v5.33H13.68a.84.84 0 1 0 0 1.68h12.94v5.33H13.68a.84.84 0 1 0 0 1.67h12.94v5.34H13.68a.84.84 0 1 0 0 1.67h12.94v5.34H13.68a.84.84 0 0 0-.84.83.85.85 0 0 0 .84.84h12.94v5.59a.84.84 0 0 0 .84.84h20v4.6H7.43V6.79h6.64v1.09a3.81 3.81 0 0 0 3.83 3.78H37a3.81 3.81 0 0 0 3.83-3.78V6.79h6.64v7.82zm11.71-7.82v1.09A2.12 2.12 0 0 1 37 10H17.9a2.13 2.13 0 0 1-2.16-2.1V6.79zM15.74 5.11V2.17h23.43v2.94zm37 59.42a1.23 1.23 0 0 1-1.23 1.23H3.41a1.24 1.24 0 0 1-1.24-1.23V3.41a1.25 1.25 0 0 1 1.24-1.24h10.66v2.94H6.59a.85.85 0 0 0-.84.89v55.43a.85.85 0 0 0 .84.84h41.74a.84.84 0 0 0 .83-.84V56h3.58zm13-10.21H28.3v-38h37.46z"/></svg>
