<svg xmlns="http://www.w3.org/2000/svg" viewBox="0 0 1024 1024"><defs><style>.cls-1{fill:none;}</style></defs><g id="Layer_2" data-name="Layer 2"><g id="Layer_1-2" data-name="Layer 1"><path d="M345.3,598.49l171.83,142.7-.39.33ZM516.94,707.41,361.76,578.55,516.61,707.7ZM940.15,370.63v521H86.57v-521l91.25-59.82V168H395.68l120.37-78.9L634.89,168h214V310ZM848.84,427l56.89-48.17-56.89-37.77Zm-406-259H588.13L516,120.06ZM203.69,446.71,361.76,578.55,516.61,707.7l.34-.29L823,446.78V193.84H203.69V446.71Zm-82.48-67.9,56.61,47V341.71Zm793.08,26.66-396.82,336-.33-.28L345.3,598.49,112.43,405.12V865.75H914.3V405.47ZM511.43,570.31c-67,0-123.83-49.06-123.83-127.53,0-84.2,58.43-156.95,149.19-156.95,71.12,0,118.94,49.85,118.94,118.11,0,61.32-34.35,97.3-72.77,97.3-16.36,0-31.47-11-30.23-36h-1.64c-14.31,24.12-33.12,36-57.64,36-23.7,0-44.14-19.22-44.14-51.52,0-50.67,40.06-96.85,96.88-96.85,17.56,0,33.1,3.68,43.72,8.58l-13.88,74c-6.15,31.06-1.24,45.38,12.26,45.78,20.84.43,44.14-27.38,44.14-74.8,0-59.26-35.55-101.78-98.92-101.78-66.61,0-122.61,52.74-122.61,135.69,0,68.26,44.54,110.36,105,110.36,23.3,0,44.95-4.9,61.71-14.3L584.2,554C561.71,565.81,538.83,570.31,511.43,570.31Zm50.28-192.93a70.79,70.79,0,0,0-20.44-2.87c-35.95,0-65,33.92-65,73.58,0,18,9,31.06,27,31.06,23.7,0,45.35-30.23,49.86-55.59Z"/><rect class="cls-1" width="1024" height="1024"/></g></g></svg>