<svg width="104" height="100" xmlns="http://www.w3.org/2000/svg">

 <g>
  <title>background</title>
  <rect fill="none" id="canvas_background" height="102" width="106" y="-1" x="-1"/>
 </g>
 <g>
  <title>Layer 1</title>
  <path id="svg_1" fill="#505050" d="m48,50.116001c-4.056,0 -7.848,-1.692001 -10.68,-4.771999l-24.827999,-27.152c-0.74,-0.816 -0.688,-2.084 0.132,-2.828c0.812,-0.740001 2.080001,-0.688001 2.828,0.127999l24.824,27.148003c4.119999,4.48 11.335999,4.483997 15.464001,-0.004002l24.775997,-27.108c0.751999,-0.82 2.008003,-0.868 2.828003,-0.128c0.811996,0.752001 0.875999,2.008001 0.124001,2.828001l-24.780003,27.111998c-2.84,3.084 -6.628002,4.776001 -10.688,4.776001z"/>
  <path id="svg_2" fill="#505050" d="m13.968,62.860001c-0.54,0 -1.084001,-0.220001 -1.476001,-0.652c-0.743999,-0.815998 -0.688,-2.084 0.128,-2.823997l21.827998,-19.931999c0.82,-0.752003 2.080002,-0.692001 2.832001,0.123997c0.743999,0.816002 0.688,2.080002 -0.127998,2.824001l-21.828,19.936001c-0.388,0.348 -0.868,0.523998 -1.356,0.523998z"/>
  <path id="svg_3" fill="#505050" d="m73.596001,55.147999c-0.484001,0 -0.959999,-0.172001 -1.348,-0.523998l-13.396,-12.228001c-0.816002,-0.743999 -0.875999,-2.007999 -0.124001,-2.824001c0.751999,-0.82 2.012001,-0.875999 2.82,-0.127998l13.399998,12.227997c0.812004,0.744003 0.875999,2.008003 0.124001,2.824001c-0.395996,0.431999 -0.939995,0.652 -1.475998,0.652z"/>
  <path id="svg_4" fill="#505050" d="m82.096001,94c-12.131996,0 -22,-9.867996 -22,-22s9.868004,-22 22,-22s22,9.868 22,22c0,1.099998 -0.900002,2 -2,2s-2,-0.900002 -2,-2c0,-9.919998 -8.080002,-18 -18,-18s-18,8.080002 -18,18s8.080002,18 18,18c4.695999,0 9.139999,-1.795998 12.515999,-5.064003c0.795998,-0.767998 2.068001,-0.751999 2.828003,0.048004c0.764,0.788002 0.751999,2.059998 -0.048004,2.827995c-4.124001,3.992004 -9.563995,6.188004 -15.295998,6.188004z"/>
  <path id="svg_5" fill="#505050" d="m82.096001,82c-5.512001,0 -10,-4.487999 -10,-10s4.487999,-10 10,-10c5.515999,0 10,4.487999 10,10s-4.484001,10 -10,10zm0,-16c-3.304001,0 -6,2.692001 -6,6s2.695999,6 6,6c3.307999,0 6,-2.692001 6,-6s-2.687996,-6 -6,-6z"/>
  <path id="svg_6" fill="#505050" d="m60,74l-50,0c-5.512,0 -10,-4.487999 -10,-10l0,-52c0,-5.512 4.488,-10 10,-10l76,0c5.512001,0 10,4.488 10,10l0,42c0,1.099998 -0.900002,2 -2,2s-2,-0.900002 -2,-2l0,-42c0,-3.308 -2.695999,-6 -6,-6l-76,0c-3.308,0 -6,2.692 -6,6l0,52c0,3.307999 2.692,6 6,6l50,0c1.099998,0 2,0.900002 2,2s-0.888,2 -2,2z"/>
  <path id="svg_7" fill="#505050" d="m96,80c-4.416,0 -8,-3.584 -8,-8c0,-1.099998 0.900002,-2 2,-2s2,0.900002 2,2c0,2.204002 1.795998,4 4,4s4,-1.795998 4,-4c0,-1.099998 0.900002,-2 2,-2s2,0.900002 2,2c0,4.416 -3.584,8 -8,8z"/>
 </g>
</svg>