<svg xmlns="http://www.w3.org/2000/svg" fill="#333" viewBox="0 0 100 100"><path d="M79.359 30c0-.376-.185-.687-.433-.928-.005-.004-.005-.01-.011-.014l-.15-.152c-.019-.012-.026-.033-.044-.044L60.25 10.391a1.313 1.313 0 0 0-.609-.324 1.265 1.265 0 0 0-.156-.031c-.061-.009-.115-.036-.177-.036H21.974c-.737 0-1.333.596-1.333 1.333v77.334c0 .736.596 1.333 1.333 1.333h56c.737 0 1.333-.597 1.333-1.333V30.258c.019-.086.052-.167.052-.258zM23.308 87.334V12.667h34.667V30c0 .737.596 1.333 1.333 1.333h17.333v56.001H23.308z"/><path d="M43.308 47.471c0 2.211-1.791 4-4 4a4 4 0 1 1 4-4z"/><circle cx="60.641" cy="47.471" r="4"/><path d="M57.975 67.078a1.333 1.333 0 0 1-1.334-1.333 6.672 6.672 0 0 0-6.666-6.667 6.672 6.672 0 0 0-6.667 6.667 1.333 1.333 0 0 1-2.667 0c0-5.146 4.188-9.334 9.334-9.334s9.333 4.188 9.333 9.334c0 .736-.597 1.333-1.333 1.333z"/></svg>
