<svg fill="#227497" xmlns="http://www.w3.org/2000/svg" xmlns:xlink="http://www.w3.org/1999/xlink" version="1.1" x="0px" y="0px" viewBox="0 0 100 100" enable-background="new 0 0 100 100" xml:space="preserve"><path d="M63.472,6.5v10l12.957,0L63.584,29.345c-6.145-4.641-13.592-7.157-21.429-7.157c-9.524,0-18.479,3.709-25.214,10.444  C3.042,46.534,3.042,69.154,16.942,83.057C23.678,89.791,32.632,93.5,42.155,93.5c9.524,0,18.479-3.709,25.214-10.444  c12.7-12.702,13.789-32.677,3.281-46.636L83.5,23.571l-0.001,12.956h10L93.5,6.5L63.472,6.5z M60.298,75.985  C55.451,80.831,49.009,83.5,42.155,83.5c-6.853,0-13.296-2.669-18.142-7.514c-10.002-10.003-10.002-26.28-0.001-36.283  c4.847-4.846,11.289-7.515,18.143-7.515s13.296,2.668,18.142,7.515C70.3,49.706,70.3,65.982,60.298,75.985z"></path></svg>