<svg fill="#227497" xmlns="http://www.w3.org/2000/svg" xmlns:xlink="http://www.w3.org/1999/xlink" version="1.1" x="0px" y="0px" viewBox="0 0 100 100" style="enable-background:new 0 0 100 100;" xml:space="preserve"><g><path d="M48,13.7V60L34.7,47.6L32,50.5L48.6,66c0.4,0.4,0.9,0.5,1.4,0.5s1-0.2,1.4-0.5L68,50.5l-2.7-2.9L52,60V13.7H48z"></path><path d="M82.3,41c0-6.6-5.4-12-12-12H63v4h7.3c4.4,0,8,3.6,8,8v35.3c0,4.4-3.6,8-8,8H29.7c-4.4,0-8-3.6-8-8V41c0-4.4,3.6-8,8-8H37   v-4h-7.3c-6.6,0-12,5.4-12,12v35.3c0,6.6,5.4,12,12,12h40.6c6.6,0,12-5.4,12-12V41z"></path></g></svg>