<svg width="410" height="330" xmlns="http://www.w3.org/2000/svg">

 <g>
  <title>background</title>
  <rect fill="none" id="canvas_background" height="332" width="412" y="-1" x="-1"/>
 </g>
 <g>
  <title>Layer 1</title>
  <g id="svg_1">
   <g id="svg_2">
    <path fill="#505050" id="svg_3" d="m135.878998,224.161011c2.828003,-8.040009 4.348999,-17.394989 4.348999,-27.828003c0,-41.033997 -14.186996,-59.332993 -46,-59.332993s-46,18.298996 -46,59.332993c0,10.355011 1.498001,19.649994 4.284004,27.649994c-3.413002,1.175995 -7.907005,2.891022 -12.628006,5.160004c-13.751999,6.610016 -22.364998,14.459015 -25.598999,23.32901c-10.165001,27.881989 -6.133999,50.661011 -5.958,51.617004l11.801003,-2.179993c-0.038002,-0.202026 -3.625,-20.485016 5.431,-45.327026c2.082001,-5.708984 8.774994,-11.429993 19.355995,-16.542999c4.848007,-2.34198 9.514,-4.053986 12.699005,-5.110992c7.990997,13.170013 20.694,20.738007 36.613998,20.738007c15.843994,0 28.503998,-7.493011 36.500992,-20.546997c3.109009,1.049988 7.427002,2.662994 11.956009,4.839996c10.677994,5.132996 17.429001,10.881012 19.522003,16.623993c8.98999,24.657013 5.465988,45.138 5.431992,45.326996l11.800995,2.180023c0.17601,-0.956024 4.208008,-23.735016 -5.957993,-51.617004c-5.610001,-15.391022 -26.463989,-24.462036 -37.602997,-28.312012zm-41.649994,19.505981c-25.068001,0 -34,-24.450989 -34,-47.333008c0,-39.415985 13.009003,-47.332993 34,-47.332993s34,7.917999 34,47.332993c0,22.882019 -8.932007,47.333008 -34,47.333008z"/>
    <path fill="#505050" id="svg_4" d="m397.483002,252.472992c-5.610992,-15.390991 -26.464996,-24.460999 -37.604004,-28.312012c2.828003,-8.039978 4.348999,-17.394989 4.348999,-27.827972c0,-41.034012 -14.186981,-59.333023 -46,-59.333023s-46,18.299011 -46,59.333023c0,10.35498 1.498016,19.649994 4.283997,27.649994c-3.412994,1.175995 -7.906982,2.890991 -12.627991,5.160004c-13.752014,6.609985 -22.36499,14.458984 -25.598999,23.328979c-10.165009,27.882019 -6.134003,50.661011 -5.958008,51.617004l11.800995,-2.179993c-0.037994,-0.201996 -3.625,-20.485016 5.431,-45.326996c2.082001,-5.709015 8.774994,-11.429993 19.356018,-16.542999c4.847992,-2.34201 9.513977,-4.054016 12.699005,-5.110992c7.990997,13.169983 20.694,20.737976 36.613983,20.737976c15.843994,0 28.503998,-7.492981 36.501007,-20.546997c3.109009,1.050018 7.427002,2.662994 11.955994,4.839996c10.678009,5.132996 17.429016,10.881012 19.522003,16.624023c8.98999,24.656982 5.466003,45.138 5.432007,45.326996l11.800995,2.179993c0.178009,-0.955994 4.208984,-23.734985 -5.957001,-51.617004zm-79.253998,-8.806c-25.067993,0 -34,-24.450989 -34,-47.333008c0,-39.415985 13.009003,-47.332993 34,-47.332993s34,7.917999 34,47.332993c0,22.882019 -8.932007,47.333008 -34,47.333008z"/>
    <path fill="#505050" id="svg_5" d="m288.651001,56.979004l-13.730011,13.434998l45.072021,10.720001l-9.735016,-45.294998l-13.019989,12.740005c-11.595001,-10.967003 -24.890015,-19.667007 -39.576019,-25.877007c-16.409973,-6.942001 -33.837982,-10.460999 -51.801987,-10.460999c-17.962997,0 -35.391998,3.519997 -51.800003,10.460999c-14.837997,6.275002 -28.259995,15.086998 -39.939987,26.213997l-13.364014,-13.075996l-9.734985,45.295006l45.071991,-10.720001l-13.386993,-13.098007c10.556992,-9.987991 22.659988,-17.908997 36.028,-23.562996c14.921997,-6.312004 30.776993,-9.513 47.125992,-9.513s32.205002,3.200996 47.126999,9.513c13.216003,5.587997 25.194,13.395988 35.664001,23.224998z"/>
   </g>
  </g>
 </g>
</svg>