<svg xmlns="http://www.w3.org/2000/svg" xmlns:xlink="http://www.w3.org/1999/xlink" version="1.1" x="0px" y="0px" viewBox="0 0 512 512" enable-background="new 0 0 512 512" xml:space="preserve"><g><g><path d="M185.879,305.161c2.828-8.04,4.349-17.395,4.349-27.828c0-41.034-14.187-59.333-46-59.333s-46,18.299-46,59.333    c0,10.355,1.498,19.65,4.284,27.65c-3.413,1.176-7.907,2.891-12.628,5.16c-13.752,6.61-22.365,14.459-25.599,23.329    c-10.165,27.882-6.134,50.661-5.958,51.617l11.801-2.18c-0.038-0.202-3.625-20.485,5.431-45.327    c2.082-5.709,8.775-11.43,19.356-16.543c4.848-2.342,9.514-4.054,12.699-5.111c7.991,13.17,20.694,20.738,36.614,20.738    c15.844,0,28.504-7.493,36.501-20.547c3.109,1.05,7.427,2.663,11.956,4.84c10.678,5.133,17.429,10.881,19.522,16.624    c8.99,24.657,5.466,45.138,5.432,45.327l11.801,2.18c0.176-0.956,4.208-23.735-5.958-51.617    C217.872,318.082,197.018,309.011,185.879,305.161z M144.229,324.667c-25.068,0-34-24.451-34-47.333    c0-39.416,13.009-47.333,34-47.333s34,7.918,34,47.333C178.229,300.216,169.297,324.667,144.229,324.667z"></path><path d="M447.483,333.473c-5.611-15.391-26.465-24.461-37.604-28.312c2.828-8.04,4.349-17.395,4.349-27.828    c0-41.034-14.187-59.333-46-59.333s-46,18.299-46,59.333c0,10.355,1.498,19.65,4.284,27.65c-3.413,1.176-7.907,2.891-12.628,5.16    c-13.752,6.61-22.365,14.459-25.599,23.329c-10.165,27.882-6.134,50.661-5.958,51.617l11.801-2.18    c-0.038-0.202-3.625-20.485,5.431-45.327c2.082-5.709,8.775-11.43,19.356-16.543c4.848-2.342,9.514-4.054,12.699-5.111    c7.991,13.17,20.694,20.738,36.614,20.738c15.844,0,28.504-7.493,36.501-20.547c3.109,1.05,7.427,2.663,11.956,4.84    c10.678,5.133,17.429,10.881,19.522,16.624c8.99,24.657,5.466,45.138,5.432,45.327l11.801,2.18    C453.618,384.134,457.649,361.355,447.483,333.473z M368.229,324.667c-25.068,0-34-24.451-34-47.333    c0-39.416,13.009-47.333,34-47.333s34,7.918,34,47.333C402.229,300.216,393.297,324.667,368.229,324.667z"></path><path d="M338.651,137.979l-13.73,13.435l45.072,10.72l-9.735-45.295l-13.02,12.74c-11.595-10.967-24.89-19.667-39.576-25.877    c-16.41-6.942-33.838-10.461-51.802-10.461c-17.963,0-35.392,3.52-51.8,10.461c-14.838,6.275-28.26,15.087-39.94,26.214    l-13.364-13.076l-9.735,45.295l45.072-10.72l-13.387-13.098c10.557-9.988,22.66-17.909,36.028-23.563    c14.922-6.312,30.777-9.513,47.126-9.513s32.205,3.201,47.127,9.513C316.203,120.342,328.181,128.15,338.651,137.979z"></path></g></g></svg>