<svg width="48" height="50" xmlns="http://www.w3.org/2000/svg">

 <g>
  <title>background</title>
  <rect fill="none" id="canvas_background" height="52" width="50" y="-1" x="-1"/>
 </g>
 <g>
  <title>Layer 1</title>
  <g id="svg_1">
   <path fill="#505050" id="svg_2" d="m33.964001,42.035999c-0.256001,0 -0.512001,-0.098999 -0.707001,-0.292999c-0.390999,-0.392002 -0.390999,-1.023003 0,-1.414001l7.071003,-7.070999c0.390999,-0.390999 1.022999,-0.390999 1.413998,0s0.390999,1.022999 0,1.413998l-7.070999,7.071003c-0.194,0.195 -0.450001,0.292999 -0.707001,0.292999z"/>
   <path fill="#505050" id="svg_3" d="m41.035,42.035999c-0.256001,0 -0.512001,-0.098999 -0.707001,-0.292999l-7.07,-7.071003c-0.390999,-0.390999 -0.390999,-1.022999 0,-1.413998s1.022999,-0.390999 1.414001,0l7.07,7.070999c0.390999,0.390999 0.390999,1.024002 0,1.414001c-0.195,0.195 -0.451,0.292999 -0.707001,0.292999z"/>
   <path fill="#505050" id="svg_4" d="m37.5,47.5c-5.514,0 -10,-4.486 -10,-10s4.486,-10 10,-10s10,4.486 10,10s-4.486,10 -10,10zm0,-18c-4.410999,0 -8,3.589001 -8,8s3.589001,8 8,8s8,-3.589001 8,-8s-3.589001,-8 -8,-8z"/>
   <path fill="#505050" id="svg_5" d="m29.5,43.5l-28,0c-0.552,0 -1,-0.448002 -1,-1l0,-3.771c0,-2.920002 1.811,-5.525002 4.613,-6.638c2.532,-1.004 7.375,-4.049 9.463,-9.087999l1.848,0.765999c-2.191999,5.288 -7.066,8.789999 -10.574,10.182001c-2.035,0.807999 -3.35,2.682999 -3.35,4.777l0,2.771999l27,0l0,2z"/>
   <path fill="#505050" id="svg_6" d="m29.858999,31.268c-2.049,-1.706999 -4.072001,-4.58 -5.283001,-7.5l1.848001,-0.765999c1.094,2.639 2.900999,5.216 4.716999,6.729l-1.282,1.536999z"/>
   <path fill="#505050" id="svg_7" d="m20.5,26.5c-6.296,0 -11,-7.919001 -11,-15c0,-6.682 4.318,-11 11,-11c6.681999,0 11,4.318 11,11c0,7.080999 -4.704,15 -11,15zm0,-24c-4.351,0 -9,2.364 -9,9c0,5.888 4.015,13 9,13c4.983999,0 9,-7.112 9,-13c0,-6.636 -4.648001,-9 -9,-9z"/>
  </g>
 </g>
</svg>