<?xml version="1.0" encoding="UTF-8" standalone="no"?>
<svg
   xmlns:dc="http://purl.org/dc/elements/1.1/"
   xmlns:cc="http://creativecommons.org/ns#"
   xmlns:rdf="http://www.w3.org/1999/02/22-rdf-syntax-ns#"
   xmlns:svg="http://www.w3.org/2000/svg"
   xmlns="http://www.w3.org/2000/svg"
   height="100"
   width="100"
   id="svg4170"
   xml:space="preserve"
   enable-background="new 0 0 32 32"
   viewBox="0 0 100 100"
   y="0px"
   x="0px"
   version="1.1"><metadata
     id="metadata4186"><rdf:RDF><cc:Work
         rdf:about=""><dc:format>image/svg+xml</dc:format><dc:type
           rdf:resource="http://purl.org/dc/dcmitype/StillImage" /><dc:title></dc:title></cc:Work></rdf:RDF></metadata><defs
     id="defs4184" /><g
     transform="matrix(2.0327869,0,0,2.0327869,17.37377,17.37377)"
     id="g4172"><g
       id="g4174"><path
         style="fill:#000000"
         id="path4176"
         d="M 16,31.3 C 11.9,31.3 8.1,29.7 5.2,26.8 2.3,23.9 0.8,20.1 0.8,16 0.8,11.9 2.3,8.1 5.2,5.2 8.1,2.3 11.9,0.8 16,0.8 c 4.1,0 7.9,1.6 10.8,4.5 2.9,2.9 4.5,6.7 4.5,10.8 0,4.1 -1.6,7.9 -4.5,10.8 -2.9,2.8 -6.7,4.4 -10.8,4.4 z m 0,-29 c -3.7,0 -7.1,1.4 -9.7,4 -2.6,2.6 -4,6.1 -4,9.7 0,3.7 1.4,7.1 4,9.7 2.6,2.6 6,4 9.7,4 3.7,0 7.1,-1.4 9.7,-4 2.6,-2.6 4,-6 4,-9.7 0,-3.7 -1.4,-7.1 -4,-9.7 -2.6,-2.6 -6,-4 -9.7,-4 z" /></g><g
       id="g4178"><rect
         style="fill:#000000"
         id="rect4180"
         height="1.5"
         width="28.6"
         transform="matrix(-0.6001,-0.7999,0.7999,-0.6001,12.8815,38.384)"
         y="15.2"
         x="1.7" /></g></g></svg>