<svg xmlns="http://www.w3.org/2000/svg" xmlns:xlink="http://www.w3.org/1999/xlink" version="1.1" x="0px" y="0px" viewBox="0 0 24 24" style="enable-background:new 0 0 24 24;" xml:space="preserve"><g><path fill="#ffffff" d="M12,2.319c-5.338,0-9.681,4.343-9.681,9.681S6.662,21.681,12,21.681s9.681-4.343,9.681-9.681S17.338,2.319,12,2.319z    M12,20.713c-4.804,0-8.713-3.909-8.713-8.713S7.196,3.287,12,3.287S20.713,7.196,20.713,12S16.804,20.713,12,20.713z"></path><path fill="#ffffff" d="M16.611,6.733l-6.293,3.388c-0.083,0.045-0.152,0.113-0.197,0.197l-3.388,6.293c-0.101,0.188-0.067,0.421,0.084,0.572   c0.093,0.093,0.217,0.142,0.342,0.142c0.078,0,0.157-0.019,0.229-0.058l6.293-3.388c0.083-0.045,0.152-0.113,0.197-0.197   l3.388-6.293c0.101-0.188,0.067-0.421-0.084-0.572C17.032,6.666,16.799,6.632,16.611,6.733z M8.351,15.649l2.315-4.299l1.984,1.984   L8.351,15.649z M13.334,12.65l-1.984-1.984l4.299-2.315L13.334,12.65z"></path><rect fill="#ffffff" x="11.516" y="3.771" width="0.968" height="1.936"></rect><rect fill="#ffffff" x="11.516" y="18.293" width="0.968" height="1.936"></rect><rect fill="#ffffff" x="18.293" y="11.516" width="1.936" height="0.968"></rect><rect fill="#ffffff" x="3.771" y="11.516" width="1.936" height="0.968"></rect></g></svg>