<svg xmlns="http://www.w3.org/2000/svg" xmlns:xlink="http://www.w3.org/1999/xlink" version="1.1" x="0px" y="0px" viewBox="0 0 100 100" enable-background="new 0 0 100 100" xml:space="preserve"><path fill="#ffffff" d="M91.067,75.062H75.774v-52.13c0-6.21-5.053-11.263-11.263-11.263H16.818c-6.211,0-11.264,5.053-11.264,11.263  c0,1.332,1.08,2.412,2.411,2.412H23.26v52.129c0,6.211,5.052,11.264,11.264,11.264h47.691c6.211,0,11.264-5.053,11.264-11.264  C93.479,76.142,92.399,75.062,91.067,75.062z M16.818,16.491h38.458c-0.837,1.194-1.446,2.56-1.769,4.029H10.845  C11.802,18.161,14.119,16.491,16.818,16.491z M40.963,77.473c0,3.552-2.889,6.441-6.439,6.441c-3.553,0-6.441-2.89-6.441-6.441  V25.344h27.577c1.331,0,2.411-1.08,2.411-2.412c0-3.551,2.89-6.44,6.441-6.44c3.551,0,6.441,2.89,6.441,6.44v52.13H43.375  C42.043,75.062,40.963,76.142,40.963,77.473z M82.215,83.914H43.758c0.836-1.195,1.446-2.56,1.769-4.029h42.662  C87.232,82.245,84.915,83.914,82.215,83.914z"></path><path fill="#ffffff" d="M62.206,35.093h-23.74c-1.332,0-2.411,1.079-2.411,2.411c0,1.331,1.079,2.411,2.411,2.411h23.74  c1.331,0,2.411-1.08,2.411-2.411C64.617,36.172,63.537,35.093,62.206,35.093z"></path><path fill="#ffffff" d="M62.206,47.891h-23.74c-1.332,0-2.411,1.079-2.411,2.41c0,1.332,1.079,2.411,2.411,2.411h23.74  c1.331,0,2.411-1.079,2.411-2.411C64.617,48.97,63.537,47.891,62.206,47.891z"></path><path fill="#ffffff" d="M62.206,60.688h-23.74c-1.332,0-2.411,1.08-2.411,2.412c0,1.331,1.079,2.41,2.411,2.41h23.74  c1.331,0,2.411-1.079,2.411-2.41C64.617,61.768,63.537,60.688,62.206,60.688z"></path></svg>