<svg xmlns="http://www.w3.org/2000/svg" xmlns:xlink="http://www.w3.org/1999/xlink" viewBox="0 0 100 100" version="1.1" x="0px" y="0px"><title>Search</title><desc>Created with Sketch.</desc><g stroke="none" stroke-width="1" fill="none" fill-rule="evenodd"><g stroke="#fff" stroke-width="5"><path d="M68.168841,65.2095963 C68.5320756,65.3188984 68.8742859,65.5170521 69.161291,65.8040572 L89.3046941,85.9474603 C90.2317686,86.8745348 90.2317686,88.3776196 89.3046941,89.3046941 C88.3776196,90.2317686 86.8745348,90.2317686 85.9474603,89.3046941 L65.8040572,69.161291 C65.5170521,68.8742859 65.3188984,68.5320756 65.2095963,68.168841 C59.3519251,73.3352861 51.6594793,76.4698389 43.2349195,76.4698389 C24.8797803,76.4698389 10,61.5900586 10,43.2349195 C10,24.8797803 24.8797803,10 43.2349195,10 C61.5900586,10 76.4698389,24.8797803 76.4698389,43.2349195 C76.4698389,51.6594793 73.3352861,59.3519251 68.168841,65.2095963 L68.168841,65.2095963 Z"></path></g></g></svg>
