<svg fill="#505050" xmlns="http://www.w3.org/2000/svg" xmlns:xlink="http://www.w3.org/1999/xlink" version="1.1" x="0px" y="0px" viewBox="0 0 595.28 596" enable-background="new 0 0 595.28 596" xml:space="preserve"><path d="M254.523,430.604c13.979,7.146,30.292,10.93,47.181,10.93h0.006c30.485,0,58.818-12.088,77.728-33.154  c19.706-21.949,28.141-52.199,24.406-87.5c-0.144-6.079-2.361-62.271-35.013-105.814l-7.828-10.443l-15.911,23.992  c-11.428-18.956-36.649-51.294-81.979-66.559l-22.548-7.588l11.565,20.796c0.137,0.253,12.043,22.026,9.867,46.067l-36.073-21.302  l4.233,20.391c0.089,0.432,8.656,42.632,0.785,82.259c-1.013,0.846-2.393,1.583-4.268,1.583c-2.866,0-9.186-1.685-19.264-12.979  l-13.273-14.867l-2.722,19.747C191.285,297.139,178.803,394.638,254.523,430.604z M245.979,313.62l1.811-1.618l0.631-2.913  c5.875-27.051,4.633-54.845,2.686-72.806l22.781,13.459l3.423-11.175c5.701-18.579,3.207-37.032-0.6-50.647  c42.206,22.548,58.734,61.792,58.909,62.224l6.553,16.199l19.334-29.154c22.942,38.482,23.927,83.908,23.933,84.405l0.054,0.858  c3.261,30.131-3.572,55.592-19.76,73.625c-15.42,17.184-38.759,27.039-64.028,27.039c-13.98,0-27.397-3.082-39.04-9.029  c-46.014-21.857-53.447-70.557-53.855-97.218C222.598,325.623,236.807,324.117,245.979,313.62z"></path></svg>