<svg fill="#FF5E41" xmlns="http://www.w3.org/2000/svg" xmlns:xlink="http://www.w3.org/1999/xlink" version="1.1" x="0px" y="0px" viewBox="0 0 595.28 596" enable-background="new 0 0 595.28 596" xml:space="preserve"><path d="M403.845,316.526c-0.138-5.756-2.183-56.475-30.144-98.818c-9.652-14.25-17.171-9.479-20.947-4.994l-7.663,11.547  c-10.575-17.554-33.021-46.546-72.253-62.866c-29.509-10.599-18.141,14.953-18.141,14.953c3.404,7.961,8.836,23.716,7.302,40.629  l-16.764-9.897c-16.714-9.844-14.118,14.437-14.118,14.437h-0.005c2.014,12.631,6.054,45.479-0.169,76.81  c-1.014,0.845-2.391,1.582-4.269,1.582c-2.613,0-8.141-1.492-16.732-10.312c-0.227-0.222-0.438-0.4-0.684-0.659  c-11.918-12.415-16.456-1.949-17.99,4.16c-1.2,11.686-7.711,99.448,63.254,133.152c13.981,7.146,30.294,10.931,47.183,10.931h0.005  c30.486,0,58.819-12.087,77.728-33.154C399.145,382.077,407.579,351.826,403.845,316.526z M365.732,391.724  c-15.419,17.182-38.759,27.038-64.027,27.038c-13.981,0-27.398-3.082-39.041-9.028c-46.012-21.859-53.447-70.558-53.854-97.218  c13.789,8.752,27.997,7.248,37.171-3.25l1.811-1.617l0.628-2.914c5.875-27.051,4.635-54.845,2.687-72.807l7.848,4.635  c0,0,15.887,8.093,20.048-9.029c0.012-0.047,0.024-0.071,0.036-0.125c3.333-16.217,1.02-31.895-2.326-43.843  c35.156,18.783,52.457,49.076,57.361,58.945l0.006-0.007c0,0,10.594,15.701,19.01,3.016c0.037-0.048,0.056-0.078,0.086-0.119  l8.333-12.566c22.942,38.482,23.927,83.908,23.933,84.405l0.054,0.858C388.754,348.229,381.92,373.689,365.732,391.724z"></path></svg>