<svg width="277" height="260" xmlns="http://www.w3.org/2000/svg">
 <defs>
  <style type="text/css"/>
  <style type="text/css"/>
 </defs>
 <g>
  <title>background</title>
  <rect fill="none" id="canvas_background" height="262" width="279" y="-1" x="-1"/>
 </g>
 <g>
  <title>Layer 1</title>
  <path id="svg_1" fill-rule="nonzero" fill="#505050" d="m138.000031,5.862049c-29.438087,0 -53.145935,23.70657 -53.145935,53.146564c0,15.312874 6.340965,29.070366 16.681656,38.793091l-30.259865,51.982765c-4.766899,-1.399475 -9.907448,-2.327576 -15.1287,-2.327576c-29.440548,0 -53.147175,23.706558 -53.147175,53.146561c0,29.440018 23.706631,53.534485 53.147175,53.534485c25.202499,0 46.426361,-17.61554 51.98275,-41.120697l59.741493,0c5.556396,23.505157 26.780197,41.120697 51.982697,41.120697c29.440613,0 53.147217,-24.094467 53.145905,-53.534485c0,-29.440002 -23.705292,-53.146561 -53.145905,-53.146561c-5.221298,0 -10.360504,0.928085 -15.129898,2.327576l-30.257492,-52.370697c10.230301,-9.713104 16.680496,-23.183113 16.680496,-38.405167c0,-29.439987 -23.706604,-53.146561 -53.147202,-53.146561l0,0.000004zm0,24.827591c15.728302,0 28.319595,12.591419 28.319595,28.318974c0,15.727554 -12.591293,28.318962 -28.319595,28.318962c-15.725815,0 -28.318359,-12.591408 -28.318359,-28.318962c0,-15.727554 12.592545,-28.318974 28.318359,-28.318974zm-15.128708,79.525875c4.769516,1.39949 9.908707,1.939651 15.128708,1.939651c5.277206,0 10.315903,-0.511551 15.130005,-1.939651l29.869995,51.982758c-7.158997,6.873123 -12.292206,16.038162 -14.740097,25.991394l-60.517303,0c-2.474045,-10.05249 -7.859161,-19.089722 -15.129906,-25.991394l30.258598,-51.982758zm-66.724129,62.06897c15.727036,0 28.319588,12.591431 28.319588,28.31897c0,15.72757 -12.592552,28.706909 -28.319588,28.706909c-15.727032,0 -28.318352,-12.97934 -28.31958,-28.706909c0,-15.727539 12.592548,-28.31897 28.31958,-28.31897zm163.706932,0c15.727005,0 28.319611,12.591431 28.31839,28.31897c0,15.72757 -12.591385,28.706909 -28.31839,28.706909c-15.727097,0 -28.706894,-12.97934 -28.706894,-28.706909c0,-15.727539 12.979797,-28.31897 28.706894,-28.31897z"/>
 </g>
</svg>