<svg xmlns:dc="http://purl.org/dc/elements/1.1/" xmlns:cc="http://creativecommons.org/ns#" xmlns:rdf="http://www.w3.org/1999/02/22-rdf-syntax-ns#" xmlns:svg="http://www.w3.org/2000/svg" xmlns="http://www.w3.org/2000/svg" xmlns:sodipodi="http://sodipodi.sourceforge.net/DTD/sodipodi-0.dtd" xmlns:inkscape="http://www.inkscape.org/namespaces/inkscape" version="1.1" x="0px" y="0px" viewBox="0 0 100 100"><g transform="translate(0,-952.36218)"><path style="font-size:medium;font-style:normal;font-variant:normal;font-weight:normal;font-stretch:normal;text-indent:0;text-align:start;text-decoration:none;line-height:normal;letter-spacing:normal;word-spacing:normal;text-transform:none;direction:ltr;block-progression:tb;writing-mode:lr-tb;text-anchor:start;baseline-shift:baseline;opacity:1;color:#000000;fill:#000000;fill-opacity:1;stroke:none;stroke-width:2.49999976000000010;marker:none;visibility:visible;display:inline;overflow:visible;enable-background:accumulate;font-family:Sans;-inkscape-font-specification:Sans" d="M 32 22 C 24.832143 22 19 27.83214 19 35 C 19 42.16786 24.832143 48 32 48 C 39.167857 48 45 42.16786 45 35 C 45 27.83214 39.167857 22 32 22 z M 85 22 C 80.593566 22 77 25.59357 77 30 C 77 31.270665 77.313771 32.463438 77.84375 33.53125 L 54.4375 49.15625 A 1.0000999 1.0000999 0 0 0 54.4375 50.8125 L 77.84375 66.4375 C 77.306127 67.511423 77 68.719573 77 70 C 77 74.4064 80.593566 78 85 78 C 89.406434 78 93 74.4064 93 70 C 93 65.5935 89.406434 62 85 62 C 82.594505 62 80.435118 63.062781 78.96875 64.75 L 56.8125 49.96875 L 78.9375 35.21875 C 80.404306 36.925632 82.578361 38 85 38 C 89.406434 38 93 34.40644 93 30 C 93 25.59357 89.406434 22 85 22 z M 32 24 C 38.086977 24 43 28.91302 43 35 C 43 41.08698 38.086977 46 32 46 C 25.913023 46 21 41.08698 21 35 C 21 28.91302 25.913023 24 32 24 z M 85 24 C 88.325553 24 91 26.67445 91 30 C 91 33.32556 88.325553 36 85 36 C 81.674446 36 79 33.32556 79 30 C 79 26.67445 81.674446 24 85 24 z M 32 52 C 18.204725 52 7 63.2048 7 77 A 1.0001001 1.0001001 0 0 0 8 78 L 56 78 A 1.0001001 1.0001001 0 0 0 57 77 C 57 63.2048 45.795277 52 32 52 z M 32 54 C 44.373303 54 54.374691 63.759 54.90625 76 L 9.09375 76 C 9.6253087 63.759 19.626699 54 32 54 z M 85 64 C 88.325553 64 91 66.6744 91 70 C 91 73.3255 88.325553 76 85 76 C 81.674446 76 79 73.3255 79 70 C 79 66.6744 81.674446 64 85 64 z " transform="translate(0,952.36218)"></path></g></svg>