<svg fill="#FFFFFF" xmlns="http://www.w3.org/2000/svg" xmlns:xlink="http://www.w3.org/1999/xlink" version="1.1" x="0px" y="0px" viewBox="0 0 100 100" style="enable-background:new 0 0 100 100;" xml:space="preserve"><path d="M83.9,50.7c-3.7,0-6.8-3.1-6.8-6.9c0-3.7,3.1-6.9,6.8-6.9c3.8,0,6.8,3.1,6.8,6.9C90.8,47.7,87.8,50.7,83.9,50.7z M83.9,39  c-2.6,0-4.8,2.3-4.8,4.9c0,2.7,2.1,4.9,4.8,4.9c2.7,0,4.8-2.2,4.8-4.9S86.6,39,83.9,39z"/><path d="M94.8,60.5H73.3v-1c0-5.2,1.1-8.2,3.2-9.1c2.8-1.2,5.9,1.6,6.2,2c0.8,0.7,1.1,0.7,1.2,0.7c0.2,0,0.7-0.2,1.2-0.7  c0.4-0.3,3.5-3.2,6.3-2c2.2,0.9,3.3,3.9,3.3,9.1V60.5z M75.3,58.5h17.4c-0.1-4.8-1.3-6-2-6.3c-1.3-0.6-3.4,1-4.1,1.6  c-0.8,0.8-1.7,1.3-2.6,1.3c-0.8,0-1.6-0.4-2.6-1.2c-0.7-0.6-2.8-2.2-4.1-1.6C76.6,52.5,75.4,53.7,75.3,58.5z"/><path d="M15.8,50.7c-3.7,0-6.8-3.1-6.8-6.9c0-3.7,3.1-6.9,6.8-6.9s6.8,3.1,6.8,6.9C22.6,47.7,19.5,50.7,15.8,50.7z M15.8,39  c-2.6,0-4.8,2.3-4.8,4.9c0,2.7,2.1,4.9,4.8,4.9s4.8-2.2,4.8-4.9S18.4,39,15.8,39z"/><path d="M26.6,60.5H5.2v-1c0-5.2,1.1-8.2,3.2-9.1c2.8-1.2,5.9,1.6,6.2,2c0.8,0.7,1.1,0.7,1.2,0.7c0.2,0,0.7-0.2,1.2-0.7  c0.4-0.3,3.5-3.2,6.3-2c2.2,0.9,3.3,3.9,3.3,9.1V60.5z M7.2,58.5h17.4c-0.1-4.8-1.3-6-2-6.3c-1.4-0.6-3.4,1-4.1,1.6  c-0.8,0.8-1.7,1.3-2.6,1.3c-0.8,0-1.6-0.4-2.6-1.2c-0.7-0.6-2.8-2.2-4.1-1.6C8.5,52.5,7.3,53.7,7.2,58.5z"/><path d="M15.7,33.8c-0.2,0-0.3,0-0.5-0.1c-0.5-0.3-0.7-0.9-0.4-1.3c4.1-8.1,11.4-14.2,19.9-16.9c0.5-0.2,1.1,0.1,1.3,0.7  c0.2,0.5-0.1,1.1-0.7,1.3c-8,2.5-14.9,8.3-18.8,15.9C16.5,33.6,16.1,33.8,15.7,33.8z"/><path d="M84,33.8c-0.4,0-0.7-0.2-0.9-0.5c-3.9-7.6-10.7-13.4-18.8-15.9c-0.5-0.2-0.8-0.7-0.7-1.3c0.2-0.5,0.7-0.8,1.3-0.7  c8.6,2.7,15.8,8.8,19.9,16.9c0.3,0.5,0.1,1.1-0.4,1.3C84.3,33.7,84.1,33.8,84,33.8z"/><path d="M43.2,79.2c0-3.8,3.1-6.9,6.8-6.9s6.8,3.2,6.8,6.9c0,3.8-3.1,6.9-6.8,6.9S43.2,83,43.2,79.2z M45.2,79.2  c0,2.7,2.1,4.9,4.8,4.9s4.8-2.2,4.8-4.9c0-2.6-2.2-4.9-4.8-4.9S45.2,76.5,45.2,79.2z"/><path d="M39.3,94.8c0-5.2,1.1-8.2,3.3-9.1c2.8-1.2,5.9,1.7,6.3,2c0.5,0.5,1,0.7,1.2,0.7c0.1,0,0.4,0,1.2-0.7c0.3-0.4,3.4-3.2,6.2-2  c2.1,0.9,3.2,3.9,3.2,9.1v1H39.3L39.3,94.8z M56.7,87.6c-1.3-0.6-3.4,1-4.1,1.6c-1,0.8-1.8,1.2-2.6,1.2c-0.9,0-1.8-0.5-2.6-1.3  c-0.7-0.6-2.7-2.2-4.1-1.6c-0.7,0.3-1.9,1.5-2,6.3h17.4C58.6,89.1,57.4,87.9,56.7,87.6z"/><path d="M43.2,11.1c0-3.8,3.1-6.9,6.8-6.9s6.8,3.2,6.8,6.9c0,3.8-3.1,6.9-6.8,6.9S43.2,14.9,43.2,11.1z M45.2,11.1  c0,2.7,2.1,4.9,4.8,4.9s4.8-2.2,4.8-4.9c0-2.6-2.2-4.9-4.8-4.9S45.2,8.4,45.2,11.1z"/><path d="M39.3,26.7c0-5.2,1.1-8.2,3.3-9.1c2.8-1.2,5.9,1.7,6.3,2c0.5,0.5,1,0.7,1.2,0.7c0.1,0,0.4,0,1.2-0.7c0.3-0.4,3.4-3.2,6.2-2  c2.1,0.9,3.2,3.9,3.2,9.1v1H39.3L39.3,26.7z M56.7,19.5c-1.3-0.6-3.4,1-4.1,1.6c-1,0.8-1.8,1.2-2.6,1.2c-0.9,0-1.8-0.5-2.6-1.3  c-0.7-0.6-2.7-2.2-4.1-1.6c-0.7,0.3-1.9,1.5-2,6.3h17.4C58.6,21,57.4,19.8,56.7,19.5z"/><path d="M16.5,64.1c3.9,7.6,10.8,13.4,18.8,15.9c0.6,0.2,0.9,0.8,0.7,1.3c-0.2,0.6-0.8,0.9-1.3,0.7c-8.5-2.7-15.8-8.8-19.9-16.9  c-0.3-0.4-0.1-1,0.4-1.3c0.2-0.1,0.3-0.1,0.5-0.1C16.1,63.7,16.5,63.9,16.5,64.1z"/><path d="M84.4,63.9c0.5,0.2,0.7,0.8,0.4,1.3c-4.1,8.1-11.3,14.2-19.9,16.9c-0.6,0.1-1.1-0.2-1.3-0.7c-0.1-0.6,0.2-1.1,0.7-1.3  c8.1-2.5,14.9-8.3,18.8-15.9c0.2-0.3,0.5-0.5,0.9-0.5C84.1,63.7,84.3,63.8,84.4,63.9z"/></svg>