<svg xmlns:x="http://ns.adobe.com/Extensibility/1.0/" xmlns:i="http://ns.adobe.com/AdobeIllustrator/10.0/" xmlns:graph="http://ns.adobe.com/Graphs/1.0/" xmlns="http://www.w3.org/2000/svg" xmlns:xlink="http://www.w3.org/1999/xlink" version="1.1" x="0px" y="0px" viewBox="0 0 64 64" enable-background="new 0 0 64 64" xml:space="preserve"><metadata><sfw xmlns="http://ns.adobe.com/SaveForWeb/1.0/"><slices></slices><sliceSourceBounds y="-8160" x="-8165" width="16389" height="16384" bottomLeftOrigin="true"></sliceSourceBounds></sfw></metadata><g><g><path d="M53.5,11H49V8c0-0.552-0.447-1-1-1s-1,0.448-1,1v3H17V8c0-0.552-0.448-1-1-1s-1,0.448-1,1v3h-4.5C8.57,11,7,12.57,7,14.5    v39c0,1.93,1.57,3.5,3.5,3.5h43c1.93,0,3.5-1.57,3.5-3.5v-39C57,12.57,55.43,11,53.5,11z M10.5,13H15v3c0,0.552,0.448,1,1,1    s1-0.448,1-1v-3h30v3c0,0.552,0.447,1,1,1s1-0.448,1-1v-3h4.5c0.827,0,1.5,0.673,1.5,1.5V21H9v-6.5C9,13.673,9.673,13,10.5,13z     M53.5,55h-43C9.673,55,9,54.327,9,53.5V23h46v30.5C55,54.327,54.327,55,53.5,55z"></path><path d="M40.53,29.152c-0.47-0.293-1.086-0.15-1.378,0.318l-9.455,15.126l-5.143-3.429c-0.46-0.307-1.08-0.182-1.387,0.277    c-0.306,0.46-0.182,1.08,0.277,1.387l6,4C29.611,46.942,29.804,47,30,47c0.07,0,0.141-0.008,0.21-0.022    c0.264-0.057,0.494-0.219,0.638-0.447l10-16C41.141,30.062,40.998,29.445,40.53,29.152z"></path></g></g></svg>