<svg xmlns="http://www.w3.org/2000/svg" xmlns:xlink="http://www.w3.org/1999/xlink" version="1.1" x="0px" y="0px" viewBox="0 0 32 32" enable-background="new 0 0 32 32" xml:space="preserve"><g><g><path fill="#000000" d="M16,31.3C7.6,31.3,0.8,24.4,0.8,16C0.8,7.6,7.6,0.8,16,0.8c8.4,0,15.3,6.8,15.3,15.2    C31.3,24.4,24.4,31.3,16,31.3z M16,2.3C8.4,2.3,2.3,8.4,2.3,16S8.4,29.8,16,29.8c7.6,0,13.8-6.2,13.8-13.8S23.6,2.3,16,2.3z"></path></g><g><rect x="15.3" y="9.6" transform="matrix(0.7071 0.7071 -0.7071 0.7071 16.0013 -6.6273)" fill="#000000" width="1.5" height="12.8"></rect></g><g><rect x="9.6" y="15.2" transform="matrix(0.7071 0.7071 -0.7071 0.7071 16.0002 -6.6278)" fill="#000000" width="12.8" height="1.5"></rect></g></g></svg>