<?xml version="1.0" encoding="UTF-8" standalone="no"?>
<svg
   xmlns:dc="http://purl.org/dc/elements/1.1/"
   xmlns:cc="http://creativecommons.org/ns#"
   xmlns:rdf="http://www.w3.org/1999/02/22-rdf-syntax-ns#"
   xmlns:svg="http://www.w3.org/2000/svg"
   xmlns="http://www.w3.org/2000/svg"
   id="svg4151"
   xml:space="preserve"
   style="enable-background:new 0 0 100 100;"
   viewBox="0 0 100 100"
   y="0px"
   x="0px"
   version="1.1"><metadata
     id="metadata4159"><rdf:RDF><cc:Work
         rdf:about=""><dc:format>image/svg+xml</dc:format><dc:type
           rdf:resource="http://purl.org/dc/dcmitype/StillImage" /><dc:title></dc:title></cc:Work></rdf:RDF></metadata><defs
     id="defs4157" /><path
     id="path4153"
     d="m 79.9,48.8125 c 1.1,-1.2 1.7,-2.8 1.7,-4.5 0,-2.4 -1.3,-4.5 -3.2,-5.7 0.6,-1 0.9,-2.1 0.9,-3.3 0,-3.1 -2.1,-5.8 -5,-6.6 0.3,-0.8 0.5,-1.6 0.5,-2.5 0,-3.8 -3.1,-6.8 -6.8,-6.8 l -13.5,0 c -8.4,0 -16.3,4.3 -20.9,11.3 l -13.1,0 c -1.3,0 -2.3,1 -2.3,2.3 0,1.3 1,2.3 2.3,2.3 l 13.6,0 c 0.1,0 0.3,0 0.4,0 0.9,0.2 1.9,-0.2 2.3,-1.1 3.3,-5.7 9.2,-9.5 15.8,-10.1 -0.3,0.5 -0.4,1.2 -0.4,2 0,1.7 0.7,3.3 1.7,4.5 -1.1,1.2 -1.7,2.8 -1.7,4.5 0,1.7 0.7,3.3 1.7,4.5 -1.1,1.2 -1.7,2.8 -1.7,4.5 0,0.2 0,0.4 0,0.6 -2.2,-1.8 -4.9,-2.9 -8,-2.9 -1.3,0 -2.3,1 -2.3,2.3 0,1.3 1,2.3 2.3,2.3 4.4,0 7.9,3.6 7.9,7.9 l 0,7.9 c 0,0.6 0.2,1.2 0.7,1.6 l 2.3,2.3 c 0,0 0,0 0,0 1.4,1.4 2.2,3.2 2.2,5.2 0,1.2 -0.3,2.3 -0.8,3.3 l -16.3,-16.1 c -1.3,-1.3 -2.4,-2.7 -3.4,-4.2 -0.4,-0.6 -1.1,-1 -1.9,-1 l -14.4,0 c -1.3,0 -2.3,1 -2.3,2.3 0,1.3 1,2.3 2.3,2.3 l 13.3,0 c 1,1.4 2.1,2.7 3.3,3.9 l 18.1,18.1 c 0.9,0.9 2.3,0.9 3.2,0 2.2,-2.2 3.5,-5.2 3.5,-8.4 0,-3.2 -1.2,-6.2 -3.5,-8.4 0,0 0,0 0,0 l -1.6,-1.6 0,-1.7 c 0.7,0.3 1.5,0.4 2.3,0.4 l 15.9,0 c 3.8,0 6.8,-3.1 6.8,-6.8 -0.1,-1.8 -0.8,-3.4 -1.9,-4.6 z m -20.9,6.8 c -1.3,0 -2.3,-1 -2.3,-2.3 0,-1.2 1,-2.3 2.3,-2.3 l 15.9,0 c 1.3,0 2.3,1 2.3,2.3 0,1.3 -1,2.3 -2.3,2.3 l -15.9,0 z m 15.9,-9.1 -15.9,0 c -1.3,0 -2.3,-1 -2.3,-2.3 0,-1.3 1,-2.3 2.3,-2.3 l 15.9,0 c 1.3,0 2.3,1 2.3,2.3 0,1.3 -1.1,2.3 -2.3,2.3 z m -4.5,-20.4 c 0,1.3 -1,2.3 -2.3,2.3 l -9.1,0 c -1.3,0 -2.3,-1 -2.3,-2.3 0,-1.2 1,-2.3 2.3,-2.3 l 9.1,0 c 1.2,0 2.3,1.1 2.3,2.3 z m 4.5,9.1 c 0,1.2 -1,2.3 -2.3,2.3 l -13.6,0 c -1.3,0 -2.3,-1 -2.3,-2.3 0,-1.3 1,-2.3 2.3,-2.3 l 13.6,0 c 1.3,0 2.3,1 2.3,2.3 z" /></svg>