<svg width="86" height="100" xmlns="http://www.w3.org/2000/svg">

 <g>
  <title>background</title>
  <rect fill="none" id="canvas_background" height="402" width="582" y="-1" x="-1"/>
 </g>
 <g>
  <title>Layer 1</title>
  <path id="svg_1" d="m85.713997,14.286l0,24.999999q0,1.451 -1.059998,2.511002t-2.511002,1.059998l-25,0q-2.344002,0 -3.292,-2.231998q-0.949001,-2.175999 0.780998,-3.849998l7.701,-7.701002q-8.258999,-7.644999 -19.474998,-7.644999q-5.804001,0 -11.077002,2.259998t-9.123999,6.110001t-6.110001,9.124001t-2.26,11.077t2.26,11.077t6.110001,9.123997t9.123999,6.110001t11.077002,2.260002q6.640999,0 12.556,-2.902t9.989002,-8.203003q0.390999,-0.557999 1.282997,-0.669998q0.780998,0 1.394997,0.501999l7.645004,7.701004q0.501999,0.445999 0.529999,1.143997t-0.418999,1.256004q-6.083,7.365997 -14.732002,11.411995t-18.247997,4.046005q-8.705002,0 -16.629,-3.404007t-13.672001,-9.152t-9.152001,-13.671997t-3.404,-16.628998t3.404,-16.629002t9.152001,-13.671999t13.672001,-9.152001t16.629,-3.404q8.202999,0 15.875999,3.097001t13.644001,8.732999l7.253998,-7.198999q1.618004,-1.73 3.905998,-0.781q2.176003,0.949001 2.176003,3.292001l0.000999,0.001001z" fill="#197197"/>
 </g>
</svg>