<svg xmlns="http://www.w3.org/2000/svg" xmlns:xlink="http://www.w3.org/1999/xlink" version="1.1" x="0px" y="0px" viewBox="0 0 512 512" enable-background="new 0 0 512 512" xml:space="preserve"><g><g><path d="M256.011,424.01c-22.68,0-44.684-4.443-65.401-13.206c-20.008-8.462-37.975-20.575-53.401-36.001    c-15.428-15.428-27.541-33.395-36.002-53.4C92.444,300.685,88,278.682,88,256.005c0-22.678,4.443-44.681,13.206-65.398    c8.461-20.006,20.574-37.972,36.001-53.399c15.427-15.428,33.394-27.54,53.4-36.001C211.324,92.443,233.327,88,256.005,88    c22.743,0,44.779,4.443,65.496,13.206c19.133,8.092,37.098,20.171,53.396,35.902l-11.111,11.513    c-15.088-14.562-30.958-25.252-48.518-32.678C296.533,108.018,276.595,104,256.005,104c-20.525,0-40.431,4.018-59.165,11.942    c-18.099,7.654-34.356,18.616-48.319,32.579c-13.963,13.963-24.924,30.22-32.579,48.319C108.018,215.574,104,235.48,104,256.005    s4.018,40.43,11.943,59.165c7.654,18.099,18.616,34.355,32.579,48.319c13.962,13.962,30.22,24.923,48.32,32.579    c18.734,7.924,38.642,11.942,59.168,11.942c20.529,0,40.437-4.018,59.171-11.942c18.113-7.661,34.374-18.622,48.331-32.579    c13.991-13.991,24.96-30.25,32.604-48.321C404.074,296.357,408.108,276,408.108,256h16c0,23-4.459,44.607-13.255,65.4    c-8.45,19.978-20.571,37.945-36.026,53.4c-15.421,15.422-33.392,27.535-53.412,36.002    C300.698,419.566,278.693,424.01,256.011,424.01z"></path></g></g><g><g><polygon points="424,210 336,210 336,194 408,194 408,122 424,122   "></polygon></g></g></svg>