<svg xmlns="http://www.w3.org/2000/svg" xmlns:xlink="http://www.w3.org/1999/xlink" version="1.1" x="0px" y="0px" viewBox="0 0 32 32" enable-background="new 0 0 32 32" xml:space="preserve"><g><g><path fill="#000000" d="M12.9,25L12.9,25C6.2,25,0.7,19.5,0.7,12.9c0-6.7,5.4-12.1,12.1-12.1C19.5,0.7,25,6.2,25,12.9    C25,19.5,19.5,25,12.9,25z M12.9,2.3C7,2.3,2.3,7,2.3,12.9c0,5.8,4.8,10.6,10.6,10.6c5.8,0,10.6-4.8,10.6-10.6S18.7,2.3,12.9,2.3z    "></path></g><g><rect x="18.9" y="25.1" transform="matrix(0.7071 0.7071 -0.7071 0.7071 25.8065 -10.6894)" fill="#000000" width="13.9" height="1.5"></rect></g></g></svg>