<svg width="100" height="100" xmlns="http://www.w3.org/2000/svg">

 <g>
  <title>background</title>
  <rect fill="none" id="canvas_background" height="102" width="102" y="-1" x="-1"/>
 </g>
 <g>
  <title>Layer 1</title>
  <path id="svg_1" d="m101,93.254997l-31.361,-31.361996c4.902,-6.543003 7.556999,-14.458 7.556999,-22.780003c0,-10.179998 -3.965996,-19.747999 -11.163002,-26.945999c-7.195995,-7.199 -16.763996,-11.162 -26.945995,-11.162c-10.179001,0 -19.748001,3.963 -26.945002,11.162c-14.856,14.856001 -14.856,39.032001 -0.002,53.889999c7.197999,7.198997 16.766999,11.163002 26.945998,11.163002c8.338001,0 16.264,-2.663002 22.815002,-7.581001l31.356003,31.356003l7.742996,-7.740005zm-61.915001,-25.962997c-7.525999,0 -14.603998,-2.931 -19.926998,-8.251999c-5.323001,-5.323002 -8.254001,-12.401001 -8.254001,-19.929001c0,-7.528 2.932,-14.604 8.255,-19.927c5.323,-5.321 12.400999,-8.252 19.926998,-8.252c7.529003,0 14.606003,2.931 19.926003,8.252999c10.987999,10.987001 10.987999,28.866999 0,39.855001c-5.322002,5.320999 -12.396999,8.251999 -19.927002,8.251999z" fill="#505050"/>
 </g>
</svg>