<svg width="80" height="90" xmlns="http://www.w3.org/2000/svg">

 <g>
  <title>background</title>
  <rect fill="none" id="canvas_background" height="92" width="82" y="-1" x="-1"/>
 </g>
 <g>
  <title>Layer 1</title>
  <path fill="#505050" id="svg_1" d="m75,27.5c-1.380997,0 -2.5,1.118999 -2.5,2.5l0,0.955002l-15,-7.500002l0,-3.455c0,-1.381001 -1.119003,-2.5 -2.5,-2.5s-2.5,1.118999 -2.5,2.5l0,23.455002l-5,2.5l0,-30.955002c0,-1.381001 -1.118999,-2.5 -2.5,-2.5s-2.5,1.118999 -2.5,2.5l0,0.955l-15,-7.5l0,-3.455c0,-1.381 -1.118999,-2.5 -2.5,-2.5s-2.5,1.119 -2.5,2.5l0,23.455002l-18.618,9.308998c-0.028,0.014 -0.048,0.036999 -0.075,0.052002c-0.152,0.082996 -0.293,0.179996 -0.424,0.292c-0.033,0.028 -0.069,0.052998 -0.1,0.083c-0.147,0.139 -0.276,0.294998 -0.385,0.466c-0.023,0.035 -0.039,0.072998 -0.059999,0.109997c-0.082001,0.144001 -0.150001,0.296001 -0.202001,0.457001c-0.016999,0.052002 -0.033999,0.101002 -0.047999,0.153999c-0.052,0.200001 -0.088,0.406002 -0.088,0.622002l0,20c0,1.380997 1.119,2.5 2.5,2.5s2.5,-1.119003 2.5,-2.5l0,-15.955002l15,7.5l0,18.455002c0,1.380997 1.118999,2.5 2.5,2.5s2.5,-1.119003 2.5,-2.5l0,-18.455002l15,-7.5l0,4.41l-8.618,4.308998c-0.028,0.014004 -0.048,0.037003 -0.075001,0.052002c-0.152,0.083 -0.292999,0.18 -0.424,0.292c-0.033001,0.028 -0.069,0.053001 -0.099998,0.083c-0.146999,0.139 -0.276001,0.294998 -0.385002,0.466c-0.022999,0.035 -0.038998,0.073002 -0.059998,0.110001c-0.082001,0.144001 -0.150002,0.296001 -0.202,0.457001c-0.017002,0.051998 -0.034,0.100998 -0.048,0.153999c-0.052002,0.200001 -0.088001,0.406002 -0.088001,0.622002l0,20c0,1.380997 1.118999,2.5 2.5,2.5s2.5,-1.119003 2.5,-2.5l0,-15.955002l15,7.5l0,18.455002c0,1.380997 1.118999,2.5 2.5,2.5s2.5,-1.119003 2.5,-2.5l0,-18.455002l15,-7.5l0,15.955002c0,1.380997 1.119003,2.5 2.5,2.5s2.5,-1.119003 2.5,-2.5l0,-45c0,-1.381001 -1.119003,-2.5 -2.5,-2.5zm-47.5,-13.455l15,7.5l0,4.41l-15,-7.5l0,-4.41zm-2.5,33.160002l-14.41,-7.205002l14.41,-7.205002l14.41,7.205002l-14.41,7.205002zm2.5,-18.75l0,-4.41l15,7.5l0,4.41l-15,-7.5zm27.5,33.75l-14.41,-7.205002l14.41,-7.205002l14.410004,7.205002l-14.410004,7.205002zm17.5,-11.25l-15,-7.5l0,-4.41l15,7.5l0,4.41zm0,-10l-15,-7.5l0,-4.41l15,7.5l0,4.41z"/>
 </g>
</svg>