<svg xmlns="http://www.w3.org/2000/svg" xmlns:xlink="http://www.w3.org/1999/xlink" version="1.1" x="0px" y="0px" viewBox="0 0 100 100" enable-background="new 0 0 100 100" xml:space="preserve"><g><path d="M73.107,45.929h-36.38c-7.438,0-9.69-4.271-10.913-11.163C24.697,28.47,20.88,6.249,20.841,6.025   c-0.115-0.671-0.754-1.124-1.424-1.007c-0.671,0.115-1.122,0.753-1.007,1.424c0.039,0.224,3.857,22.453,4.976,28.755   c1.202,6.772,3.621,13.042,13.001,13.191L25.252,93.471c-0.163,0.661,0.241,1.329,0.902,1.493C26.253,94.989,26.353,95,26.451,95   c0.554,0,1.058-0.376,1.196-0.938l11.279-45.667h19.958l11.279,45.667C70.302,94.625,70.806,95,71.36,95   c0.098,0,0.197-0.012,0.297-0.036c0.661-0.164,1.065-0.832,0.902-1.493L61.425,48.396h11.682c0.681,0,1.233-0.552,1.233-1.233   C74.341,46.481,73.789,45.929,73.107,45.929z"></path></g></svg>