<svg xmlns="http://www.w3.org/2000/svg" viewBox="0 0 436.22 236.24">
  <circle cx="135.58" cy="110.6" r="21.61" transform="rotate(-18 -40.15 229.78)"/>
  <circle cx="204.31" cy="126.07" r="21.61" transform="rotate(-72 148.24 133.1)"/>
  <circle cx="109.71" cy="108.81" r="21.61"/>
  <circle cx="67.05" cy="242.56" r="21.61" transform="rotate(-18 -108.69 361.76)"/>
  <circle cx="31.61" cy="141.06" r="21.61"/>
  <circle cx="236.48" cy="70.08" r="21.61" transform="rotate(-36 139.19 115.76)"/>
  <circle cx="263.48" cy="112.5" r="21.61" transform="rotate(-36 166.18 158.18)"/>
  <circle cx="124.96" cy="207.56" r="21.61" transform="rotate(-72 68.89 214.6)"/>
  <circle cx="112.65" cy="262.69" r="21.59" transform="rotate(-18.07 -62.45 381.36)"/>
  <circle cx="180.03" cy="82.24" r="21.61" transform="rotate(-36 82.73 127.92)"/>
  <circle cx="54.88" cy="98.35" r="21.61"/>
  <circle cx="391.51" cy="110.59" r="21.61" transform="rotate(-72 335.44 117.62)"/>
  <circle cx="322.78" cy="126.08" r="21.61" transform="rotate(-18 147.06 245.29)"/>
  <circle cx="326.52" cy="108.81" r="21.61"/>
  <circle cx="460.04" cy="242.56" r="21.61" transform="rotate(-72 403.96 249.6)"/>
  <circle cx="404.62" cy="141.06" r="21.61"/>
  <circle cx="290.62" cy="70.09" r="21.61" transform="rotate(-54 220.34 90.44)"/>
  <circle cx="402.13" cy="207.56" r="21.61" transform="rotate(-18 226.42 326.75)"/>
  <circle cx="414.59" cy="263.09" r="21.61" transform="rotate(-72 358.51 270.13)"/>
  <circle cx="347.07" cy="82.24" r="21.61" transform="rotate(-53.8 277.1 101.87)"/>
  <circle cx="381.35" cy="98.35" r="21.61"/>
</svg>
