<svg xmlns="http://www.w3.org/2000/svg" viewBox="0 0 527.09 284.71"><defs><style>.cls-1{stroke:#000;stroke-miterlimit:10;stroke-width:9px;}</style></defs><title>seja_svecana2</title><path class="cls-1" d="M207,196.27a3.1,3.1,0,0,0-2.24,1.43c-4.73,7.63-7.49,19.79-7.49,33.69s2.76,26.06,7.49,33.69a3.15,3.15,0,0,0,3.72,1.19l36.12-14.79c5.61,2.26,12.4,4.34,19.85,4.34s14.24-2.09,19.85-4.34l36.12,14.79a3.15,3.15,0,0,0,3.72-1.24c4.73-7.63,7.49-19.74,7.49-33.64s-2.76-26.06-7.49-33.69a3.12,3.12,0,0,0-2.82-1.43,3.06,3.06,0,0,0-.91.19L284.29,211.3c-5.6-2.25-12.37-4.34-19.8-4.34s-14.24,2.09-19.85,4.34l-36.12-14.79A3.07,3.07,0,0,0,207,196.27Zm1.81,7,32.73,13.41v11.69H221.45a3.06,3.06,0,1,0,.29,6.11h19.85v11.69l-32.73,13.41c-3.13-6.33-5.44-16.48-5.44-28.15S205.72,209.57,208.85,203.24Zm111.28,0c3.12,6.33,5.44,16.5,5.44,28.15s-2.32,21.77-5.44,28.11l-32.73-13.41V234.45h19.85a3.05,3.05,0,1,0,0-6.11H287.39V216.65Zm-55.64,9.83c6,0,11.73,1.74,16.8,3.72V246c-5.07,2-10.76,3.72-16.8,3.72S252.76,248,247.69,246v-29.2C252.76,214.81,258.45,213.07,264.49,213.07Z" transform="translate(-0.07 -10.29)"/><circle cx="135.65" cy="120.88" r="21.61" transform="translate(-30.78 37.55) rotate(-18)"/><circle cx="263.55" cy="31.9" r="21.61" transform="translate(31.52 150.72) rotate(-36)"/><circle cx="195.11" cy="44.26" r="21.61" transform="translate(44.55 165.8) rotate(-54)"/><circle cx="204.38" cy="136.37" r="21.61" transform="translate(11.46 278.31) rotate(-72)"/><circle cx="155.14" cy="157.28" r="21.61"/><circle cx="67.12" cy="252.85" r="21.61" transform="translate(-74.92 22.83) rotate(-18)"/><circle cx="21.68" cy="273.38" r="21.61" transform="translate(-156.62 54.67) rotate(-36)"/><circle cx="85.44" cy="107.31" r="21.61" transform="translate(-51.67 103.08) rotate(-54)"/><circle cx="77.04" cy="189.53" r="21.61"/><circle cx="236.55" cy="80.37" r="21.61" transform="translate(-2.13 144.1) rotate(-36)"/><circle cx="263.55" cy="122.79" r="21.61" transform="translate(-21.91 168.07) rotate(-36)"/><circle cx="125.03" cy="217.85" r="21.61" transform="translate(-120.86 259.15) rotate(-72)"/><circle cx="112.57" cy="273.38" r="21.61" transform="matrix(0.95, -0.31, 0.31, 0.95, -79.04, 37.88)"/><circle cx="27.11" cy="215.45" r="21.61" transform="translate(-163.2 100.46) rotate(-54)"/><circle cx="45.56" cy="157.11" r="21.61" transform="translate(-108.39 91.33) rotate(-54)"/><circle cx="135.65" cy="66.06" r="21.61" transform="translate(2.4 126.69) rotate(-54)"/><circle cx="180.1" cy="92.53" r="21.61" transform="translate(-20.06 113.24) rotate(-36)"/><circle cx="100.31" cy="146.82" r="21.61"/><circle cx="391.58" cy="120.88" r="21.61" transform="translate(155.54 445.65) rotate(-72)"/><circle cx="332.12" cy="44.26" r="21.61" transform="translate(37.34 193.38) rotate(-36)"/><circle cx="322.85" cy="136.37" r="21.61" transform="translate(-26.41 96.15) rotate(-18)"/><circle cx="371.95" cy="157.28" r="21.61"/><circle cx="460.11" cy="252.85" r="21.61" transform="translate(77.38 602.02) rotate(-72)"/><circle cx="505.55" cy="273.38" r="21.61" transform="translate(-12.85 511.41) rotate(-54)"/><circle cx="441.78" cy="107.31" r="21.61" transform="translate(21.23 269.88) rotate(-36)"/><circle cx="450.05" cy="189.53" r="21.61"/><circle cx="290.68" cy="80.37" r="21.61" transform="translate(54.74 258.01) rotate(-54)"/><circle cx="402.2" cy="217.85" r="21.61" transform="translate(-47.7 124.66) rotate(-18)"/><circle cx="414.66" cy="273.38" r="21.61" transform="translate(26.45 572.98) rotate(-72)"/><circle cx="500.12" cy="215.45" r="21.61" transform="translate(-31.19 324.82) rotate(-36)"/><circle cx="481.67" cy="157.11" r="21.61" transform="translate(-0.42 302.84) rotate(-36)"/><circle cx="391.58" cy="66.06" r="21.61" transform="translate(35.89 232.5) rotate(-36)"/><circle cx="347.13" cy="92.53" r="21.61" transform="translate(68.17 308.69) rotate(-54)"/><circle cx="426.78" cy="146.82" r="21.61"/></svg>
