<svg xmlns="http://www.w3.org/2000/svg" viewBox="0 0 527.09 284.71"><defs><style>.cls-1{fill:none;stroke:#000;stroke-miterlimit:10;stroke-width:21px;}</style></defs><title>seja_nujna2</title><line class="cls-1" x1="264.07" y1="162.28" x2="264.07" y2="256.57"/><line class="cls-1" x1="273.98" y1="272.42" x2="254.17" y2="272.42"/><circle cx="135.65" cy="120.88" r="21.61" transform="translate(-30.78 37.55) rotate(-18)"/><circle cx="263.55" cy="31.9" r="21.61" transform="translate(31.52 150.72) rotate(-36)"/><circle cx="195.11" cy="44.26" r="21.61" transform="translate(44.55 165.8) rotate(-54)"/><circle cx="204.38" cy="136.37" r="21.61" transform="translate(11.46 278.31) rotate(-72)"/><circle cx="155.14" cy="157.28" r="21.61"/><circle cx="67.12" cy="252.85" r="21.61" transform="translate(-74.92 22.83) rotate(-18)"/><circle cx="21.68" cy="273.38" r="21.61" transform="translate(-156.62 54.67) rotate(-36)"/><circle cx="85.44" cy="107.31" r="21.61" transform="translate(-51.67 103.08) rotate(-54)"/><circle cx="77.04" cy="189.53" r="21.61"/><circle cx="236.55" cy="80.37" r="21.61" transform="translate(-2.13 144.1) rotate(-36)"/><circle cx="263.55" cy="122.79" r="21.61" transform="translate(-21.91 168.07) rotate(-36)"/><circle cx="125.03" cy="217.85" r="21.61" transform="translate(-120.86 259.15) rotate(-72)"/><circle cx="112.57" cy="273.38" r="21.61" transform="matrix(0.95, -0.31, 0.31, 0.95, -79.04, 37.88)"/><circle cx="27.11" cy="215.45" r="21.61" transform="translate(-163.2 100.46) rotate(-54)"/><circle cx="45.56" cy="157.11" r="21.61" transform="translate(-108.39 91.33) rotate(-54)"/><circle cx="135.65" cy="66.06" r="21.61" transform="translate(2.4 126.69) rotate(-54)"/><circle cx="180.1" cy="92.53" r="21.61" transform="translate(-20.06 113.24) rotate(-36)"/><circle cx="100.31" cy="146.82" r="21.61"/><circle cx="391.58" cy="120.88" r="21.61" transform="translate(155.54 445.65) rotate(-72)"/><circle cx="332.12" cy="44.26" r="21.61" transform="translate(37.34 193.38) rotate(-36)"/><circle cx="322.85" cy="136.37" r="21.61" transform="translate(-26.41 96.15) rotate(-18)"/><circle cx="371.95" cy="157.28" r="21.61"/><circle cx="460.11" cy="252.85" r="21.61" transform="translate(77.38 602.02) rotate(-72)"/><circle cx="505.55" cy="273.38" r="21.61" transform="translate(-12.85 511.41) rotate(-54)"/><circle cx="441.78" cy="107.31" r="21.61" transform="translate(21.23 269.88) rotate(-36)"/><circle cx="450.05" cy="189.53" r="21.61"/><circle cx="290.68" cy="80.37" r="21.61" transform="translate(54.74 258.01) rotate(-54)"/><circle cx="402.2" cy="217.85" r="21.61" transform="translate(-47.7 124.66) rotate(-18)"/><circle cx="414.66" cy="273.38" r="21.61" transform="translate(26.45 572.98) rotate(-72)"/><circle cx="500.12" cy="215.45" r="21.61" transform="translate(-31.19 324.82) rotate(-36)"/><circle cx="481.67" cy="157.11" r="21.61" transform="translate(-0.42 302.84) rotate(-36)"/><circle cx="391.58" cy="66.06" r="21.61" transform="translate(35.89 232.5) rotate(-36)"/><circle cx="347.13" cy="92.53" r="21.61" transform="translate(68.17 308.69) rotate(-54)"/><circle cx="426.78" cy="146.82" r="21.61"/></svg>
