<svg xmlns="http://www.w3.org/2000/svg" viewBox="0 0 436.22 236.24">
  <circle cx="135.58" cy="110.6" r="21.61" transform="rotate(-18 -40.15 229.78)"/>
  <circle cx="204.31" cy="126.07" r="21.61" transform="rotate(-72 148.24 133.1)"/>
  <circle cx="109.71" cy="108.81" r="21.61"/>
  <circle cx="67.05" cy="242.56" r="21.61" transform="rotate(-18 -108.69 361.76)"/>
  <circle cx="31.61" cy="141.06" r="21.61"/>
  <circle cx="236.48" cy="70.08" r="21.61" transform="rotate(-36 139.19 115.76)"/>
  <circle cx="263.48" cy="112.5" r="21.61" transform="rotate(-36 166.18 158.18)"/>
  <circle cx="124.96" cy="207.56" r="21.61" transform="rotate(-72 68.89 214.6)"/>
  <circle cx="112.65" cy="262.69" r="21.59" transform="rotate(-18.07 -62.45 381.36)"/>
  <circle cx="180.03" cy="82.24" r="21.61" transform="rotate(-36 82.73 127.92)"/>
  <circle cx="54.88" cy="98.35" r="21.61"/>
  <circle cx="391.51" cy="110.59" r="21.61" transform="rotate(-72 335.44 117.62)"/>
  <circle cx="322.78" cy="126.08" r="21.61" transform="rotate(-18 147.06 245.29)"/>
  <circle cx="326.52" cy="108.81" r="21.61"/>
  <circle cx="460.04" cy="242.56" r="21.61" transform="rotate(-72 403.96 249.6)"/>
  <circle cx="404.62" cy="141.06" r="21.61"/>
  <circle cx="290.62" cy="70.09" r="21.61" transform="rotate(-54 220.34 90.44)"/>
  <circle cx="402.13" cy="207.56" r="21.61" transform="rotate(-18 226.42 326.75)"/>
  <circle cx="414.59" cy="263.09" r="21.61" transform="rotate(-72 358.51 270.13)"/>
  <circle cx="347.07" cy="82.24" r="21.61" transform="rotate(-53.8 277.1 101.87)"/>
  <circle cx="381.35" cy="98.35" r="21.61"/>
  <path d="M205.95 197.36q0-7.02 1.88-12.57 1.87-5.55 4.57-9.46 2.69-3.92 7.1-9.14 3.5-4.08 5.46-6.86 1.96-2.85 3.27-6.2 1.39-3.43 1.39-7.43v-.08q0-5.55-2.78-8.57-2.7-3.1-7.67-3.1-4.9 0-7.67 3.43-2.7 3.35-2.78 9.47v.08h-23.17v-.08q.4-10.77 4.49-18.36 4.08-7.68 11.42-11.67 7.43-4 17.63-4 10.6 0 18.2 3.59 7.59 3.59 11.5 10.44 4 6.78 4 16.4v.09q0 6.28-1.8 11.34-1.7 5.06-4.32 8.9-2.53 3.75-6.77 8.73-4 4.81-6.29 8.08-2.2 3.26-3.75 7.59-1.55 4.24-1.55 9.38zm.08 12.98h22.36v22.35h-22.36z"/>
</svg>
