<svg id="Layer_1" data-name="Layer 1" xmlns="http://www.w3.org/2000/svg" viewBox="0 0 436.22 236.24"><defs><style>.cls-1{stroke:#000;stroke-miterlimit:10;stroke-width:9px;}</style></defs><title>seja_svecana3</title><path class="cls-1" d="M324.07,187.41a3.12,3.12,0,0,0-2.82-1.43,3.06,3.06,0,0,0-.91.19L284.22,201c-5.6-2.25-12.37-4.34-19.8-4.34s-14.24,2.09-19.85,4.34l-29.65-12.14a4.52,4.52,0,0,1-1.43-.59l-5-2.06a3,3,0,0,0-3.76,1.19C200,195,197.2,207.2,197.2,221.1s2.76,26.06,7.49,33.69a3.15,3.15,0,0,0,3.72,1.19l36.12-14.79a53.28,53.28,0,0,0,19.85,4.34c7.45,0,14.24-2.09,19.85-4.34L320.35,256a3.15,3.15,0,0,0,3.72-1.24c4.73-7.63,7.49-19.74,7.49-33.64S328.8,195,324.07,187.41Zm-82.55,48.47-32.73,13.41c-3.13-6.33-5.44-16.48-5.44-28.15s2.29-21.82,5.41-28.15l32.71,13.4v11.69H221.38a3.06,3.06,0,1,0,.09,6.12h20v11.69Zm39.66-.17c-5.07,2-10.76,3.72-16.8,3.72s-11.69-1.72-16.76-3.72v-29.2c5.07-2,10.76-3.73,16.8-3.73l0,0c6,0,11.73,1.74,16.8,3.72v29.18ZM320,249.24l-32.73-13.41V224.16h19.85a3.05,3.05,0,1,0,0-6.11H287.32V206.36L320,193c3.12,6.33,5.44,16.5,5.44,28.15S323.14,242.9,320,249.24Z" transform="translate(-45.43 -48.47)"/><circle cx="135.58" cy="110.6" r="21.61" transform="translate(-72.97 -1.16) rotate(-18)"/><circle cx="204.31" cy="126.07" r="21.61" transform="translate(-24.16 232.96) rotate(-72)"/><circle cx="109.71" cy="108.81" r="21.61"/><circle cx="67.05" cy="242.56" r="21.61" transform="translate(-117.11 -15.88) rotate(-18)"/><circle cx="31.61" cy="141.06" r="21.61"/><circle cx="236.48" cy="70.08" r="21.61" transform="translate(-41.46 103.92) rotate(-36)"/><circle cx="263.48" cy="112.5" r="21.61" transform="translate(-61.24 127.89) rotate(-36)"/><circle cx="124.96" cy="207.56" r="21.61" transform="translate(-156.49 213.8) rotate(-72)"/><circle cx="112.65" cy="262.69" r="21.59" transform="translate(-121.37 -0.56) rotate(-18.07)"/><circle cx="180.03" cy="82.24" r="21.61" transform="translate(-59.39 73.06) rotate(-36)"/><circle cx="54.88" cy="98.35" r="21.61"/><circle cx="391.51" cy="110.59" r="21.61" transform="translate(119.92 400.29) rotate(-72)"/><circle cx="322.78" cy="126.08" r="21.61" transform="translate(-68.6 57.45) rotate(-18)"/><circle cx="326.52" cy="108.81" r="21.61"/><circle cx="460.04" cy="242.56" r="21.61" transform="translate(41.75 556.66) rotate(-72)"/><circle cx="404.62" cy="141.06" r="21.61"/><circle cx="290.62" cy="70.09" r="21.61" transform="translate(17.66 215.54) rotate(-54)"/><circle cx="402.13" cy="207.56" r="21.61" transform="translate(-89.89 85.96) rotate(-18)"/><circle cx="414.59" cy="263.09" r="21.61" transform="translate(-9.18 527.62) rotate(-72)"/><circle cx="347.07" cy="82.24" r="21.61" transform="matrix(0.59, -0.81, 0.81, 0.59, 31.1, 266.22)"/><circle cx="381.35" cy="98.35" r="21.61"/></svg>