<svg xmlns="http://www.w3.org/2000/svg" viewBox="0 0 527.09 284.71"><circle cx="135.65" cy="120.88" r="21.61" transform="rotate(-18 103.15 115.944)"/><circle cx="263.55" cy="31.9" r="21.61" transform="rotate(-36 247.694 26.856)"/><circle cx="195.11" cy="44.26" r="21.61" transform="rotate(-54 184.975 39.183)"/><circle cx="204.38" cy="136.37" r="21.61" transform="rotate(-72 197.26 131.268)"/><circle cx="155.14" cy="157.28" r="21.61"/><circle cx="67.12" cy="252.85" r="21.61" transform="rotate(-18 34.61 247.928)"/><circle cx="21.68" cy="273.38" r="21.61" transform="rotate(-36 5.818 268.348)"/><circle cx="85.44" cy="107.31" r="21.61" transform="rotate(-54 75.318 102.244)"/><circle cx="77.04" cy="189.53" r="21.61"/><circle cx="236.55" cy="80.37" r="21.61" transform="rotate(-36 220.682 75.328)"/><circle cx="263.55" cy="122.79" r="21.61" transform="rotate(-36 247.678 117.75)"/><circle cx="125.03" cy="217.85" r="21.61" transform="rotate(-72 117.915 212.75)"/><circle cx="112.57" cy="273.38" r="21.61" transform="rotate(-18.2 79.014 267.712)"/><circle cx="27.11" cy="215.45" r="21.61" transform="rotate(-54 16.982 210.38)"/><circle cx="45.56" cy="157.11" r="21.61" transform="rotate(-54 35.428 152.03)"/><circle cx="135.65" cy="66.06" r="21.61" transform="rotate(-54 125.522 60.99)"/><circle cx="180.1" cy="92.53" r="21.61" transform="rotate(-36 164.228 87.49)"/><circle cx="100.31" cy="146.82" r="21.61"/><circle cx="391.58" cy="120.88" r="21.61" transform="rotate(-72 384.462 115.784)"/><circle cx="332.12" cy="44.26" r="21.61" transform="rotate(-36 316.25 39.23)"/><circle cx="322.85" cy="136.37" r="21.61" transform="rotate(-18 290.33 131.448)"/><circle cx="371.95" cy="157.28" r="21.61"/><circle cx="460.11" cy="252.85" r="21.61" transform="rotate(-72 452.995 247.758)"/><circle cx="505.55" cy="273.38" r="21.61" transform="rotate(-54 495.424 268.315)"/><circle cx="441.78" cy="107.31" r="21.61" transform="rotate(-36 425.918 102.27)"/><circle cx="450.05" cy="189.53" r="21.61"/><circle cx="290.68" cy="80.37" r="21.61" transform="rotate(-54 280.557 75.288)"/><circle cx="402.2" cy="217.85" r="21.61" transform="rotate(-18 369.686 212.913)"/><circle cx="414.66" cy="273.38" r="21.61" transform="rotate(-72 407.545 268.287)"/><circle cx="500.12" cy="215.45" r="21.61" transform="rotate(-36 484.252 210.406)"/><circle cx="481.67" cy="157.11" r="21.61" transform="rotate(-36 465.813 152.066)"/><circle cx="391.58" cy="66.06" r="21.61" transform="rotate(-36 375.726 61.02)"/><circle cx="347.13" cy="92.53" r="21.61" transform="rotate(-54 337.004 87.45)"/><circle cx="426.78" cy="146.82" r="21.61"/></svg>
