<svg xmlns="http://www.w3.org/2000/svg" viewBox="0 0 436.22 236.24">
  <circle cx="135.58" cy="110.6" r="21.61" transform="rotate(-18 -40.15 229.78)"/>
  <circle cx="204.31" cy="126.07" r="21.61" transform="rotate(-72 148.24 133.1)"/>
  <circle cx="109.71" cy="108.81" r="21.61"/>
  <circle cx="67.05" cy="242.56" r="21.61" transform="rotate(-18 -108.69 361.76)"/>
  <circle cx="31.61" cy="141.06" r="21.61"/>
  <circle cx="236.48" cy="70.08" r="21.61" transform="rotate(-36 139.19 115.76)"/>
  <circle cx="263.48" cy="112.5" r="21.61" transform="rotate(-36 166.18 158.18)"/>
  <circle cx="124.96" cy="207.56" r="21.61" transform="rotate(-72 68.89 214.6)"/>
  <circle cx="112.65" cy="262.69" r="21.59" transform="rotate(-18.07 -62.45 381.36)"/>
  <circle cx="180.03" cy="82.24" r="21.61" transform="rotate(-36 82.73 127.92)"/>
  <circle cx="54.88" cy="98.35" r="21.61"/>
  <circle cx="391.51" cy="110.59" r="21.61" transform="rotate(-72 335.44 117.62)"/>
  <circle cx="322.78" cy="126.08" r="21.61" transform="rotate(-18 147.06 245.29)"/>
  <circle cx="326.52" cy="108.81" r="21.61"/>
  <circle cx="460.04" cy="242.56" r="21.61" transform="rotate(-72 403.96 249.6)"/>
  <circle cx="404.62" cy="141.06" r="21.61"/>
  <circle cx="290.62" cy="70.09" r="21.61" transform="rotate(-54 220.34 90.44)"/>
  <circle cx="402.13" cy="207.56" r="21.61" transform="rotate(-18 226.42 326.75)"/>
  <circle cx="414.59" cy="263.09" r="21.61" transform="rotate(-72 358.51 270.13)"/>
  <circle cx="347.07" cy="82.24" r="21.61" transform="rotate(-53.8 277.1 101.87)"/>
  <circle cx="381.35" cy="98.35" r="21.61"/>
  <g transform="translate(134.24 102.3) scale(1.656)">
    <circle cx="50" cy="72.9" r="5.9"/>
    <path d="M67.7 50c-5.1-3.8-11.3-5.9-17.7-5.9-6.4 0-12.6 2.1-17.7 5.9-.7.5-.8 1.5-.3 2.2l6.4 7.7c.5.6 1.4.7 2 .3 2.8-2 6-3 9.5-3s6.8 1.1 9.5 3c.6.5 1.5.3 2-.3l6.4-7.7c.7-.6.6-1.7-.1-2.2Zm15.4-19.3A52.64 52.64 0 0 0 50 19.2c-12.2 0-23.7 4-33.1 11.5-.7.5-.7 1.5-.2 2.2l6.4 7.7c.5.6 1.5.7 2.1.2 7.1-5.5 15.7-8.5 24.8-8.5 9.1 0 17.7 3 24.8 8.5.7.5 1.6.4 2.1-.2l6.4-7.7c.6-.7.5-1.7-.2-2.2z"/>
  </g>
</svg>
