<svg fill="#FFFFFF" xmlns="http://www.w3.org/2000/svg" xmlns:xlink="http://www.w3.org/1999/xlink" version="1.1" x="0px" y="0px" viewBox="0 0 100 100" style="enable-background:new 0 0 100 100;" xml:space="preserve"><style type="text/css">
	.st0{fill:none;stroke:#FFFFFF;stroke-width:2;stroke-linecap:round;stroke-linejoin:round;stroke-miterlimit:10;}
	.st1{fill:none;stroke:#FFFFFF;stroke-width:2;stroke-miterlimit:10;}
	.st2{fill:none;stroke:#FFFFFF;stroke-width:2;stroke-linecap:round;stroke-miterlimit:10;}
	.st3{stroke:#FFFFFF;stroke-width:0.25;stroke-linecap:round;stroke-linejoin:round;stroke-miterlimit:10;}
	.st4{stroke:#FFFFFF;stroke-width:0.5;stroke-linecap:round;stroke-linejoin:round;stroke-miterlimit:10;}
</style><path d="M36.5,51.6c0.2,0.2,0.5,0.3,0.7,0.3s0.5-0.1,0.7-0.3l3.9-3.9c0.4-0.4,0.4-1,0-1.4s-1-0.4-1.4,0l-3.2,3.2l-0.7-0.7  c-0.4-0.4-1-0.4-1.4,0s-0.4,1,0,1.4L36.5,51.6z"></path><path d="M36.5,40.7c0.2,0.2,0.4,0.3,0.7,0.3s0.5-0.1,0.7-0.3l3.9-3.9c0.4-0.4,0.4-1,0-1.4s-1-0.4-1.4,0l-3.2,3.2l-0.7-0.7  c-0.4-0.4-1-0.4-1.4,0s-0.4,1,0,1.4L36.5,40.7z"></path><path d="M35.6,30.3c0.2,0.2,0.5,0.3,0.7,0.3s0.5-0.1,0.7-0.3l1.3-1.3l1.3,1.3c0.2,0.2,0.5,0.3,0.7,0.3s0.5-0.1,0.7-0.3  c0.4-0.4,0.4-1,0-1.4l-1.3-1.3l1.3-1.3c0.4-0.4,0.4-1,0-1.4s-1-0.4-1.4,0l-1.3,1.3L37,24.8c-0.4-0.4-1-0.4-1.4,0s-0.4,1,0,1.4  l1.3,1.3l-1.3,1.3C35.2,29.3,35.2,29.9,35.6,30.3z"></path><path d="M46.2,28.1h18.3c0.6,0,1-0.4,1-1s-0.4-1-1-1H46.2c-0.6,0-1,0.4-1,1S45.6,28.1,46.2,28.1z"></path><path d="M46.2,39.1h18.3c0.6,0,1-0.4,1-1s-0.4-1-1-1H46.2c-0.6,0-1,0.4-1,1S45.6,39.1,46.2,39.1z"></path><path d="M46.2,50h18.3c0.6,0,1-0.4,1-1s-0.4-1-1-1H46.2c-0.6,0-1,0.4-1,1S45.6,50,46.2,50z"></path><path d="M41.1,57.6c-0.4-0.4-1-0.4-1.4,0L38.4,59L37,57.6c-0.4-0.4-1-0.4-1.4,0s-0.4,1,0,1.4l1.3,1.3l-1.3,1.3c-0.4,0.4-0.4,1,0,1.4  c0.2,0.2,0.5,0.3,0.7,0.3s0.5-0.1,0.7-0.3l1.3-1.3l1.3,1.3c0.2,0.2,0.5,0.3,0.7,0.3s0.5-0.1,0.7-0.3c0.4-0.4,0.4-1,0-1.4l-1.3-1.3  l1.3-1.3C41.5,58.6,41.5,58,41.1,57.6z"></path><path d="M46.2,60.9h18.3c0.6,0,1-0.4,1-1s-0.4-1-1-1H46.2c-0.6,0-1,0.4-1,1S45.6,60.9,46.2,60.9z"></path><path d="M41.1,68.6c-0.4-0.4-1-0.4-1.4,0l-1.3,1.3L37,68.6c-0.4-0.4-1-0.4-1.4,0s-0.4,1,0,1.4l1.3,1.3l-1.3,1.3  c-0.4,0.4-0.4,1,0,1.4c0.2,0.2,0.5,0.3,0.7,0.3s0.5-0.1,0.7-0.3l1.3-1.3l1.3,1.3c0.2,0.2,0.5,0.3,0.7,0.3s0.5-0.1,0.7-0.3  c0.4-0.4,0.4-1,0-1.4l-1.3-1.3l1.3-1.3C41.5,69.6,41.5,68.9,41.1,68.6z"></path><path d="M46.2,71.9h18.3c0.6,0,1-0.4,1-1s-0.4-1-1-1H46.2c-0.6,0-1,0.4-1,1S45.6,71.9,46.2,71.9z"></path><path d="M74.5,81.7V17.2c0-0.6-0.4-1-1-1H27.3c-0.6,0-1,0.4-1,1v64.5c0,0.6,0.4,1,1,1h46.2C74,82.7,74.5,82.2,74.5,81.7z M72.5,80.7  H28.3V18.2h44.2V80.7z"></path></svg>