<svg xmlns="http://www.w3.org/2000/svg" xmlns:xlink="http://www.w3.org/1999/xlink" version="1.1" x="0px" y="0px" viewBox="0 0 100 100" enable-background="new 0 0 100 100" xml:space="preserve"><path fill="#ffffff" d="M76.5,62.5c-4.828,0-9.094,2.457-11.611,6.188L35.852,54.709c0.42-1.33,0.648-2.742,0.648-4.209  c0-1.465-0.229-2.879-0.648-4.207l29.035-13.982c2.52,3.73,6.785,6.189,11.613,6.189c7.719,0,14-6.281,14-14s-6.281-14-14-14  s-14,6.281-14,14c0,1.465,0.229,2.879,0.648,4.207l-29.036,13.98C31.595,38.957,27.329,36.5,22.5,36.5c-7.72,0-14,6.281-14,14  s6.28,14,14,14c4.829,0,9.094-2.457,11.611-6.188l29.037,13.98c-0.42,1.328-0.648,2.742-0.648,4.207c0,7.719,6.281,14,14,14  s14-6.281,14-14S84.219,62.5,76.5,62.5z M76.5,14.5c5.514,0,10,4.486,10,10s-4.486,10-10,10s-10-4.486-10-10S70.986,14.5,76.5,14.5z   M22.5,60.5c-5.514,0-10-4.486-10-10s4.486-10,10-10s10,4.486,10,10S28.014,60.5,22.5,60.5z M76.5,86.5c-5.514,0-10-4.486-10-10  s4.486-10,10-10s10,4.486,10,10S82.014,86.5,76.5,86.5z"></path></svg>