<svg xmlns="http://www.w3.org/2000/svg" xmlns:xlink="http://www.w3.org/1999/xlink" version="1.1" x="0px" y="0px" viewBox="0 0 512 512" enable-background="new 0 0 512 512" xml:space="preserve"><g><path d="M384,314c-25.185,0-47.299,13.374-59.632,33.388l-131.242-65.776C196.26,273.673,198,265.039,198,256   s-1.741-17.673-4.874-25.612l131.243-65.775C336.703,184.626,358.816,198,384,198c38.598,0,70-31.402,70-70s-31.402-70-70-70   s-70,31.402-70,70c0,9.144,1.781,17.875,4.983,25.889l-131.191,65.749C175.49,199.483,153.291,186,128,186   c-38.598,0-70,31.402-70,70s31.402,70,70,70c25.291,0,47.49-13.483,59.793-33.638l131.19,65.75C315.78,366.126,314,374.856,314,384   c0,38.598,31.402,70,70,70s70-31.402,70-70S422.598,314,384,314z M384,70c31.981,0,58,26.019,58,58s-26.019,58-58,58   s-58-26.019-58-58S352.019,70,384,70z M128,314c-31.981,0-58-26.019-58-58s26.019-58,58-58s58,26.019,58,58S159.981,314,128,314z    M384,442c-31.981,0-58-26.019-58-58s26.019-58,58-58s58,26.019,58,58S415.981,442,384,442z"></path></g></svg>