<svg xmlns="http://www.w3.org/2000/svg" xmlns:xlink="http://www.w3.org/1999/xlink" version="1.1" enable-background="new 0 0 100 100" xml:space="preserve" width="88.41340770217244" height="93.64804462130334"><rect id="backgroundrect" width="100%" height="100%" x="0" y="0" fill="none" stroke="none" class=""/><g class="currentLayer"><title>Layer 1</title><path d="M58.326066970825195,28.15770411491394 c-0.29100000858306885,0.16599999368190765 -0.5189999938011169,0.28700000047683716 -0.7390000224113464,0.4220000207424164 c-7.482999801635742,4.633999824523926 -14.961999893188477,9.27400016784668 -22.45400047302246,13.892000198364258 c-0.5430000424385071,0.33500000834465027 -0.7470000386238098,0.609000027179718 -0.5819999575614929,1.2970000505447388 c0.5230000019073486,2.1710000038146973 0.5370000004768372,4.369999885559082 0.07500001043081284,6.565000057220459 c-0.0860000029206276,0.4090000092983246 -0.23399999737739563,0.7879999876022339 0.2970000207424164,1.1169999837875366 c7.826000213623047,4.848999977111816 15.63800048828125,9.722999572753906 23.527999877929688,14.63800048828125 c0.1939999908208847,-0.21000000834465027 0.38100001215934753,-0.42000001668930054 0.5759999752044678,-0.621999979019165 c4.4710001945495605,-4.633999824523926 9.871000289916992,-6.307000160217285 16.048999786376953,-4.504000186920166 c6.14300012588501,1.7929999828338623 9.878000259399414,6.079999923706055 11.050000190734863,12.362000465393066 c1.5889999866485596,8.517000198364258 -4.275000095367432,16.66699981689453 -12.87600040435791,18.145000457763672 c-8.46500015258789,1.4550000429153442 -16.70599937438965,-4.419000148773193 -18.027000427246094,-12.927000045776367 c-0.2239999920129776,-1.4449999332427979 -0.12300000339746475,-2.947000026702881 -0.08500000834465027,-4.421000003814697 c0.014000000432133675,-0.5339999794960022 -0.09000000357627869,-0.8340000510215759 -0.5519999861717224,-1.121000051498413 c-7.797999858856201,-4.839000225067139 -15.592000007629395,-9.685999870300293 -23.36400032043457,-14.569000244140625 c-0.6460000276565552,-0.406000018119812 -0.8970000147819519,-0.08300000429153442 -1.3009999990463257,0.2720000147819519 c-4.616000175476074,4.057000160217285 -9.911999702453613,5.303999900817871 -15.725000381469727,3.315999984741211 C8.384066581726074,60.03170466423035 4.884066581726074,55.80670237541199 3.7990665435791016,49.770703077316284 c-1.1820000410079956,-6.572000026702881 2.065000057220459,-13.100000381469727 7.896999835968018,-16.31599998474121 c5.797999858856201,-3.197000026702881 12.946000099182129,-2.4200000762939453 17.94099998474121,2.0199999809265137 c0.6580000519752502,0.5839999914169312 1.055999994277954,0.5550000071525574 1.750999927520752,0.1210000067949295 c7.664000034332275,-4.7829999923706055 15.345999717712402,-9.53600025177002 23.040000915527344,-14.270999908447266 c0.5859999656677246,-0.3610000014305115 0.7419999837875366,-0.7019999623298645 0.6530000567436218,-1.3880000114440918 c-0.7649999856948853,-5.875 2.4690001010894775,-12.088000297546387 7.829999923706055,-15.140999794006348 c5.51200008392334,-3.140000104904175 12.4399995803833,-2.7079999446868896 17.368000030517578,1.2480000257492065 c4.9019999504089355,3.936000108718872 6.951000213623047,9.126999855041504 5.767000198364258,15.305000305175781 c-1.2120000123977661,6.322999954223633 -5.109000205993652,10.527000427246094 -11.319000244140625,12.199000358581543 c-6.14300012588501,1.6540000438690186 -11.467000007629395,-0.10599999874830246 -15.824000358581543,-4.75 C58.72506523132324,28.608704328536987 58.55506706237793,28.412703275680542 58.326066970825195,28.15770411491394 zM70.66106986999512,10.59070372581482 c-4.144000053405762,-0.242000013589859 -7.886000156402588,3.822999954223633 -7.880000114440918,7.835999965667725 c0.006000000052154064,4.0229997634887695 3.696000099182129,7.88700008392334 7.874000072479248,7.901000022888184 c4.208000183105469,0.014000000432133675 7.934999942779541,-3.868000030517578 7.922999858856201,-7.938000202178955 C78.56606864929199,14.419703245162964 74.84606742858887,10.331703901290894 70.66106986999512,10.59070372581482 zM19.26806640625,39.36870265007019 c-4.170000076293945,-0.26499998569488525 -7.906000137329102,3.8310000896453857 -7.9079999923706055,7.804999828338623 c-0.0020000000949949026,4.0980000495910645 3.742000102996826,7.90500020980835 7.845000267028809,7.932000160217285 c4.209000110626221,0.02800000086426735 7.947000026702881,-3.8459999561309814 7.951000213623047,-7.913000106811523 C27.16106605529785,43.17370295524597 23.389066696166992,39.1067054271698 19.26806640625,39.36870265007019 zM78.52206993103027,75.96070170402527 c0.25600001215934753,-4.0329999923706055 -3.740000009536743,-7.875999927520752 -7.840000152587891,-7.875999927520752 c-4.122000217437744,-0.0010000000474974513 -7.901000022888184,3.8580000400543213 -7.9019999504089355,7.869999885559082 c-0.0010000000474974513,4.085999965667725 3.756999969482422,7.946000099182129 7.940000057220459,7.927000045776367 C74.79907035827637,83.86370158195496 78.76706504821777,80.07070231437683 78.52206993103027,75.96070170402527 z" id="svg_1" class="" fill="#ffffff" fill-opacity="1"/></g></svg>