<svg xmlns="http://www.w3.org/2000/svg" xmlns:xlink="http://www.w3.org/1999/xlink" version="1.1" x="0px" y="0px" viewBox="0 0 100 100" style="enable-background:new 0 0 100 100;" xml:space="preserve"><g><path d="M650,153.9c2.6,0,4.5-2.9,4.5-5.4c0-2.5-2-4.5-4.5-4.5c-2.5,0-4.5,2-4.5,4.5C645.5,151,647.4,153.9,650,153.9z M650,145.7   c1.5,0,2.8,1.3,2.8,2.8c0,1.6-1.3,3.7-2.8,3.7c-1.5,0-2.8-2.1-2.8-3.7C647.2,146.9,648.5,145.7,650,145.7z M662.2,163.1l-6.9-8   h-10.6l-6.9,8l5.6,9.2l-1.9,23.7h6.2l2.3-18.4l2.3,18.4h6.2l-1.9-23.7L662.2,163.1z M653.8,194.3l-2.4-19.6h-2.8l-2.4,19.6h-2.7   l1.8-22.2h0v0l0-0.3l0,0l-0.2-9l-1.1,6.8l-3.8-6.3l5.5-6.4h9l5.5,6.4l-3.8,6.3l-1.1-6.8l-0.2,9l0,0l0,0.3v0h0l1.8,22.2H653.8z"></path><path d="M542.2,163.1l-6.9-8h-10.6l-6.9,8l5.6,9.2l-1.9,23.7h16.9l-1.9-23.7L542.2,163.1z M523.4,194.3l1.8-22.2h0v0l0-0.3l0,0   l-0.2-9l-1.1,6.8l-3.8-6.3l5.5-6.4h9l5.5,6.4l-3.8,6.3l-1.1-6.8l-0.2,9l0,0l0,0.3l0,0h0l1.8,22.2H523.4z M524.5,151.2   c0.6,0,1-0.2,1.5-0.5c0.7,1.7,2.2,3.2,4.1,3.2s3.3-1.5,4.1-3.2c0.4,0.3,0.9,0.5,1.5,0.5c1.5,0,2.7-1.2,2.7-2.7h-1.7   c0,0.5-0.4,1-1,1s-1-0.4-1-1c0-2.5-2-4.5-4.5-4.5c-2.5,0-4.5,2-4.5,4.5c0,0.5-0.4,1-1,1s-1-0.4-1-1h-1.7   C521.8,150,523,151.2,524.5,151.2z M530,145.7c1.5,0,2.8,1.3,2.8,2.8c0,1.6-1.3,3.7-2.8,3.7c-1.5,0-2.8-2.1-2.8-3.7   C527.2,146.9,528.5,145.7,530,145.7z"></path><path d="M420.9,176.3l-0.8-11.9l-6.6-7.7h-2.1c0.8-1,1.3-2.4,1.3-3.7c0-0.2-0.1-0.4-0.1-0.6h0.2h1.6v-1.7h-1.8l-0.6-4.7l-3.8,1.1   l-3.8-1.1l-0.6,4.7h-1.8v1.7h1.6h0.2c0,0.2-0.1,0.4-0.1,0.6c0,1.3,0.5,2.6,1.3,3.7h-2.1l-6.9,8l5.6,9.2l-0.4,20.2h5.3l1.7-14.7   l1.7,14.7h5.3l-0.4-20.5l-0.9,0l0.9-0.1l-1.5-9.2l-0.2,9.3h0l0.4,18.7h-2l-1.9-16.1h-2.8l-1.9,16.1h-2l0.4-19l0,0l-0.2-9l-1.1,6.8   l-3.8-6.3l5.5-6.4h9l5.7,6.7l0.8,11.2H418v17.9h1.7V178h4.3v-1.7H420.9z M405.8,148.1l2.4,0.7l2.4-0.7l0.3,2.5h-5.4L405.8,148.1z    M405.3,153c0-0.2,0.1-0.4,0.1-0.6h5.4c0,0.2,0.1,0.4,0.1,0.6c0,1.6-1.3,3.7-2.8,3.7S405.3,154.6,405.3,153z"></path><path d="M263.9,131.2v77.6h52.2v-68.6L263.9,131.2z M293.7,207h-8.3v-9.5h8.3V207z M314.3,207h-18.9v-11.2h-11.8V207h-18v-73.7   l48.7,8.4V207z M298,179.1h-5.7v7.3h5.7V179.1z M296.3,184.6h-2.2v-3.8h2.2V184.6z M275.9,179.1h-5.7v7.3h5.7V179.1z M274.1,184.6   h-2.2v-3.8h2.2V184.6z M287,179.1h-5.7v7.3h5.7V179.1z M285.2,184.6H283v-3.8h2.2V184.6z M309.1,179.1h-5.7v7.3h5.7V179.1z    M307.4,184.6h-2.2v-3.8h2.2V184.6z M298,168.5h-5.7v7.3h5.7V168.5z M296.3,174.1h-2.2v-3.8h2.2V174.1z M275.9,168.5h-5.7v7.3h5.7   V168.5z M274.1,174.1h-2.2v-3.8h2.2V174.1z M287,168.5h-5.7v7.3h5.7V168.5z M285.2,174.1H283v-3.8h2.2V174.1z M309.1,168.5h-5.7   v7.3h5.7V168.5z M307.4,174.1h-2.2v-3.8h2.2V174.1z M298,157.9h-5.7v7.3h5.7V157.9z M296.3,163.5h-2.2v-3.8h2.2V163.5z    M275.9,157.9h-5.7v7.3h5.7V157.9z M274.1,163.5h-2.2v-3.8h2.2V163.5z M287,157.9h-5.7v7.3h5.7V157.9z M285.2,163.5H283v-3.8h2.2   V163.5z M309.1,157.9h-5.7v7.3h5.7V157.9z M307.4,163.5h-2.2v-3.8h2.2V163.5z M298,147.3h-5.7v7.3h5.7V147.3z M296.3,152.9h-2.2   v-3.8h2.2V152.9z M275.9,147.3h-5.7v7.3h5.7V147.3z M274.1,152.9h-2.2v-3.8h2.2V152.9z M287,147.3h-5.7v7.3h5.7V147.3z    M285.2,152.9H283v-3.8h2.2V152.9z M309.1,147.3h-5.7v7.3h5.7V147.3z M307.4,152.9h-2.2v-3.8h2.2V152.9z M300.8,192.7h-22.3v-1.7   h22.3V192.7z"></path><path d="M170,143.8l-26.1,17.4v35h20.2h11.8h20.2v-35L170,143.8z M165.8,194.4V185h8.3v9.5H165.8z M194.4,194.4h-18.4v-11.2h-11.8   v11.2h-18.4v-32.3l24.4-16.2l24.4,16.2V194.4z"></path><path d="M77,139.5l-2.5,25.2h-11v-9.2l-12.6,8.4v-8.4l-12.6,8.4v-8.4l-12.6,8.4v-8.4l-14.4,9.6v35.4h32.8h11.8h32.8v-61.1H77z    M45.8,198.8v-9.5h8.3v9.5H45.8z M87,198.8H55.9v-11.2H44.1v11.2H13V166l10.9-7.2v8.4l12.6-8.4v8.4l12.6-8.4v8.4l12.6-8.4v7.7H76   l2.5-25.2H87V198.8z"></path><path d="M-96.1,149.4v10.1v1.7v28.6v0.7h41.6l10.6-10.6v-18.7v-11.8H-96.1z M-74.2,188.8v-19.2h8.3v19.2H-74.2z M-55.7,176.6h-8.3   v-5h8.3V176.6z M-65.8,164.4h-8.3v-3.1h8.3V164.4z M-75.9,161.3v9.7h-8.3v-9.7H-75.9z M-84.3,179.9h8.3v9h-8.3V179.9z M-64.1,183.2   h8.3v5.7h-8.3V183.2z M-55.7,167.7h-8.3v-6.4h8.3V167.7z M-86,161.3v4.9h-8.3v-4.9H-86z M-94.4,172.3h8.3v16.6h-8.3V172.3z    M-45.6,179.3l-8.3,8.3v-26.3h8.3V179.3z"></path><path d="M-190,162.8c2.6,0,4.5-2.9,4.5-5.4c0-2.5-2-4.5-4.5-4.5c-2.5,0-4.5,2-4.5,4.5C-194.5,159.9-192.6,162.8-190,162.8z    M-190,154.6c1.5,0,2.8,1.3,2.8,2.8c0,1.6-1.3,3.7-2.8,3.7c-1.5,0-2.8-2.1-2.8-3.7C-192.8,155.8-191.5,154.6-190,154.6z    M-216.8,148.9v30v12.2h53.6v-12.2v-30H-216.8z M-165,150.7v27.8h-16.7l3.9-6.4l-6.9-8h-10.6l-6.9,8l3.9,6.4H-215v-27.8H-165z    M-194.9,178.4l-0.2-6.7l-1.1,6.7h-0.1l-3.8-6.3l5.5-6.4h9l5.5,6.4l-3.8,6.3h-0.1l-1.1-6.7l-0.2,6.7H-194.9z M-215,189.3v-10h49.9   v10H-215z M-187.4,184.6c0,1.4-1.2,2.6-2.6,2.6s-2.6-1.2-2.6-2.6c0-1.4,1.2-2.6,2.6-2.6S-187.4,183.1-187.4,184.6z M-197.6,184.6   c0,0.7-0.6,1.3-1.3,1.3s-1.3-0.6-1.3-1.3c0-0.7,0.6-1.3,1.3-1.3S-197.6,183.8-197.6,184.6z M-204.9,184.6c0,0.7-0.6,1.3-1.3,1.3   c-0.7,0-1.3-0.6-1.3-1.3c0-0.7,0.6-1.3,1.3-1.3C-205.5,183.3-204.9,183.8-204.9,184.6z M-181.1,183.7h7.3v1.7h-7.3V183.7z"></path><path d="M628.8,13V87h42.3V13H628.8z M669.4,85.2h-38.9V14.8h38.9V85.2z M662.9,69.1h-26.7V23.2h1.7v44.1h24.9V69.1z M650,75.1   c-2,0-3.7,1.7-3.7,3.7s1.7,3.7,3.7,3.7s3.7-1.7,3.7-3.7S652,75.1,650,75.1z M650,80.7c-1.1,0-2-0.9-2-2s0.9-2,2-2s2,0.9,2,2   S651.1,80.7,650,80.7z"></path><path d="M552.5,50c0-11-5.9-20.6-14.9-24.6l0.1-0.1l-1.6-0.6l-0.4-0.1l0,0c-2.2-0.7-4.4-1.1-6.7-1.1c-9.4,0-17.9,6.3-21.6,16.1   l-0.1,20.6l0.1,0.3c3.7,9.8,12.2,16.1,21.6,16.1c2.3,0,4.5-0.4,6.7-1.1l0,0l0.4-0.1l1.6-0.6l-0.1-0.1C546.6,70.6,552.5,61,552.5,50   z M550.7,49.1h-9.8c-0.2-7.3-3-14.2-7.9-19c0.5-0.8,1-1.5,1.5-2c0,0,0,0,0.1-0.1c0.4-0.5,0.9-0.9,1.3-1.3c0.1-0.1,0.2-0.1,0.2-0.2   C544.7,29.8,550.4,38.8,550.7,49.1z M527.6,40.7l0,18.6h-18.4V40.7H527.6z M529.3,60V39.9c0.6-3.2,1.6-6,2.7-8.2   c4.5,4.7,7.1,11.3,7.1,18.3c0,7-2.6,13.6-7.1,18.3C530.9,66,530,63.2,529.3,60z M529.1,25.2c1.7,0,3.4,0.2,5,0.7   c-0.3,0.3-0.6,0.6-0.9,1c0,0,0,0,0,0c-0.8,1-1.6,2.1-2.3,3.4l-0.1,0.1l0,0c-1.3,2.4-2.3,5.3-3,8.6h-18.1   C513.3,30.6,520.8,25.2,529.1,25.2z M529.1,74.8c-8.3,0-15.7-5.4-19.4-13.8h18.1c0.1,0.6,0.3,1.2,0.4,1.7c0.1,0.3,0.1,0.5,0.2,0.8   c0.1,0.5,0.3,1,0.5,1.5c0.1,0.3,0.2,0.6,0.3,0.8c0.2,0.4,0.3,0.9,0.5,1.3c0.1,0.3,0.2,0.5,0.3,0.8c0.2,0.4,0.3,0.8,0.5,1.1   c0.1,0.3,0.3,0.5,0.4,0.7c0.2,0.4,0.4,0.7,0.6,1c0.1,0.2,0.3,0.4,0.4,0.6c0.2,0.3,0.5,0.7,0.7,1c0.1,0.2,0.2,0.3,0.4,0.5   c0.1,0.1,0.1,0.1,0.2,0.2c0,0,0,0,0,0c0.3,0.3,0.6,0.7,0.9,0.9C532.5,74.6,530.8,74.8,529.1,74.8z M536.1,73.5   c-0.1-0.1-0.2-0.1-0.2-0.2c-0.4-0.4-0.9-0.8-1.3-1.3c0,0,0-0.1-0.1-0.1c-0.5-0.6-1-1.3-1.5-2c4.9-4.9,7.7-11.7,7.9-19h9.8   C550.4,61.2,544.7,70.2,536.1,73.5z M512.2,56.2V44.6h1.7v9.8h9.8v1.7H512.2z"></path><path d="M413.6,50c0,2-1.6,3.6-3.6,3.6c-2,0-3.6-1.6-3.6-3.6c0-2,1.6-3.6,3.6-3.6C412,46.4,413.6,48,413.6,50z M375.3,50   c0-12.3,6.6-23.8,17.3-30c0.4-0.2,0.6-0.8,0.3-1.2c-0.2-0.4-0.8-0.6-1.2-0.3C380.5,25,373.6,37,373.6,50c0,13,7,25,18.2,31.5   c0.1,0.1,0.3,0.1,0.4,0.1c0.3,0,0.6-0.2,0.8-0.4c0.2-0.4,0.1-0.9-0.3-1.2C381.9,73.8,375.3,62.3,375.3,50z M428.2,18.5   c-0.4-0.2-0.9-0.1-1.2,0.3c-0.2,0.4-0.1,0.9,0.3,1.2c10.7,6.2,17.3,17.7,17.3,30c0,12.3-6.6,23.8-17.3,30c-0.4,0.2-0.6,0.8-0.3,1.2   c0.2,0.3,0.5,0.4,0.8,0.4c0.1,0,0.3,0,0.4-0.1C439.5,75,446.4,63,446.4,50C446.4,37,439.5,25,428.2,18.5z M382.2,50   c0-8.8,4.3-17.2,11.5-22.5c0.4-0.3,0.5-0.8,0.2-1.2c-0.3-0.4-0.8-0.5-1.2-0.2c-7.6,5.6-12.2,14.5-12.2,23.9s4.5,18.3,12.2,23.9   c0.2,0.1,0.3,0.2,0.5,0.2c0.3,0,0.5-0.1,0.7-0.4c0.3-0.4,0.2-0.9-0.2-1.2C386.5,67.2,382.2,58.8,382.2,50z M439.5,50   c0-9.4-4.6-18.3-12.2-23.9c-0.4-0.3-0.9-0.2-1.2,0.2c-0.3,0.4-0.2,0.9,0.2,1.2c7.2,5.2,11.5,13.6,11.5,22.5   c0,8.8-4.3,17.2-11.5,22.5c-0.4,0.3-0.5,0.8-0.2,1.2c0.2,0.2,0.4,0.4,0.7,0.4c0.2,0,0.4-0.1,0.5-0.2C435,68.3,439.5,59.4,439.5,50z    M425.2,33.3c-0.4-0.3-0.9-0.3-1.2,0.1c-0.3,0.4-0.3,0.9,0.1,1.2c4.3,4,6.8,9.6,6.8,15.4s-2.5,11.5-6.8,15.4   c-0.4,0.3-0.4,0.9-0.1,1.2c0.2,0.2,0.4,0.3,0.6,0.3c0.2,0,0.4-0.1,0.6-0.2c4.7-4.3,7.4-10.4,7.4-16.7S429.9,37.6,425.2,33.3z    M389.1,50c0-5.8,2.5-11.5,6.8-15.4c0.4-0.3,0.4-0.9,0.1-1.2c-0.3-0.4-0.9-0.4-1.2-0.1c-4.7,4.3-7.4,10.4-7.4,16.7   c0,6.3,2.7,12.4,7.4,16.7c0.2,0.2,0.4,0.2,0.6,0.2c0.2,0,0.5-0.1,0.6-0.3c0.3-0.4,0.3-0.9-0.1-1.2C391.6,61.5,389.1,55.8,389.1,50z    M421.7,39.6c-0.3-0.4-0.9-0.4-1.2-0.1c-0.4,0.3-0.4,0.9-0.1,1.2c2.3,2.6,3.6,5.9,3.6,9.3s-1.3,6.7-3.6,9.3   c-0.3,0.4-0.3,0.9,0.1,1.2c0.2,0.1,0.4,0.2,0.6,0.2c0.2,0,0.5-0.1,0.6-0.3c2.6-2.9,4-6.6,4-10.4S424.3,42.5,421.7,39.6z    M415.4,44.1c-0.4,0.3-0.4,0.9-0.1,1.2c1.1,1.3,1.8,2.9,1.8,4.7c0,1.7-0.6,3.4-1.8,4.7c-0.3,0.4-0.3,0.9,0.1,1.2   c0.2,0.1,0.4,0.2,0.6,0.2c0.2,0,0.5-0.1,0.7-0.3c1.4-1.6,2.2-3.7,2.2-5.8c0-2.1-0.8-4.2-2.2-5.8C416.3,43.8,415.8,43.8,415.4,44.1z    M404.6,44.1c-0.4-0.3-0.9-0.3-1.2,0.1c-1.4,1.6-2.2,3.7-2.2,5.8s0.8,4.2,2.2,5.8c0.2,0.2,0.4,0.3,0.7,0.3c0.2,0,0.4-0.1,0.6-0.2   c0.4-0.3,0.4-0.9,0.1-1.2c-1.1-1.3-1.8-2.9-1.8-4.6c0-1.7,0.6-3.4,1.8-4.6C405,45,405,44.4,404.6,44.1z M399.5,39.5   c-0.4-0.3-0.9-0.3-1.2,0.1c-2.6,2.9-4,6.6-4,10.4s1.4,7.5,4,10.4c0.2,0.2,0.4,0.3,0.6,0.3c0.2,0,0.4-0.1,0.6-0.2   c0.4-0.3,0.4-0.9,0.1-1.2c-2.3-2.6-3.6-5.9-3.6-9.3s1.3-6.7,3.6-9.3C399.9,40.4,399.9,39.8,399.5,39.5z"></path><path d="M315.9,47.1c-1.6-14.3-14.5-24.6-28.8-23c-14.3,1.6-24.6,14.5-23,28.8c1.5,13.3,12.8,23.2,25.9,23.2c1,0,1.9-0.1,2.9-0.2   C307.2,74.3,317.5,61.4,315.9,47.1z M313.9,45.2l-4.7,8.9l-9.3,6.3l1.1-11.2l-8.5-6.3l8.7-14.6C307.5,31.7,312.4,37.7,313.9,45.2z    M280.4,27.6c0.1,2.2,0.3,7.4,0.5,11.6l-10.2-4C273.2,32,276.5,29.3,280.4,27.6z M265.8,52.7c-0.3-2.9-0.1-5.8,0.6-8.5l7.3,1.1   l8.9,10.5l-5.8,14.6C270.8,66.6,266.6,60.2,265.8,52.7z M295.3,73.8l0.6-2.4l4.4,0.7C298.7,72.8,297.1,73.4,295.3,73.8z    M302.8,70.7l-8.2-1.3l-1.2,4.7c-0.2,0-0.5,0.1-0.7,0.1c-5.2,0.6-10.2-0.5-14.5-2.9l6.3-15.9l-10-11.7l-7.7-1.2   c0.7-2,1.6-4,2.7-5.8l13.1,5.1l-0.1-1.3c-0.3-8.1-0.5-11.8-0.7-13.5c1.7-0.6,3.4-1,5.3-1.2c0.9-0.1,1.8-0.2,2.7-0.2   c3.4,0,6.6,0.7,9.5,2l-9.4,15.8l9,6.7l-1.4,13.9l12.6-8.5l3.9-7.3C315,57.4,310.3,66,302.8,70.7z"></path><path d="M189.9,32.6l-0.7-0.1c-3.1-0.3-4.5-1.4-6-2.6c-1.6-1.3-3.3-2.6-6.9-2.9c-3.6-0.4-5.5,0.6-7.4,1.5c-1.7,0.8-3.3,1.6-6.4,1.3   c-3.1-0.3-4.5-1.4-6-2.6c-1.6-1.3-3.3-2.6-6.9-2.9l-1-0.1l1.4,26.5l1.3,24.9l1.7-0.1l-1.2-23.9c2.4,0.4,3.7,1.4,5,2.4   c1.6,1.3,3.3,2.6,6.9,2.9c3.6,0.4,5.5-0.6,7.4-1.5c1.7-0.8,3.3-1.6,6.4-1.3c3.1,0.3,4.5,1.4,6,2.6c1.6,1.3,3.3,2.6,6.9,2.9l1,0.1   L189.9,32.6z M151.3,41.6c2.4,0.4,3.7,1.4,5,2.4c1.6,1.3,3.3,2.6,6.9,2.9c3.6,0.4,5.5-0.6,7.4-1.5c1.7-0.8,3.3-1.6,6.4-1.3   c3.1,0.3,4.5,1.4,6,2.6c1.5,1.2,3.1,2.3,6.2,2.8l0.2,3.3c-2.4-0.4-3.7-1.4-5-2.4c-1.6-1.3-3.3-2.6-6.9-2.9   c-3.6-0.4-5.5,0.6-7.4,1.5c-1.7,0.8-3.3,1.6-6.4,1.3c-3.1-0.3-4.5-1.4-6-2.6c-1.5-1.2-3.1-2.3-6.2-2.8L151.3,41.6z M162.3,31.6   c3.6,0.4,5.5-0.6,7.4-1.5c1.7-0.8,3.3-1.6,6.4-1.3c3.1,0.3,4.5,1.4,6,2.6c0.4,0.3,0.8,0.6,1.2,0.9c0.1,0.1,0.3,0.2,0.4,0.2   c0.3,0.2,0.6,0.4,1,0.6c0.2,0.1,0.4,0.2,0.6,0.3c0.4,0.2,0.7,0.3,1.1,0.4c0.3,0.1,0.6,0.1,0.8,0.2c0.3,0.1,0.6,0.2,1,0.2l0.2,3.3   c-2.4-0.4-3.7-1.4-5-2.4c-1.6-1.3-3.3-2.6-6.9-2.9c-3.6-0.4-5.5,0.6-7.4,1.5c-1.7,0.8-3.3,1.6-6.4,1.3l-0.2,1.7   c3.6,0.4,5.5-0.6,7.4-1.5c1.7-0.8,3.3-1.6,6.4-1.3c3.1,0.3,4.5,1.4,6,2.6c1.5,1.2,3.1,2.3,6.2,2.8l0.2,3.3c-2.4-0.4-3.7-1.4-5-2.4   c-1.6-1.3-3.3-2.6-6.9-2.9c-3.6-0.4-5.5,0.6-7.4,1.5c-1.7,0.8-3.3,1.6-6.4,1.3l-0.2,1.7c3.6,0.4,5.5-0.6,7.4-1.5   c1.7-0.8,3.3-1.6,6.4-1.3c3.1,0.3,4.5,1.4,6,2.6c1.5,1.2,3.1,2.3,6.2,2.8l0.2,3.3c-2.4-0.4-3.7-1.4-5-2.4c-1.6-1.3-3.3-2.6-6.9-2.9   c-3.6-0.4-5.5,0.6-7.4,1.5c-1.7,0.8-3.3,1.6-6.4,1.3c-3.1-0.3-4.5-1.4-6-2.6c-1.5-1.2-3.1-2.3-6.2-2.8l-0.7-13.5   c0.2,0,0.4,0.1,0.6,0.1c0.2,0.1,0.5,0.1,0.7,0.2c0.3,0.1,0.6,0.2,0.9,0.4c0.2,0.1,0.4,0.1,0.5,0.2c0.3,0.2,0.6,0.3,0.8,0.5   c0.1,0.1,0.2,0.1,0.3,0.2c0.4,0.3,0.7,0.5,1.1,0.8C157.1,30,158.7,31.3,162.3,31.6z M177.7,52.5c-0.5-0.1-1-0.1-1.5-0.1   c-0.2,0-0.3,0-0.5,0c-0.3,0-0.6,0-0.9,0.1c-0.4,0-0.7,0.1-1,0.2c-0.2,0.1-0.5,0.1-0.7,0.2c-0.3,0.1-0.6,0.2-1,0.3   c-0.2,0.1-0.4,0.1-0.5,0.2c-0.4,0.2-0.9,0.4-1.3,0.6c-1.7,0.8-3.3,1.6-6.4,1.3c-3.1-0.3-4.5-1.4-6-2.6c-0.4-0.3-0.8-0.6-1.2-0.9   c-0.1-0.1-0.3-0.2-0.4-0.2c-0.3-0.2-0.6-0.4-1-0.6c-0.2-0.1-0.4-0.2-0.6-0.3c-0.4-0.2-0.7-0.3-1.1-0.4c-0.3-0.1-0.6-0.1-0.9-0.2   c-0.3-0.1-0.6-0.2-1-0.2l-0.2-3.3c2.4,0.4,3.7,1.4,5,2.4c1.6,1.3,3.3,2.6,6.9,2.9c3.6,0.4,5.5-0.6,7.4-1.5c1.7-0.8,3.3-1.6,6.4-1.3   c3.1,0.3,4.5,1.4,6,2.6c1.5,1.2,3.1,2.3,6.2,2.8l0.2,3.3c-0.2,0-0.4-0.1-0.6-0.1c-0.2-0.1-0.5-0.1-0.7-0.2   c-0.3-0.1-0.6-0.2-0.9-0.4c-0.2-0.1-0.4-0.1-0.5-0.2c-0.3-0.2-0.6-0.3-0.8-0.5c-0.1-0.1-0.2-0.1-0.4-0.2c-0.4-0.3-0.7-0.5-1.1-0.8   C182.9,54.2,181.2,52.9,177.7,52.5z"></path><path d="M63.5,23h-27v18.6h27V23z M61.8,39.8H38.3V24.7h23.5V39.8z M29.6,53.8l-16.1,9.3L27,86.5l16.1-9.3L29.6,53.8z M15.9,63.7   l13.1-7.5l11.7,20.3l-13.1,7.5L15.9,63.7z M62.6,84l0.7,1.6c-4.2,2-8.7,3-13.3,3c-4.6,0-9.1-1-13.4-3l0.7-1.6   C45.4,87.8,54.6,87.8,62.6,84z M20.5,54.9l-1.7-0.1c0.7-9.5,5.6-18,13.4-23.4l1,1.4C25.9,38,21.2,46,20.5,54.9z M66.8,32.9l1-1.4   c7.8,5.4,12.7,13.9,13.4,23.4L79.5,55C78.9,46,74.2,38,66.8,32.9z M70.4,53.8L56.9,77.2L73,86.5l13.5-23.4L70.4,53.8z M72.4,84.1   l-13.1-7.5l11.7-20.3l13.1,7.5L72.4,84.1z M90.1,76.2c-0.4-1.5-1.4-2.8-2.8-3.6c-0.5-0.3-1.6-0.6-3.1,0.7c-0.8,0.7-1.7,1.7-2.4,3   c-0.7,1.2-1.2,2.5-1.4,3.6c-0.3,2,0.5,2.8,1,3c0.9,0.5,1.9,0.8,2.9,0.8c0.5,0,1-0.1,1.5-0.2c1.5-0.4,2.8-1.4,3.6-2.8   C90.3,79.3,90.5,77.7,90.1,76.2z M88,79.8c-0.6,1-1.5,1.7-2.5,1.9c-1.1,0.3-2.2,0.1-3.2-0.4c-0.2-0.1-0.3-0.6-0.1-1.2   c0.1-0.8,0.6-1.9,1.2-3c1.2-2,2.4-3,3-3c0.1,0,0.1,0,0.2,0c1,0.6,1.7,1.5,1.9,2.5C88.7,77.7,88.5,78.8,88,79.8z M18.2,76.2   c-1.4-2.4-3.6-4.7-5.5-3.6c-1.4,0.8-2.3,2.1-2.8,3.6c-0.4,1.5-0.2,3.1,0.6,4.5c0.8,1.4,2.1,2.3,3.6,2.8c0.5,0.1,1,0.2,1.5,0.2   c1,0,2-0.3,2.9-0.8c0.5-0.3,1.3-1.1,1-3C19.4,78.7,18.9,77.4,18.2,76.2z M17.7,81.3c-1,0.6-2.1,0.7-3.2,0.4c-1.1-0.3-2-1-2.5-1.9   c-0.6-1-0.7-2.1-0.4-3.2c0.3-1.1,1-2,1.9-2.5c0,0,0.1,0,0.2,0c0.6,0,1.8,1,3,3c0.6,1,1,2.1,1.2,3C18,80.7,17.9,81.2,17.7,81.3z    M46.3,19.7c1,0.4,2.3,0.6,3.8,0.6c2.7,0,5.9-0.8,5.9-3c0-3.3-2.7-5.9-5.9-5.9s-5.9,2.7-5.9,5.9C44.1,17.9,44.4,19,46.3,19.7z    M50,13.1c2.3,0,4.2,1.9,4.2,4.2c0,0.5-1.6,1.2-4.2,1.2c-2.5,0-4.2-0.7-4.2-1.2C45.9,15,47.7,13.1,50,13.1z"></path><path d="M-53.3,24.1c-7.8,0-14.4,5.1-16.7,12.1c-2.3-7-8.9-12.1-16.7-12.1c-9.7,0-17.5,7.9-17.5,17.5c0,18.8,32.5,33.5,33.8,34.1   l0.4,0.2l0.4-0.2c1.4-0.6,33.8-15.4,33.8-34.1C-35.8,32-43.7,24.1-53.3,24.1z M-70,74c-3.6-1.7-32.5-15.7-32.5-32.4   c0-8.7,7.1-15.8,15.8-15.8c8.7,0,15.8,7.1,15.8,15.8h1.7c0-8.7,7.1-15.8,15.8-15.8c8.7,0,15.8,7.1,15.8,15.8   C-37.5,58.3-66.4,72.3-70,74z"></path><path d="M-190,24.1c-9.7,0-17.5,7.9-17.5,17.5c0,6.1,3.1,11.6,8.3,14.8v10.2c0,5.1,4.1,9.2,9.2,9.2s9.2-4.1,9.2-9.2V56.5   c5.2-3.2,8.3-8.7,8.3-14.8C-172.5,32-180.3,24.1-190,24.1z M-190,74.1c-2.5,0-4.7-1.2-6-3.1c2,0.4,4,0.7,6,0.7c2.1,0,4.1-0.3,6-0.7   C-185.3,72.9-187.5,74.1-190,74.1z M-182.5,66.7c0,0.8-0.2,1.6-0.4,2.3c-2.3,0.6-4.6,1-7,1s-4.8-0.4-7-1c-0.2-0.7-0.4-1.5-0.4-2.3   v-0.3c2.4,0.7,4.9,1.2,7.5,1.2s5.1-0.5,7.5-1.2V66.7z M-182.5,64.6c-2.4,0.8-4.8,1.2-7.5,1.2s-5.1-0.5-7.5-1.2V62   c2.3,0.9,4.8,1.4,7.5,1.4s5.1-0.5,7.5-1.4V64.6z M-182.5,60.1c-2.3,0.9-4.8,1.5-7.5,1.5s-5.2-0.6-7.5-1.5v-2.8   c2.3,1.1,4.8,1.8,7.5,1.8s5.2-0.7,7.5-1.8V60.1z M-181.2,54.6C-181.2,54.7-181.2,54.7-181.2,54.6c-2.6,1.7-5.6,2.7-8.8,2.7   s-6.3-1-8.8-2.7c0,0,0,0,0,0c-4.2-2.8-6.9-7.6-6.9-13c0-8.7,7.1-15.7,15.7-15.7s15.7,7.1,15.7,15.7C-174.3,47-177,51.8-181.2,54.6z    M-179,43.5v1.7c-2.3,0-4.4-1.3-5.5-3.1c-1.1,1.9-3.1,3.1-5.5,3.1s-4.4-1.3-5.5-3.1c-1.1,1.9-3.1,3.1-5.5,3.1v-1.7   c2.5,0,4.6-2.1,4.6-4.6h1.7c0,2.5,2.1,4.6,4.6,4.6s4.6-2.1,4.6-4.6h1.7C-183.7,41.5-181.6,43.5-179,43.5z"></path></g></svg>