<svg xmlns="http://www.w3.org/2000/svg" viewBox="0 0 100 100"><path d="M76.5 62.5c-4.828 0-9.094 2.457-11.61 6.188L35.85 54.708a13.964 13.964 0 0 0 0-8.416l29.035-13.98c2.52 3.73 6.785 6.188 11.613 6.188 7.72 0 14-6.28 14-14s-6.28-14-14-14-14 6.28-14 14c0 1.465.23 2.88.648 4.207l-29.036 13.98C31.595 38.957 27.33 36.5 22.5 36.5c-7.72 0-14 6.28-14 14s6.28 14 14 14c4.83 0 9.094-2.457 11.61-6.188l29.038 13.98A13.933 13.933 0 0 0 62.5 76.5c0 7.718 6.28 14 14 14s14-6.282 14-14-6.28-14-14-14zm0-48c5.514 0 10 4.486 10 10s-4.486 10-10 10-10-4.486-10-10 4.486-10 10-10zm-54 46c-5.514 0-10-4.486-10-10s4.486-10 10-10 10 4.486 10 10-4.486 10-10 10zm54 26c-5.514 0-10-4.486-10-10s4.486-10 10-10 10 4.486 10 10-4.486 10-10 10z"/></svg>