<svg width="105" height="120" xmlns="http://www.w3.org/2000/svg">

 <g>
  <title>background</title>
  <rect fill="none" id="canvas_background" height="122" width="107" y="-1" x="-1"/>
 </g>
 <g>
  <title>Layer 1</title>
  <g id="svg_1">
   <path fill="#505050" id="svg_2" d="m52.169998,109.445c-19.877003,0 -36.047001,-16.169998 -36.047001,-36.046997c0,-19.875 16.169998,-36.044003 36.047001,-36.044003s36.046997,16.169003 36.046997,36.044003c0.000008,19.876999 -16.169998,36.046997 -36.046997,36.046997zm0,-64.072998c-15.455002,0 -28.028999,12.572998 -28.028999,28.026001c0,15.455002 12.574001,28.028 28.028999,28.028s28.028,-12.572998 28.028,-28.028c0,-15.453003 -12.572998,-28.026001 -28.028,-28.026001z"/>
  </g>
  <g id="svg_3">
   <polygon fill="#505050" id="svg_4" points="97.87699890136719,52.055999755859375 52.16999816894531,19.006000518798828 6.46299934387207,52.055999755859375 1.7649993300437927,45.558998107910156 52.16999816894531,9.110000610351562 102.57499694824219,45.558998107910156 "/>
  </g>
  <g id="svg_5">
   <polygon fill="#505050" id="svg_6" points="65.58100128173828,79.2300033569336 48.16100311279297,79.2300033569336 48.16100311279297,52.285003662109375 56.17900085449219,52.285003662109375 56.17900085449219,71.21199798583984 65.58100128173828,71.21199798583984 "/>
  </g>
 </g>
</svg>