<svg width="60" height="53.75" xmlns="http://www.w3.org/2000/svg">
 <title>Icon-Briefcase</title>

 <desc>Created with Sketch.</desc>
 <g>
  <title>background</title>
  <rect fill="none" id="canvas_background" height="55.75" width="62" y="-1" x="-1"/>
 </g>
 <g>
  <title>Layer 1</title>
  <path stroke="null" id="svg_1" d="m47,12.899994l-10,0l0,-4c0,-1.699982 -1.300003,-3 -3,-3l-12,0c-1.700012,0 -3,1.300018 -3,3l0,4l-10,0c-2.200012,0 -4,1.800018 -4,4l0,28c0,2.200012 1.799988,4 4,4l38,0c2.199997,0 4,-1.799988 4,-4l0,-28c0,-2.199982 -1.800003,-4 -4,-4zm-26,-4c0,-0.600006 0.399994,-1 1,-1l12,0c0.600006,0 1,0.399994 1,1l0,4l-14,0l0,-4zm22,6c0,0 0,0 0,0l0,2.899994c0,5.400024 -4.600006,10.200012 -11.100006,11.600006l0,-0.5c0,-1.600006 -1.299988,-2.899994 -2.899994,-2.899994l-2,0c-1.600006,0 -2.899994,1.299988 -2.899994,2.899994l0,0.5c-6.5,-1.399994 -11.100006,-6.100006 -11.100006,-11.600006l0,-3l30,0l0,0.100006zm-12.899994,14l0,4c0,0.600006 -0.5,1.100006 -1.100006,1.100006l-2,0c-0.600006,0 -1.100006,-0.5 -1.100006,-1.100006l0,-4c0,-0.600006 0.5,-1.100006 1.100006,-1.100006l2,0c0.600006,0 1.100006,0.5 1.100006,1.100006zm18.899994,16c0,1.100006 -0.899994,2 -2,2l-38,0c-1.100006,0 -2,-0.899994 -2,-2l0,-28c0,-1.100006 0.899994,-2 2,-2l2,0l0,3c0,6.600006 5.5,12.200012 13.100006,13.600006l0,1.399994c0,1.600006 1.299988,2.899994 2.899994,2.899994l2,0c1.600006,0 2.899994,-1.299988 2.899994,-2.899994l0,-1.399994c7.600006,-1.5 13.100006,-7 13.100006,-13.600006l0,-2.899994c0,0 0,-0.100006 0,-0.100006l2,0c1.100006,0 2,0.899994 2,2l0,28z" fill="#505050"/>
  <text id="svg_2" font-family="'Helvetica Neue', Helvetica, Arial-Unicode, Arial, Sans-serif" font-weight="bold" font-size="5px" fill="#000000" y="457.9" x="-274">Created by Alexis Doreau</text>
  <text id="svg_3" font-family="'Helvetica Neue', Helvetica, Arial-Unicode, Arial, Sans-serif" font-weight="bold" font-size="5px" fill="#000000" y="462.9" x="-274">from the Noun Project</text>
 </g>
</svg>