<svg xmlns="http://www.w3.org/2000/svg" xmlns:xlink="http://www.w3.org/1999/xlink" version="1.1" x="0px" y="0px" viewBox="0 0 512 512" enable-background="new 0 0 512 512" xml:space="preserve"><g><path d="M456,424H56V152h400V424z M72,408h368V168H72V408z"></path></g><g><path d="M328,160h-16c0-8.135-1.692-13.77-5.174-17.224c-7.15-7.095-23.439-6.964-42.3-6.82c-5.579,0.044-11.473,0.044-17.052,0   c-18.857-0.146-35.15-0.275-42.3,6.82C201.692,146.23,200,151.865,200,160h-16c0-12.62,3.24-21.969,9.904-28.582   c11.881-11.788,31.256-11.637,53.695-11.462c5.497,0.043,11.305,0.043,16.802,0c22.434-0.176,41.814-0.326,53.695,11.462   C324.76,138.031,328,147.38,328,160z"></path></g><g><rect x="320" y="248" width="128" height="16"></rect></g><g><rect x="64" y="248" width="128" height="16"></rect></g><g><path d="M328,280H184v-48h144V280z M200,264h112v-16H200V264z"></path></g></svg>