<svg width="80" height="90" xmlns="http://www.w3.org/2000/svg">

 <g>
  <title>background</title>
  <rect fill="none" id="canvas_background" height="92" width="82" y="-1" x="-1"/>
 </g>
 <g>
  <title>Layer 1</title>
  <g id="svg_1">
   <path id="svg_2" d="m64,7.4c-0.400002,-0.299999 -0.900002,-0.5 -1.400002,-0.4c-0.199997,0 -0.400002,0 -0.599998,0.1l-45.799999,-0.1c0,0 0,0 0,0c-0.199999,0 -0.4,0 -0.5,0.1c-5.5,0.599999 -9.699999,5.299999 -9.699999,10.899998l0,60.299997c0,0.800003 0.5,1.600006 1.299999,1.900002c0.799999,0.300003 1.700001,0.099998 2.200001,-0.400002l6.5,-6.399994l6.499998,6.5c0.400002,0.399994 0.900002,0.599998 1.5,0.599998s1.100002,-0.200005 1.5,-0.599998l6.5,-6.5l6.5,6.5c0.400002,0.399994 0.900002,0.599998 1.5,0.599998s1.100002,-0.200005 1.5,-0.599998l6.5,-6.5l6.400002,6.399994c0.599998,0.600006 1.5,0.800003 2.199997,0.400002c0.800003,-0.299995 1.300003,-1.099998 1.300003,-1.900002l0,-48.999996l12,0c1.099998,0 2.099998,-0.900002 2.099998,-2.099998l0,-9.300001c-0.199997,-4.9 -3.5,-9.199999 -8,-10.5zm-10.300003,65.799997l-4.400002,-4.400002c-0.799999,-0.799995 -2.099998,-0.799995 -2.899998,0l-6.5,6.5l-6.5,-6.5c-0.400002,-0.400002 -0.900002,-0.599998 -1.5,-0.599998s-1.100002,0.199997 -1.5,0.599998l-6.5,6.5l-6.5,-6.5c-0.400002,-0.400002 -0.900002,-0.599998 -1.5,-0.599998c-0.5,0 -1.1,0.199997 -1.5,0.599998l-4.399998,4.400002l0,-55.299997c0,-3.6 2.799999,-6.6 6.299999,-6.800001c0.1,0 0.1,0 0.200001,0l39,0.1c-1.099998,1.799999 -1.800003,4.1 -1.800003,6.700001l0,8.800001c0,0.199997 -0.099998,0.299999 -0.099998,0.5l0,45.999996l0.099998,0zm14,-48.099998l-9.800003,0l0,-7.300001c0,-1.4 0.300003,-5.9 4.300003,-6.699999c3.199997,0.6 5.599998,3.4 5.599998,6.699999l0,7.300001l-0.099998,0z" fill="#197197"/>
   <path id="svg_3" d="m45.900002,24l-28.400002,0c-1.1,0 -2.1,0.900002 -2.1,2.099998s0.9,2.100002 2.1,2.100002l28.400002,0c1.099998,0 2.099998,-0.900002 2.099998,-2.100002s-1,-2.099998 -2.099998,-2.099998z" fill="#197197"/>
   <path id="svg_4" d="m17.5,38.799999l15.900002,0c1.099998,0 2.099998,-0.900002 2.099998,-2.099998s-0.900002,-2.100002 -2.099998,-2.100002l-15.900002,0c-1.1,0 -2.1,0.900002 -2.1,2.100002s0.9,2.099998 2.1,2.099998z" fill="#197197"/>
   <path id="svg_5" d="m17.5,49.400002l24.799999,0c1.099998,0 2.099998,-0.900002 2.099998,-2.099998s-0.899998,-2.100002 -2.099998,-2.100002l-24.799999,0c-1.1,0 -2.1,0.900002 -2.1,2.100002s0.9,2.099998 2.1,2.099998z" fill="#197197"/>
   <path id="svg_6" d="m45.900002,56l-28.400002,0c-1.1,0 -2.1,0.900002 -2.1,2.099998s0.9,2.099998 2.1,2.099998l28.400002,0c1.099998,0 2.099998,-0.899994 2.099998,-2.099998s-1,-2.099998 -2.099998,-2.099998z" fill="#197197"/>
  </g>
 </g>
</svg>