<?xml version="1.0" encoding="utf-8"?>
<!-- Generated by IcoMoon.io -->
<!DOCTYPE svg PUBLIC "-//W3C//DTD SVG 1.1//EN" "http://www.w3.org/Graphics/SVG/1.1/DTD/svg11.dtd">
<svg version="1.1" xmlns="http://www.w3.org/2000/svg" xmlns:xlink="http://www.w3.org/1999/xlink" width="93" height="100" viewBox="0 0 93 100">
<path fill="#000" d="M90.402 22.768c-2.455 3.571-5.525 6.752-9.040 9.319 0.056 0.781 0.056 1.563 0.056 2.344 0 23.828-18.136 51.283-51.283 51.283-10.212 0-19.699-2.958-27.679-8.092 1.451 0.167 2.846 0.223 4.353 0.223 8.426 0 16.183-2.846 22.377-7.701-7.924-0.167-14.565-5.357-16.853-12.5 1.116 0.167 2.232 0.279 3.404 0.279 1.618 0 3.237-0.223 4.743-0.614-8.259-1.674-14.453-8.929-14.453-17.69v-0.223c2.4 1.339 5.19 2.176 8.147 2.288-4.855-3.237-8.036-8.761-8.036-15.011 0-3.348 0.893-6.417 2.455-9.096 8.873 10.937 22.21 18.080 37.165 18.862-0.279-1.339-0.446-2.734-0.446-4.129 0-9.933 8.036-18.025 18.025-18.025 5.19 0 9.877 2.176 13.17 5.692 4.074-0.781 7.98-2.288 11.44-4.353-1.339 4.185-4.185 7.701-7.924 9.933 3.627-0.391 7.143-1.395 10.379-2.79z"></path>
</svg>
