<svg width="93" height="100" xmlns="http://www.w3.org/2000/svg">

 <g>
  <title>background</title>
  <rect fill="none" id="canvas_background" height="402" width="582" y="-1" x="-1"/>
 </g>
 <g>
  <title>Layer 1</title>
  <path id="svg_1" d="m90.402,22.768q-3.738998,5.469 -9.040001,9.319002q0.056,0.780998 0.056,2.343998q0,7.254002 -2.121002,14.480999t-6.445,13.867001t-10.295998,11.747002t-14.396999,8.146996t-18.025,3.041q-15.123001,0 -27.679002,-8.091995q1.953,0.223 4.353,0.223q12.555999,0 22.377,-7.701004q-5.858999,-0.112 -10.490999,-3.598999t-6.362,-8.901001q1.842,0.279003 3.404,0.279003q2.4,0 4.743,-0.614002q-6.25,-1.283001 -10.352,-6.222t-4.102001,-11.467999l0,-0.223q3.795,2.120998 8.147001,2.287998q-3.683,-2.454998 -5.859001,-6.417t-2.176,-8.594q0,-4.910999 2.455,-9.095999q6.752,8.314999 16.434,13.309t20.731001,5.552q-0.445999,-2.121002 -0.445999,-4.129002q0,-7.477999 5.272999,-12.750999t12.750999,-5.273q7.812004,0 13.169998,5.692q6.083,-1.172001 11.440002,-4.353001q-2.065002,6.417 -7.923996,9.933001q5.189995,-0.558001 10.378998,-2.789999l0.001999,0.000999z" fill="#505050"/>
 </g>
</svg>