<?xml version="1.0" encoding="utf-8"?>
<!-- Generated by IcoMoon.io -->
<!DOCTYPE svg PUBLIC "-//W3C//DTD SVG 1.1//EN" "http://www.w3.org/Graphics/SVG/1.1/DTD/svg11.dtd">
<svg version="1.1" xmlns="http://www.w3.org/2000/svg" xmlns:xlink="http://www.w3.org/1999/xlink" width="100" height="100" viewBox="0 0 100 100">
<path d="M50 2c-26.51 0-48 21.49-48 48s21.49 48 48 48 48-21.49 48-48-21.49-48-48-48zM69.525 41.32c0.020 0.41 0.025 0.82 0.025 1.22 0 12.5-9.505 26.905-26.895 26.905-5.34 0-10.31-1.56-14.49-4.25 0.735 0.090 1.49 0.125 2.255 0.125 4.43 0 8.505-1.505 11.74-4.045-4.135-0.080-7.625-2.81-8.83-6.56 0.575 0.105 1.165 0.165 1.775 0.165 0.86 0 1.7-0.115 2.49-0.33-4.325-0.87-7.585-4.69-7.585-9.27v-0.115c1.275 0.705 2.735 1.135 4.285 1.185-2.54-1.7-4.205-4.59-4.205-7.875 0-1.73 0.465-3.36 1.28-4.755 4.665 5.72 11.625 9.48 19.485 9.885-0.165-0.695-0.245-1.415-0.245-2.16 0-5.215 4.23-9.455 9.455-9.455 2.715 0 5.175 1.15 6.9 2.99 2.155-0.43 4.175-1.21 6-2.295-0.705 2.205-2.2 4.060-4.155 5.235 1.915-0.235 3.735-0.74 5.43-1.495-1.265 1.895-2.87 3.565-4.715 4.895z"></path>
</svg>
