<svg fill="#333" xmlns="http://www.w3.org/2000/svg" xmlns:xlink="http://www.w3.org/1999/xlink" version="1.1" x="0px" y="0px" viewBox="0 0 100 100" style="enable-background:new 0 0 100 100;" xml:space="preserve"><g><path d="M97,37.5l-4.9,1.6l0,0c-3.3-10.2-9.9-18.5-18.5-24l-9.2,6c8.6,4,15.4,11.5,18.4,21l-0.5,0.1v0l-4.4,1.4   c-0.6,0.2-0.8,1-0.3,1.4L92,56.5c0.5,0.4,1.2,0.2,1.3-0.4l4.8-17.6C98.2,37.9,97.6,37.3,97,37.5z"></path><path d="M88.7,60.6l-4.1-3.3c-1.1,9.2-5.9,17.9-13.7,23.8l-0.3-0.4l0,0L67.8,77c-0.4-0.5-1.2-0.4-1.4,0.2l-6.2,17.1   c-0.2,0.6,0.2,1.1,0.8,1.1l18.2-1.3c0.7,0,1-0.8,0.6-1.3l-3.1-4.1l0,0c8.3-6.3,13.9-15,16.4-24.6L88.7,60.6   C88.7,60.6,88.7,60.6,88.7,60.6z"></path><path d="M29.7,81.7l0.3-0.4l0,0l2.7-3.8c0.4-0.5,0-1.3-0.6-1.3l-18.2-0.7c-0.6,0-1,0.6-0.8,1.1l6.8,16.9c0.2,0.6,1.1,0.7,1.4,0.2   l2.9-4.2l0,0c8.8,6.2,19.1,8.8,29.3,8l3.7-10.3C47.8,89.3,37.9,87.5,29.7,81.7z"></path><path d="M16.5,41.8l0.5,0.2l0,0l4.4,1.5c0.6,0.2,1.2-0.4,1.1-1l-4.5-17.7c-0.1-0.6-0.8-0.8-1.3-0.4L2.2,35.7   c-0.5,0.4-0.4,1.2,0.2,1.4l4.8,1.6v0c-3.6,10.5-3,21.7,1,31.4l10.9,0.4C14.4,62,13.2,51.6,16.5,41.8z"></path><path d="M66.3,12.3L51,2.4c-0.5-0.4-1.3,0-1.3,0.7v5.1h0c-10.6,0-20.4,3.7-28.2,10l2.7,10.6c6.5-6.9,15.6-11,25.5-11v0.5h0v4.6   c0,0.7,0.7,1,1.3,0.7l15.3-9.9C66.8,13.4,66.8,12.6,66.3,12.3z"></path><circle cx="38.3" cy="53" r="4"></circle><circle cx="49.7" cy="53" r="4"></circle><circle cx="61.1" cy="53" r="4"></circle></g></svg>