<svg xmlns="http://www.w3.org/2000/svg" viewBox="0 0 1024 1024"><defs><style>.cls-1{stroke:#000;stroke-miterlimit:10;stroke-width:12px;}.cls-2{fill:none;}</style></defs><g id="Layer_2" data-name="Layer 2"><g id="Layer_1-2" data-name="Layer 1"><path class="cls-1" d="M573.42,162.44A63.07,63.07,0,0,1,546.21,214c-17.07,11.64-39.92,14.29-58.87,6.28a63.66,63.66,0,0,1-37.53-45.61c-4.43-20.2,2.73-41.72,17.1-56.35C484.17,100.76,512.07,95,534.7,104.6a63.29,63.29,0,0,1,38.72,57.84c.12,13.54,21.12,13.55,21,0a83.34,83.34,0,0,0-95.85-82.38c-23.51,3.34-44,17.14-57.24,36.6-13.55,19.87-16.87,45.85-10.48,68.81C442,225.6,482.8,250.6,523.48,244.83S594,203,594.42,162.44C594.54,148.9,573.54,148.91,573.42,162.44Z"/><path class="cls-1" d="M595.06,243.07c19.77,12.69,32.36,33,36.08,56,1.94,12,.66,25.31.66,37.45,0,11.61.24,23.25,0,34.86-.19,7.77-7.42,15.29-14.94,16.18a49.21,49.21,0,0,1-6,.13H416.05c-7.49,0-14.13.56-19.69-4.3-8.66-7.56-6.1-22-6.1-33.2v-39.5a80.09,80.09,0,0,1,36-67.2c11.28-7.39.77-25.58-10.6-18.14a102.29,102.29,0,0,0-43.57,60.68c-3.58,14.31-2.87,29.12-2.87,43.73v39.5c0,21.39,17.12,39.43,38.78,39.43H613.88a39.17,39.17,0,0,0,38.92-39v-38c0-14.78.59-29.49-2.51-44-5.53-25.94-22.51-48.51-44.63-62.71-11.44-7.34-22,10.85-10.6,18.13Z"/><path class="cls-1" d="M187.28,780.75a37.38,37.38,0,0,1-37,37c-20.41.3-36.69-17-37-37-.29-20.41,17-36.68,37-37,20.41-.3,36.68,17,37,37,.2,13.53,21.2,13.55,21,0-.37-25.42-16.49-47.07-40.43-55.26-24.31-8.32-50.48,2.34-65.23,22.35-15.06,20.43-12.79,49.51,2.42,69s42.31,26.88,65.31,18.27a58.73,58.73,0,0,0,37.93-54.36C208.48,767.2,187.48,767.22,187.28,780.75Z"/><path class="cls-1" d="M203.19,836.42a48.59,48.59,0,0,1,19.69,25.28c2.29,6.81,2.42,13.62,2.42,20.69v23.12c0,4.36.83,10.7-.86,14-1.86,3.65-4.91,4.26-8.84,4.26H84.77c-4.48,0-7-1.2-9.18-5.41-1.33-2.62-.27-10.23-.27-13.78,0-14.43-1.78-30.27,2.83-44.15,3.23-9.7,10.38-18.17,18.83-23.75,11.24-7.43.73-25.63-10.6-18.13A70.46,70.46,0,0,0,54.32,878v37.7a29.22,29.22,0,0,0,19.52,27.57c4.15,1.41,8.37,1.57,12.67,1.57H216.83a29.4,29.4,0,0,0,24.34-12.51c4.68-6.66,5.13-14.13,5.13-21.91V887.26c0-10.06,0-19.9-2.74-29.73-4.57-16.33-15.67-30.1-29.77-39.24-11.41-7.39-21.92,10.8-10.6,18.13Z"/><path class="cls-1" d="M548.24,780.75a37.37,37.37,0,0,1-37,37c-20.41.3-36.69-17-37-37-.3-20.41,17-36.68,37-37,20.41-.3,36.68,17,37,37,.2,13.53,21.2,13.55,21,0-.37-25.42-16.49-47.07-40.43-55.26-24.31-8.32-50.48,2.34-65.23,22.35-15.06,20.43-12.79,49.51,2.42,69s42.31,26.88,65.31,18.27a58.73,58.73,0,0,0,37.93-54.36C569.44,767.2,548.44,767.22,548.24,780.75Z"/><path class="cls-1" d="M564.15,836.42a48.59,48.59,0,0,1,19.69,25.28c2.29,6.81,2.42,13.62,2.42,20.69v23.12c0,4.36.83,10.7-.86,14-1.86,3.65-4.91,4.26-8.84,4.26H445.73c-4.48,0-7-1.2-9.18-5.41-1.33-2.62-.27-10.23-.27-13.78,0-14.43-1.78-30.27,2.84-44.15,3.22-9.7,10.37-18.17,18.82-23.75,11.24-7.43.73-25.63-10.6-18.13A70.46,70.46,0,0,0,415.28,878v37.69a29.22,29.22,0,0,0,19.52,27.58c4.15,1.41,8.37,1.57,12.67,1.57H577.79a29.4,29.4,0,0,0,24.34-12.51c4.68-6.66,5.13-14.13,5.13-21.91V887.26c0-10.07,0-19.9-2.74-29.73-4.57-16.33-15.67-30.11-29.77-39.24-11.4-7.39-21.92,10.8-10.6,18.13Z"/><path class="cls-1" d="M910.66,780.75a37.36,37.36,0,0,1-37,37c-20.41.3-36.68-17-37-37-.3-20.41,17-36.68,37-37,20.41-.3,36.68,17,37,37,.2,13.53,21.2,13.55,21,0-.36-25.42-16.49-47.07-40.43-55.26-24.31-8.32-50.48,2.34-65.23,22.35-15.06,20.43-12.79,49.51,2.42,69s42.31,26.88,65.31,18.27a58.71,58.71,0,0,0,37.93-54.36C931.86,767.2,910.86,767.22,910.66,780.75Z"/><path class="cls-1" d="M926.57,836.42a48.49,48.49,0,0,1,19.69,25.28c2.29,6.81,2.42,13.62,2.42,20.69v23.12c0,4.36.84,10.7-.86,14-1.85,3.65-4.91,4.26-8.84,4.26H808.15c-4.48,0-7-1.2-9.18-5.41-1.33-2.63-.27-10.23-.27-13.78,0-14.43-1.78-30.27,2.84-44.15,3.23-9.7,10.37-18.17,18.82-23.75,11.24-7.43.74-25.63-10.6-18.13A70.48,70.48,0,0,0,777.7,878v37.69a29.22,29.22,0,0,0,19.52,27.58c4.15,1.41,8.37,1.57,12.68,1.57H940.21a29.39,29.39,0,0,0,24.34-12.51c4.68-6.66,5.13-14.13,5.13-21.91V887.26c0-10.07,0-19.9-2.73-29.73-4.57-16.33-15.68-30.11-29.78-39.24-11.4-7.39-21.92,10.8-10.6,18.13Z"/><path class="cls-1" d="M149.34,575.44H872.72c13.54,0,13.54-21,0-21H149.33c-13.54,0-13.54,21,0,21Z"/><path class="cls-1" d="M500.53,471.83V651.06c0,13.54,21,13.54,21,0V471.83c0-13.54-21-13.54-21,0Z"/><path class="cls-1" d="M862.22,564.4v86.66c0,13.54,21,13.54,21,0V564.4c0-13.54-21-13.54-21,0Z"/><path class="cls-1" d="M138.84,564.94v86.12c0,13.54,21,13.54,21,0V564.94c0-13.54-21-13.54-21,0Z"/><rect class="cls-2" width="1024" height="1024"/></g></g></svg>