<svg xmlns="http://www.w3.org/2000/svg" viewBox="0 0 100 100" fill="#000" stroke="#000" stroke-width="2"><path d="M35.3 41.1h41.5c2.5-2.2 1-5-1.2-5H34.1c-2.5 2.3-1 5 1.2 5zM35.3 21.2c-2.2 0-3.7 2.8-1.2 5h25.3c0-.3-.1-.6-.1-.9v-4.1h-24z"/><path d="M28 45.1V11.6h36.6v18.3h18.3v13.7h4.6V25.3L69.1 7H23.4v41.5c1.2-1.4 2.8-2.5 4.6-3.4zm41.1-31.6L81 25.3H69.1V13.5z"/><path d="M89.3 47.4H34.5c-4.2 0-8.5 2.7-9.8 6.1L12.6 86.9c-.2.5-1.1.8-1.8.4-.4-.4-.8-.8-1-1.4 0-.1-.1-.2-.1-.4 0-.4-.1-.7-.2-.9V29c0-2.1 1.9-3.8 4.1-3.8h4.6c2.3-2 .9-4.6-1.1-4.6h-3.5c-4.8 0-8.7 3.7-8.7 8.4v55.5c0 4.6 3.9 8.4 8.7 8.4h59.3c1.3 0 2.5-.3 3.6-.8.9-.4 1.8-.8 2.6-1.4.1-.1.2-.1.3-.2.2-.2.4-.3.6-.5.2-.2.4-.4.7-.6.1-.1.2-.3.4-.4.2-.2.4-.5.6-.8.1-.1.1-.2.2-.3.2-.3.4-.7.5-1.1l12.2-33.4c1.3-3.3-1.1-6-5.3-6zM15.9 92.7s.1 0 0 0h-.1.1zm1.6.2h-.4.4z"/></svg>
