<svg xmlns="http://www.w3.org/2000/svg" viewBox="0 0 100 100" fill="#000"><path d="M97 37.5l-4.9 1.6c-3.3-10.2-9.9-18.5-18.5-24l-9.2 6c8.6 4 15.4 11.5 18.4 21l-.5.1-4.4 1.4c-.6.2-.8 1-.3 1.4L92 56.5c.5.4 1.2.2 1.3-.4l4.8-17.6c.1-.6-.5-1.2-1.1-1zM88.7 60.6l-4.1-3.3c-1.1 9.2-5.9 17.9-13.7 23.8l-.3-.4-2.8-3.7c-.4-.5-1.2-.4-1.4.2l-6.2 17.1c-.2.6.2 1.1.8 1.1l18.2-1.3c.7 0 1-.8.6-1.3l-3.1-4.1c8.3-6.3 13.9-15 16.4-24.6l-4.4-3.5zM29.7 81.7l.3-.4 2.7-3.8c.4-.5 0-1.3-.6-1.3l-18.2-.7c-.6 0-1 .6-.8 1.1l6.8 16.9c.2.6 1.1.7 1.4.2l2.9-4.2c8.8 6.2 19.1 8.8 29.3 8l3.7-10.3c-9.4 2.1-19.3.3-27.5-5.5zM16.5 41.8l.5.2 4.4 1.5c.6.2 1.2-.4 1.1-1L18 24.8c-.1-.6-.8-.8-1.3-.4L2.2 35.7c-.5.4-.4 1.2.2 1.4l4.8 1.6c-3.6 10.5-3 21.7 1 31.4l10.9.4c-4.7-8.5-5.9-18.9-2.6-28.7zM66.3 12.3L51 2.4c-.5-.4-1.3 0-1.3.7v5.1c-10.6 0-20.4 3.7-28.2 10l2.7 10.6c6.5-6.9 15.6-11 25.5-11v5.1c0 .7.7 1 1.3.7l15.3-9.9c.5-.3.5-1.1 0-1.4z"/><circle cx="38.3" cy="53" r="4"/><circle cx="49.7" cy="53" r="4"/><circle cx="61.1" cy="53" r="4"/></svg>
