<?xml version="1.0" encoding="utf-8"?>
<!-- Generator: Adobe Illustrator 22.1.0, SVG Export Plug-In . SVG Version: 6.00 Build 0)  -->
<svg version="1.1" id="Layer_1" xmlns="http://www.w3.org/2000/svg" xmlns:xlink="http://www.w3.org/1999/xlink" x="0px" y="0px"
	 viewBox="0 0 100 100" style="enable-background:new 0 0 100 100;" xml:space="preserve">
<style type="text/css">
	.st0{stroke:#000000;stroke-width:2;stroke-miterlimit:10;}
</style>
<g>
	<path class="st0" d="M35.3,41.1l41.5,0c2.5-2.2,1-5-1.2-5l-41.5,0C31.6,38.4,33.1,41.1,35.3,41.1z"/>
	<path class="st0" d="M35.3,21.2c-2.2,0-3.7,2.8-1.2,5l25.3,0c0-0.3-0.1-0.6-0.1-0.9v-4.1L35.3,21.2L35.3,21.2z"/>
	<path class="st0" d="M28,45.1V11.6h36.6v18.3h18.3v13.7h4.6V28.3v-0.6v-2.4L69.1,7H23.4c0,0,0,0,0,0v41.5
		C24.6,47.1,26.2,46,28,45.1z M69.1,13.5L81,25.3H69.1V13.5z"/>
	<path class="st0" d="M89.3,47.4H34.5c-4.2,0-8.5,2.7-9.8,6.1L12.6,86.9c-0.2,0.5-1.1,0.8-1.8,0.4c-0.4-0.4-0.8-0.8-1-1.4
		c0-0.1-0.1-0.2-0.1-0.4c0-0.4-0.1-0.7-0.2-0.9l0-55.6c0-2.1,1.9-3.8,4.1-3.8h4.6c2.3-2,0.9-4.6-1.1-4.6h-3.5
		c-4.8,0-8.7,3.7-8.7,8.4v55.5c0,4.6,3.9,8.4,8.7,8.4h4.2h54.8h0.3c1.3,0,2.5-0.3,3.6-0.8c0,0,0,0,0,0c0.9-0.4,1.8-0.8,2.6-1.4
		c0.1-0.1,0.2-0.1,0.3-0.2c0.2-0.2,0.4-0.3,0.6-0.5c0.2-0.2,0.4-0.4,0.7-0.6c0.1-0.1,0.2-0.3,0.4-0.4c0.2-0.2,0.4-0.5,0.6-0.8
		c0.1-0.1,0.1-0.2,0.2-0.3c0.2-0.3,0.4-0.7,0.5-1.1l12.2-33.4C95.9,50.1,93.5,47.4,89.3,47.4z M15.9,92.7
		C15.9,92.7,16,92.7,15.9,92.7c0,0-0.1,0-0.1,0C15.8,92.7,15.9,92.7,15.9,92.7z M17.5,92.9c-0.1,0-0.2,0-0.4,0c0.1,0,0.2,0,0.3,0
		C17.5,92.9,17.5,92.9,17.5,92.9z"/>
</g>
</svg>
