<svg xmlns="http://www.w3.org/2000/svg" viewBox="0 0 100 100" fill="#333"><path d="M29 11C17.978 11 9 20.006 9 31.023c0 8.928 5.9 16.499 14 19.055v10.933h-2.062c-1.256.053-2.146.745-3.032 1.406-.25-.807-1.061-1.404-1.906-1.406H9.813c-.984.093-1.817 1.012-1.813 2V87c0 1.047.953 2 2 2h6c.774.01 1.53-.48 1.844-1.187.418.246.835.463 1.25.656.548.254.985.53 1.906.53h14.844c.2 0 .402-.032.594-.093 3.128-.944 4.137-4.455 2.937-7.341.923-.84 1.623-1.818 1.75-2.967.108-.984-.086-1.955-.469-2.843 1.14-.773 2.045-1.75 2.313-2.968.26-1.182-.036-2.257-.531-3.28.898-.869 1.562-1.911 1.562-3.123 0-2.005-1.255-3.803-3.125-5.06a2.014 2.014 0 0 0-1.094-.313H35V50.078c8.1-2.556 14-10.127 14-19.055C49 20.006 40.022 11 29 11zm42 0c-11.022 0-20 9.006-20 20.023 0 8.928 5.9 16.499 14 19.055v10.933h-4.969a2.01 2.01 0 0 0-.906.312C57.255 62.582 56 64.38 56 66.383c0 1.213.664 2.256 1.563 3.125-.496 1.022-.792 2.097-.532 3.28.269 1.218 1.173 2.194 2.313 2.967-.383.888-.577 1.86-.469 2.843.127 1.149.827 2.127 1.75 2.967-1.2 2.886-.191 6.397 2.938 7.34.191.062.392.094.593.095H79c.92 0 1.358-.277 1.906-.531.415-.193.832-.41 1.25-.656A2.049 2.049 0 0 0 84 89h6c1.047 0 2-.952 2-2V63.01c0-1.046-.953-1.999-2-1.999h-6.187a2.05 2.05 0 0 0-1.75 1.406c-.902-.754-2.05-1.394-3-1.406H77V50.078c8.1-2.556 14-10.127 14-19.055C91 20.006 82.022 11 71 11zm-42 4.03c8.86 0 16 7.137 16 15.993 0 8.857-7.14 15.963-16 15.963S13 39.88 13 31.023c0-8.856 7.14-15.993 16-15.993zm42 0c8.86 0 16 7.137 16 15.993 0 8.857-7.14 15.963-16 15.963S55 39.88 55 31.023c0-8.856 7.14-15.993 16-15.993zm8.031 7.622L68.344 34.24l-5.531-4.748c-.794-.687-2.141-.59-2.828.203-.687.793-.59 2.14.203 2.827l7 5.997c.776.673 2.085.6 2.78-.156l12-12.995c.894-1.14.564-2.265-.315-3.015-.899-.628-1.79-.394-2.622.298zm-45.781 1.28L29 28.18l-4.25-4.248c-1.015-.771-1.886-.707-2.71-.129-.992.913-.781 2.181-.102 2.972l4.25 4.248-4.25 4.217c-.77.73-.79 2.102-.045 2.855.746.754 2.118.748 2.857-.013L29 33.834l4.25 4.248c.739.76 2.111.767 2.857.013.746-.753.724-2.125-.045-2.855l-4.25-4.217 4.25-4.248c.8-1.067.722-1.998-.049-2.969-1.045-.76-1.711-.524-2.763.126zM12 65.009h2v19.992h-2zm9.188 0H39.03c1.096 1.043 1.022 1.429.313 2h-4.531c-1.048.049-1.956 1.046-1.907 2.093.049 1.047 1.047 1.954 2.094 1.905h3.781c.662 1.288-.565 1.79-1.281 2h-3.687c-1.048.048-1.956 1.045-1.907 2.092.049 1.047 1.047 1.955 2.094 1.906h2.844c.584 1.102.1 1.522-.469 1.999h-3.562c-1.048.049-1.956 1.046-1.907 2.093.049 1.047 1.047 1.954 2.094 1.905h2.781c.435.886.07 1.78-.468 2H21c-.982-.607-2.096-1.275-3-1.937V67.82c1.075-.98 2.128-2.056 3.188-2.812zm39.78 0h17.845c1.223.763 2.306 1.93 3.187 2.812v15.243c-.985.669-1.973 1.336-3 1.937H64.687c-.538-.219-.903-1.113-.468-2H67c1.057.016 2.028-.942 2.028-1.998s-.971-2.014-2.028-2h-3.375c-1.054-.54-.742-1.176-.469-1.999H66c1.057.015 2.028-.942 2.028-1.999 0-1.056-.971-2.014-2.028-1.999h-3.5c-1.42-.404-1.676-.93-1.281-2H65c1.057.016 2.028-.942 2.028-1.998 0-1.057-.971-2.014-2.028-2h-4.344c-1.199-.548-.244-1.503.313-1.999zm25.032 0h2v19.992h-2z"/></svg>
