<svg xmlns="http://www.w3.org/2000/svg" xmlns:xlink="http://www.w3.org/1999/xlink" version="1.1" x="0px" y="0px" viewBox="0 0 100 100" style="enable-background:new 0 0 100 100;" xml:space="preserve"><g><g><path d="M86.8,20.9h-8.7l0-15.4L62.4,20.9h-31c-4.4,0-7.9,3.6-7.9,7.9v2.7H13.2c-4.4,0-7.9,3.6-7.9,7.9v32.2    c0,4.4,3.6,7.9,7.9,7.9h8.7l0,15.4l15.8-15.4h31c4.4,0,7.9-3.6,7.9-7.9V69h10.3c2.2,0,4.2-0.9,5.6-2.3c0.2-0.2,0.4-0.4,0.5-0.6    c1.1-1.4,1.8-3.1,1.8-5V28.8C94.8,24.4,91.2,20.9,86.8,20.9z M91.8,61.1c0,1-0.3,2-0.8,2.8c-0.9,1.3-2.4,2.2-4.1,2.2H76.6v0H31.4    c-2.7,0-4.9-2.2-4.9-4.9V31.5v-2.7c0-2.7,2.2-4.9,4.9-4.9h31h1.2l0.9-0.9l10.7-10.4l0,8.3v0v3h3h8.7c2.7,0,4.9,2.2,4.9,4.9V61.1z"></path><path d="M58,31.4c-2.3,0-4.2,0.6-5.7,1.8c-1.2,1-1.9,2.3-2.1,4c-0.1,0.5,0.4,1,0.9,1h2.5c0.4,0,0.8-0.3,0.9-0.8    c0.1-0.7,0.4-1.2,0.9-1.6C56.1,35.3,57,35,58,35c1.2,0,2.1,0.3,2.7,0.9c0.6,0.6,0.9,1.5,0.9,2.7c0,1-0.3,1.9-0.8,2.7    c-0.5,0.8-1.3,1.7-2.2,2.6c-1.3,1.1-2.2,2-2.5,2.7c-0.3,0.6-0.5,1.5-0.5,2.7c0,0.5,0.4,1,0.9,1h2.5c0.5,0,0.9-0.4,0.9-0.9    c0-0.6,0.1-1.1,0.2-1.5c0.2-0.5,0.6-1.1,1.3-1.7c1.3-1.1,2.4-2.2,3.3-3.5c0.9-1.2,1.3-2.7,1.3-4.3c0-2.3-0.7-4.1-2.1-5.3    C62.5,32,60.5,31.4,58,31.4z"></path><circle cx="57.6" cy="56.3" r="2.4"></circle></g></g></svg>