<svg width="48" height="50" xmlns="http://www.w3.org/2000/svg">

 <g>
  <title>background</title>
  <rect fill="none" id="canvas_background" height="52" width="50" y="-1" x="-1"/>
 </g>
 <g>
  <title>Layer 1</title>
  <g id="svg_1">
   <path fill="#505050" id="svg_2" d="m31.5,44.5c-0.256001,0 -0.511999,-0.098 -0.707001,-0.292999c-0.390999,-0.390999 -0.390999,-1.023003 0,-1.414001l12,-12c0.390999,-0.390999 1.023003,-0.390999 1.414001,0s0.390999,1.023001 0,1.414001l-12,12c-0.195,0.195 -0.451,0.292999 -0.707001,0.292999z"/>
   <path fill="#505050" id="svg_3" d="m37.5,47.5c-2.672001,0 -5.183998,-1.040001 -7.072001,-2.929001c-3.897999,-3.897999 -3.897999,-10.242001 0,-14.141998c1.889002,-1.890001 4.4,-2.93 7.072001,-2.93c2.671001,0 5.183998,1.039999 7.07,2.928999c1.889999,1.890001 2.93,4.4 2.93,7.071001s-1.040001,5.181999 -2.93,7.070999c-1.886002,1.889999 -4.398998,2.93 -7.07,2.93zm0,-18c-2.139,0 -4.146,0.832001 -5.658001,2.343c-3.116999,3.120001 -3.116999,8.194998 0,11.312998c1.512001,1.512001 3.52,2.344002 5.658001,2.344002c2.137001,0 4.146,-0.832001 5.655998,-2.342999c1.512001,-1.511002 2.344002,-3.521 2.344002,-5.657001s-0.832001,-4.146 -2.344002,-5.657c-1.509998,-1.511 -3.518997,-2.343 -5.655998,-2.343z"/>
   <path fill="#505050" id="svg_4" d="m29.5,43.5l-28,0c-0.553,0 -1,-0.448002 -1,-1l0,-3.771c0,-2.920002 1.811,-5.525002 4.611,-6.638c2.533,-1.004 7.375,-4.049 9.465,-9.087999l1.848,0.765999c-2.191,5.290001 -7.066,8.789999 -10.571999,10.182001c-2.036001,0.807999 -3.352001,2.682999 -3.352001,4.778l0,2.771l27,0l0,2z"/>
   <path fill="#505050" id="svg_5" d="m30.499001,31.5c-0.226,0 -0.452,-0.076 -0.639999,-0.232c-2.049002,-1.706999 -4.073,-4.581999 -5.283001,-7.5c-0.212999,-0.51 0.029001,-1.094999 0.541,-1.306999c0.508001,-0.210001 1.094,0.029999 1.307001,0.541c1.094,2.636999 2.9,5.214998 4.716999,6.729c0.424,0.353998 0.481001,0.983999 0.129,1.407999c-0.200001,0.238001 -0.484001,0.361 -0.771,0.361z"/>
   <path fill="#505050" id="svg_6" d="m20.5,26.5c-6.296,0 -11,-7.919001 -11,-15c0,-6.682 4.316,-11 11,-11s11,4.318 11,11c0,7.080999 -4.704,15 -11,15zm0,-24c-4.351999,0 -9,2.364 -9,9c0,5.888 4.016,13 9,13s9,-7.112 9,-13c0,-6.636 -4.648001,-9 -9,-9z"/>
  </g>
 </g>
</svg>