<?xml version="1.0" encoding="UTF-8" standalone="no"?>
<svg
   xmlns:dc="http://purl.org/dc/elements/1.1/"
   xmlns:cc="http://creativecommons.org/ns#"
   xmlns:rdf="http://www.w3.org/1999/02/22-rdf-syntax-ns#"
   xmlns:svg="http://www.w3.org/2000/svg"
   xmlns="http://www.w3.org/2000/svg"
   id="svg4757"
   xml:space="preserve"
   style="enable-background:new 0 0 100 100;"
   viewBox="0 0 100 100"
   y="0px"
   x="0px"
   version="1.1"><metadata
     id="metadata4773"><rdf:RDF><cc:Work
         rdf:about=""><dc:format>image/svg+xml</dc:format><dc:type
           rdf:resource="http://purl.org/dc/dcmitype/StillImage" /><dc:title></dc:title></cc:Work></rdf:RDF></metadata><defs
     id="defs4771" /><g
     transform="translate(0.7644042)"
     id="g4759"><path
       id="path4761"
       d="m 91.430664,56.039032 c -0.0044,-0.238281 -0.0083,-0.447266 -0.0083,-0.62207 l 0,-20.945313 c 0,-2.401367 -1.954101,-4.355467 -4.355957,-4.355467 -0.476318,0 -0.926635,0.09583 -1.355957,0.237732 l 0,-1.772888 c 0,-2.401367 -1.954101,-4.355469 -4.356445,-4.355469 -0.476318,0 -0.926636,0.09583 -1.355957,0.237732 l 0,-0.701599 c 0,-2.402344 -1.954102,-4.356445 -4.355957,-4.356445 -2.288025,0 -4.148804,1.778503 -4.322693,4.022644 -0.438965,-0.149109 -0.901001,-0.24823 -1.389709,-0.24823 -2.401856,0 -4.355957,1.954101 -4.355957,4.356445 l 0,17.989256 c 0,0.717773 -0.295899,1.416016 -0.811524,1.915039 l -0.146118,0.141357 -4.243042,-4.360107 c -1.915039,-1.873047 -5.012695,-1.856445 -6.907715,0.03711 -0.933105,0.933594 -1.443848,2.174805 -1.437988,3.495118 0.0063,1.320312 0.52832,2.55664 1.470215,3.481445 0.0332,0.03223 0.06787,0.06348 0.104004,0.09277 l 1.725585,1.405274 c 1.496582,1.498047 2.035645,3.435547 2.631836,6.000976 1.881287,8.09253 5.559204,11.064515 8.328614,12.131592 l 0,15.008057 c 0,0.828125 0.671386,1.5 1.5,1.5 0.828613,0 1.5,-0.671875 1.5,-1.5 l 0,-14.432434 c 0.304687,-0.0021 0.500854,-0.0249 0.548339,-0.03143 0.820801,-0.112305 1.39502,-0.869141 1.282715,-1.689453 -0.112793,-0.82129 -0.873535,-1.391602 -1.689941,-1.283203 -0.06152,0.0059 -5.97461,0.68457 -8.547852,-10.382813 -0.545898,-2.350586 -1.225586,-5.275391 -3.498535,-7.508789 -0.0332,-0.03223 -0.06836,-0.06348 -0.104492,-0.09277 l -1.720703,-1.401368 c -0.339844,-0.354492 -0.527344,-0.817382 -0.529785,-1.311523 -0.0024,-0.513672 0.196777,-0.99707 0.55957,-1.360352 0.736816,-0.736328 1.942383,-0.743164 2.661621,-0.04004 l 6.857422,7.046875 c 0.579101,0.595703 1.52832,0.606445 2.121094,0.0293 0.59375,-0.578125 0.606933,-1.527344 0.0293,-2.121094 l -0.548157,-0.563293 0.140442,-0.135925 c 1.096191,-1.061524 1.725097,-2.544922 1.725097,-4.070313 l 0,-17.989256 c 0,-0.748047 0.608399,-1.356445 1.355957,-1.356445 0.747559,0 1.355957,0.608398 1.355957,1.356445 l 0,5.474608 0,13.957031 c 0,0.828125 0.671387,1.5 1.5,1.5 0.828614,0 1.5,-0.671875 1.5,-1.5 l 0,-13.957031 0,-5.474608 0,-3.774414 c 0,-0.748047 0.608399,-1.356445 1.356446,-1.356445 0.747558,0 1.355957,0.608398 1.355957,1.356445 l 0,4.819336 0,0.654297 0,17.73242 c 0,0.828125 0.671386,1.5 1.5,1.5 0.828613,0 1.5,-0.671875 1.5,-1.5 l 0,-17.73242 0,-0.654297 c 0,-0.74707 0.608398,-1.355469 1.355957,-1.355469 0.748047,0 1.356445,0.608399 1.356445,1.355469 l 0,5.474607 c 0,0.07141 0.01135,0.139649 0.021,0.208374 -0.0034,0.07025 -0.021,0.136536 -0.021,0.207642 l 0,14.458984 c 0,0.828125 0.671387,1.5 1.5,1.5 0.828613,0 1.5,-0.671875 1.5,-1.5 l 0,-14.458984 c 0,-0.74707 0.608398,-1.355469 1.355957,-1.355469 0.747559,0 1.355957,0.608399 1.355957,1.355469 l 0,20.945313 c 0,0.190429 0.0039,0.417968 0.0088,0.676757 0.04102,2.267579 0.126953,6.987305 -2.376465,9.53711 -1.185058,1.206055 -2.819824,1.792969 -4.998047,1.792969 -0.828613,0 -1.5,0.671875 -1.5,1.5 0,0.828125 0.671387,1.5 1.5,1.5 0.682435,0 1.330445,-0.05335 1.951172,-0.147766 l 0,14.835266 c 0,0.828125 0.671387,1.5 1.5,1.5 0.828614,0 1.5,-0.671875 1.5,-1.5 l 0,-15.77417 c 0.813294,-0.416748 1.5448,-0.950257 2.1875,-1.604737 3.385254,-3.447265 3.283692,-9.016601 3.235352,-11.693359 z" /><path
       id="path4763"
       d="m 71.26416,55.440399 c -0.683105,-0.458008 -1.602051,-0.279297 -2.068359,0.398438 -0.466309,0.677734 -0.293457,1.609375 0.380371,2.082031 0.117676,0.08203 2.879883,2.073242 2.879883,6.677734 0,0.828125 0.671386,1.5 1.5,1.5 0.828613,0 1.5,-0.671875 1.5,-1.5 0,-6.259765 -4.020508,-9.041992 -4.191895,-9.158203 z" /><path
       id="path4765"
       d="m 38.072266,43.248016 -4.217408,4.333924 -0.145385,-0.140564 c -0.516114,-0.5 -0.812012,-1.198243 -0.812012,-1.916016 l 0,-17.989256 c 0,-2.402344 -1.954102,-4.356445 -4.355957,-4.356445 -0.488892,0 -0.951111,0.09912 -1.390198,0.248291 -0.173889,-2.244263 -2.034607,-4.022705 -4.322204,-4.022705 -2.401856,0 -4.355957,1.954101 -4.355957,4.356445 l 0,0.701599 c -0.429322,-0.141907 -0.879639,-0.237732 -1.355957,-0.237732 -2.402344,0 -4.356446,1.954102 -4.356446,4.355469 l 0,1.772888 c -0.429321,-0.141906 -0.879638,-0.237732 -1.355957,-0.237732 -2.4018552,0 -4.3559567,1.9541 -4.3559567,4.355467 l 0,20.945313 c 0,0.174804 -0.00391,0.383789 -0.0083,0.62207 -0.04834,2.676758 -0.1499023,8.246094 3.2353515,11.693359 0.6427,0.65448 1.374207,1.187989 2.1875,1.604737 l 0,15.77417 c 0,0.828125 0.671387,1.5 1.5,1.5 0.828613,0 1.5,-0.671875 1.5,-1.5 l 0,-14.835266 c 0.620728,0.09442 1.268738,0.147766 1.951172,0.147766 0.828613,0 1.5,-0.671875 1.5,-1.5 0,-0.828125 -0.671387,-1.5 -1.5,-1.5 -2.178223,0 -3.812988,-0.586915 -4.998047,-1.792969 -2.5034179,-2.549805 -2.4174804,-7.269531 -2.376465,-9.53711 0.0049,-0.258789 0.0088,-0.486328 0.0088,-0.676757 l 0,-20.945313 c 0,-0.74707 0.608399,-1.355469 1.355957,-1.355469 0.747559,0 1.355957,0.608399 1.355957,1.355469 l 0,14.458985 c 0,0.828125 0.671387,1.5 1.5,1.5 0.828614,0 1.5,-0.671875 1.5,-1.5 l 0,-14.458985 c 0,-0.07111 -0.01764,-0.13739 -0.021,-0.207641 0.0096,-0.06873 0.021,-0.136963 0.021,-0.208374 l 0,-5.474608 c 0,-0.74707 0.608399,-1.355469 1.356446,-1.355469 0.747558,0 1.355957,0.608399 1.355957,1.355469 l 0,0.654297 0,17.73242 c 0,0.828125 0.671386,1.5 1.5,1.5 0.828613,0 1.5,-0.671875 1.5,-1.5 l 0,-17.73242 0,-0.654297 0,-4.819336 c 0,-0.748047 0.608398,-1.356445 1.355957,-1.356445 0.747558,0 1.355957,0.608398 1.355957,1.356445 l 0,3.774414 0,5.474608 0,13.957031 c 0,0.828125 0.671386,1.5 1.5,1.5 0.828613,0 1.5,-0.671875 1.5,-1.5 l 0,-13.957031 0,-5.474608 c 0,-0.748047 0.608398,-1.356445 1.356445,-1.356445 0.747559,0 1.355957,0.608398 1.355957,1.356445 l 0,17.989256 c 0,1.525391 0.628906,3.008789 1.725586,4.071289 l 0.139709,0.135193 -0.547912,0.563049 c -0.577637,0.59375 -0.564453,1.542969 0.0293,2.121094 0.594238,0.577149 1.54248,0.566406 2.121093,-0.0293 l 6.831543,-7.020507 c 0.743653,-0.729493 1.950196,-0.72461 2.687012,0.01367 0.363281,0.363282 0.5625,0.84668 0.560059,1.360352 -0.0024,0.494141 -0.189942,0.957031 -0.529785,1.311523 l -1.720704,1.401368 c -0.03613,0.0293 -0.0708,0.06055 -0.104492,0.09277 -2.271972,2.231445 -2.952636,5.158203 -3.499023,7.508789 -2.525879,10.865235 -8.280762,10.413086 -8.56543,10.38086 -0.812012,-0.101563 -1.55957,0.470703 -1.671875,1.285156 -0.112305,0.820312 0.461914,1.577148 1.282715,1.689453 0.04749,0.0065 0.243652,0.0293 0.54834,0.03143 l 0,14.432434 c 0,0.828125 0.671386,1.5 1.5,1.5 0.828613,0 1.5,-0.671875 1.5,-1.5 l 0,-15.007996 c 2.769409,-1.067016 6.447143,-4.03894 8.328125,-12.131652 0.596679,-2.56543 1.136719,-4.50293 2.632324,-6.000977 l 1.725586,-1.405273 c 0.03613,-0.0293 0.0708,-0.06055 0.104004,-0.09277 0.941894,-0.924805 1.463867,-2.161133 1.470215,-3.481445 0.0059,-1.320313 -0.504883,-2.561524 -1.438477,-3.495117 -1.894043,-1.892579 -4.992187,-1.910157 -6.933105,-0.01074 z" /><path
       id="path4767"
       d="m 28.893555,57.921844 c 0.678711,-0.464843 0.856445,-1.391601 0.395507,-2.076171 -0.461914,-0.686524 -1.394531,-0.866211 -2.082031,-0.405274 -0.171386,0.116211 -4.191894,2.898438 -4.191894,9.158203 0,0.828125 0.671386,1.5 1.5,1.5 0.828613,0 1.5,-0.671875 1.5,-1.5 0,-4.585937 2.739257,-6.579101 2.878418,-6.676758 z" /></g></svg>