<?xml version="1.0" encoding="utf-8"?>
<!-- Generator: Adobe Illustrator 19.2.1, SVG Export Plug-In . SVG Version: 6.00 Build 0)  -->
<svg version="1.1" id="Layer_1" xmlns="http://www.w3.org/2000/svg" xmlns:xlink="http://www.w3.org/1999/xlink" x="0px" y="0px"
	 viewBox="0 0 32 32" style="enable-background:new 0 0 32 32;" xml:space="preserve">
<g>
	<g>
		<path d="M15.8,31.2c-8.4,0-15.2-6.9-15.2-15.3S7.4,0.7,15.8,0.7s15.3,6.8,15.3,15.2S24.2,31.2,15.8,31.2z M15.8,2.2
			C8.2,2.2,2.1,8.3,2.1,15.9s6.1,13.8,13.7,13.8s13.8-6.2,13.8-13.8S23.4,2.2,15.8,2.2z"/>
	</g>
</g>
<g>
	<g>
		<path d="M18.2,23.9l-8-4.1V12l8-4.1V23.9z M11.2,19.2l6.1,3.1V9.4l-6.1,3.1C11.2,12.6,11.2,19.2,11.2,19.2z"/>
	</g>
	<g>
		<path d="M11.2,20H8.6c-1.3,0-2.3-1-2.3-2.3v-3.6c0-1.3,1-2.3,2.3-2.3h2.6V20z M8.6,12.8c-0.8,0-1.4,0.6-1.4,1.4v3.6
			c0,0.8,0.6,1.4,1.4,1.4h1.6v-6.3H8.6z"/>
	</g>
	<g>
		<rect x="18.9" y="15.4" transform="matrix(0.7071 -0.7071 0.7071 0.7071 -4.6578 20.555)" width="7.2" height="0.9"/>
	</g>
	<g>
		<rect x="22" y="12.4" transform="matrix(0.7071 -0.7071 0.7071 0.7071 -4.6888 20.5685)" width="0.9" height="7.2"/>
	</g>
</g>
</svg>
