<?xml version="1.0" encoding="UTF-8" standalone="no"?>
<svg
   xmlns:dc="http://purl.org/dc/elements/1.1/"
   xmlns:cc="http://creativecommons.org/ns#"
   xmlns:rdf="http://www.w3.org/1999/02/22-rdf-syntax-ns#"
   xmlns:svg="http://www.w3.org/2000/svg"
   xmlns="http://www.w3.org/2000/svg"
   xmlns:sodipodi="http://sodipodi.sourceforge.net/DTD/sodipodi-0.dtd"
   xmlns:inkscape="http://www.inkscape.org/namespaces/inkscape"
   version="1.1"
   x="0px"
   y="0px"
   viewBox="0 0 100 100"
   style="enable-background:new 0 0 100 100;"
   xml:space="preserve"
   id="svg4141"
   inkscape:version="0.91+devel+osxmenu r12922"
   sodipodi:docname="za_v2.svg"><metadata
     id="metadata4149"><rdf:RDF><cc:Work
         rdf:about=""><dc:format>image/svg+xml</dc:format><dc:type
           rdf:resource="http://purl.org/dc/dcmitype/StillImage" /><dc:title></dc:title></cc:Work></rdf:RDF></metadata><defs
     id="defs4147" /><sodipodi:namedview
     pagecolor="#ffffff"
     bordercolor="#666666"
     borderopacity="1"
     objecttolerance="10"
     gridtolerance="10"
     guidetolerance="10"
     inkscape:pageopacity="0"
     inkscape:pageshadow="2"
     inkscape:window-width="1440"
     inkscape:window-height="851"
     id="namedview4145"
     showgrid="false"
     inkscape:snap-page="true"
     inkscape:zoom="2.36"
     inkscape:cx="55.508475"
     inkscape:cy="50"
     inkscape:window-x="0"
     inkscape:window-y="23"
     inkscape:window-maximized="0"
     inkscape:current-layer="svg4141" /><path
     d="m 81.75,46.5875 c 0,-3.8 -3.1,-6.8 -6.8,-6.8 l -15.9,0 c -0.8,0 -1.6,0.1 -2.3,0.4 l 0,-1.7 1.6,-1.6 c 0,0 0,0 0,0 2.2,-2.2 3.5,-5.2 3.5,-8.4 0,-3.2 -1.2,-6.2 -3.5,-8.4 -0.9,-0.9 -2.3,-0.9 -3.2,0 l -18.1,18.1 c -1.2,1.2 -2.3,2.5 -3.3,3.9 l -13.2,0 c -1.3,0 -2.3,1 -2.3,2.3 0,1.3 1,2.3 2.3,2.3 l 14.5,0 c 0.8,0 1.5,-0.4 1.9,-1 1,-1.5 2.1,-2.9 3.4,-4.2 l 16.3,-16.3 c 0.5,1 0.8,2.2 0.8,3.3 0,2 -0.8,3.8 -2.2,5.2 0,0 0,0 0,0 l -2.3,2.3 c -0.4,0.4 -0.7,1 -0.7,1.6 l 0,7.9 c 0,4.4 -3.6,7.9 -7.9,7.9 -1.3,0 -2.3,1 -2.3,2.3 0,1.3 1,2.3 2.3,2.3 3,0 5.8,-1.1 8,-2.9 0,0.2 0,0.4 0,0.6 0,1.7 0.7,3.3 1.7,4.5 -1.1,1.2 -1.7,2.8 -1.7,4.5 0,1.7 0.7,3.3 1.7,4.5 -1.1,1.2 -1.7,2.8 -1.7,4.5 0,0.8 0.1,1.5 0.4,2.2 -6.5,-0.6 -12.5,-4.4 -15.8,-10.1 -0.5,-0.8 -1.4,-1.2 -2.3,-1.1 -0.1,0 -0.3,0 -0.4,0 l -13.7,0 c -1.3,0 -2.3,1 -2.3,2.3 0,1.3 1,2.3 2.3,2.3 l 13.1,0 c 4.6,7 12.5,11.3 20.9,11.3 l 13.6,0 c 3.8,0 6.8,-3.1 6.8,-6.8 0,-0.9 -0.2,-1.7 -0.5,-2.5 2.9,-0.8 5,-3.4 5,-6.6 0,-1.2 -0.3,-2.4 -0.9,-3.3 1.9,-1.2 3.2,-3.3 3.2,-5.7 0,-1.7 -0.7,-3.3 -1.7,-4.5 1,-1.3 1.7,-2.9 1.7,-4.6 z m -6.8,-2.3 c 1.3,0 2.3,1 2.3,2.3 0,1.2 -1,2.3 -2.3,2.3 l -15.9,0 c -1.3,0 -2.3,-1 -2.3,-2.3 0,-1.3 1,-2.3 2.3,-2.3 l 15.9,0 z m 2.3,11.4 c 0,1.3 -1,2.3 -2.3,2.3 l -15.9,0 c -1.3,0 -2.3,-1 -2.3,-2.3 0,-1.2 1,-2.3 2.3,-2.3 l 15.9,0 c 1.2,0 2.3,1 2.3,2.3 z m -9.1,20.4 -9.1,0 c -1.3,0 -2.3,-1 -2.3,-2.3 0,-1.3 1,-2.3 2.3,-2.3 l 9.1,0 c 1.3,0 2.3,1 2.3,2.3 0,1.2 -1.1,2.3 -2.3,2.3 z m 4.5,-9.1 -13.6,0 c -1.3,0 -2.3,-1 -2.3,-2.3 0,-1.3 1,-2.3 2.3,-2.3 l 13.6,0 c 1.3,0 2.3,1 2.3,2.3 0,1.3 -1,2.3 -2.3,2.3 z"
     id="path4143"
     inkscape:connector-curvature="0" /></svg>