<?xml version="1.0" encoding="UTF-8" standalone="no"?>
<svg
   xmlns:dc="http://purl.org/dc/elements/1.1/"
   xmlns:cc="http://creativecommons.org/ns#"
   xmlns:rdf="http://www.w3.org/1999/02/22-rdf-syntax-ns#"
   xmlns:svg="http://www.w3.org/2000/svg"
   xmlns="http://www.w3.org/2000/svg"
   height="98.050232"
   width="98"
   id="svg18"
   version="1.1"
   y="0px"
   x="0px"
   viewBox="0 0 98 98.050232"
   data-name="Layer 1">
  <metadata
     id="metadata24">
    <rdf:RDF>
      <cc:Work
         rdf:about="">
        <dc:format>image/svg+xml</dc:format>
        <dc:type
           rdf:resource="http://purl.org/dc/dcmitype/StillImage" />
        <dc:title>Artboard 1</dc:title>
      </cc:Work>
    </rdf:RDF>
  </metadata>
  <defs
     id="defs22" />
  <title
     id="title2">Artboard 1</title>
  <path
     style="stroke-width:0.99974382"
     id="path4"
     d="M 94.22,20.040216 H 87.55 V 11.60454 A 2.5,2.4987193 0 0 0 85.05,9.10582 H 76.82 V 2.5092011 A 2.5,2.4987193 0 0 0 74.32,0.05046142 H 68.87 A 22.53,22.518458 0 0 0 47.34,15.612485 29.53,29.514872 0 0 0 28.86,9.10582 H 13 a 2.5,2.4987193 0 0 0 -2.5,2.49872 v 8.435676 H 3.78 A 3.78,3.7780635 0 0 0 0,23.818279 v 61.308576 a 3.78,3.7780635 0 0 0 3.78,3.778064 H 28.6 a 14.88,14.872377 0 0 1 11.09,4.997438 l 0.35,0.379805 a 12.52,12.513586 0 0 0 1.46,1.279345 c 0.21,0.149923 0.41,0.299846 0.61,0.429779 a 12.45,12.443622 0 0 0 1.42,0.809585 l 0.26,0.129934 c 0.27,0.129933 0.53,0.239877 0.8,0.339826 a 10.22,10.214764 0 0 0 1.06,0.339825 c 0.25,0.06996 0.57,0.159918 0.94,0.229883 a 12.07,12.063817 0 0 0 1.64,0.209892 L 49,98.000257 a 12.39,12.383653 0 0 0 2.45,-0.249872 c 0.32,-0.05997 0.59,-0.129934 0.74,-0.179908 a 11,10.994365 0 0 0 1.22,-0.379805 h 0.12 l 0.61,-0.269862 0.23,-0.109944 v 0 a 12.45,12.443622 0 0 0 1.54,-0.879549 l 0.51,-0.359815 A 12.59,12.58355 0 0 0 58,94.172219 l 0.13,-0.129934 0.21,-0.229882 a 14.59,14.582526 0 0 1 11,-4.907484 H 94.22 A 3.78,3.7780635 0 0 0 98,85.126855 V 23.818279 A 3.78,3.7780635 0 0 0 94.22,20.040216 Z M 82.54,14.04329 V 72.953095 H 69.14 A 29.53,29.514872 0 0 0 52.36,78.19041 17.56,17.551004 0 0 1 68.87,66.866215 h 5.45 a 2.5,2.4987193 0 0 0 2.5,-2.49872 V 14.103259 Z M 68.87,5.0478999 h 2.95 V 61.868776 H 68.87 A 22.74,22.72835 0 0 0 51.5,69.864678 V 19.730375 A 14.32,14.312664 0 0 1 51.92,17.731399 17.51,17.50103 0 0 1 68.87,5.0478999 Z M 15.45,14.103259 H 28.86 A 24.52,24.507438 0 0 1 46.5,21.599417 V 78.820088 A 29.53,29.514872 0 0 0 28.86,72.96309 H 15.45 Z M 93,83.90748 H 69.4 a 19.59,19.579964 0 0 0 -14.82,6.626603 l -0.08,0.08995 1.83,1.709124 -1.9,-1.629165 a 7.67,7.6660707 0 0 1 -1,0.849565 l -0.3,0.209892 a 7.54,7.5361373 0 0 1 -0.9,0.519734 h -0.06 l -0.15,0.06996 -0.4,0.169913 a 6.91,6.90646 0 0 1 -0.75,0.229882 l -0.42,0.09995 A 7.44,7.4361885 0 0 1 49,93.002818 h -0.44 a 7.27,7.2662756 0 0 1 -1,-0.129933 c -0.2,0 -0.38,-0.08995 -0.58,-0.139929 a 5.92,5.9169672 0 0 1 -0.62,-0.199897 l -0.44,-0.189903 -0.18,-0.08995 a 7.66,7.6560758 0 0 1 -0.87,-0.499744 l -0.35,-0.249871 a 7.61,7.6061014 0 0 1 -0.9,-0.789596 L 43.43,90.514094 A 19.89,19.87981 0 0 0 28.6,83.90748 H 5 V 25.037654 h 5.45 v 50.41416 a 2.5,2.4987193 0 0 0 2.5,2.498719 h 15.91 a 24.52,24.507438 0 0 1 18.27,8.17581 2.5,2.4987193 0 0 0 3.73,0 24.52,24.507438 0 0 1 18.27,-8.17581 H 85 a 2.5,2.4987193 0 0 0 2.5,-2.498719 V 25.037654 H 93 Z" />
  <path
     id="path6"
     d="m 23.11,29.270231 h 4.12 a 23.74,23.74 0 0 1 10.51,2.45 2.5088842,2.5088842 0 0 0 2.26,-4.48 28.72,28.72 0 0 0 -12.72,-3 h -4.17 a 2.5,2.5 0 0 0 0,5 z" />
  <path
     id="path8"
     d="m 23.11,40.260231 h 4.12 a 23.76,23.76 0 0 1 10.51,2.45 2.5088842,2.5088842 0 0 0 2.26,-4.48 28.75,28.75 0 0 0 -12.72,-3 h -4.17 a 2.5,2.5 0 0 0 0,5 z" />
  <path
     id="path10"
     d="m 23.11,51.250231 h 4.12 a 23.74,23.74 0 0 1 10.51,2.45 2.5088842,2.5088842 0 0 0 2.26,-4.48 28.72,28.72 0 0 0 -12.72,-3 h -4.17 a 2.5,2.5 0 0 0 0,5 z" />
  <path
     id="path12"
     d="m 37.74,64.690231 a 2.5088842,2.5088842 0 1 0 2.26,-4.48 28.72,28.72 0 0 0 -12.72,-3 h -4.17 a 2.5,2.5 0 0 0 0,5 h 4.12 a 23.74,23.74 0 0 1 10.51,2.45 z" />
</svg>
