<svg fill="#227497" xmlns="http://www.w3.org/2000/svg" xmlns:xlink="http://www.w3.org/1999/xlink" version="1.1" x="0px" y="0px" viewBox="0 0 100 100" enable-background="new 0 0 100 100" xml:space="preserve"><path d="M82.301,35.467C82.3,17.656,67.81,3.166,50.001,3.166c-17.812,0-32.302,14.49-32.302,32.301  c0,16.11,11.856,29.502,27.301,31.912v8.171h-9.189v10H45v8.284h10V85.55h9.189v-10H55v-8.171  C70.444,64.969,82.301,51.577,82.301,35.467z M27.699,35.467c0-12.297,10.005-22.301,22.302-22.301  c12.295,0,22.299,10.004,22.3,22.301c0,12.297-10.004,22.301-22.301,22.301S27.699,47.764,27.699,35.467z"></path></svg>