<svg xmlns="http://www.w3.org/2000/svg" viewBox="0 0 83.01 67.89"><defs><style>.cls-1{fill:#525252;stroke:#525252;stroke-miterlimit:10;}</style></defs><title>primerjalnik</title><g id="Layer_2" data-name="Layer 2"><g id="Layer_1-2" data-name="Layer 1"><path class="cls-1" d="M75.81,24.2V29h-4.4V39.7h2V31h2.4V62.1l3.4,4.9,3.3-4.9V24.2Zm2,2h2.8V29h-2.8Zm2.8,4.8V53.4h-2.8V31Zm-2.8,29V55.4h2.8V60Zm.4,2h2.1l-1.1,1.5Z"/><polygon class="cls-1" points="41.8 12 41.8 14 65.41 14 65.41 64.2 23.8 64.2 23.8 33.1 21.8 33.1 21.8 66.2 67.41 66.2 67.41 12 41.8 12"/><rect class="cls-1" x="32.31" y="38.6" width="1" height="1"/><rect class="cls-1" x="47.71" y="38.6" width="2.1" height="1"/><rect class="cls-1" x="51.81" y="38.6" width="2.1" height="1"/><rect class="cls-1" x="43.61" y="38.6" width="2.1" height="1"/><rect class="cls-1" x="39.51" y="38.6" width="2" height="1"/><rect class="cls-1" x="35.31" y="38.6" width="2.1" height="1"/><rect class="cls-1" x="56.01" y="38.6" width="1" height="1"/><rect class="cls-1" x="33.51" y="31.4" width="1" height="1"/><rect class="cls-1" x="48.11" y="31.4" width="2" height="1"/><rect class="cls-1" x="36.41" y="31.4" width="2" height="1"/><rect class="cls-1" x="44.21" y="31.4" width="2" height="1"/><rect class="cls-1" x="52.11" y="31.4" width="2" height="1"/><rect class="cls-1" x="40.31" y="31.4" width="2" height="1"/><rect class="cls-1" x="56.01" y="31.4" width="1" height="1"/><rect class="cls-1" x="40.81" y="24.2" width="1" height="1"/><rect class="cls-1" x="52.01" y="24.2" width="2" height="1"/><rect class="cls-1" x="43.81" y="24.2" width="2" height="1"/><rect class="cls-1" x="47.91" y="24.2" width="2" height="1"/><rect class="cls-1" x="56.01" y="24.2" width="1" height="1"/><rect class="cls-1" x="32.31" y="53" width="1" height="1"/><rect class="cls-1" x="47.71" y="53" width="2.1" height="1"/><rect class="cls-1" x="35.31" y="53" width="2.1" height="1"/><rect class="cls-1" x="39.51" y="53" width="2" height="1"/><rect class="cls-1" x="43.61" y="53" width="2.1" height="1"/><rect class="cls-1" x="51.81" y="53" width="2.1" height="1"/><rect class="cls-1" x="56.01" y="53" width="1" height="1"/><rect class="cls-1" x="32.31" y="45.8" width="1" height="1"/><rect class="cls-1" x="39.51" y="45.8" width="2" height="1"/><rect class="cls-1" x="43.61" y="45.8" width="2.1" height="1"/><rect class="cls-1" x="51.81" y="45.8" width="2.1" height="1"/><rect class="cls-1" x="35.31" y="45.8" width="2.1" height="1"/><rect class="cls-1" x="47.71" y="45.8" width="2.1" height="1"/><rect class="cls-1" x="56.01" y="45.8" width="1" height="1"/><path class="cls-1" d="M6.31,43.6a5.86,5.86,0,0,1-3.9-1.9C.31,39.6.51,37.8.51,37.6v-.3l11.2-11.2a17.31,17.31,0,0,1-2.3-8.6,17,17,0,1,1,17,17A17.84,17.84,0,0,1,18,32.3L6.81,43.6h-.5Zm-3.8-5.5a5.34,5.34,0,0,0,1.3,2.2A4.36,4.36,0,0,0,6,41.6l11.7-11.9.7.4a15,15,0,0,0,23-12.7,15,15,0,0,0-30,0,14.16,14.16,0,0,0,2.5,8.2l.4.7Z"/><path class="cls-1" d="M26.41,28A10.6,10.6,0,1,1,37,17.4,10.54,10.54,0,0,1,26.41,28Zm0-19.2A8.6,8.6,0,1,0,35,17.4,8.66,8.66,0,0,0,26.41,8.8Z"/></g></g></svg>